%TF.GenerationSoftware,Altium Limited,Altium Designer,24.6.1 (21)*%
G04 Layer_Color=32768*
%FSLAX45Y45*%
%MOMM*%
%TF.SameCoordinates,AC2494EB-BB6E-468D-9238-523390DC31CD*%
%TF.FilePolarity,Positive*%
%TF.FileFunction,Other,Mechanical_15*%
%TF.Part,Single*%
G01*
G75*
%TA.AperFunction,NonConductor*%
%ADD22C,0.25400*%
%ADD33C,0.10000*%
%ADD34C,0.05000*%
%ADD35C,0.15240*%
D22*
Y1778000D02*
X152400Y1828800D01*
X0Y1778000D02*
X152400Y1727200D01*
X1117600D02*
X1270000Y1778000D01*
X1117600Y1828800D02*
X1270000Y1778000D01*
X0D02*
X223627D01*
X965093D02*
X1270000D01*
X0Y1307900D02*
Y1803400D01*
X1270000Y1307900D02*
Y1803400D01*
X1549400Y1270000D02*
X1600200Y1117600D01*
X1498600D02*
X1549400Y1270000D01*
X1498600Y152400D02*
X1549400Y0D01*
X1600200Y152400D01*
X1549400Y965093D02*
Y1270000D01*
Y0D02*
Y223627D01*
X1307900Y1270000D02*
X1574800D01*
X1270000Y0D02*
X1574800D01*
D33*
X820000Y972500D02*
Y1067500D01*
X772500Y1020000D02*
X867500D01*
X412500D02*
X507500D01*
X460000Y972500D02*
Y1067500D01*
D34*
X685000Y1095000D02*
X955000D01*
X685000Y945000D02*
X955000D01*
X685000D02*
Y1095000D01*
X955000Y945000D02*
Y1095000D01*
X170500Y340000D02*
Y930000D01*
Y340000D02*
X1104500D01*
Y930000D01*
X170500D02*
X1104500D01*
X325000Y945000D02*
Y1095000D01*
X595000Y945000D02*
Y1095000D01*
X325000D02*
X595000D01*
X325000Y945000D02*
X595000D01*
D35*
X264267Y1686585D02*
X315050D01*
X289659D01*
Y1838935D01*
X264267Y1813543D01*
X492793Y1686585D02*
X391226D01*
X492793Y1788152D01*
Y1813543D01*
X467401Y1838935D01*
X416617D01*
X391226Y1813543D01*
X543576Y1686585D02*
Y1711977D01*
X568968D01*
Y1686585D01*
X543576D01*
X670535Y1838935D02*
X772102D01*
Y1813543D01*
X670535Y1711977D01*
Y1686585D01*
X822886Y1813543D02*
X848278Y1838935D01*
X899061D01*
X924453Y1813543D01*
Y1711977D01*
X899061Y1686585D01*
X848278D01*
X822886Y1711977D01*
Y1813543D01*
X1640815Y264267D02*
Y315050D01*
Y289659D01*
X1488465D01*
X1513857Y264267D01*
X1640815Y492793D02*
Y391226D01*
X1539248Y492793D01*
X1513857D01*
X1488465Y467401D01*
Y416617D01*
X1513857Y391226D01*
X1640815Y543576D02*
X1615423D01*
Y568968D01*
X1640815D01*
Y543576D01*
X1488465Y670535D02*
Y772102D01*
X1513857D01*
X1615423Y670535D01*
X1640815D01*
X1513857Y822886D02*
X1488465Y848278D01*
Y899061D01*
X1513857Y924453D01*
X1615423D01*
X1640815Y899061D01*
Y848278D01*
X1615423Y822886D01*
X1513857D01*
%TF.MD5,088dacddab87882d29b8b96f332982a2*%
M02*
