%TF.GenerationSoftware,Altium Limited,Altium Designer,24.6.1 (21)*%
G04 Layer_Color=2752767*
%FSLAX45Y45*%
%MOMM*%
%TF.SameCoordinates,AC2494EB-BB6E-468D-9238-523390DC31CD*%
%TF.FilePolarity,Positive*%
%TF.FileFunction,Drawing*%
%TF.Part,Single*%
G01*
G75*
%TA.AperFunction,NonConductor*%
%ADD50C,0.12700*%
%ADD51C,0.16933*%
D50*
X762000Y-50800D02*
X787400Y-25400D01*
X812800D01*
X787400Y0D01*
X812800Y25400D01*
X787400D01*
X762000Y50800D01*
X736600Y25400D01*
X711200D01*
X736600Y0D01*
X711200Y-25400D01*
X736600D01*
X762000Y-50800D01*
X1016000D02*
X1041400Y-25400D01*
X1066800D01*
X1041400Y0D01*
X1066800Y25400D01*
X1041400D01*
X1016000Y50800D01*
X990600Y25400D01*
X965200D01*
X990600Y0D01*
X965200Y-25400D01*
X990600D01*
X1016000Y-50800D01*
X254000D02*
X279400Y-25400D01*
X304800D01*
X279400Y0D01*
X304800Y25400D01*
X279400D01*
X254000Y50800D01*
X228600Y25400D01*
X203200D01*
X228600Y0D01*
X203200Y-25400D01*
X228600D01*
X254000Y-50800D01*
X508000D02*
X533400Y-25400D01*
X558800D01*
X533400Y0D01*
X558800Y25400D01*
X533400D01*
X508000Y50800D01*
X482600Y25400D01*
X457200D01*
X482600Y0D01*
X457200Y-25400D01*
X482600D01*
X508000Y-50800D01*
X254000Y1219200D02*
X279400Y1244600D01*
X304800D01*
X279400Y1270000D01*
X304800Y1295400D01*
X279400D01*
X254000Y1320800D01*
X228600Y1295400D01*
X203200D01*
X228600Y1270000D01*
X203200Y1244600D01*
X228600D01*
X254000Y1219200D01*
X508000D02*
X533400Y1244600D01*
X558800D01*
X533400Y1270000D01*
X558800Y1295400D01*
X533400D01*
X508000Y1320800D01*
X482600Y1295400D01*
X457200D01*
X482600Y1270000D01*
X457200Y1244600D01*
X482600D01*
X508000Y1219200D01*
X762000D02*
X787400Y1244600D01*
X812800D01*
X787400Y1270000D01*
X812800Y1295400D01*
X787400D01*
X762000Y1320800D01*
X736600Y1295400D01*
X711200D01*
X736600Y1270000D01*
X711200Y1244600D01*
X736600D01*
X762000Y1219200D01*
X1016000D02*
X1041400Y1244600D01*
X1066800D01*
X1041400Y1270000D01*
X1066800Y1295400D01*
X1041400D01*
X1016000Y1320800D01*
X990600Y1295400D01*
X965200D01*
X990600Y1270000D01*
X965200Y1244600D01*
X990600D01*
X1016000Y1219200D01*
X826700Y799200D02*
Y900800D01*
X928300D01*
Y799200D01*
X826700D01*
X346700D02*
Y900800D01*
X448300D01*
Y799200D01*
X346700D01*
X826700Y369200D02*
Y470800D01*
X928300D01*
Y369200D01*
X826700D01*
X346700D02*
Y470800D01*
X448300D01*
Y369200D01*
X346700D01*
X262500Y584200D02*
X211700Y685800D01*
X313300D01*
X262500Y584200D01*
X624200Y399200D02*
X649600Y450000D01*
X624200Y500800D01*
X675000Y475400D01*
X725800Y500800D01*
X700400Y450000D01*
X725800Y399200D01*
X675000Y424600D01*
X624200Y399200D01*
X461700Y584200D02*
X487100Y635000D01*
X461700Y685800D01*
X512500Y660400D01*
X563300Y685800D01*
X537900Y635000D01*
X563300Y584200D01*
X512500Y609600D01*
X461700Y584200D01*
X711700D02*
X737100Y635000D01*
X711700Y685800D01*
X762500Y660400D01*
X813300Y685800D01*
X787900Y635000D01*
X813300Y584200D01*
X762500Y609600D01*
X711700Y584200D01*
X547668Y399200D02*
X573068Y450000D01*
X547668Y500800D01*
X598468Y475400D01*
X649268Y500800D01*
X623868Y450000D01*
X649268Y399200D01*
X598468Y424600D01*
X547668Y399200D01*
X939200Y969200D02*
X964600Y1020000D01*
X939200Y1070800D01*
X990000Y1045400D01*
X1040800Y1070800D01*
X1015400Y1020000D01*
X1040800Y969200D01*
X990000Y994600D01*
X939200Y969200D01*
X239200D02*
X264600Y1020000D01*
X239200Y1070800D01*
X290000Y1045400D01*
X340800Y1070800D01*
X315400Y1020000D01*
X340800Y969200D01*
X290000Y994600D01*
X239200Y969200D01*
X311700Y584200D02*
X337100Y635000D01*
X311700Y685800D01*
X362500Y660400D01*
X413300Y685800D01*
X387900Y635000D01*
X413300Y584200D01*
X362500Y609600D01*
X311700Y584200D01*
X861700D02*
X887100Y635000D01*
X861700Y685800D01*
X912500Y660400D01*
X963300Y685800D01*
X937900Y635000D01*
X963300Y584200D01*
X912500Y609600D01*
X861700Y584200D01*
X699200Y859200D02*
X724600Y910000D01*
X699200Y960800D01*
X750000Y935400D01*
X800800Y960800D01*
X775400Y910000D01*
X800800Y859200D01*
X750000Y884600D01*
X699200Y859200D01*
X624200Y769200D02*
X649600Y820000D01*
X624200Y870800D01*
X675000Y845400D01*
X725800Y870800D01*
X700400Y820000D01*
X725800Y769200D01*
X675000Y794600D01*
X624200Y769200D01*
X699200Y399200D02*
X724600Y450000D01*
X699200Y500800D01*
X750000Y475400D01*
X800800Y500800D01*
X775400Y450000D01*
X800800Y399200D01*
X750000Y424600D01*
X699200Y399200D01*
X549200Y769200D02*
X574600Y820000D01*
X549200Y870800D01*
X600000Y845400D01*
X650800Y870800D01*
X625400Y820000D01*
X650800Y769200D01*
X600000Y794600D01*
X549200Y769200D01*
D51*
X1063300Y635000D02*
G03*
X1063300Y635000I-50800J0D01*
G01*
%TF.MD5,f46b22eda54a0a5ddd73fbceec6dfac0*%
M02*
