%TF.GenerationSoftware,Altium Limited,Altium Designer,24.6.1 (21)*%
G04 Layer_Color=16711935*
%FSLAX45Y45*%
%MOMM*%
%TF.SameCoordinates,AC2494EB-BB6E-468D-9238-523390DC31CD*%
%TF.FilePolarity,Positive*%
%TF.FileFunction,Other,Mechanical_13*%
%TF.Part,Single*%
G01*
G75*
%TA.AperFunction,NonConductor*%
%ADD20C,0.20000*%
%ADD33C,0.10000*%
D20*
X282900Y857700D02*
G03*
X282900Y857700I-10000J0D01*
G01*
D33*
X732500Y1067500D02*
X907500D01*
X732500Y972500D02*
X907500D01*
X732500D02*
Y1067500D01*
X907500Y972500D02*
Y1067500D01*
X343500Y407500D02*
X931500D01*
Y482000D01*
X343500Y862500D02*
X931500D01*
X343500Y407500D02*
Y482000D01*
X931500D02*
X1079500D01*
X931500Y788000D02*
X1079500D01*
Y482000D02*
Y788000D01*
X195500Y482000D02*
X343500D01*
X195500Y788000D02*
X343500D01*
X195500Y482000D02*
Y788000D01*
X931500D02*
Y862500D01*
X343500Y788000D02*
Y862500D01*
X372500Y972500D02*
Y1067500D01*
X547500Y972500D02*
Y1067500D01*
X372500D02*
X547500D01*
X372500Y972500D02*
X547500D01*
%TF.MD5,d000f7a16dc2c07991158b9574280d77*%
M02*
