%TF.GenerationSoftware,Altium Limited,Altium Designer,24.6.1 (21)*%
G04 Layer_Physical_Order=3*
G04 Layer_Color=16440176*
%FSLAX45Y45*%
%MOMM*%
%TF.SameCoordinates,AC2494EB-BB6E-468D-9238-523390DC31CD*%
%TF.FilePolarity,Positive*%
%TF.FileFunction,Copper,L3,Inr,Signal*%
%TF.Part,Single*%
G01*
G75*
%TA.AperFunction,Conductor*%
%ADD14C,0.25000*%
%TA.AperFunction,ViaPad*%
%ADD15R,1.50000X2.50000*%
%TA.AperFunction,ComponentPad*%
%ADD16C,1.10000*%
%ADD17C,0.66000*%
%ADD18C,0.58000*%
%TA.AperFunction,ViaPad*%
%ADD19C,0.60000*%
G36*
X1249609Y20391D02*
X1103700D01*
Y137700D01*
X1026000D01*
Y0D01*
X1006000D01*
Y137700D01*
X928300D01*
Y20391D01*
X849700D01*
Y137700D01*
X674300D01*
Y20391D01*
X595700D01*
Y137700D01*
X420300D01*
Y20391D01*
X341700D01*
Y137700D01*
X166300D01*
Y20391D01*
X20391D01*
Y1249609D01*
X166300D01*
Y1132300D01*
X341700D01*
Y1249609D01*
X420300D01*
Y1132300D01*
X595700D01*
Y1249609D01*
X674300D01*
Y1132300D01*
X849700D01*
Y1249609D01*
X928300D01*
Y1132300D01*
X1103700D01*
Y1249609D01*
X1249609D01*
Y20391D01*
D02*
G37*
%LPC*%
G36*
X758494Y952700D02*
X741507D01*
X725813Y946199D01*
X713801Y934187D01*
X707300Y918493D01*
Y901506D01*
X713801Y885813D01*
X725813Y873801D01*
X741507Y867300D01*
X758494D01*
X774187Y873801D01*
X786199Y885813D01*
X792700Y901506D01*
Y918493D01*
X786199Y934187D01*
X774187Y946199D01*
X758494Y952700D01*
D02*
G37*
G36*
X683493Y862700D02*
X666506D01*
X650813Y856199D01*
X645797Y851183D01*
X637500Y845136D01*
X629203Y851183D01*
X624187Y856199D01*
X608494Y862700D01*
X591507D01*
X575813Y856199D01*
X563801Y844187D01*
X557300Y828493D01*
Y811506D01*
X563801Y795812D01*
X575813Y783801D01*
X591507Y777300D01*
X608494D01*
X624187Y783801D01*
X629203Y788817D01*
X637500Y794864D01*
X645797Y788817D01*
X649306Y785307D01*
Y685643D01*
X581832Y618168D01*
X576262Y609833D01*
X574306Y600000D01*
Y486210D01*
X574281Y486199D01*
X562269Y474188D01*
X555768Y458494D01*
Y441507D01*
X562269Y425813D01*
X574281Y413801D01*
X589974Y407300D01*
X606961D01*
X622655Y413801D01*
X628437Y419583D01*
X636734Y424570D01*
X645031Y419583D01*
X650813Y413801D01*
X666507Y407300D01*
X683494D01*
X699188Y413801D01*
X704203Y418817D01*
X712500Y424864D01*
X720797Y418817D01*
X725813Y413801D01*
X741507Y407300D01*
X758494D01*
X774187Y413801D01*
X786199Y425813D01*
X792700Y441507D01*
Y458494D01*
X786199Y474188D01*
X774187Y486199D01*
X758494Y492700D01*
X741507D01*
X725813Y486199D01*
X720797Y481183D01*
X712500Y475136D01*
X704203Y481183D01*
X699188Y486199D01*
X683494Y492700D01*
X666507D01*
X650813Y486199D01*
X645031Y480417D01*
X636734Y475430D01*
X628437Y480417D01*
X625694Y483161D01*
Y589357D01*
X693168Y656832D01*
X698738Y665167D01*
X700694Y675000D01*
Y785307D01*
X711199Y795812D01*
X717700Y811506D01*
Y828493D01*
X711199Y844187D01*
X699187Y856199D01*
X683493Y862700D01*
D02*
G37*
G36*
X886413Y917700D02*
X868587D01*
X851369Y913086D01*
X835932Y904173D01*
X823327Y891569D01*
X814414Y876131D01*
X809800Y858913D01*
Y841087D01*
X814414Y823869D01*
X823327Y808431D01*
X835932Y795827D01*
X851369Y786914D01*
X868587Y782300D01*
X886413D01*
X903631Y786914D01*
X919069Y795827D01*
X931674Y808431D01*
X940586Y823869D01*
X945200Y841087D01*
Y858913D01*
X940586Y876131D01*
X931674Y891569D01*
X919069Y904173D01*
X903631Y913086D01*
X886413Y917700D01*
D02*
G37*
G36*
X406413D02*
X388587D01*
X371369Y913086D01*
X355931Y904173D01*
X343327Y891569D01*
X334414Y876131D01*
X329800Y858913D01*
Y841087D01*
X334414Y823869D01*
X343327Y808431D01*
X355931Y795827D01*
X371369Y786914D01*
X388587Y782300D01*
X406413D01*
X423631Y786914D01*
X439069Y795827D01*
X451673Y808431D01*
X460586Y823869D01*
X465200Y841087D01*
Y858913D01*
X460586Y876131D01*
X451673Y891569D01*
X439069Y904173D01*
X423631Y913086D01*
X406413Y917700D01*
D02*
G37*
G36*
X770994Y677700D02*
X754007D01*
X738313Y671199D01*
X726301Y659187D01*
X719800Y643494D01*
Y626506D01*
X726301Y610813D01*
X738313Y598801D01*
X754007Y592300D01*
X770994D01*
X786688Y598801D01*
X798699Y610813D01*
X805200Y626506D01*
Y643494D01*
X798699Y659187D01*
X786688Y671199D01*
X770994Y677700D01*
D02*
G37*
G36*
X520994D02*
X504007D01*
X488313Y671199D01*
X476301Y659187D01*
X469800Y643494D01*
Y626506D01*
X476301Y610813D01*
X488313Y598801D01*
X504007Y592300D01*
X520994D01*
X536688Y598801D01*
X548699Y610813D01*
X555200Y626506D01*
Y643494D01*
X548699Y659187D01*
X536688Y671199D01*
X520994Y677700D01*
D02*
G37*
G36*
X273241Y689000D02*
X251759D01*
X231912Y680779D01*
X216721Y665588D01*
X208500Y645741D01*
Y624259D01*
X216721Y604412D01*
X231912Y589221D01*
X251759Y581000D01*
X273241D01*
X293089Y589221D01*
X308279Y604412D01*
X316500Y624259D01*
Y645741D01*
X308279Y665588D01*
X293089Y680779D01*
X273241Y689000D01*
D02*
G37*
G36*
X1024037Y693000D02*
X1000963D01*
X979646Y684170D01*
X963330Y667854D01*
X954500Y646537D01*
Y623463D01*
X963330Y602146D01*
X979646Y585830D01*
X1000963Y577000D01*
X1024037D01*
X1045355Y585830D01*
X1061670Y602146D01*
X1070500Y623463D01*
Y646537D01*
X1061670Y667854D01*
X1045355Y684170D01*
X1024037Y693000D01*
D02*
G37*
G36*
X886413Y487700D02*
X868587D01*
X851369Y483086D01*
X835932Y474173D01*
X823327Y461569D01*
X814414Y446131D01*
X809800Y428913D01*
Y411087D01*
X814414Y393869D01*
X823327Y378431D01*
X835932Y365827D01*
X851369Y356914D01*
X868587Y352300D01*
X886413D01*
X903631Y356914D01*
X919069Y365827D01*
X931674Y378431D01*
X940586Y393869D01*
X945200Y411087D01*
Y428913D01*
X940586Y446131D01*
X931674Y461569D01*
X919069Y474173D01*
X903631Y483086D01*
X886413Y487700D01*
D02*
G37*
G36*
X406413D02*
X388587D01*
X371369Y483086D01*
X355931Y474173D01*
X343327Y461569D01*
X334414Y446131D01*
X329800Y428913D01*
Y411087D01*
X334414Y393869D01*
X343327Y378431D01*
X355931Y365827D01*
X371369Y356914D01*
X388587Y352300D01*
X406413D01*
X423631Y356914D01*
X439069Y365827D01*
X451673Y378431D01*
X460586Y393869D01*
X465200Y411087D01*
Y428913D01*
X460586Y446131D01*
X451673Y461569D01*
X439069Y474173D01*
X423631Y483086D01*
X406413Y487700D01*
D02*
G37*
%LPD*%
D14*
X600000Y453065D02*
Y600000D01*
X598468Y451532D02*
X600000Y453065D01*
Y600000D02*
X675000Y675000D01*
Y820000D01*
D15*
X762000Y0D02*
D03*
X1016000D02*
D03*
X254000D02*
D03*
X508000D02*
D03*
X254000Y1270000D02*
D03*
X508000D02*
D03*
X762000D02*
D03*
X1016000D02*
D03*
D16*
X877500Y850000D02*
D03*
X397500D02*
D03*
X877500Y420000D02*
D03*
X397500D02*
D03*
D17*
X1012500Y635000D02*
D03*
D18*
X262500D02*
D03*
D19*
X675000Y450000D02*
D03*
X512500Y635000D02*
D03*
X762500D02*
D03*
X598468Y450000D02*
D03*
X990000Y1020000D02*
D03*
X290000D02*
D03*
X362500Y635000D02*
D03*
X912500D02*
D03*
X750000Y910000D02*
D03*
X675000Y820000D02*
D03*
X750000Y450000D02*
D03*
X600000Y820000D02*
D03*
%TF.MD5,f12196442f150259cdb45defae40e5b5*%
M02*
