%TF.GenerationSoftware,Altium Limited,Altium Designer,24.6.1 (21)*%
G04 Layer_Physical_Order=1*
G04 Layer_Color=255*
%FSLAX45Y45*%
%MOMM*%
%TF.SameCoordinates,AC2494EB-BB6E-468D-9238-523390DC31CD*%
%TF.FilePolarity,Positive*%
%TF.FileFunction,Copper,L1,Top,Signal*%
%TF.Part,Single*%
G01*
G75*
%TA.AperFunction,SMDPad,CuDef*%
%ADD10R,0.85000X0.95000*%
%ADD11R,0.30000X0.85000*%
G04:AMPARAMS|DCode=12|XSize=1.03mm|YSize=0.5mm|CornerRadius=0mm|HoleSize=0mm|Usage=FLASHONLY|Rotation=40.000|XOffset=0mm|YOffset=0mm|HoleType=Round|Shape=Rectangle|*
%AMROTATEDRECTD12*
4,1,4,-0.23382,-0.52255,-0.55521,-0.13952,0.23382,0.52255,0.55521,0.13952,-0.23382,-0.52255,0.0*
%
%ADD12ROTATEDRECTD12*%

G04:AMPARAMS|DCode=13|XSize=1.03mm|YSize=0.5mm|CornerRadius=0mm|HoleSize=0mm|Usage=FLASHONLY|Rotation=320.000|XOffset=0mm|YOffset=0mm|HoleType=Round|Shape=Rectangle|*
%AMROTATEDRECTD13*
4,1,4,-0.55521,0.13952,-0.23382,0.52255,0.55521,-0.13952,0.23382,-0.52255,-0.55521,0.13952,0.0*
%
%ADD13ROTATEDRECTD13*%

%TA.AperFunction,Conductor*%
%ADD14C,0.25000*%
%TA.AperFunction,ViaPad*%
%ADD15R,1.50000X2.50000*%
%TA.AperFunction,ComponentPad*%
%ADD16C,1.10000*%
%ADD17C,0.66000*%
%ADD18C,0.58000*%
%TA.AperFunction,ViaPad*%
%ADD19C,0.60000*%
G36*
X1249609Y20391D02*
X1103700D01*
Y137700D01*
X1026000D01*
Y0D01*
X1006000D01*
Y137700D01*
X928300D01*
Y20391D01*
X849700D01*
Y137700D01*
X725083D01*
X723238Y146978D01*
X717668Y155313D01*
X624162Y248820D01*
Y415307D01*
X633763Y424909D01*
X636734Y425442D01*
X639705Y424909D01*
X650813Y413801D01*
X666507Y407300D01*
X683494D01*
X699188Y413801D01*
X709234Y423847D01*
X712500Y425253D01*
X715767Y423847D01*
X725813Y413801D01*
X741507Y407300D01*
X758494D01*
X774187Y413801D01*
X786199Y425813D01*
X792700Y441507D01*
Y458494D01*
X786199Y474188D01*
X774187Y486199D01*
X760667Y491800D01*
X761661Y496800D01*
X902500D01*
Y552000D01*
Y607200D01*
X801619D01*
X799274Y612200D01*
X805200Y626506D01*
Y643494D01*
X799274Y657800D01*
X801619Y662800D01*
X902500D01*
Y718000D01*
Y773200D01*
X688194D01*
Y779247D01*
X699187Y783801D01*
X711199Y795812D01*
X717700Y811506D01*
Y828493D01*
X711199Y844187D01*
X699187Y856199D01*
X683493Y862700D01*
X666506D01*
X650813Y856199D01*
X640767Y846153D01*
X637500Y844747D01*
X634233Y846153D01*
X624187Y856199D01*
X608494Y862700D01*
X591507D01*
X575813Y856199D01*
X563801Y844187D01*
X558236Y830752D01*
X553042Y828792D01*
X552441Y828834D01*
X550694Y830136D01*
Y959800D01*
X580200D01*
Y1080200D01*
X469800D01*
Y959800D01*
X499306D01*
Y816935D01*
X501262Y807103D01*
X506832Y798767D01*
X527780Y777819D01*
X525866Y773200D01*
X372500D01*
Y718000D01*
Y662800D01*
X473381D01*
X475726Y657800D01*
X469800Y643494D01*
Y626506D01*
X475726Y612200D01*
X473381Y607200D01*
X372500D01*
Y552000D01*
Y496800D01*
X586807D01*
Y491388D01*
X574281Y486199D01*
X562269Y474188D01*
X555768Y458494D01*
Y441507D01*
X562269Y425813D01*
X572774Y415307D01*
Y238177D01*
X574730Y228345D01*
X580300Y220009D01*
X673806Y126503D01*
Y112500D01*
X674300Y110018D01*
Y20391D01*
X595700D01*
Y137700D01*
X420300D01*
Y20391D01*
X341700D01*
Y137700D01*
X166300D01*
Y20391D01*
X20391D01*
Y1249609D01*
X166300D01*
Y1132300D01*
X341700D01*
Y1249609D01*
X420300D01*
Y1132300D01*
X595700D01*
Y1249609D01*
X674300D01*
Y1132300D01*
X849700D01*
Y1249609D01*
X928300D01*
Y1132300D01*
X1103700D01*
Y1249609D01*
X1249609D01*
Y20391D01*
D02*
G37*
%LPC*%
G36*
X450200Y1080200D02*
X405000D01*
Y1030000D01*
X450200D01*
Y1080200D01*
D02*
G37*
G36*
X940200D02*
X895000D01*
Y1030000D01*
X940200D01*
Y1080200D01*
D02*
G37*
G36*
X875000D02*
X829800D01*
Y1030000D01*
X875000D01*
Y1080200D01*
D02*
G37*
G36*
X385000D02*
X339800D01*
Y1030000D01*
X385000D01*
Y1080200D01*
D02*
G37*
G36*
X940200Y1010000D02*
X895000D01*
Y959800D01*
X940200D01*
Y1010000D01*
D02*
G37*
G36*
X875000D02*
X829800D01*
Y959800D01*
X875000D01*
Y1010000D01*
D02*
G37*
G36*
X450200D02*
X405000D01*
Y959800D01*
X450200D01*
Y1010000D01*
D02*
G37*
G36*
X385000D02*
X339800D01*
Y959800D01*
X385000D01*
Y1010000D01*
D02*
G37*
G36*
X810200Y1080200D02*
X699800D01*
Y959800D01*
X724306D01*
Y944693D01*
X713801Y934187D01*
X707300Y918493D01*
Y901506D01*
X713801Y885813D01*
X725813Y873801D01*
X741507Y867300D01*
X758494D01*
X774187Y873801D01*
X786199Y885813D01*
X792700Y901506D01*
Y918493D01*
X786199Y934187D01*
X775694Y944693D01*
Y959800D01*
X810200D01*
Y1080200D01*
D02*
G37*
G36*
X886413Y917700D02*
X868587D01*
X851369Y913086D01*
X835932Y904173D01*
X823327Y891569D01*
X814414Y876131D01*
X809800Y858913D01*
Y841087D01*
X814414Y823869D01*
X823327Y808431D01*
X835932Y795827D01*
X851369Y786914D01*
X868587Y782300D01*
X886413D01*
X903631Y786914D01*
X919069Y795827D01*
X931674Y808431D01*
X940586Y823869D01*
X945200Y841087D01*
Y858913D01*
X940586Y876131D01*
X931674Y891569D01*
X919069Y904173D01*
X903631Y913086D01*
X886413Y917700D01*
D02*
G37*
G36*
X406413D02*
X388587D01*
X371369Y913086D01*
X355931Y904173D01*
X343327Y891569D01*
X334414Y876131D01*
X329800Y858913D01*
Y841087D01*
X334414Y823869D01*
X343327Y808431D01*
X355931Y795827D01*
X371369Y786914D01*
X388587Y782300D01*
X406413D01*
X423631Y786914D01*
X439069Y795827D01*
X451673Y808431D01*
X460586Y823869D01*
X465200Y841087D01*
Y858913D01*
X460586Y876131D01*
X451673Y891569D01*
X439069Y904173D01*
X423631Y913086D01*
X406413Y917700D01*
D02*
G37*
G36*
X940200Y773200D02*
X922500D01*
Y728000D01*
X940200D01*
Y773200D01*
D02*
G37*
G36*
X352500D02*
X334800D01*
Y728000D01*
X352500D01*
Y773200D01*
D02*
G37*
G36*
X1000553Y818647D02*
X952087Y760887D01*
X1029960Y695544D01*
X1027595Y691001D01*
X1020136Y693000D01*
X1004864D01*
X990113Y689047D01*
X976888Y681411D01*
X966089Y670613D01*
X958453Y657387D01*
X954500Y642636D01*
Y627364D01*
X958453Y612613D01*
X966089Y599387D01*
X976888Y588589D01*
X990113Y580953D01*
X1004864Y577000D01*
X1020136D01*
X1027595Y578999D01*
X1029960Y574456D01*
X952087Y509113D01*
X1000553Y451353D01*
X1098913Y533887D01*
X1050777Y591253D01*
X1058912Y599387D01*
X1066547Y612613D01*
X1070500Y627364D01*
Y642636D01*
X1066547Y657387D01*
X1058912Y670613D01*
X1050777Y678747D01*
X1098913Y736113D01*
X1000553Y818647D01*
D02*
G37*
G36*
X940200Y708000D02*
X922500D01*
Y662800D01*
X940200D01*
Y708000D01*
D02*
G37*
G36*
X352500D02*
X334800D01*
Y662800D01*
X352500D01*
Y708000D01*
D02*
G37*
G36*
X274447Y818647D02*
X176087Y736113D01*
X223577Y679516D01*
X224553Y678353D01*
X224683Y673550D01*
X219290Y668157D01*
X212180Y655843D01*
X208500Y642109D01*
Y627891D01*
X212180Y614157D01*
X219290Y601843D01*
X224683Y596450D01*
X224553Y591647D01*
X223577Y590484D01*
X176087Y533887D01*
X274447Y451353D01*
X322913Y509113D01*
X235500Y582462D01*
X238379Y586573D01*
X241657Y584680D01*
X255391Y581000D01*
X269609D01*
X283343Y584680D01*
X295657Y591790D01*
X305711Y601843D01*
X312820Y614157D01*
X316500Y627891D01*
Y642109D01*
X312820Y655843D01*
X305711Y668157D01*
X295657Y678210D01*
X283343Y685320D01*
X269609Y689000D01*
X255391D01*
X241657Y685320D01*
X238379Y683427D01*
X235500Y687538D01*
X322913Y760887D01*
X274447Y818647D01*
D02*
G37*
G36*
X940200Y607200D02*
X922500D01*
Y562000D01*
X940200D01*
Y607200D01*
D02*
G37*
G36*
X352500D02*
X334800D01*
Y562000D01*
X352500D01*
Y607200D01*
D02*
G37*
G36*
X940200Y542000D02*
X922500D01*
Y496800D01*
X940200D01*
Y542000D01*
D02*
G37*
G36*
X352500D02*
X334800D01*
Y496800D01*
X352500D01*
Y542000D01*
D02*
G37*
G36*
X886413Y487700D02*
X868587D01*
X851369Y483086D01*
X835932Y474173D01*
X823327Y461569D01*
X814414Y446131D01*
X809800Y428913D01*
Y411087D01*
X814414Y393869D01*
X823327Y378431D01*
X835932Y365827D01*
X851369Y356914D01*
X868587Y352300D01*
X886413D01*
X903631Y356914D01*
X919069Y365827D01*
X931674Y378431D01*
X940586Y393869D01*
X945200Y411087D01*
Y428913D01*
X940586Y446131D01*
X931674Y461569D01*
X919069Y474173D01*
X903631Y483086D01*
X886413Y487700D01*
D02*
G37*
G36*
X406413D02*
X388587D01*
X371369Y483086D01*
X355931Y474173D01*
X343327Y461569D01*
X334414Y446131D01*
X329800Y428913D01*
Y411087D01*
X334414Y393869D01*
X343327Y378431D01*
X355931Y365827D01*
X371369Y356914D01*
X388587Y352300D01*
X406413D01*
X423631Y356914D01*
X439069Y365827D01*
X451673Y378431D01*
X460586Y393869D01*
X465200Y411087D01*
Y428913D01*
X460586Y446131D01*
X451673Y461569D01*
X439069Y474173D01*
X423631Y483086D01*
X406413Y487700D01*
D02*
G37*
%LPD*%
D10*
X755000Y1020000D02*
D03*
X885000D02*
D03*
X395000D02*
D03*
X525000D02*
D03*
D11*
X362500Y718000D02*
D03*
Y552000D02*
D03*
X412500Y718000D02*
D03*
Y552000D02*
D03*
X462500Y718000D02*
D03*
Y552000D02*
D03*
X512500Y718000D02*
D03*
Y552000D02*
D03*
X562500Y718000D02*
D03*
Y552000D02*
D03*
X612500Y718000D02*
D03*
Y552000D02*
D03*
X662500Y718000D02*
D03*
Y552000D02*
D03*
X712500Y718000D02*
D03*
Y552000D02*
D03*
X762500Y718000D02*
D03*
Y552000D02*
D03*
X812500Y718000D02*
D03*
Y552000D02*
D03*
X862500Y718000D02*
D03*
Y552000D02*
D03*
X912500Y718000D02*
D03*
Y552000D02*
D03*
D12*
X249500Y748500D02*
D03*
X1025500Y521500D02*
D03*
D13*
Y748500D02*
D03*
X249500Y521500D02*
D03*
D14*
X715000Y488065D02*
X750000Y453065D01*
Y450000D02*
Y453065D01*
X662500Y471971D02*
X675000Y459471D01*
X715000Y488065D02*
Y549500D01*
X675000Y450000D02*
Y459471D01*
X662500Y471971D02*
Y552000D01*
X598468Y238177D02*
Y459471D01*
X612500Y473503D01*
Y552000D01*
X598468Y238177D02*
X699500Y137145D01*
Y112500D02*
Y137145D01*
X702000Y110000D02*
X762000D01*
X699500Y112500D02*
X702000Y110000D01*
X762500Y552000D02*
Y635000D01*
Y718000D01*
X512500Y635000D02*
Y718000D01*
Y552000D02*
Y635000D01*
X750000Y1015000D02*
X755000Y1020000D01*
X750000Y910000D02*
Y1015000D01*
X712500Y552000D02*
X715000Y549500D01*
X525000Y816935D02*
Y1020000D01*
Y816935D02*
X560000Y781935D01*
Y720500D02*
Y781935D01*
Y720500D02*
X562500Y718000D01*
X662500D02*
Y798029D01*
X675000Y810529D01*
Y820000D01*
X600000Y810529D02*
X612500Y798029D01*
X600000Y810529D02*
Y820000D01*
X612500Y718000D02*
Y798029D01*
D15*
X762000Y0D02*
D03*
X1016000D02*
D03*
X254000D02*
D03*
X508000D02*
D03*
X254000Y1270000D02*
D03*
X508000D02*
D03*
X762000D02*
D03*
X1016000D02*
D03*
D16*
X877500Y850000D02*
D03*
X397500D02*
D03*
X877500Y420000D02*
D03*
X397500D02*
D03*
D17*
X1012500Y635000D02*
D03*
D18*
X262500D02*
D03*
D19*
X675000Y450000D02*
D03*
X512500Y635000D02*
D03*
X762500D02*
D03*
X598468Y450000D02*
D03*
X990000Y1020000D02*
D03*
X290000D02*
D03*
X362500Y635000D02*
D03*
X912500D02*
D03*
X750000Y910000D02*
D03*
X675000Y820000D02*
D03*
X750000Y450000D02*
D03*
X600000Y820000D02*
D03*
%TF.MD5,53fbd01ea52ed76cb970e28c5e2fc277*%
M02*
