%TF.GenerationSoftware,Altium Limited,Altium Designer,24.6.1 (21)*%
G04 Layer_Color=8388736*
%FSLAX45Y45*%
%MOMM*%
%TF.SameCoordinates,AC2494EB-BB6E-468D-9238-523390DC31CD*%
%TF.FilePolarity,Negative*%
%TF.FileFunction,Soldermask,Top*%
%TF.Part,Single*%
G01*
G75*
%TA.AperFunction,SMDPad,CuDef*%
%ADD23R,1.00000X1.10000*%
%ADD24R,0.45000X1.00000*%
G04:AMPARAMS|DCode=25|XSize=1.18mm|YSize=0.65mm|CornerRadius=0mm|HoleSize=0mm|Usage=FLASHONLY|Rotation=40.000|XOffset=0mm|YOffset=0mm|HoleType=Round|Shape=Rectangle|*
%AMROTATEDRECTD25*
4,1,4,-0.24306,-0.62821,-0.66087,-0.13028,0.24306,0.62821,0.66087,0.13028,-0.24306,-0.62821,0.0*
%
%ADD25ROTATEDRECTD25*%

G04:AMPARAMS|DCode=26|XSize=1.18mm|YSize=0.65mm|CornerRadius=0mm|HoleSize=0mm|Usage=FLASHONLY|Rotation=320.000|XOffset=0mm|YOffset=0mm|HoleType=Round|Shape=Rectangle|*
%AMROTATEDRECTD26*
4,1,4,-0.66087,0.13028,-0.24306,0.62821,0.66087,-0.13028,0.24306,-0.62821,-0.66087,0.13028,0.0*
%
%ADD26ROTATEDRECTD26*%

%TA.AperFunction,ViaPad*%
%ADD27R,1.65000X2.65000*%
%TA.AperFunction,ComponentPad*%
%ADD28C,1.25000*%
%ADD29C,0.81000*%
%ADD30C,0.73000*%
D23*
X755000Y1020000D02*
D03*
X885000D02*
D03*
X395000D02*
D03*
X525000D02*
D03*
D24*
X362500Y718000D02*
D03*
Y552000D02*
D03*
X412500Y718000D02*
D03*
Y552000D02*
D03*
X462500Y718000D02*
D03*
Y552000D02*
D03*
X512500Y718000D02*
D03*
Y552000D02*
D03*
X562500Y718000D02*
D03*
Y552000D02*
D03*
X612500Y718000D02*
D03*
Y552000D02*
D03*
X662500Y718000D02*
D03*
Y552000D02*
D03*
X712500Y718000D02*
D03*
Y552000D02*
D03*
X762500Y718000D02*
D03*
Y552000D02*
D03*
X812500Y718000D02*
D03*
Y552000D02*
D03*
X862500Y718000D02*
D03*
Y552000D02*
D03*
X912500Y718000D02*
D03*
Y552000D02*
D03*
D25*
X249500Y748500D02*
D03*
X1025500Y521500D02*
D03*
D26*
Y748500D02*
D03*
X249500Y521500D02*
D03*
D27*
X762000Y0D02*
D03*
X1016000D02*
D03*
X254000D02*
D03*
X508000D02*
D03*
X254000Y1270000D02*
D03*
X508000D02*
D03*
X762000D02*
D03*
X1016000D02*
D03*
D28*
X877500Y850000D02*
D03*
X397500D02*
D03*
X877500Y420000D02*
D03*
X397500D02*
D03*
D29*
X1012500Y635000D02*
D03*
D30*
X262500D02*
D03*
%TF.MD5,7347a481cfcc788bca3ab2761a41a3de*%
M02*
