%TF.GenerationSoftware,Altium Limited,Altium Designer,24.6.1 (21)*%
G04 Layer_Color=0*
%FSLAX45Y45*%
%MOMM*%
%TF.SameCoordinates,AC2494EB-BB6E-468D-9238-523390DC31CD*%
%TF.FilePolarity,Positive*%
%TF.FileFunction,Plated,1,4,PTH,Drill*%
%TF.Part,Single*%
G01*
G75*
%TA.AperFunction,OtherDrill,Pad Free-PAD3 (7.62mm,0mm)*%
%ADD39C,1.00000*%
%TA.AperFunction,OtherDrill,Pad Free-PAD4 (10.16mm,0mm)*%
%ADD40C,1.00000*%
%TA.AperFunction,OtherDrill,Pad Free-PAD1 (2.54mm,0mm)*%
%ADD41C,1.00000*%
%TA.AperFunction,OtherDrill,Pad Free-PAD2 (5.08mm,0mm)*%
%ADD42C,1.00000*%
%TA.AperFunction,OtherDrill,Pad Free-NC (2.54mm,12.7mm)*%
%ADD43C,1.00000*%
%TA.AperFunction,OtherDrill,Pad Free-NC (5.08mm,12.7mm)*%
%ADD44C,1.00000*%
%TA.AperFunction,OtherDrill,Pad Free-NC (7.62mm,12.7mm)*%
%ADD45C,1.00000*%
%TA.AperFunction,OtherDrill,Pad Free-NC (10.16mm,12.7mm)*%
%ADD46C,1.00000*%
%TA.AperFunction,ComponentDrill*%
%ADD47C,0.70000*%
%TA.AperFunction,ViaDrill,NotFilled*%
%ADD48C,0.30000*%
D39*
X762000D02*
D03*
D40*
X1016000D02*
D03*
D41*
X254000D02*
D03*
D42*
X508000D02*
D03*
D43*
X254000Y1270000D02*
D03*
D44*
X508000D02*
D03*
D45*
X762000D02*
D03*
D46*
X1016000D02*
D03*
D47*
X877500Y850000D02*
D03*
X397500D02*
D03*
X877500Y420000D02*
D03*
X397500D02*
D03*
D48*
X675000Y450000D02*
D03*
X512500Y635000D02*
D03*
X762500D02*
D03*
X598468Y450000D02*
D03*
X990000Y1020000D02*
D03*
X290000D02*
D03*
X362500Y635000D02*
D03*
X912500D02*
D03*
X750000Y910000D02*
D03*
X675000Y820000D02*
D03*
X750000Y450000D02*
D03*
X600000Y820000D02*
D03*
%TF.MD5,56528d1b8653c9bf72a89fe1fca73e24*%
M02*
