%TF.GenerationSoftware,Altium Limited,Altium Designer,24.6.1 (21)*%
G04 Layer_Color=65535*
%FSLAX45Y45*%
%MOMM*%
%TF.SameCoordinates,AC2494EB-BB6E-468D-9238-523390DC31CD*%
%TF.FilePolarity,Positive*%
%TF.FileFunction,Legend,Top*%
%TF.Part,Single*%
G01*
G75*
%TA.AperFunction,NonConductor*%
%ADD20C,0.20000*%
%ADD21C,0.15000*%
%ADD22C,0.25400*%
G36*
X819173Y185914D02*
X784807D01*
Y200181D01*
X819173D01*
Y185914D01*
D02*
G37*
G36*
X734090Y243712D02*
X735132Y243608D01*
X736277Y243503D01*
X737631Y243399D01*
X739193Y243191D01*
X740755Y242879D01*
X742422Y242566D01*
X745962Y241629D01*
X747733Y241004D01*
X749503Y240275D01*
X751274Y239442D01*
X753044Y238505D01*
X753148Y238401D01*
X753461Y238296D01*
X753981Y237984D01*
X754606Y237567D01*
X755335Y236943D01*
X756272Y236318D01*
X757210Y235485D01*
X758355Y234652D01*
X759501Y233610D01*
X760646Y232465D01*
X761896Y231215D01*
X763041Y229861D01*
X764291Y228403D01*
X765437Y226841D01*
X766478Y225175D01*
X767519Y223404D01*
X767624Y223300D01*
X767728Y222988D01*
X768040Y222467D01*
X768353Y221738D01*
X768769Y220801D01*
X769186Y219655D01*
X769602Y218406D01*
X770123Y217052D01*
X770644Y215490D01*
X771060Y213719D01*
X771477Y211949D01*
X771893Y209970D01*
X772206Y207992D01*
X772518Y205805D01*
X772622Y203618D01*
X772726Y201327D01*
Y197265D01*
Y197161D01*
Y196745D01*
Y196016D01*
X772622Y195182D01*
Y194141D01*
X772414Y192787D01*
X772310Y191433D01*
X772102Y189871D01*
X771789Y188205D01*
X771477Y186435D01*
X770539Y182686D01*
X770019Y180811D01*
X769290Y178937D01*
X768561Y177062D01*
X767624Y175188D01*
X767519Y175083D01*
X767415Y174771D01*
X767103Y174250D01*
X766686Y173626D01*
X766166Y172792D01*
X765541Y171855D01*
X764812Y170814D01*
X763875Y169772D01*
X762937Y168523D01*
X761896Y167377D01*
X760646Y166127D01*
X759396Y164878D01*
X756585Y162483D01*
X753252Y160296D01*
X753148Y160191D01*
X752836Y160087D01*
X752315Y159775D01*
X751586Y159462D01*
X750753Y159046D01*
X749711Y158629D01*
X748462Y158109D01*
X747212Y157692D01*
X745650Y157171D01*
X744088Y156651D01*
X742318Y156234D01*
X740547Y155818D01*
X736590Y155193D01*
X734507Y155089D01*
X732320Y154984D01*
X704827D01*
Y243816D01*
X733257D01*
X734090Y243712D01*
D02*
G37*
G36*
X554759Y204763D02*
X576837D01*
Y188830D01*
X554759D01*
Y163836D01*
X537992D01*
Y188830D01*
X515915D01*
Y204763D01*
X537992D01*
Y228611D01*
X554759D01*
Y204763D01*
D02*
G37*
G36*
X468427Y243712D02*
X469468Y243608D01*
X470614Y243503D01*
X471968Y243399D01*
X473530Y243191D01*
X475092Y242879D01*
X476758Y242566D01*
X480299Y241629D01*
X482069Y241004D01*
X483840Y240275D01*
X485610Y239442D01*
X487380Y238505D01*
X487484Y238401D01*
X487797Y238296D01*
X488318Y237984D01*
X488942Y237567D01*
X489671Y236943D01*
X490609Y236318D01*
X491546Y235485D01*
X492691Y234652D01*
X493837Y233610D01*
X494982Y232465D01*
X496232Y231215D01*
X497378Y229861D01*
X498627Y228403D01*
X499773Y226841D01*
X500814Y225175D01*
X501856Y223404D01*
X501960Y223300D01*
X502064Y222988D01*
X502376Y222467D01*
X502689Y221738D01*
X503105Y220801D01*
X503522Y219655D01*
X503939Y218406D01*
X504459Y217052D01*
X504980Y215490D01*
X505396Y213719D01*
X505813Y211949D01*
X506230Y209970D01*
X506542Y207992D01*
X506854Y205805D01*
X506959Y203618D01*
X507063Y201327D01*
Y197265D01*
Y197161D01*
Y196745D01*
Y196016D01*
X506959Y195182D01*
Y194141D01*
X506750Y192787D01*
X506646Y191433D01*
X506438Y189871D01*
X506125Y188205D01*
X505813Y186435D01*
X504876Y182686D01*
X504355Y180811D01*
X503626Y178937D01*
X502897Y177062D01*
X501960Y175188D01*
X501856Y175083D01*
X501752Y174771D01*
X501439Y174250D01*
X501023Y173626D01*
X500502Y172792D01*
X499877Y171855D01*
X499148Y170814D01*
X498211Y169772D01*
X497274Y168523D01*
X496232Y167377D01*
X494982Y166127D01*
X493733Y164878D01*
X490921Y162483D01*
X487589Y160296D01*
X487484Y160191D01*
X487172Y160087D01*
X486651Y159775D01*
X485922Y159462D01*
X485089Y159046D01*
X484048Y158629D01*
X482798Y158109D01*
X481548Y157692D01*
X479986Y157171D01*
X478424Y156651D01*
X476654Y156234D01*
X474883Y155818D01*
X470926Y155193D01*
X468843Y155089D01*
X466656Y154984D01*
X439163D01*
Y243816D01*
X467594D01*
X468427Y243712D01*
D02*
G37*
G36*
X934146Y244961D02*
X935500Y244857D01*
X937062Y244649D01*
X938728Y244441D01*
X940603Y244128D01*
X942477Y243712D01*
X944560Y243191D01*
X946539Y242566D01*
X948621Y241837D01*
X950704Y241004D01*
X952579Y239963D01*
X954453Y238817D01*
X956224Y237463D01*
X956328Y237359D01*
X956640Y237151D01*
X957057Y236630D01*
X957682Y236110D01*
X958306Y235276D01*
X959140Y234339D01*
X959973Y233194D01*
X960910Y231944D01*
X961847Y230486D01*
X962680Y228820D01*
X963618Y227049D01*
X964451Y225071D01*
X965180Y222884D01*
X965805Y220593D01*
X966325Y218093D01*
X966742Y215490D01*
X948934D01*
Y215594D01*
X948830Y215802D01*
Y216219D01*
X948726Y216739D01*
X948517Y217364D01*
X948309Y218093D01*
X947788Y219760D01*
X947163Y221634D01*
X946122Y223509D01*
X944977Y225279D01*
X943519Y226737D01*
X943310Y226841D01*
X942790Y227258D01*
X941852Y227882D01*
X940498Y228507D01*
X938936Y229132D01*
X936958Y229757D01*
X934667Y230174D01*
X932063Y230278D01*
X931126D01*
X930501Y230174D01*
X929772Y230069D01*
X928835Y229861D01*
X926752Y229445D01*
X924461Y228507D01*
X923315Y227987D01*
X922066Y227258D01*
X920920Y226529D01*
X919775Y225487D01*
X918733Y224446D01*
X917796Y223196D01*
Y223092D01*
X917588Y222884D01*
X917379Y222467D01*
X917067Y221842D01*
X916650Y221113D01*
X916234Y220280D01*
X915817Y219239D01*
X915401Y217989D01*
X914984Y216635D01*
X914463Y215073D01*
X914047Y213303D01*
X913735Y211428D01*
X913422Y209450D01*
X913110Y207263D01*
X913006Y204868D01*
X912901Y202368D01*
Y196640D01*
Y196536D01*
Y196016D01*
Y195287D01*
X913006Y194349D01*
X913110Y193204D01*
X913214Y191850D01*
X913318Y190392D01*
X913526Y188726D01*
X914151Y185393D01*
X915192Y181853D01*
X915713Y180082D01*
X916442Y178520D01*
X917275Y176958D01*
X918213Y175500D01*
X918317Y175396D01*
X918421Y175188D01*
X918733Y174875D01*
X919254Y174354D01*
X919775Y173834D01*
X920399Y173313D01*
X921233Y172584D01*
X922170Y171959D01*
X923211Y171334D01*
X924357Y170710D01*
X925606Y170085D01*
X927064Y169564D01*
X928522Y169043D01*
X930189Y168731D01*
X931959Y168523D01*
X933834Y168419D01*
X934771D01*
X935500Y168523D01*
X936333D01*
X937374Y168627D01*
X939561Y168939D01*
X941956Y169460D01*
X944352Y170293D01*
X946643Y171334D01*
X947684Y172063D01*
X948517Y172792D01*
Y188101D01*
X931855D01*
Y201639D01*
X966742D01*
Y166127D01*
X966638Y166023D01*
X966533Y165919D01*
X966221Y165607D01*
X965805Y165190D01*
X965284Y164669D01*
X964763Y164045D01*
X964034Y163420D01*
X963201Y162795D01*
X962264Y162066D01*
X961222Y161233D01*
X958827Y159775D01*
X956015Y158317D01*
X952787Y156963D01*
X952683D01*
X952370Y156859D01*
X951850Y156651D01*
X951225Y156442D01*
X950392Y156234D01*
X949350Y155922D01*
X948205Y155609D01*
X946955Y155401D01*
X945497Y155089D01*
X943935Y154776D01*
X942373Y154464D01*
X940603Y154255D01*
X936854Y153839D01*
X932792Y153735D01*
X931647D01*
X930813Y153839D01*
X929876D01*
X928627Y154047D01*
X927377Y154151D01*
X925919Y154360D01*
X922795Y154984D01*
X919358Y155818D01*
X915921Y157067D01*
X914151Y157900D01*
X912485Y158733D01*
X912381Y158838D01*
X912068Y158942D01*
X911652Y159254D01*
X911027Y159671D01*
X910298Y160191D01*
X909465Y160816D01*
X908632Y161545D01*
X907590Y162483D01*
X906549Y163420D01*
X905403Y164461D01*
X904362Y165711D01*
X903216Y166961D01*
X902175Y168419D01*
X901029Y169981D01*
X900092Y171543D01*
X899155Y173313D01*
Y173417D01*
X898947Y173730D01*
X898738Y174250D01*
X898426Y174979D01*
X898114Y175917D01*
X897697Y177062D01*
X897280Y178312D01*
X896760Y179770D01*
X896343Y181332D01*
X895927Y182998D01*
X895510Y184873D01*
X895093Y186851D01*
X894781Y189038D01*
X894573Y191225D01*
X894364Y193516D01*
X894260Y195911D01*
Y201952D01*
Y202056D01*
Y202576D01*
Y203201D01*
X894364Y204139D01*
Y205284D01*
X894469Y206638D01*
X894677Y208096D01*
X894781Y209762D01*
X895093Y211532D01*
X895406Y213407D01*
X896135Y217156D01*
X897280Y221113D01*
X897905Y222988D01*
X898738Y224862D01*
X898842Y224967D01*
X898947Y225279D01*
X899259Y225800D01*
X899571Y226529D01*
X900092Y227258D01*
X900613Y228195D01*
X902071Y230382D01*
X903945Y232777D01*
X906132Y235276D01*
X908736Y237672D01*
X910194Y238817D01*
X911756Y239859D01*
X911860Y239963D01*
X912172Y240067D01*
X912589Y240379D01*
X913214Y240692D01*
X914047Y241108D01*
X914984Y241525D01*
X916130Y241941D01*
X917379Y242462D01*
X918733Y242983D01*
X920295Y243399D01*
X921962Y243816D01*
X923628Y244232D01*
X927481Y244857D01*
X929460Y244961D01*
X931542Y245066D01*
X933105D01*
X934146Y244961D01*
D02*
G37*
G36*
X1053803Y154984D02*
X1035474D01*
X999858Y213407D01*
Y154984D01*
X981530D01*
Y243816D01*
X999858D01*
X1035578Y185185D01*
Y243816D01*
X1053803D01*
Y154984D01*
D02*
G37*
G36*
X1099104Y243712D02*
X1100145Y243608D01*
X1101291Y243503D01*
X1102644Y243399D01*
X1104207Y243191D01*
X1105769Y242879D01*
X1107435Y242566D01*
X1110976Y241629D01*
X1112746Y241004D01*
X1114516Y240275D01*
X1116287Y239442D01*
X1118057Y238505D01*
X1118161Y238401D01*
X1118474Y238296D01*
X1118994Y237984D01*
X1119619Y237567D01*
X1120348Y236943D01*
X1121286Y236318D01*
X1122223Y235485D01*
X1123368Y234652D01*
X1124514Y233610D01*
X1125659Y232465D01*
X1126909Y231215D01*
X1128055Y229861D01*
X1129304Y228403D01*
X1130450Y226841D01*
X1131491Y225175D01*
X1132533Y223404D01*
X1132637Y223300D01*
X1132741Y222988D01*
X1133053Y222467D01*
X1133366Y221738D01*
X1133782Y220801D01*
X1134199Y219655D01*
X1134615Y218406D01*
X1135136Y217052D01*
X1135657Y215490D01*
X1136073Y213719D01*
X1136490Y211949D01*
X1136907Y209970D01*
X1137219Y207992D01*
X1137531Y205805D01*
X1137636Y203618D01*
X1137740Y201327D01*
Y197265D01*
Y197161D01*
Y196745D01*
Y196016D01*
X1137636Y195182D01*
Y194141D01*
X1137427Y192787D01*
X1137323Y191433D01*
X1137115Y189871D01*
X1136802Y188205D01*
X1136490Y186435D01*
X1135553Y182686D01*
X1135032Y180811D01*
X1134303Y178937D01*
X1133574Y177062D01*
X1132637Y175188D01*
X1132533Y175083D01*
X1132429Y174771D01*
X1132116Y174250D01*
X1131700Y173626D01*
X1131179Y172792D01*
X1130554Y171855D01*
X1129825Y170814D01*
X1128888Y169772D01*
X1127950Y168523D01*
X1126909Y167377D01*
X1125659Y166127D01*
X1124410Y164878D01*
X1121598Y162483D01*
X1118265Y160296D01*
X1118161Y160191D01*
X1117849Y160087D01*
X1117328Y159775D01*
X1116599Y159462D01*
X1115766Y159046D01*
X1114725Y158629D01*
X1113475Y158109D01*
X1112225Y157692D01*
X1110663Y157171D01*
X1109101Y156651D01*
X1107331Y156234D01*
X1105560Y155818D01*
X1101603Y155193D01*
X1099520Y155089D01*
X1097333Y154984D01*
X1069840D01*
Y243816D01*
X1098271D01*
X1099104Y243712D01*
D02*
G37*
G36*
X263477Y154984D02*
X244419D01*
X213594Y243816D01*
X233901D01*
X253896Y176958D01*
X273995Y243816D01*
X294406D01*
X263477Y154984D01*
D02*
G37*
%LPC*%
G36*
X732112Y229028D02*
X723052D01*
Y169668D01*
X732945D01*
X733674Y169772D01*
X734611Y169876D01*
X735653Y170085D01*
X736798Y170293D01*
X738048Y170501D01*
X740651Y171334D01*
X742005Y171959D01*
X743463Y172584D01*
X744713Y173417D01*
X746067Y174354D01*
X747212Y175396D01*
X748358Y176646D01*
X748462Y176750D01*
X748566Y176958D01*
X748878Y177375D01*
X749295Y177895D01*
X749711Y178624D01*
X750128Y179561D01*
X750649Y180603D01*
X751274Y181748D01*
X751794Y183102D01*
X752315Y184664D01*
X752836Y186226D01*
X753252Y188101D01*
X753565Y189975D01*
X753877Y192162D01*
X754085Y194349D01*
X754189Y196745D01*
Y201431D01*
Y201639D01*
Y202056D01*
Y202681D01*
X754085Y203618D01*
X753981Y204763D01*
X753877Y206117D01*
X753773Y207575D01*
X753461Y209033D01*
X752836Y212366D01*
X751794Y215802D01*
X751169Y217468D01*
X750440Y219031D01*
X749607Y220593D01*
X748566Y221946D01*
X748462Y222051D01*
X748358Y222259D01*
X747941Y222571D01*
X747525Y223092D01*
X746900Y223613D01*
X746171Y224238D01*
X745338Y224862D01*
X744400Y225487D01*
X743255Y226112D01*
X742109Y226841D01*
X740755Y227362D01*
X739297Y227882D01*
X737631Y228403D01*
X735965Y228716D01*
X734090Y228924D01*
X732112Y229028D01*
D02*
G37*
G36*
X466448D02*
X457388D01*
Y169668D01*
X467281D01*
X468010Y169772D01*
X468947Y169876D01*
X469989Y170085D01*
X471134Y170293D01*
X472384Y170501D01*
X474988Y171334D01*
X476341Y171959D01*
X477799Y172584D01*
X479049Y173417D01*
X480403Y174354D01*
X481548Y175396D01*
X482694Y176646D01*
X482798Y176750D01*
X482902Y176958D01*
X483215Y177375D01*
X483631Y177895D01*
X484048Y178624D01*
X484464Y179561D01*
X484985Y180603D01*
X485610Y181748D01*
X486131Y183102D01*
X486651Y184664D01*
X487172Y186226D01*
X487589Y188101D01*
X487901Y189975D01*
X488213Y192162D01*
X488422Y194349D01*
X488526Y196745D01*
Y201431D01*
Y201639D01*
Y202056D01*
Y202681D01*
X488422Y203618D01*
X488318Y204763D01*
X488213Y206117D01*
X488109Y207575D01*
X487797Y209033D01*
X487172Y212366D01*
X486131Y215802D01*
X485506Y217468D01*
X484777Y219031D01*
X483944Y220593D01*
X482902Y221946D01*
X482798Y222051D01*
X482694Y222259D01*
X482277Y222571D01*
X481861Y223092D01*
X481236Y223613D01*
X480507Y224238D01*
X479674Y224862D01*
X478737Y225487D01*
X477591Y226112D01*
X476446Y226841D01*
X475092Y227362D01*
X473634Y227882D01*
X471968Y228403D01*
X470301Y228716D01*
X468427Y228924D01*
X466448Y229028D01*
D02*
G37*
G36*
X1097125D02*
X1088065D01*
Y169668D01*
X1097958D01*
X1098687Y169772D01*
X1099624Y169876D01*
X1100666Y170085D01*
X1101811Y170293D01*
X1103061Y170501D01*
X1105665Y171334D01*
X1107018Y171959D01*
X1108476Y172584D01*
X1109726Y173417D01*
X1111080Y174354D01*
X1112225Y175396D01*
X1113371Y176646D01*
X1113475Y176750D01*
X1113579Y176958D01*
X1113892Y177375D01*
X1114308Y177895D01*
X1114725Y178624D01*
X1115141Y179561D01*
X1115662Y180603D01*
X1116287Y181748D01*
X1116808Y183102D01*
X1117328Y184664D01*
X1117849Y186226D01*
X1118265Y188101D01*
X1118578Y189975D01*
X1118890Y192162D01*
X1119099Y194349D01*
X1119203Y196745D01*
Y201431D01*
Y201639D01*
Y202056D01*
Y202681D01*
X1119099Y203618D01*
X1118994Y204763D01*
X1118890Y206117D01*
X1118786Y207575D01*
X1118474Y209033D01*
X1117849Y212366D01*
X1116808Y215802D01*
X1116183Y217468D01*
X1115454Y219031D01*
X1114621Y220593D01*
X1113579Y221946D01*
X1113475Y222051D01*
X1113371Y222259D01*
X1112954Y222571D01*
X1112538Y223092D01*
X1111913Y223613D01*
X1111184Y224238D01*
X1110351Y224862D01*
X1109414Y225487D01*
X1108268Y226112D01*
X1107123Y226841D01*
X1105769Y227362D01*
X1104311Y227882D01*
X1102644Y228403D01*
X1100978Y228716D01*
X1099104Y228924D01*
X1097125Y229028D01*
D02*
G37*
%LPD*%
D20*
X282900Y857700D02*
G03*
X282900Y857700I-10000J0D01*
G01*
D21*
X720000Y1090000D02*
X920000D01*
X720000Y950000D02*
X920000D01*
X360000Y1090000D02*
X560000D01*
X360000Y950000D02*
X560000D01*
D22*
X487500Y407500D02*
X787500D01*
X487500Y862500D02*
X787500D01*
%TF.MD5,8cd8bc8949ea250c4921f6b8e588d29e*%
M02*
