%TF.GenerationSoftware,Altium Limited,Altium Designer,24.6.1 (21)*%
G04 Layer_Color=128*
%FSLAX45Y45*%
%MOMM*%
%TF.SameCoordinates,AC2494EB-BB6E-468D-9238-523390DC31CD*%
%TF.FilePolarity,Positive*%
%TF.FileFunction,Drillmap*%
%TF.Part,Single*%
G01*
G75*
%TA.AperFunction,NonConductor*%
%ADD50C,0.12700*%
D50*
X712000D02*
X812000D01*
X762000Y-50000D02*
Y50000D01*
X966000Y0D02*
X1066000D01*
X1016000Y-50000D02*
Y50000D01*
X204000Y0D02*
X304000D01*
X254000Y-50000D02*
Y50000D01*
X458000Y0D02*
X558000D01*
X508000Y-50000D02*
Y50000D01*
X204000Y1270000D02*
X304000D01*
X254000Y1220000D02*
Y1320000D01*
X458000Y1270000D02*
X558000D01*
X508000Y1220000D02*
Y1320000D01*
X712000Y1270000D02*
X812000D01*
X762000Y1220000D02*
Y1320000D01*
X966000Y1270000D02*
X1066000D01*
X1016000Y1220000D02*
Y1320000D01*
X842500Y850000D02*
X912500D01*
X877500Y815000D02*
Y885000D01*
X362500Y850000D02*
X432500D01*
X397500Y815000D02*
Y885000D01*
X842500Y420000D02*
X912500D01*
X877500Y385000D02*
Y455000D01*
X362500Y420000D02*
X432500D01*
X397500Y385000D02*
Y455000D01*
X979500Y635000D02*
X1045500D01*
X1012500Y602000D02*
Y668000D01*
X233500Y635000D02*
X291500D01*
X262500Y606000D02*
Y664000D01*
X660000Y450000D02*
X690000D01*
X675000Y435000D02*
Y465000D01*
X497500Y635000D02*
X527500D01*
X512500Y620000D02*
Y650000D01*
X747500Y635000D02*
X777500D01*
X762500Y620000D02*
Y650000D01*
X583468Y450000D02*
X613468D01*
X598468Y435000D02*
Y465000D01*
X975000Y1020000D02*
X1005000D01*
X990000Y1005000D02*
Y1035000D01*
X275000Y1020000D02*
X305000D01*
X290000Y1005000D02*
Y1035000D01*
X347500Y635000D02*
X377500D01*
X362500Y620000D02*
Y650000D01*
X897500Y635000D02*
X927500D01*
X912500Y620000D02*
Y650000D01*
X735000Y910000D02*
X765000D01*
X750000Y895000D02*
Y925000D01*
X660000Y820000D02*
X690000D01*
X675000Y805000D02*
Y835000D01*
X735000Y450000D02*
X765000D01*
X750000Y435000D02*
Y465000D01*
X585000Y820000D02*
X615000D01*
X600000Y805000D02*
Y835000D01*
%TF.MD5,579cf3b794cd46b777ac54620f8721f8*%
M02*
