M48
;Layer_Color=9474304
;FILE_FORMAT=4:4
METRIC,TZ
;TYPE=PLATED
T01F00S00C0.3000
T02F00S00C0.7000
T03F00S00C1.0000
;TYPE=NON_PLATED
T04F00S00C0.5800
T05F00S00C0.6600
%
T01
X36250Y63500
X51250
X76250
X91250
X75000Y45000
X67500
X59847
X60000Y82000
X67500
X75000Y91000
X99000Y102000
X29000
T02
X39750Y42000
Y85000
X87750
Y42000
T03
X25400Y0
X50800
X76200
X101600
Y127000
X76200
X50800
X25400
T04
X26250Y63500
T05
X101250Y63500
M30
