M48
;Layer_Color=9474304
;FILE_FORMAT=4:4
METRIC,TZ
;TYPE=PLATED
T01F00S00C0.3000
T03F00S00C0.7620
T04F00S00C1.0000
T05F00S00C1.0200
;TYPE=NON_PLATED
T07F00S00C0.6096
T08F00S00C3.6000
%
T01
X155000Y120000
X238000
Y245000
X155000
Y370000
X238000
Y495000
X155000
X125000Y647000
X136000Y667000
X137000Y702000
X124000Y701000
X154000Y686000
X187000Y658000
X77000Y635000
X83000Y752000
X78000Y785000
X65000
X43000
X91152Y786047
X103000Y785000
X148000
X167000
X135000Y753000
X167000Y820250
X168000Y838000
X154125Y879125
X103000Y877000
X91000Y861000
X103000Y920000
X261000Y891000
X292000Y860000
X329000
X368000Y895000
X309000Y1007000
X275000Y1040000
T03
X57500Y944400
X82900
X108300
X133700
X159100
Y1020600
X133700
X108300
X82900
X57500
X184500
T04
X292500Y907500
X317500
X342500
Y1052500
X292500
T05
X145700Y17300
X171100
X196500
X221900
X247300
Y42700
X221900
X196500
X171100
X145700
X42700Y549200
Y574600
Y600000
Y625400
Y650800
X17300
Y625400
Y600000
Y574600
Y549200
X350300
X375700
Y574600
Y600000
Y625400
Y650800
X350300
Y625400
Y600000
Y574600
T07
X114550Y99550
X155450Y140450
X278450
X237550Y99550
Y224550
X278450Y265450
X155450
X114550Y224550
Y349550
X155450Y390450
X278450
X237550Y349550
Y474550
X278450Y515450
X155450
X114550Y474550
T08
X65000Y82500
Y207500
Y332500
X328000
Y207500
Y82500
Y457500
X196500Y582500
X65000Y457500
M30
