M48
;Layer_Color=9474304
;FILE_FORMAT=4:4
METRIC,TZ
;TYPE=PLATED
T02F00S00C0.6000
T06F00S00C1.8000
;TYPE=NON_PLATED
%
G90
G05
T02
G00X15800Y78000
M15
G01Y87000
M16
G00X98800Y78000
M15
G01Y87000
M16
G00X129800Y78000
M15
G01Y87000
M16
G00X129800Y203000
M15
G01Y212000
M16
G00X98800Y203000
M15
G01Y212000
M16
G00X15800Y203000
M15
G01Y212000
M16
G00X15800Y328000
M15
G01Y337000
M16
G00X98800Y328000
M15
G01Y337000
M16
G00X129800Y328000
M15
G01Y337000
M16
G00X263200Y337000
M15
G01Y328000
M16
G00X294200Y337000
M15
G01Y328000
M16
G00X377200Y337000
M15
G01Y328000
M16
G00X377200Y212000
M15
G01Y203000
M16
G00X294200Y212000
M15
G01Y203000
M16
G00X263200Y212000
M15
G01Y203000
M16
G00X263200Y87000
M15
G01Y78000
M16
G00X294200Y87000
M15
G01Y78000
M16
G00X377200Y87000
M15
G01Y78000
M16
G00X377200Y462000
M15
G01Y453000
M16
G00X294200Y462000
M15
G01Y453000
M16
G00X263200Y462000
M15
G01Y453000
M16
G00X192000Y517700
M15
G01X201000
M16
G00X192000Y548700
M15
G01X201000
M16
G00X192000Y631700
M15
G01X201000
M16
G00X129800Y453000
M15
G01Y462000
M16
G00X98800Y453000
M15
G01Y462000
M16
G00X15800Y453000
M15
G01Y462000
M16
T06
G00X260500Y973500
M15
G01Y991500
M16
G00X374500Y973500
M15
G01Y991500
M16
M17
M30
