%TF.GenerationSoftware,Altium Limited,Altium Designer,24.6.1 (21)*%
G04 Layer_Physical_Order=1*
G04 Layer_Color=255*
%FSLAX45Y45*%
%MOMM*%
%TF.SameCoordinates,318F05BD-DB15-4788-AC08-55ADAB723DC6*%
%TF.FilePolarity,Positive*%
%TF.FileFunction,Copper,L1,Top,Signal*%
%TF.Part,Single*%
G01*
G75*
%TA.AperFunction,SMDPad,CuDef*%
%ADD10R,1.10000X1.20000*%
%TA.AperFunction,BGAPad,CuDef*%
%ADD11R,1.50000X1.50000*%
%TA.AperFunction,Conductor*%
%ADD12C,0.30000*%
%ADD13C,0.38100*%
%ADD14C,0.25000*%
%ADD15C,0.50000*%
%TA.AperFunction,NonConductor*%
%ADD16R,1.50000X2.50000*%
%TA.AperFunction,Conductor*%
%ADD17R,1.50000X2.50000*%
%TA.AperFunction,ComponentPad*%
%ADD18C,0.60960*%
%ADD19C,1.75000*%
%ADD20C,1.52400*%
%ADD21C,1.76200*%
%ADD22O,3.00000X4.80000*%
%ADD23O,1.27000X2.54000*%
%ADD24O,2.54000X1.27000*%
%TA.AperFunction,ViaPad*%
%ADD25C,0.60000*%
G36*
X3909609Y9976589D02*
X3896909Y9974705D01*
X3896042Y9977564D01*
X3880934Y10005829D01*
X3860603Y10030603D01*
X3835828Y10050934D01*
X3807564Y10066042D01*
X3776895Y10075346D01*
X3745000Y10078487D01*
X3713105Y10075346D01*
X3682436Y10066042D01*
X3654171Y10050934D01*
X3629397Y10030603D01*
X3609065Y10005829D01*
X3593958Y9977564D01*
X3584654Y9946895D01*
X3581513Y9915000D01*
Y9735000D01*
X3584654Y9703105D01*
X3593958Y9672436D01*
X3609065Y9644171D01*
X3629397Y9619397D01*
X3654171Y9599065D01*
X3682436Y9583957D01*
X3713105Y9574654D01*
X3745000Y9571513D01*
X3776895Y9574654D01*
X3807564Y9583957D01*
X3835828Y9599065D01*
X3860603Y9619397D01*
X3880934Y9644171D01*
X3896042Y9672436D01*
X3896909Y9675295D01*
X3909609Y9673411D01*
Y20391D01*
X20391D01*
Y10629609D01*
X2879189D01*
X2882592Y10616909D01*
X2863108Y10605660D01*
X2844340Y10586892D01*
X2831070Y10563907D01*
X2824200Y10538271D01*
Y10511730D01*
X2831070Y10486093D01*
X2844340Y10463108D01*
X2863108Y10444340D01*
X2886093Y10431070D01*
X2911730Y10424200D01*
X2938270D01*
X2963907Y10431070D01*
X2986892Y10444340D01*
X3005660Y10463108D01*
X3018930Y10486093D01*
X3025800Y10511730D01*
Y10538271D01*
X3018930Y10563907D01*
X3005660Y10586892D01*
X2986892Y10605660D01*
X2967408Y10616909D01*
X2970811Y10629609D01*
X3379189D01*
X3382592Y10616909D01*
X3363108Y10605660D01*
X3344340Y10586892D01*
X3331070Y10563907D01*
X3324200Y10538271D01*
Y10535000D01*
X3525800D01*
Y10538271D01*
X3518930Y10563907D01*
X3505660Y10586892D01*
X3486892Y10605660D01*
X3467408Y10616909D01*
X3470811Y10629609D01*
X3909609D01*
Y9976589D01*
D02*
G37*
%LPC*%
G36*
X3525800Y10515000D02*
X3435000D01*
Y10424200D01*
X3438270D01*
X3463907Y10431070D01*
X3486892Y10444340D01*
X3505660Y10463108D01*
X3518930Y10486093D01*
X3525800Y10511730D01*
Y10515000D01*
D02*
G37*
G36*
X3415000D02*
X3324200D01*
Y10511730D01*
X3331070Y10486093D01*
X3344340Y10463108D01*
X3363108Y10444340D01*
X3386093Y10431070D01*
X3411730Y10424200D01*
X3415000D01*
Y10515000D01*
D02*
G37*
G36*
X1380000Y10358243D02*
X1379999Y10358243D01*
X953001D01*
X953000Y10358243D01*
X942192Y10356093D01*
X933029Y10349971D01*
X933029Y10349970D01*
X868758Y10285699D01*
X863314Y10288841D01*
X840704Y10294900D01*
X817296D01*
X794686Y10288841D01*
X774414Y10277138D01*
X757862Y10260586D01*
X746159Y10240314D01*
X740100Y10217704D01*
Y10194296D01*
X746159Y10171686D01*
X757862Y10151414D01*
X774414Y10134862D01*
X794686Y10123158D01*
X817296Y10117100D01*
X840704D01*
X863314Y10123158D01*
X883586Y10134862D01*
X900138Y10151414D01*
X911842Y10171686D01*
X917900Y10194296D01*
Y10217704D01*
X911842Y10240314D01*
X908699Y10245758D01*
X964699Y10301757D01*
X1047819D01*
X1049491Y10289057D01*
X1048686Y10288841D01*
X1028414Y10277138D01*
X1011862Y10260586D01*
X1000159Y10240314D01*
X994100Y10217704D01*
Y10194296D01*
X1000159Y10171686D01*
X1011862Y10151414D01*
X1028414Y10134862D01*
X1048686Y10123158D01*
X1071296Y10117100D01*
X1094704D01*
X1117314Y10123158D01*
X1122758Y10126301D01*
X1181757Y10067301D01*
Y9467985D01*
X1169057Y9466313D01*
X1165842Y9478314D01*
X1154138Y9498586D01*
X1137586Y9515138D01*
X1117314Y9526841D01*
X1094704Y9532900D01*
X1071296D01*
X1048686Y9526841D01*
X1028414Y9515138D01*
X1011862Y9498586D01*
X1000159Y9478314D01*
X994100Y9455704D01*
Y9432296D01*
X1000159Y9409686D01*
X1011862Y9389414D01*
X1028414Y9372862D01*
X1048686Y9361158D01*
X1071296Y9355100D01*
X1094704D01*
X1117314Y9361158D01*
X1137586Y9372862D01*
X1154138Y9389414D01*
X1165842Y9409686D01*
X1169057Y9421687D01*
X1181757Y9420015D01*
Y8662501D01*
X1181757Y8662500D01*
X1183907Y8651692D01*
X1190029Y8642529D01*
X1627300Y8205259D01*
Y8194006D01*
X1633801Y8178313D01*
X1645813Y8166301D01*
X1661506Y8159800D01*
X1678493D01*
X1694187Y8166301D01*
X1706199Y8178313D01*
X1712700Y8194006D01*
Y8210993D01*
X1706199Y8226687D01*
X1694187Y8238699D01*
X1678493Y8245200D01*
X1667241D01*
X1238243Y8674199D01*
Y9420015D01*
X1250943Y9421687D01*
X1254159Y9409686D01*
X1265862Y9389414D01*
X1282414Y9372862D01*
X1302686Y9361158D01*
X1325296Y9355100D01*
X1348704D01*
X1371314Y9361158D01*
X1391586Y9372862D01*
X1408138Y9389414D01*
X1413066Y9397950D01*
X1430024Y9401921D01*
X1431757Y9400772D01*
Y8600001D01*
X1431757Y8600000D01*
X1433907Y8589192D01*
X1440029Y8580029D01*
X1637300Y8382759D01*
Y8371506D01*
X1643801Y8355813D01*
X1655813Y8343801D01*
X1671506Y8337300D01*
X1688493D01*
X1704187Y8343801D01*
X1716199Y8355813D01*
X1722700Y8371506D01*
Y8388494D01*
X1716199Y8404187D01*
X1704187Y8416199D01*
X1688493Y8422700D01*
X1677241D01*
X1488243Y8611699D01*
Y10250000D01*
X1486093Y10260809D01*
X1479971Y10269971D01*
X1479970Y10269972D01*
X1399971Y10349971D01*
X1390808Y10356093D01*
X1380000Y10358243D01*
D02*
G37*
G36*
X1856704Y10294900D02*
X1833296D01*
X1810686Y10288841D01*
X1790414Y10277138D01*
X1773862Y10260586D01*
X1762159Y10240314D01*
X1756100Y10217704D01*
Y10194296D01*
X1762159Y10171686D01*
X1773862Y10151414D01*
X1790414Y10134862D01*
X1810686Y10123158D01*
X1833296Y10117100D01*
X1856704D01*
X1879314Y10123158D01*
X1899586Y10134862D01*
X1916138Y10151414D01*
X1927842Y10171686D01*
X1933900Y10194296D01*
Y10217704D01*
X1927842Y10240314D01*
X1916138Y10260586D01*
X1899586Y10277138D01*
X1879314Y10288841D01*
X1856704Y10294900D01*
D02*
G37*
G36*
X1602704D02*
X1579296D01*
X1556686Y10288841D01*
X1536414Y10277138D01*
X1519862Y10260586D01*
X1508159Y10240314D01*
X1502100Y10217704D01*
Y10194296D01*
X1508159Y10171686D01*
X1519862Y10151414D01*
X1536414Y10134862D01*
X1556686Y10123158D01*
X1579296Y10117100D01*
X1602704D01*
X1625314Y10123158D01*
X1645586Y10134862D01*
X1662138Y10151414D01*
X1673842Y10171686D01*
X1679900Y10194296D01*
Y10217704D01*
X1673842Y10240314D01*
X1662138Y10260586D01*
X1645586Y10277138D01*
X1625314Y10288841D01*
X1602704Y10294900D01*
D02*
G37*
G36*
X586704D02*
X563296D01*
X540686Y10288841D01*
X520414Y10277138D01*
X503862Y10260586D01*
X492159Y10240314D01*
X486100Y10217704D01*
Y10194296D01*
X492159Y10171686D01*
X503862Y10151414D01*
X520414Y10134862D01*
X540686Y10123158D01*
X563296Y10117100D01*
X586704D01*
X609314Y10123158D01*
X629586Y10134862D01*
X646138Y10151414D01*
X657842Y10171686D01*
X663900Y10194296D01*
Y10217704D01*
X657842Y10240314D01*
X646138Y10260586D01*
X629586Y10277138D01*
X609314Y10288841D01*
X586704Y10294900D01*
D02*
G37*
G36*
X2605000Y10078487D02*
X2573105Y10075346D01*
X2542436Y10066042D01*
X2514172Y10050934D01*
X2489397Y10030603D01*
X2469066Y10005829D01*
X2453958Y9977564D01*
X2444654Y9946895D01*
X2441513Y9915000D01*
Y9735000D01*
X2444654Y9703105D01*
X2453958Y9672436D01*
X2469066Y9644171D01*
X2489397Y9619397D01*
X2514172Y9599065D01*
X2542436Y9583957D01*
X2573105Y9574654D01*
X2605000Y9571513D01*
X2636895Y9574654D01*
X2667564Y9583957D01*
X2695829Y9599065D01*
X2720603Y9619397D01*
X2740935Y9644171D01*
X2756042Y9672436D01*
X2765346Y9703105D01*
X2768487Y9735000D01*
Y9915000D01*
X2765346Y9946895D01*
X2756042Y9977564D01*
X2740935Y10005829D01*
X2720603Y10030603D01*
X2695829Y10050934D01*
X2667564Y10066042D01*
X2636895Y10075346D01*
X2605000Y10078487D01*
D02*
G37*
G36*
X1602704Y9532900D02*
X1579296D01*
X1556686Y9526841D01*
X1536414Y9515138D01*
X1519862Y9498586D01*
X1508159Y9478314D01*
X1502100Y9455704D01*
Y9432296D01*
X1508159Y9409686D01*
X1519862Y9389414D01*
X1536414Y9372862D01*
X1556686Y9361158D01*
X1579296Y9355100D01*
X1602704D01*
X1625314Y9361158D01*
X1645586Y9372862D01*
X1662138Y9389414D01*
X1673842Y9409686D01*
X1679900Y9432296D01*
Y9455704D01*
X1673842Y9478314D01*
X1662138Y9498586D01*
X1645586Y9515138D01*
X1625314Y9526841D01*
X1602704Y9532900D01*
D02*
G37*
G36*
X840704D02*
X817296D01*
X794686Y9526841D01*
X774414Y9515138D01*
X757862Y9498586D01*
X746159Y9478314D01*
X740100Y9455704D01*
Y9432296D01*
X746159Y9409686D01*
X757862Y9389414D01*
X774414Y9372862D01*
X794686Y9361158D01*
X817296Y9355100D01*
X840704D01*
X863314Y9361158D01*
X883586Y9372862D01*
X900138Y9389414D01*
X911842Y9409686D01*
X917900Y9432296D01*
Y9455704D01*
X911842Y9478314D01*
X900138Y9498586D01*
X883586Y9515138D01*
X863314Y9526841D01*
X840704Y9532900D01*
D02*
G37*
G36*
X3188270Y9175800D02*
X3185000D01*
Y9085000D01*
X3275800D01*
Y9088270D01*
X3268930Y9113907D01*
X3255660Y9136892D01*
X3236892Y9155660D01*
X3213907Y9168930D01*
X3188270Y9175800D01*
D02*
G37*
G36*
X3165000D02*
X3161730D01*
X3136093Y9168930D01*
X3113108Y9155660D01*
X3094340Y9136892D01*
X3081070Y9113907D01*
X3074200Y9088270D01*
Y9085000D01*
X3165000D01*
Y9175800D01*
D02*
G37*
G36*
X3438270D02*
X3411730D01*
X3386093Y9168930D01*
X3363108Y9155660D01*
X3344340Y9136892D01*
X3331070Y9113907D01*
X3324200Y9088270D01*
Y9061729D01*
X3331070Y9036093D01*
X3344340Y9013107D01*
X3363108Y8994340D01*
X3386093Y8981069D01*
X3411730Y8974200D01*
X3438270D01*
X3463907Y8981069D01*
X3486892Y8994340D01*
X3505660Y9013107D01*
X3518930Y9036093D01*
X3525800Y9061729D01*
Y9088270D01*
X3518930Y9113907D01*
X3505660Y9136892D01*
X3486892Y9155660D01*
X3463907Y9168930D01*
X3438270Y9175800D01*
D02*
G37*
G36*
X3275800Y9065000D02*
X3185000D01*
Y8974200D01*
X3188270D01*
X3213907Y8981069D01*
X3236892Y8994340D01*
X3255660Y9013107D01*
X3268930Y9036093D01*
X3275800Y9061729D01*
Y9065000D01*
D02*
G37*
G36*
X3165000D02*
X3074200D01*
Y9061729D01*
X3081070Y9036093D01*
X3094340Y9013107D01*
X3113108Y8994340D01*
X3136093Y8981069D01*
X3161730Y8974200D01*
X3165000D01*
Y9065000D01*
D02*
G37*
G36*
X2938270Y9175800D02*
X2911730D01*
X2886093Y9168930D01*
X2863108Y9155660D01*
X2844340Y9136892D01*
X2831070Y9113907D01*
X2824200Y9088270D01*
Y9061729D01*
X2831070Y9036093D01*
X2844340Y9013107D01*
X2863108Y8994340D01*
X2886093Y8981069D01*
X2911730Y8974200D01*
X2938270D01*
X2963907Y8981069D01*
X2986892Y8994340D01*
X3005660Y9013107D01*
X3018930Y9036093D01*
X3025800Y9061729D01*
Y9088270D01*
X3018930Y9113907D01*
X3005660Y9136892D01*
X2986892Y9155660D01*
X2963907Y9168930D01*
X2938270Y9175800D01*
D02*
G37*
G36*
X586704Y9532900D02*
X563296D01*
X540686Y9526841D01*
X520414Y9515138D01*
X503862Y9498586D01*
X492159Y9478314D01*
X486100Y9455704D01*
Y9432296D01*
X492159Y9409686D01*
X503862Y9389414D01*
X520414Y9372862D01*
X540686Y9361158D01*
X563296Y9355100D01*
X586704D01*
X609314Y9361158D01*
X614757Y9364301D01*
X881757Y9097301D01*
Y8642144D01*
X873801Y8634187D01*
X867300Y8618494D01*
Y8601507D01*
X873801Y8585813D01*
X885813Y8573801D01*
X901506Y8567300D01*
X918493D01*
X934187Y8573801D01*
X946199Y8585813D01*
X952700Y8601507D01*
Y8618494D01*
X946199Y8634187D01*
X938243Y8642144D01*
Y9108999D01*
X938243Y9109000D01*
X936093Y9119808D01*
X929971Y9128971D01*
X654699Y9404243D01*
X657842Y9409686D01*
X663900Y9432296D01*
Y9455704D01*
X657842Y9478314D01*
X646138Y9498586D01*
X629586Y9515138D01*
X609314Y9526841D01*
X586704Y9532900D01*
D02*
G37*
G36*
X3098493Y10112700D02*
X3081506D01*
X3065813Y10106199D01*
X3053801Y10094187D01*
X3047300Y10078493D01*
Y10061506D01*
X3051561Y10051219D01*
Y9680001D01*
X3051561Y9680000D01*
X3054487Y9665290D01*
X3062820Y9652820D01*
X3561561Y9154078D01*
Y8399393D01*
X3549828Y8394533D01*
X3330460Y8613900D01*
X3326199Y8624187D01*
X3314187Y8636199D01*
X3298494Y8642700D01*
X3281507D01*
X3271219Y8638439D01*
X2938781D01*
X2928494Y8642700D01*
X2911506D01*
X2895813Y8636199D01*
X2883801Y8624187D01*
X2877300Y8608494D01*
Y8591507D01*
X2883801Y8575813D01*
X2895813Y8563801D01*
X2911506Y8557300D01*
X2928494D01*
X2938781Y8561561D01*
X3271219D01*
X3276100Y8559540D01*
X3561561Y8274078D01*
Y7235922D01*
X3282820Y6957180D01*
X3274487Y6944710D01*
X3271561Y6930000D01*
X3271561Y6929999D01*
Y5440001D01*
X3271561Y5440000D01*
X3274487Y5425290D01*
X3282820Y5412820D01*
X3382819Y5312820D01*
X3382820Y5312820D01*
X3395290Y5304487D01*
X3410000Y5301561D01*
X3604999D01*
X3605000Y5301561D01*
X3619710Y5304487D01*
X3632180Y5312820D01*
X3718112Y5398751D01*
X3718324Y5398629D01*
X3743809Y5391800D01*
X3770192D01*
X3795676Y5398629D01*
X3818524Y5411820D01*
X3837180Y5430476D01*
X3850372Y5453324D01*
X3857200Y5478808D01*
Y5505191D01*
X3850372Y5530676D01*
X3837180Y5553524D01*
X3818524Y5572180D01*
X3795676Y5585371D01*
X3770192Y5592200D01*
X3743809D01*
X3718324Y5585371D01*
X3695476Y5572180D01*
X3676820Y5553524D01*
X3663629Y5530676D01*
X3656800Y5505191D01*
Y5478808D01*
X3663629Y5453324D01*
X3663751Y5453112D01*
X3589078Y5378439D01*
X3425922D01*
X3348439Y5455922D01*
Y6914078D01*
X3627180Y7192819D01*
X3635512Y7205290D01*
X3638439Y7220000D01*
X3638438Y7220001D01*
Y8289999D01*
X3638439Y8290000D01*
X3638438Y8290001D01*
Y9169999D01*
X3638439Y9170000D01*
X3635513Y9184710D01*
X3627180Y9197180D01*
X3627179Y9197181D01*
X3128438Y9695922D01*
Y10051219D01*
X3132700Y10061506D01*
Y10078493D01*
X3126199Y10094187D01*
X3114187Y10106199D01*
X3098493Y10112700D01*
D02*
G37*
G36*
X1451200Y8298900D02*
X1275800D01*
Y8287509D01*
X1274754Y8284984D01*
Y8034984D01*
X1278780Y8025263D01*
X1288501Y8021237D01*
X1438500D01*
X1448221Y8025263D01*
X1452247Y8034984D01*
Y8284984D01*
X1451200Y8287511D01*
Y8298900D01*
D02*
G37*
G36*
X1197200D02*
X1021800D01*
Y8287509D01*
X1020754Y8284984D01*
Y8034984D01*
X1024780Y8025263D01*
X1034501Y8021237D01*
X1184500D01*
X1194221Y8025263D01*
X1198247Y8034984D01*
Y8284984D01*
X1197200Y8287511D01*
Y8298900D01*
D02*
G37*
G36*
X943200D02*
X767800D01*
Y8287509D01*
X766754Y8284984D01*
Y8034984D01*
X770780Y8025263D01*
X780501Y8021237D01*
X930500D01*
X940221Y8025263D01*
X944247Y8034984D01*
Y8284984D01*
X943200Y8287511D01*
Y8298900D01*
D02*
G37*
G36*
X689200D02*
X513800D01*
Y8287509D01*
X512754Y8284984D01*
Y8034984D01*
X516780Y8025263D01*
X526501Y8021237D01*
X676500D01*
X686221Y8025263D01*
X690247Y8034984D01*
Y8284984D01*
X689200Y8287511D01*
Y8298900D01*
D02*
G37*
G36*
X2980272Y8020392D02*
X2914728D01*
X2913409Y8020130D01*
X2912067Y8020217D01*
X2847084Y8011662D01*
X2845810Y8011230D01*
X2844468Y8011142D01*
X2781158Y7994178D01*
X2779952Y7993583D01*
X2778632Y7993321D01*
X2718077Y7968238D01*
X2716959Y7967491D01*
X2715685Y7967058D01*
X2658923Y7934287D01*
X2657912Y7933400D01*
X2656705Y7932805D01*
X2604706Y7892904D01*
X2603819Y7891893D01*
X2602700Y7891146D01*
X2556354Y7844799D01*
X2555607Y7843681D01*
X2554595Y7842794D01*
X2514695Y7790795D01*
X2514100Y7789588D01*
X2513213Y7788577D01*
X2480442Y7731815D01*
X2480009Y7730541D01*
X2479262Y7729422D01*
X2454179Y7668868D01*
X2453917Y7667549D01*
X2453322Y7666342D01*
X2436358Y7603032D01*
X2436270Y7601690D01*
X2435838Y7600416D01*
X2427283Y7535433D01*
X2427371Y7534091D01*
X2427108Y7532772D01*
Y7467228D01*
X2427371Y7465909D01*
X2427283Y7464567D01*
X2435838Y7399584D01*
X2436270Y7398310D01*
X2436358Y7396967D01*
X2453322Y7333657D01*
X2453917Y7332451D01*
X2454179Y7331132D01*
X2479262Y7270577D01*
X2480009Y7269459D01*
X2480442Y7268185D01*
X2513213Y7211423D01*
X2514100Y7210412D01*
X2514695Y7209205D01*
X2554595Y7157206D01*
X2555607Y7156319D01*
X2556354Y7155200D01*
X2602700Y7108854D01*
X2603819Y7108106D01*
X2604706Y7107095D01*
X2656705Y7067195D01*
X2657912Y7066600D01*
X2658923Y7065713D01*
X2715685Y7032941D01*
X2716958Y7032509D01*
X2718077Y7031762D01*
X2778632Y7006679D01*
X2779951Y7006417D01*
X2781158Y7005822D01*
X2844468Y6988858D01*
X2845810Y6988770D01*
X2847084Y6988338D01*
X2912067Y6979783D01*
X2913409Y6979870D01*
X2914728Y6979608D01*
X2980272D01*
X2981591Y6979870D01*
X2982933Y6979783D01*
X3047916Y6988338D01*
X3049190Y6988770D01*
X3050532Y6988858D01*
X3113842Y7005822D01*
X3115048Y7006417D01*
X3116368Y7006679D01*
X3176923Y7031762D01*
X3178041Y7032509D01*
X3179315Y7032941D01*
X3236077Y7065713D01*
X3237088Y7066600D01*
X3238295Y7067195D01*
X3290294Y7107095D01*
X3291181Y7108106D01*
X3292299Y7108854D01*
X3338646Y7155200D01*
X3339393Y7156319D01*
X3340405Y7157206D01*
X3380305Y7209205D01*
X3380900Y7210412D01*
X3381787Y7211423D01*
X3414558Y7268185D01*
X3414991Y7269458D01*
X3415738Y7270577D01*
X3440821Y7331132D01*
X3441083Y7332451D01*
X3441678Y7333657D01*
X3458642Y7396967D01*
X3458730Y7398310D01*
X3459162Y7399584D01*
X3467717Y7464566D01*
X3467630Y7465909D01*
X3467892Y7467228D01*
Y7532772D01*
X3467630Y7534091D01*
X3467717Y7535433D01*
X3459162Y7600416D01*
X3458730Y7601690D01*
X3458642Y7603032D01*
X3441678Y7666342D01*
X3441083Y7667548D01*
X3440821Y7668868D01*
X3415738Y7729422D01*
X3414991Y7730541D01*
X3414558Y7731815D01*
X3381787Y7788577D01*
X3380900Y7789588D01*
X3380305Y7790795D01*
X3340405Y7842794D01*
X3339393Y7843681D01*
X3338646Y7844799D01*
X3292299Y7891146D01*
X3291181Y7891893D01*
X3290294Y7892904D01*
X3238295Y7932805D01*
X3237088Y7933400D01*
X3236077Y7934287D01*
X3179315Y7967058D01*
X3178041Y7967491D01*
X3176923Y7968238D01*
X3116368Y7993321D01*
X3115049Y7993583D01*
X3113842Y7994178D01*
X3050532Y8011142D01*
X3049190Y8011230D01*
X3047916Y8011662D01*
X2982933Y8020217D01*
X2981591Y8020130D01*
X2980272Y8020392D01*
D02*
G37*
G36*
X1710000Y7948243D02*
X1709999Y7948243D01*
X971053D01*
X971052Y7948243D01*
X960244Y7946093D01*
X951081Y7939971D01*
X951081Y7939970D01*
X914278Y7903167D01*
X903026D01*
X887332Y7896666D01*
X886229Y7895563D01*
X872831Y7900127D01*
X871852Y7905048D01*
X865730Y7914211D01*
X865730Y7914212D01*
X839971Y7939971D01*
X830808Y7946093D01*
X820000Y7948243D01*
X819999Y7948243D01*
X620000D01*
X609192Y7946093D01*
X600029Y7939971D01*
X600029Y7939970D01*
X560029Y7899971D01*
X553907Y7890808D01*
X551757Y7880000D01*
X551757Y7879999D01*
Y7820001D01*
X551757Y7820000D01*
X553907Y7809192D01*
X560029Y7800029D01*
X770029Y7590030D01*
X770029Y7590029D01*
X779192Y7583907D01*
X790000Y7581757D01*
X898301D01*
X1601757Y6878302D01*
Y6857539D01*
X1589273Y6852096D01*
X1582700Y6858213D01*
Y6868494D01*
X1576199Y6884187D01*
X1564187Y6896199D01*
X1548493Y6902700D01*
X1531506D01*
X1515813Y6896199D01*
X1503801Y6884187D01*
X1497300Y6868494D01*
Y6851506D01*
X1503801Y6835813D01*
X1515813Y6823801D01*
X1531506Y6817300D01*
X1540185D01*
X1541757Y6815728D01*
Y5620001D01*
X1541757Y5620000D01*
X1543907Y5609192D01*
X1550029Y5600029D01*
X1611757Y5538302D01*
Y5192297D01*
X1610631Y5191595D01*
X1599057Y5188403D01*
X1585927Y5201534D01*
X1565536Y5209980D01*
X1543465D01*
X1523073Y5201534D01*
X1507466Y5185927D01*
X1499020Y5165536D01*
Y5143464D01*
X1507466Y5123073D01*
X1523073Y5107466D01*
X1543465Y5099020D01*
X1565536D01*
X1585927Y5107466D01*
X1599057Y5120597D01*
X1610631Y5117405D01*
X1611757Y5116703D01*
Y4111699D01*
X1272758Y3772700D01*
X1177300D01*
Y3627300D01*
X1312700D01*
Y3732758D01*
X1486320Y3906379D01*
X1499020Y3901118D01*
Y3893464D01*
X1507466Y3873073D01*
X1523073Y3857466D01*
X1543465Y3849020D01*
X1565536D01*
X1585927Y3857466D01*
X1601534Y3873073D01*
X1609980Y3893464D01*
Y3915535D01*
X1601534Y3935927D01*
X1585927Y3951534D01*
X1565536Y3959980D01*
X1557882D01*
X1552621Y3972680D01*
X1659057Y4079116D01*
X1662921Y4078722D01*
X1671757Y4074809D01*
Y2921698D01*
X1272758Y2522700D01*
X1177300D01*
Y2377300D01*
X1312700D01*
Y2482758D01*
X1486320Y2656378D01*
X1499020Y2651118D01*
Y2643464D01*
X1507466Y2623073D01*
X1523073Y2607466D01*
X1543465Y2599020D01*
X1565536D01*
X1585927Y2607466D01*
X1601534Y2623073D01*
X1609980Y2643464D01*
Y2665535D01*
X1601534Y2685927D01*
X1585927Y2701534D01*
X1565536Y2709980D01*
X1557882D01*
X1552621Y2722680D01*
X1719057Y2889116D01*
X1722920Y2888723D01*
X1731757Y2884809D01*
Y1731698D01*
X1272758Y1272700D01*
X1177300D01*
Y1127300D01*
X1312700D01*
Y1232758D01*
X1486320Y1406378D01*
X1499020Y1401118D01*
Y1393464D01*
X1507466Y1373073D01*
X1523073Y1357466D01*
X1543465Y1349020D01*
X1565536D01*
X1585927Y1357466D01*
X1601534Y1373073D01*
X1609980Y1393464D01*
Y1415535D01*
X1601534Y1435927D01*
X1585927Y1451534D01*
X1565536Y1459980D01*
X1557882D01*
X1552621Y1472680D01*
X1779971Y1700029D01*
X1786093Y1709191D01*
X1788243Y1720000D01*
X1788243Y1720001D01*
Y5590001D01*
X1786093Y5600809D01*
X1779971Y5609971D01*
X1718243Y5671699D01*
Y6919999D01*
X1718243Y6920000D01*
X1717285Y6924813D01*
X1728990Y6931069D01*
X2211757Y6448302D01*
Y5671699D01*
X2150029Y5609971D01*
X2143907Y5600808D01*
X2141757Y5590000D01*
X2141757Y5589999D01*
Y1715001D01*
X2141757Y1715000D01*
X2143907Y1704192D01*
X2150029Y1695029D01*
X2617300Y1227759D01*
Y1127300D01*
X2752700D01*
Y1272700D01*
X2652241D01*
X2198243Y1726699D01*
Y2879809D01*
X2207080Y2883723D01*
X2210943Y2884116D01*
X2617300Y2477759D01*
Y2377300D01*
X2752700D01*
Y2522700D01*
X2652241D01*
X2258243Y2916699D01*
Y4069809D01*
X2267079Y4073722D01*
X2270943Y4074116D01*
X2617300Y3727758D01*
Y3627300D01*
X2752700D01*
Y3772700D01*
X2652242D01*
X2318243Y4106699D01*
Y4707703D01*
X2319369Y4708405D01*
X2330943Y4711597D01*
X2344073Y4698466D01*
X2364464Y4690020D01*
X2386535D01*
X2406927Y4698466D01*
X2422534Y4714073D01*
X2430980Y4734464D01*
Y4756536D01*
X2422534Y4776927D01*
X2406927Y4792534D01*
X2386535Y4800980D01*
X2364464D01*
X2344073Y4792534D01*
X2330943Y4779403D01*
X2319369Y4782595D01*
X2318243Y4783297D01*
Y5538301D01*
X2379970Y5600029D01*
X2379971Y5600029D01*
X2386093Y5609192D01*
X2388243Y5620000D01*
X2388243Y5620001D01*
Y7159999D01*
X2388243Y7160000D01*
X2386093Y7170808D01*
X2379971Y7179971D01*
X1712700Y7847242D01*
Y7858494D01*
X1712060Y7860038D01*
X1722827Y7867232D01*
X2661757Y6928302D01*
Y5090000D01*
Y5022700D01*
X2617300D01*
Y4877300D01*
X2752700D01*
Y5022700D01*
X2718243D01*
Y5136296D01*
X2730943Y5138822D01*
X2737466Y5123073D01*
X2753073Y5107466D01*
X2773464Y5099020D01*
X2795535D01*
X2815927Y5107466D01*
X2831534Y5123073D01*
X2839980Y5143464D01*
Y5165536D01*
X2831534Y5185927D01*
X2815927Y5201534D01*
X2795535Y5209980D01*
X2773464D01*
X2753073Y5201534D01*
X2737466Y5185927D01*
X2730943Y5170178D01*
X2718243Y5172704D01*
Y6940000D01*
X2716093Y6950809D01*
X2709971Y6959971D01*
X1729971Y7939971D01*
X1720809Y7946093D01*
X1710000Y7948243D01*
D02*
G37*
G36*
X438493Y7892700D02*
X421506D01*
X405812Y7886199D01*
X393801Y7874187D01*
X387300Y7858494D01*
Y7841507D01*
X393801Y7825813D01*
X405812Y7813801D01*
X421506Y7807300D01*
X432758D01*
X691757Y7548301D01*
Y6985760D01*
X679057Y6977671D01*
X676500Y6978730D01*
X526500D01*
X516780Y6974704D01*
X512754Y6964984D01*
Y6714984D01*
X513800Y6712457D01*
Y6701100D01*
X573257D01*
Y6503198D01*
X529098Y6459039D01*
X518936Y6466837D01*
X520371Y6469324D01*
X527200Y6494808D01*
Y6521191D01*
X520371Y6546676D01*
X507180Y6569524D01*
X488524Y6588180D01*
X465676Y6601371D01*
X440191Y6608200D01*
X413808D01*
X388324Y6601371D01*
X365476Y6588180D01*
X346820Y6569524D01*
X333628Y6546676D01*
X326800Y6521191D01*
Y6494808D01*
X333628Y6469324D01*
X346820Y6446476D01*
X365476Y6427820D01*
X377387Y6420943D01*
X373985Y6408243D01*
X299001D01*
X299000Y6408243D01*
X288192Y6406093D01*
X279029Y6399971D01*
X279028Y6399970D01*
X221029Y6341971D01*
X211676Y6347371D01*
X186191Y6354200D01*
X159808D01*
X134324Y6347371D01*
X111476Y6334180D01*
X92820Y6315524D01*
X79628Y6292676D01*
X72800Y6267191D01*
Y6240808D01*
X79628Y6215324D01*
X92820Y6192476D01*
X111476Y6173820D01*
X134324Y6160629D01*
X159808Y6153800D01*
X186191D01*
X211676Y6160629D01*
X234524Y6173820D01*
X253180Y6192476D01*
X266371Y6215324D01*
X273200Y6240808D01*
Y6267191D01*
X266371Y6292676D01*
X260971Y6302030D01*
X310698Y6351757D01*
X370520D01*
X373923Y6339057D01*
X365476Y6334180D01*
X346820Y6315524D01*
X333628Y6292676D01*
X326800Y6267191D01*
Y6240808D01*
X333628Y6215324D01*
X346820Y6192476D01*
X365476Y6173820D01*
X388324Y6160629D01*
X413808Y6153800D01*
X440191D01*
X465676Y6160629D01*
X488524Y6173820D01*
X507180Y6192476D01*
X520371Y6215324D01*
X527200Y6240808D01*
Y6267191D01*
X520371Y6292676D01*
X507180Y6315524D01*
X488524Y6334180D01*
X480077Y6339057D01*
X483479Y6351757D01*
X489999D01*
X490000Y6351757D01*
X500808Y6353907D01*
X509971Y6360029D01*
X621470Y6471529D01*
X621471Y6471529D01*
X627593Y6480692D01*
X629743Y6491500D01*
X629743Y6491501D01*
Y6701100D01*
X689200Y6701100D01*
X691757Y6689460D01*
Y6400001D01*
X691757Y6400000D01*
X693907Y6389192D01*
X700029Y6380029D01*
X727300Y6352758D01*
Y6341506D01*
X733801Y6325813D01*
X745813Y6313801D01*
X761506Y6307300D01*
X778493D01*
X794187Y6313801D01*
X806199Y6325813D01*
X812700Y6341506D01*
Y6358494D01*
X806199Y6374187D01*
X794187Y6386199D01*
X778493Y6392700D01*
X767242D01*
X748243Y6411699D01*
Y7560000D01*
X746093Y7570808D01*
X739971Y7579971D01*
X739970Y7579971D01*
X472700Y7847242D01*
Y7858494D01*
X466199Y7874187D01*
X454187Y7886199D01*
X438493Y7892700D01*
D02*
G37*
G36*
X1248494Y7052700D02*
X1231507D01*
X1215813Y7046199D01*
X1203801Y7034187D01*
X1197300Y7018493D01*
Y7001506D01*
X1203801Y6985813D01*
X1211757Y6977856D01*
Y6640001D01*
X1211757Y6640000D01*
X1213907Y6629192D01*
X1220029Y6620029D01*
X1426757Y6413301D01*
Y5022700D01*
X1387300D01*
Y4877300D01*
X1522700D01*
Y4901344D01*
X1535400Y4909829D01*
X1541506Y4907300D01*
X1558493D01*
X1574187Y4913801D01*
X1586199Y4925813D01*
X1592700Y4941506D01*
Y4958494D01*
X1586199Y4974187D01*
X1574187Y4986199D01*
X1558493Y4992700D01*
X1541506D01*
X1535400Y4990171D01*
X1522700Y4998656D01*
Y5022700D01*
X1483243D01*
Y6424999D01*
X1483243Y6425000D01*
X1481093Y6435808D01*
X1474971Y6444971D01*
X1268243Y6651699D01*
Y6691530D01*
X1275800Y6701100D01*
X1280943Y6701100D01*
X1353500D01*
Y6788800D01*
X1373500D01*
Y6701100D01*
X1451200D01*
Y6712457D01*
X1452246Y6714984D01*
Y6964984D01*
X1448220Y6974704D01*
X1438500Y6978730D01*
X1288500D01*
X1285441Y6977463D01*
X1280610Y6981827D01*
X1276984Y6987707D01*
X1282700Y7001506D01*
Y7018493D01*
X1276199Y7034187D01*
X1264187Y7046199D01*
X1248494Y7052700D01*
D02*
G37*
G36*
X1184500Y6978730D02*
X1034500D01*
X1024780Y6974704D01*
X1020754Y6964984D01*
Y6737574D01*
X990654Y6707474D01*
X980638Y6700290D01*
X973414Y6707222D01*
X944246Y6736390D01*
Y6964984D01*
X940220Y6974704D01*
X930500Y6978730D01*
X780500D01*
X770780Y6974704D01*
X766754Y6964984D01*
Y6714984D01*
X767800Y6712457D01*
Y6701100D01*
X906864D01*
X936607Y6671357D01*
Y5812943D01*
X787057Y5663394D01*
X545943D01*
X513651Y5695685D01*
X520371Y5707324D01*
X527200Y5732808D01*
Y5759191D01*
X520371Y5784676D01*
X507180Y5807524D01*
X488524Y5826180D01*
X465676Y5839371D01*
X440191Y5846200D01*
X413808D01*
X388324Y5839371D01*
X365476Y5826180D01*
X346820Y5807524D01*
X333628Y5784676D01*
X326800Y5759191D01*
Y5732808D01*
X333628Y5707324D01*
X346820Y5684476D01*
X365476Y5665820D01*
X388324Y5652629D01*
X413808Y5645800D01*
X440191D01*
X465676Y5652629D01*
X477315Y5659349D01*
X509028Y5627636D01*
X508904Y5610240D01*
X477315Y5578651D01*
X465676Y5585371D01*
X440191Y5592200D01*
X413808D01*
X388324Y5585371D01*
X365476Y5572180D01*
X346820Y5553524D01*
X333628Y5530676D01*
X326800Y5505191D01*
Y5478808D01*
X333628Y5453324D01*
X346820Y5430476D01*
X365476Y5411820D01*
X388324Y5398629D01*
X413808Y5391800D01*
X440191D01*
X465676Y5398629D01*
X488524Y5411820D01*
X507180Y5430476D01*
X520371Y5453324D01*
X527200Y5478808D01*
Y5505191D01*
X520371Y5530676D01*
X513651Y5542315D01*
X545643Y5574306D01*
X813316D01*
X823148Y5576262D01*
X831484Y5581832D01*
X841382Y5591730D01*
X842452Y5592445D01*
X1007304Y5757297D01*
X1007304Y5757297D01*
X1018419Y5768413D01*
X1023989Y5776748D01*
X1025945Y5786581D01*
Y6670092D01*
X1056953Y6701100D01*
X1197200D01*
Y6712457D01*
X1198246Y6714984D01*
Y6964984D01*
X1194220Y6974704D01*
X1184500Y6978730D01*
D02*
G37*
G36*
X3770192Y6608200D02*
X3743809D01*
X3718324Y6601371D01*
X3695476Y6588180D01*
X3676820Y6569524D01*
X3663629Y6546676D01*
X3656800Y6521191D01*
Y6494808D01*
X3663629Y6469324D01*
X3676820Y6446476D01*
X3695476Y6427820D01*
X3718324Y6414629D01*
X3743809Y6407800D01*
X3770192D01*
X3795676Y6414629D01*
X3818524Y6427820D01*
X3837180Y6446476D01*
X3850372Y6469324D01*
X3857200Y6494808D01*
Y6521191D01*
X3850372Y6546676D01*
X3837180Y6569524D01*
X3818524Y6588180D01*
X3795676Y6601371D01*
X3770192Y6608200D01*
D02*
G37*
G36*
X3516192D02*
X3489809D01*
X3464324Y6601371D01*
X3441476Y6588180D01*
X3422820Y6569524D01*
X3409629Y6546676D01*
X3402800Y6521191D01*
Y6494808D01*
X3409629Y6469324D01*
X3422820Y6446476D01*
X3441476Y6427820D01*
X3464324Y6414629D01*
X3489809Y6407800D01*
X3516192D01*
X3541676Y6414629D01*
X3564524Y6427820D01*
X3583180Y6446476D01*
X3596372Y6469324D01*
X3603200Y6494808D01*
Y6521191D01*
X3596372Y6546676D01*
X3583180Y6569524D01*
X3564524Y6588180D01*
X3541676Y6601371D01*
X3516192Y6608200D01*
D02*
G37*
G36*
X186191D02*
X159808D01*
X134324Y6601371D01*
X111476Y6588180D01*
X92820Y6569524D01*
X79628Y6546676D01*
X72800Y6521191D01*
Y6494808D01*
X79628Y6469324D01*
X92820Y6446476D01*
X111476Y6427820D01*
X134324Y6414629D01*
X159808Y6407800D01*
X186191D01*
X211676Y6414629D01*
X234524Y6427820D01*
X253180Y6446476D01*
X266371Y6469324D01*
X273200Y6494808D01*
Y6521191D01*
X266371Y6546676D01*
X253180Y6569524D01*
X234524Y6588180D01*
X211676Y6601371D01*
X186191Y6608200D01*
D02*
G37*
G36*
X3770192Y6354200D02*
X3767000D01*
Y6264000D01*
X3857200D01*
Y6267191D01*
X3850372Y6292676D01*
X3837180Y6315524D01*
X3818524Y6334180D01*
X3795676Y6347371D01*
X3770192Y6354200D01*
D02*
G37*
G36*
X3747000D02*
X3743809D01*
X3718324Y6347371D01*
X3695476Y6334180D01*
X3676820Y6315524D01*
X3663629Y6292676D01*
X3656800Y6267191D01*
Y6264000D01*
X3747000D01*
Y6354200D01*
D02*
G37*
G36*
X2028500Y6393858D02*
X1901500D01*
X1881608Y6391239D01*
X1863071Y6383561D01*
X1847153Y6371347D01*
X1834939Y6355429D01*
X1827261Y6336892D01*
X1824642Y6317000D01*
X1827261Y6297108D01*
X1834939Y6278571D01*
X1847153Y6262653D01*
X1863071Y6250439D01*
X1881608Y6242761D01*
X1901500Y6240142D01*
X2028500D01*
X2048392Y6242761D01*
X2066929Y6250439D01*
X2082846Y6262653D01*
X2095061Y6278571D01*
X2102739Y6297108D01*
X2105357Y6317000D01*
X2102739Y6336892D01*
X2095061Y6355429D01*
X2082846Y6371347D01*
X2066929Y6383561D01*
X2048392Y6391239D01*
X2028500Y6393858D01*
D02*
G37*
G36*
X3857200Y6244000D02*
X3767000D01*
Y6153800D01*
X3770192D01*
X3795676Y6160629D01*
X3818524Y6173820D01*
X3837180Y6192476D01*
X3850372Y6215324D01*
X3857200Y6240808D01*
Y6244000D01*
D02*
G37*
G36*
X3747000D02*
X3656800D01*
Y6240808D01*
X3663629Y6215324D01*
X3676820Y6192476D01*
X3695476Y6173820D01*
X3718324Y6160629D01*
X3743809Y6153800D01*
X3747000D01*
Y6244000D01*
D02*
G37*
G36*
X3516192Y6354200D02*
X3489809D01*
X3464324Y6347371D01*
X3441476Y6334180D01*
X3422820Y6315524D01*
X3409629Y6292676D01*
X3402800Y6267191D01*
Y6240808D01*
X3409629Y6215324D01*
X3422820Y6192476D01*
X3441476Y6173820D01*
X3464324Y6160629D01*
X3489809Y6153800D01*
X3516192D01*
X3541676Y6160629D01*
X3564524Y6173820D01*
X3583180Y6192476D01*
X3596372Y6215324D01*
X3603200Y6240808D01*
Y6267191D01*
X3596372Y6292676D01*
X3583180Y6315524D01*
X3564524Y6334180D01*
X3541676Y6347371D01*
X3516192Y6354200D01*
D02*
G37*
G36*
X186191Y6100200D02*
X183000D01*
Y6010000D01*
X273200D01*
Y6013191D01*
X266371Y6038676D01*
X253180Y6061524D01*
X234524Y6080180D01*
X211676Y6093371D01*
X186191Y6100200D01*
D02*
G37*
G36*
X3516192D02*
X3513000D01*
Y6010000D01*
X3603200D01*
Y6013191D01*
X3596372Y6038676D01*
X3583180Y6061524D01*
X3564524Y6080180D01*
X3541676Y6093371D01*
X3516192Y6100200D01*
D02*
G37*
G36*
X3770192D02*
X3767000D01*
Y6010000D01*
X3857200D01*
Y6013191D01*
X3850372Y6038676D01*
X3837180Y6061524D01*
X3818524Y6080180D01*
X3795676Y6093371D01*
X3770192Y6100200D01*
D02*
G37*
G36*
X3493000D02*
X3489809D01*
X3464324Y6093371D01*
X3441476Y6080180D01*
X3422820Y6061524D01*
X3409629Y6038676D01*
X3402800Y6013191D01*
Y6010000D01*
X3493000D01*
Y6100200D01*
D02*
G37*
G36*
X163000D02*
X159808D01*
X134324Y6093371D01*
X111476Y6080180D01*
X92820Y6061524D01*
X79628Y6038676D01*
X72800Y6013191D01*
Y6010000D01*
X163000D01*
Y6100200D01*
D02*
G37*
G36*
X3747000D02*
X3743809D01*
X3718324Y6093371D01*
X3695476Y6080180D01*
X3676820Y6061524D01*
X3663629Y6038676D01*
X3656800Y6013191D01*
Y6010000D01*
X3747000D01*
Y6100200D01*
D02*
G37*
G36*
X3857200Y5990000D02*
X3767000D01*
Y5899800D01*
X3770192D01*
X3795676Y5906629D01*
X3818524Y5919820D01*
X3837180Y5938476D01*
X3850372Y5961324D01*
X3857200Y5986808D01*
Y5990000D01*
D02*
G37*
G36*
X3747000D02*
X3656800D01*
Y5986808D01*
X3663629Y5961324D01*
X3676820Y5938476D01*
X3695476Y5919820D01*
X3718324Y5906629D01*
X3743809Y5899800D01*
X3747000D01*
Y5990000D01*
D02*
G37*
G36*
X3603200D02*
X3513000D01*
Y5899800D01*
X3516192D01*
X3541676Y5906629D01*
X3564524Y5919820D01*
X3583180Y5938476D01*
X3596372Y5961324D01*
X3603200Y5986808D01*
Y5990000D01*
D02*
G37*
G36*
X3493000D02*
X3402800D01*
Y5986808D01*
X3409629Y5961324D01*
X3422820Y5938476D01*
X3441476Y5919820D01*
X3464324Y5906629D01*
X3489809Y5899800D01*
X3493000D01*
Y5990000D01*
D02*
G37*
G36*
X440191Y6100200D02*
X413808D01*
X388324Y6093371D01*
X365476Y6080180D01*
X346820Y6061524D01*
X333628Y6038676D01*
X326800Y6013191D01*
Y5986808D01*
X333628Y5961324D01*
X346820Y5938476D01*
X365476Y5919820D01*
X388324Y5906629D01*
X413808Y5899800D01*
X440191D01*
X465676Y5906629D01*
X488524Y5919820D01*
X507180Y5938476D01*
X520371Y5961324D01*
X527200Y5986808D01*
Y6013191D01*
X520371Y6038676D01*
X507180Y6061524D01*
X488524Y6080180D01*
X465676Y6093371D01*
X440191Y6100200D01*
D02*
G37*
G36*
X273200Y5990000D02*
X183000D01*
Y5899800D01*
X186191D01*
X211676Y5906629D01*
X234524Y5919820D01*
X253180Y5938476D01*
X266371Y5961324D01*
X273200Y5986808D01*
Y5990000D01*
D02*
G37*
G36*
X163000D02*
X72800D01*
Y5986808D01*
X79628Y5961324D01*
X92820Y5938476D01*
X111476Y5919820D01*
X134324Y5906629D01*
X159808Y5899800D01*
X163000D01*
Y5990000D01*
D02*
G37*
G36*
X186191Y5846200D02*
X183000D01*
Y5756000D01*
X273200D01*
Y5759191D01*
X266371Y5784676D01*
X253180Y5807524D01*
X234524Y5826180D01*
X211676Y5839371D01*
X186191Y5846200D01*
D02*
G37*
G36*
X3516192D02*
X3513000D01*
Y5756000D01*
X3603200D01*
Y5759191D01*
X3596372Y5784676D01*
X3583180Y5807524D01*
X3564524Y5826180D01*
X3541676Y5839371D01*
X3516192Y5846200D01*
D02*
G37*
G36*
X3770192D02*
X3767000D01*
Y5756000D01*
X3857200D01*
Y5759191D01*
X3850372Y5784676D01*
X3837180Y5807524D01*
X3818524Y5826180D01*
X3795676Y5839371D01*
X3770192Y5846200D01*
D02*
G37*
G36*
X3493000D02*
X3489809D01*
X3464324Y5839371D01*
X3441476Y5826180D01*
X3422820Y5807524D01*
X3409629Y5784676D01*
X3402800Y5759191D01*
Y5756000D01*
X3493000D01*
Y5846200D01*
D02*
G37*
G36*
X163000D02*
X159808D01*
X134324Y5839371D01*
X111476Y5826180D01*
X92820Y5807524D01*
X79628Y5784676D01*
X72800Y5759191D01*
Y5756000D01*
X163000D01*
Y5846200D01*
D02*
G37*
G36*
X3747000D02*
X3743809D01*
X3718324Y5839371D01*
X3695476Y5826180D01*
X3676820Y5807524D01*
X3663629Y5784676D01*
X3656800Y5759191D01*
Y5756000D01*
X3747000D01*
Y5846200D01*
D02*
G37*
G36*
X3857200Y5736000D02*
X3767000D01*
Y5645800D01*
X3770192D01*
X3795676Y5652629D01*
X3818524Y5665820D01*
X3837180Y5684476D01*
X3850372Y5707324D01*
X3857200Y5732808D01*
Y5736000D01*
D02*
G37*
G36*
X3747000D02*
X3656800D01*
Y5732808D01*
X3663629Y5707324D01*
X3676820Y5684476D01*
X3695476Y5665820D01*
X3718324Y5652629D01*
X3743809Y5645800D01*
X3747000D01*
Y5736000D01*
D02*
G37*
G36*
X3603200D02*
X3513000D01*
Y5645800D01*
X3516192D01*
X3541676Y5652629D01*
X3564524Y5665820D01*
X3583180Y5684476D01*
X3596372Y5707324D01*
X3603200Y5732808D01*
Y5736000D01*
D02*
G37*
G36*
X3493000D02*
X3402800D01*
Y5732808D01*
X3409629Y5707324D01*
X3422820Y5684476D01*
X3441476Y5665820D01*
X3464324Y5652629D01*
X3489809Y5645800D01*
X3493000D01*
Y5736000D01*
D02*
G37*
G36*
X273200D02*
X183000D01*
Y5645800D01*
X186191D01*
X211676Y5652629D01*
X234524Y5665820D01*
X253180Y5684476D01*
X266371Y5707324D01*
X273200Y5732808D01*
Y5736000D01*
D02*
G37*
G36*
X163000D02*
X72800D01*
Y5732808D01*
X79628Y5707324D01*
X92820Y5684476D01*
X111476Y5665820D01*
X134324Y5652629D01*
X159808Y5645800D01*
X163000D01*
Y5736000D01*
D02*
G37*
G36*
X1985191Y6030000D02*
X1944809D01*
X1905204Y6022122D01*
X1867896Y6006668D01*
X1834320Y5984234D01*
X1805766Y5955680D01*
X1783331Y5922104D01*
X1767878Y5884796D01*
X1760000Y5845191D01*
Y5804809D01*
X1767878Y5765204D01*
X1783331Y5727896D01*
X1805766Y5694320D01*
X1834320Y5665766D01*
X1867896Y5643332D01*
X1905204Y5627878D01*
X1944809Y5620000D01*
X1985191D01*
X2024796Y5627878D01*
X2062104Y5643332D01*
X2095680Y5665766D01*
X2124234Y5694320D01*
X2146668Y5727896D01*
X2162122Y5765204D01*
X2170000Y5804809D01*
Y5845191D01*
X2162122Y5884796D01*
X2146668Y5922104D01*
X2124234Y5955680D01*
X2095680Y5984234D01*
X2062104Y6006668D01*
X2024796Y6022122D01*
X1985191Y6030000D01*
D02*
G37*
G36*
X186191Y5592200D02*
X183000D01*
Y5502000D01*
X273200D01*
Y5505191D01*
X266371Y5530676D01*
X253180Y5553524D01*
X234524Y5572180D01*
X211676Y5585371D01*
X186191Y5592200D01*
D02*
G37*
G36*
X3516192D02*
X3513000D01*
Y5502000D01*
X3603200D01*
Y5505191D01*
X3596372Y5530676D01*
X3583180Y5553524D01*
X3564524Y5572180D01*
X3541676Y5585371D01*
X3516192Y5592200D01*
D02*
G37*
G36*
X3493000D02*
X3489809D01*
X3464324Y5585371D01*
X3441476Y5572180D01*
X3422820Y5553524D01*
X3409629Y5530676D01*
X3402800Y5505191D01*
Y5502000D01*
X3493000D01*
Y5592200D01*
D02*
G37*
G36*
X163000D02*
X159808D01*
X134324Y5585371D01*
X111476Y5572180D01*
X92820Y5553524D01*
X79628Y5530676D01*
X72800Y5505191D01*
Y5502000D01*
X163000D01*
Y5592200D01*
D02*
G37*
G36*
X2028500Y5563857D02*
X1901500D01*
X1881608Y5561238D01*
X1863071Y5553560D01*
X1847153Y5541346D01*
X1834939Y5525428D01*
X1827261Y5506891D01*
X1824642Y5486999D01*
X1827261Y5467107D01*
X1834939Y5448570D01*
X1847153Y5432653D01*
X1863071Y5420438D01*
X1881608Y5412760D01*
X1901500Y5410142D01*
X2028500D01*
X2048392Y5412760D01*
X2066929Y5420438D01*
X2082846Y5432653D01*
X2095061Y5448570D01*
X2102739Y5467107D01*
X2105357Y5486999D01*
X2102739Y5506891D01*
X2095061Y5525428D01*
X2082846Y5541346D01*
X2066929Y5553560D01*
X2048392Y5561238D01*
X2028500Y5563857D01*
D02*
G37*
G36*
X3603200Y5482000D02*
X3513000D01*
Y5391800D01*
X3516192D01*
X3541676Y5398629D01*
X3564524Y5411820D01*
X3583180Y5430476D01*
X3596372Y5453324D01*
X3603200Y5478808D01*
Y5482000D01*
D02*
G37*
G36*
X3493000D02*
X3402800D01*
Y5478808D01*
X3409629Y5453324D01*
X3422820Y5430476D01*
X3441476Y5411820D01*
X3464324Y5398629D01*
X3489809Y5391800D01*
X3493000D01*
Y5482000D01*
D02*
G37*
G36*
X273200D02*
X183000D01*
Y5391800D01*
X186191D01*
X211676Y5398629D01*
X234524Y5411820D01*
X253180Y5430476D01*
X266371Y5453324D01*
X273200Y5478808D01*
Y5482000D01*
D02*
G37*
G36*
X163000D02*
X72800D01*
Y5478808D01*
X79628Y5453324D01*
X92820Y5430476D01*
X111476Y5411820D01*
X134324Y5398629D01*
X159808Y5391800D01*
X163000D01*
Y5482000D01*
D02*
G37*
G36*
X2028500Y5253857D02*
X1975000D01*
Y5187000D01*
X2104041D01*
X2102739Y5196892D01*
X2095061Y5215429D01*
X2082846Y5231346D01*
X2066929Y5243561D01*
X2048392Y5251239D01*
X2028500Y5253857D01*
D02*
G37*
G36*
X1955000D02*
X1901500D01*
X1881608Y5251239D01*
X1863071Y5243561D01*
X1847153Y5231346D01*
X1834939Y5215429D01*
X1827261Y5196892D01*
X1825959Y5187000D01*
X1955000D01*
Y5253857D01*
D02*
G37*
G36*
X2104041Y5167000D02*
X1975000D01*
Y5100142D01*
X2028500D01*
X2048392Y5102761D01*
X2066929Y5110439D01*
X2082846Y5122653D01*
X2095061Y5138571D01*
X2102739Y5157108D01*
X2104041Y5167000D01*
D02*
G37*
G36*
X1955000D02*
X1825959D01*
X1827261Y5157108D01*
X1834939Y5138571D01*
X1847153Y5122653D01*
X1863071Y5110439D01*
X1881608Y5102761D01*
X1901500Y5100142D01*
X1955000D01*
Y5167000D01*
D02*
G37*
G36*
X2542700Y5022700D02*
X2407300D01*
Y4998656D01*
X2394600Y4990171D01*
X2388494Y4992700D01*
X2371507D01*
X2355813Y4986199D01*
X2343801Y4974187D01*
X2337300Y4958494D01*
Y4941506D01*
X2343801Y4925813D01*
X2355813Y4913801D01*
X2371507Y4907300D01*
X2388494D01*
X2394600Y4909829D01*
X2407300Y4901344D01*
Y4877300D01*
X2542700D01*
Y5022700D01*
D02*
G37*
G36*
X1258494Y6512700D02*
X1241507D01*
X1225813Y6506199D01*
X1213801Y6494187D01*
X1207300Y6478494D01*
Y6461507D01*
X1213801Y6445813D01*
X1221757Y6437856D01*
Y5022700D01*
X1177300D01*
Y4877300D01*
X1312700D01*
Y5022700D01*
X1278243D01*
Y6437856D01*
X1286199Y6445813D01*
X1292700Y6461507D01*
Y6478494D01*
X1286199Y6494187D01*
X1274187Y6506199D01*
X1258494Y6512700D01*
D02*
G37*
G36*
X1156536Y4800980D02*
X1134465D01*
X1114073Y4792534D01*
X1098466Y4776927D01*
X1090020Y4756536D01*
Y4734464D01*
X1098466Y4714073D01*
X1114073Y4698466D01*
X1134465Y4690020D01*
X1156536D01*
X1176927Y4698466D01*
X1192534Y4714073D01*
X1200980Y4734464D01*
Y4756536D01*
X1192534Y4776927D01*
X1176927Y4792534D01*
X1156536Y4800980D01*
D02*
G37*
G36*
X1308000Y4714041D02*
Y4585000D01*
X1374858D01*
Y4638500D01*
X1372239Y4658392D01*
X1364561Y4676929D01*
X1352347Y4692847D01*
X1336429Y4705061D01*
X1317892Y4712739D01*
X1308000Y4714041D01*
D02*
G37*
G36*
X2642000D02*
Y4585000D01*
X2708857D01*
Y4638500D01*
X2706239Y4658392D01*
X2698561Y4676929D01*
X2686346Y4692847D01*
X2670429Y4705061D01*
X2651892Y4712739D01*
X2642000Y4714041D01*
D02*
G37*
G36*
X2622000D02*
X2612108Y4712739D01*
X2593571Y4705061D01*
X2577653Y4692847D01*
X2565439Y4676929D01*
X2557761Y4658392D01*
X2555142Y4638500D01*
Y4585000D01*
X2622000D01*
Y4714041D01*
D02*
G37*
G36*
X1288000D02*
X1278108Y4712739D01*
X1259571Y4705061D01*
X1243654Y4692847D01*
X1231439Y4676929D01*
X1223761Y4658392D01*
X1221143Y4638500D01*
Y4585000D01*
X1288000D01*
Y4714041D01*
D02*
G37*
G36*
X1374858Y4565000D02*
X1308000D01*
Y4435959D01*
X1317892Y4437261D01*
X1336429Y4444939D01*
X1352347Y4457153D01*
X1364561Y4473071D01*
X1372239Y4491608D01*
X1374858Y4511500D01*
Y4565000D01*
D02*
G37*
G36*
X2622000D02*
X2555142D01*
Y4511500D01*
X2557761Y4491608D01*
X2565439Y4473071D01*
X2577653Y4457153D01*
X2593571Y4444939D01*
X2612108Y4437261D01*
X2622000Y4435959D01*
Y4565000D01*
D02*
G37*
G36*
X2708857D02*
X2642000D01*
Y4435959D01*
X2651892Y4437261D01*
X2670429Y4444939D01*
X2686346Y4457153D01*
X2698561Y4473071D01*
X2706239Y4491608D01*
X2708857Y4511500D01*
Y4565000D01*
D02*
G37*
G36*
X1288000D02*
X1221143D01*
Y4511500D01*
X1223761Y4491608D01*
X1231439Y4473071D01*
X1243654Y4457153D01*
X1259571Y4444939D01*
X1278108Y4437261D01*
X1288000Y4435959D01*
Y4565000D01*
D02*
G37*
G36*
X3772000Y4715358D02*
X3752108Y4712739D01*
X3733571Y4705061D01*
X3717653Y4692847D01*
X3705439Y4676929D01*
X3697761Y4658392D01*
X3695142Y4638500D01*
Y4511500D01*
X3697761Y4491608D01*
X3705439Y4473071D01*
X3717653Y4457153D01*
X3733571Y4444939D01*
X3752108Y4437261D01*
X3772000Y4434642D01*
X3791892Y4437261D01*
X3810429Y4444939D01*
X3826347Y4457153D01*
X3838561Y4473071D01*
X3846239Y4491608D01*
X3848858Y4511500D01*
Y4638500D01*
X3846239Y4658392D01*
X3838561Y4676929D01*
X3826347Y4692847D01*
X3810429Y4705061D01*
X3791892Y4712739D01*
X3772000Y4715358D01*
D02*
G37*
G36*
X2941999D02*
X2922107Y4712739D01*
X2903570Y4705061D01*
X2887653Y4692847D01*
X2875438Y4676929D01*
X2867760Y4658392D01*
X2865142Y4638500D01*
Y4511500D01*
X2867760Y4491608D01*
X2875438Y4473071D01*
X2887653Y4457153D01*
X2903570Y4444939D01*
X2922107Y4437261D01*
X2941999Y4434642D01*
X2961891Y4437261D01*
X2980428Y4444939D01*
X2996346Y4457153D01*
X3008560Y4473071D01*
X3016238Y4491608D01*
X3018857Y4511500D01*
Y4638500D01*
X3016238Y4658392D01*
X3008560Y4676929D01*
X2996346Y4692847D01*
X2980428Y4705061D01*
X2961891Y4712739D01*
X2941999Y4715358D01*
D02*
G37*
G36*
X988001D02*
X968109Y4712739D01*
X949572Y4705061D01*
X933654Y4692847D01*
X921440Y4676929D01*
X913762Y4658392D01*
X911143Y4638500D01*
Y4511500D01*
X913762Y4491608D01*
X921440Y4473071D01*
X933654Y4457153D01*
X949572Y4444939D01*
X968109Y4437261D01*
X988001Y4434642D01*
X1007893Y4437261D01*
X1026430Y4444939D01*
X1042347Y4457153D01*
X1054562Y4473071D01*
X1062240Y4491608D01*
X1064858Y4511500D01*
Y4638500D01*
X1062240Y4658392D01*
X1054562Y4676929D01*
X1042347Y4692847D01*
X1026430Y4705061D01*
X1007893Y4712739D01*
X988001Y4715358D01*
D02*
G37*
G36*
X158000D02*
X138108Y4712739D01*
X119571Y4705061D01*
X103653Y4692847D01*
X91439Y4676929D01*
X83761Y4658392D01*
X81142Y4638500D01*
Y4511500D01*
X83761Y4491608D01*
X91439Y4473071D01*
X103653Y4457153D01*
X119571Y4444939D01*
X138108Y4437261D01*
X158000Y4434642D01*
X177892Y4437261D01*
X196429Y4444939D01*
X212347Y4457153D01*
X224561Y4473071D01*
X232239Y4491608D01*
X234858Y4511500D01*
Y4638500D01*
X232239Y4658392D01*
X224561Y4676929D01*
X212347Y4692847D01*
X196429Y4705061D01*
X177892Y4712739D01*
X158000Y4715358D01*
D02*
G37*
G36*
X3300191Y4780000D02*
X3259809D01*
X3220204Y4772122D01*
X3182896Y4756668D01*
X3149320Y4734234D01*
X3120766Y4705680D01*
X3098332Y4672104D01*
X3082878Y4634796D01*
X3075000Y4595191D01*
Y4554809D01*
X3082878Y4515204D01*
X3098332Y4477896D01*
X3120766Y4444320D01*
X3149320Y4415766D01*
X3182896Y4393332D01*
X3220204Y4377878D01*
X3259809Y4370000D01*
X3300191D01*
X3339796Y4377878D01*
X3377104Y4393332D01*
X3410680Y4415766D01*
X3439234Y4444320D01*
X3461668Y4477896D01*
X3477122Y4515204D01*
X3485000Y4554809D01*
Y4595191D01*
X3477122Y4634796D01*
X3461668Y4672104D01*
X3439234Y4705680D01*
X3410680Y4734234D01*
X3377104Y4756668D01*
X3339796Y4772122D01*
X3300191Y4780000D01*
D02*
G37*
G36*
X670191D02*
X629809D01*
X590204Y4772122D01*
X552896Y4756668D01*
X519320Y4734234D01*
X490766Y4705680D01*
X468332Y4672104D01*
X452878Y4634796D01*
X445000Y4595191D01*
Y4554809D01*
X452878Y4515204D01*
X468332Y4477896D01*
X490766Y4444320D01*
X519320Y4415766D01*
X552896Y4393332D01*
X590204Y4377878D01*
X629809Y4370000D01*
X670191D01*
X709796Y4377878D01*
X747104Y4393332D01*
X780680Y4415766D01*
X809234Y4444320D01*
X831668Y4477896D01*
X847122Y4515204D01*
X855000Y4554809D01*
Y4595191D01*
X847122Y4634796D01*
X831668Y4672104D01*
X809234Y4705680D01*
X780680Y4734234D01*
X747104Y4756668D01*
X709796Y4772122D01*
X670191Y4780000D01*
D02*
G37*
G36*
X2795535Y3959980D02*
X2773464D01*
X2753073Y3951534D01*
X2737466Y3935927D01*
X2729020Y3915535D01*
Y3893464D01*
X2737466Y3873073D01*
X2753073Y3857466D01*
X2773464Y3849020D01*
X2795535D01*
X2815927Y3857466D01*
X2831534Y3873073D01*
X2839980Y3893464D01*
Y3915535D01*
X2831534Y3935927D01*
X2815927Y3951534D01*
X2795535Y3959980D01*
D02*
G37*
G36*
X2542700Y3772700D02*
X2407300D01*
Y3748656D01*
X2394600Y3740171D01*
X2388494Y3742700D01*
X2371507D01*
X2355813Y3736199D01*
X2343801Y3724187D01*
X2337300Y3708493D01*
Y3691506D01*
X2343801Y3675813D01*
X2355813Y3663801D01*
X2371507Y3657300D01*
X2388494D01*
X2394600Y3659829D01*
X2407300Y3651343D01*
Y3627300D01*
X2542700D01*
Y3772700D01*
D02*
G37*
G36*
X1522700D02*
X1387300D01*
Y3627300D01*
X1522700D01*
Y3651343D01*
X1535400Y3659829D01*
X1541506Y3657300D01*
X1558493D01*
X1574187Y3663801D01*
X1586199Y3675813D01*
X1592700Y3691506D01*
Y3708493D01*
X1586199Y3724187D01*
X1574187Y3736199D01*
X1558493Y3742700D01*
X1541506D01*
X1535400Y3740171D01*
X1522700Y3748656D01*
Y3772700D01*
D02*
G37*
G36*
X2386535Y3550980D02*
X2364464D01*
X2344073Y3542534D01*
X2328466Y3526927D01*
X2320020Y3506536D01*
Y3484464D01*
X2328466Y3464073D01*
X2344073Y3448466D01*
X2364464Y3440020D01*
X2386535D01*
X2406927Y3448466D01*
X2422534Y3464073D01*
X2430980Y3484464D01*
Y3506536D01*
X2422534Y3526927D01*
X2406927Y3542534D01*
X2386535Y3550980D01*
D02*
G37*
G36*
X1156536D02*
X1134465D01*
X1114073Y3542534D01*
X1098466Y3526927D01*
X1090020Y3506536D01*
Y3484464D01*
X1098466Y3464073D01*
X1114073Y3448466D01*
X1134465Y3440020D01*
X1156536D01*
X1176927Y3448466D01*
X1192534Y3464073D01*
X1200980Y3484464D01*
Y3506536D01*
X1192534Y3526927D01*
X1176927Y3542534D01*
X1156536Y3550980D01*
D02*
G37*
G36*
X1308000Y3464041D02*
Y3335000D01*
X1374858D01*
Y3388500D01*
X1372239Y3408392D01*
X1364561Y3426929D01*
X1352347Y3442847D01*
X1336429Y3455061D01*
X1317892Y3462739D01*
X1308000Y3464041D01*
D02*
G37*
G36*
X2642000D02*
Y3335000D01*
X2708857D01*
Y3388500D01*
X2706239Y3408392D01*
X2698561Y3426929D01*
X2686346Y3442847D01*
X2670429Y3455061D01*
X2651892Y3462739D01*
X2642000Y3464041D01*
D02*
G37*
G36*
X2622000D02*
X2612108Y3462739D01*
X2593571Y3455061D01*
X2577653Y3442847D01*
X2565439Y3426929D01*
X2557761Y3408392D01*
X2555142Y3388500D01*
Y3335000D01*
X2622000D01*
Y3464041D01*
D02*
G37*
G36*
X1288000D02*
X1278108Y3462739D01*
X1259571Y3455061D01*
X1243654Y3442847D01*
X1231439Y3426929D01*
X1223761Y3408392D01*
X1221143Y3388500D01*
Y3335000D01*
X1288000D01*
Y3464041D01*
D02*
G37*
G36*
X1374858Y3315000D02*
X1308000D01*
Y3185959D01*
X1317892Y3187261D01*
X1336429Y3194939D01*
X1352347Y3207153D01*
X1364561Y3223071D01*
X1372239Y3241608D01*
X1374858Y3261500D01*
Y3315000D01*
D02*
G37*
G36*
X2708857D02*
X2642000D01*
Y3185959D01*
X2651892Y3187261D01*
X2670429Y3194939D01*
X2686346Y3207153D01*
X2698561Y3223071D01*
X2706239Y3241608D01*
X2708857Y3261500D01*
Y3315000D01*
D02*
G37*
G36*
X2622000D02*
X2555142D01*
Y3261500D01*
X2557761Y3241608D01*
X2565439Y3223071D01*
X2577653Y3207153D01*
X2593571Y3194939D01*
X2612108Y3187261D01*
X2622000Y3185959D01*
Y3315000D01*
D02*
G37*
G36*
X1288000D02*
X1221143D01*
Y3261500D01*
X1223761Y3241608D01*
X1231439Y3223071D01*
X1243654Y3207153D01*
X1259571Y3194939D01*
X1278108Y3187261D01*
X1288000Y3185959D01*
Y3315000D01*
D02*
G37*
G36*
X3772000Y3465358D02*
X3752108Y3462739D01*
X3733571Y3455061D01*
X3717653Y3442847D01*
X3705439Y3426929D01*
X3697761Y3408392D01*
X3695142Y3388500D01*
Y3261500D01*
X3697761Y3241608D01*
X3705439Y3223071D01*
X3717653Y3207153D01*
X3733571Y3194939D01*
X3752108Y3187261D01*
X3772000Y3184642D01*
X3791892Y3187261D01*
X3810429Y3194939D01*
X3826347Y3207153D01*
X3838561Y3223071D01*
X3846239Y3241608D01*
X3848858Y3261500D01*
Y3388500D01*
X3846239Y3408392D01*
X3838561Y3426929D01*
X3826347Y3442847D01*
X3810429Y3455061D01*
X3791892Y3462739D01*
X3772000Y3465358D01*
D02*
G37*
G36*
X2941999D02*
X2922107Y3462739D01*
X2903570Y3455061D01*
X2887653Y3442847D01*
X2875438Y3426929D01*
X2867760Y3408392D01*
X2865142Y3388500D01*
Y3261500D01*
X2867760Y3241608D01*
X2875438Y3223071D01*
X2887653Y3207153D01*
X2903570Y3194939D01*
X2922107Y3187261D01*
X2941999Y3184642D01*
X2961891Y3187261D01*
X2980428Y3194939D01*
X2996346Y3207153D01*
X3008560Y3223071D01*
X3016238Y3241608D01*
X3018857Y3261500D01*
Y3388500D01*
X3016238Y3408392D01*
X3008560Y3426929D01*
X2996346Y3442847D01*
X2980428Y3455061D01*
X2961891Y3462739D01*
X2941999Y3465358D01*
D02*
G37*
G36*
X988001D02*
X968109Y3462739D01*
X949572Y3455061D01*
X933654Y3442847D01*
X921440Y3426929D01*
X913762Y3408392D01*
X911143Y3388500D01*
Y3261500D01*
X913762Y3241608D01*
X921440Y3223071D01*
X933654Y3207153D01*
X949572Y3194939D01*
X968109Y3187261D01*
X988001Y3184642D01*
X1007893Y3187261D01*
X1026430Y3194939D01*
X1042347Y3207153D01*
X1054562Y3223071D01*
X1062240Y3241608D01*
X1064858Y3261500D01*
Y3388500D01*
X1062240Y3408392D01*
X1054562Y3426929D01*
X1042347Y3442847D01*
X1026430Y3455061D01*
X1007893Y3462739D01*
X988001Y3465358D01*
D02*
G37*
G36*
X158000D02*
X138108Y3462739D01*
X119571Y3455061D01*
X103653Y3442847D01*
X91439Y3426929D01*
X83761Y3408392D01*
X81142Y3388500D01*
Y3261500D01*
X83761Y3241608D01*
X91439Y3223071D01*
X103653Y3207153D01*
X119571Y3194939D01*
X138108Y3187261D01*
X158000Y3184642D01*
X177892Y3187261D01*
X196429Y3194939D01*
X212347Y3207153D01*
X224561Y3223071D01*
X232239Y3241608D01*
X234858Y3261500D01*
Y3388500D01*
X232239Y3408392D01*
X224561Y3426929D01*
X212347Y3442847D01*
X196429Y3455061D01*
X177892Y3462739D01*
X158000Y3465358D01*
D02*
G37*
G36*
X3300191Y3530000D02*
X3259809D01*
X3220204Y3522122D01*
X3182896Y3506668D01*
X3149320Y3484234D01*
X3120766Y3455680D01*
X3098332Y3422104D01*
X3082878Y3384796D01*
X3075000Y3345191D01*
Y3304809D01*
X3082878Y3265204D01*
X3098332Y3227896D01*
X3120766Y3194320D01*
X3149320Y3165766D01*
X3182896Y3143332D01*
X3220204Y3127878D01*
X3259809Y3120000D01*
X3300191D01*
X3339796Y3127878D01*
X3377104Y3143332D01*
X3410680Y3165766D01*
X3439234Y3194320D01*
X3461668Y3227896D01*
X3477122Y3265204D01*
X3485000Y3304809D01*
Y3345191D01*
X3477122Y3384796D01*
X3461668Y3422104D01*
X3439234Y3455680D01*
X3410680Y3484234D01*
X3377104Y3506668D01*
X3339796Y3522122D01*
X3300191Y3530000D01*
D02*
G37*
G36*
X670191D02*
X629809D01*
X590204Y3522122D01*
X552896Y3506668D01*
X519320Y3484234D01*
X490766Y3455680D01*
X468332Y3422104D01*
X452878Y3384796D01*
X445000Y3345191D01*
Y3304809D01*
X452878Y3265204D01*
X468332Y3227896D01*
X490766Y3194320D01*
X519320Y3165766D01*
X552896Y3143332D01*
X590204Y3127878D01*
X629809Y3120000D01*
X670191D01*
X709796Y3127878D01*
X747104Y3143332D01*
X780680Y3165766D01*
X809234Y3194320D01*
X831668Y3227896D01*
X847122Y3265204D01*
X855000Y3304809D01*
Y3345191D01*
X847122Y3384796D01*
X831668Y3422104D01*
X809234Y3455680D01*
X780680Y3484234D01*
X747104Y3506668D01*
X709796Y3522122D01*
X670191Y3530000D01*
D02*
G37*
G36*
X2795535Y2709980D02*
X2773464D01*
X2753073Y2701534D01*
X2737466Y2685927D01*
X2729020Y2665535D01*
Y2643464D01*
X2737466Y2623073D01*
X2753073Y2607466D01*
X2773464Y2599020D01*
X2795535D01*
X2815927Y2607466D01*
X2831534Y2623073D01*
X2839980Y2643464D01*
Y2665535D01*
X2831534Y2685927D01*
X2815927Y2701534D01*
X2795535Y2709980D01*
D02*
G37*
G36*
X2542700Y2522700D02*
X2407300D01*
Y2498656D01*
X2394600Y2490171D01*
X2388494Y2492700D01*
X2371507D01*
X2355813Y2486199D01*
X2343801Y2474187D01*
X2337300Y2458493D01*
Y2441506D01*
X2343801Y2425813D01*
X2355813Y2413801D01*
X2371507Y2407300D01*
X2388494D01*
X2394600Y2409829D01*
X2407300Y2401343D01*
Y2377300D01*
X2542700D01*
Y2522700D01*
D02*
G37*
G36*
X1522700D02*
X1387300D01*
Y2377300D01*
X1522700D01*
Y2401343D01*
X1535400Y2409829D01*
X1541506Y2407300D01*
X1558493D01*
X1574187Y2413801D01*
X1586199Y2425813D01*
X1592700Y2441506D01*
Y2458493D01*
X1586199Y2474187D01*
X1574187Y2486199D01*
X1558493Y2492700D01*
X1541506D01*
X1535400Y2490171D01*
X1522700Y2498656D01*
Y2522700D01*
D02*
G37*
G36*
X2386535Y2300980D02*
X2364464D01*
X2344073Y2292534D01*
X2328466Y2276927D01*
X2320020Y2256535D01*
Y2234464D01*
X2328466Y2214073D01*
X2344073Y2198466D01*
X2364464Y2190020D01*
X2386535D01*
X2406927Y2198466D01*
X2422534Y2214073D01*
X2430980Y2234464D01*
Y2256535D01*
X2422534Y2276927D01*
X2406927Y2292534D01*
X2386535Y2300980D01*
D02*
G37*
G36*
X1156536D02*
X1134465D01*
X1114073Y2292534D01*
X1098466Y2276927D01*
X1090020Y2256535D01*
Y2234464D01*
X1098466Y2214073D01*
X1114073Y2198466D01*
X1134465Y2190020D01*
X1156536D01*
X1176927Y2198466D01*
X1192534Y2214073D01*
X1200980Y2234464D01*
Y2256535D01*
X1192534Y2276927D01*
X1176927Y2292534D01*
X1156536Y2300980D01*
D02*
G37*
G36*
X1308000Y2214041D02*
Y2085000D01*
X1374858D01*
Y2138500D01*
X1372239Y2158392D01*
X1364561Y2176929D01*
X1352347Y2192847D01*
X1336429Y2205061D01*
X1317892Y2212739D01*
X1308000Y2214041D01*
D02*
G37*
G36*
X2642000D02*
Y2085000D01*
X2708857D01*
Y2138500D01*
X2706239Y2158392D01*
X2698561Y2176929D01*
X2686346Y2192847D01*
X2670429Y2205061D01*
X2651892Y2212739D01*
X2642000Y2214041D01*
D02*
G37*
G36*
X2622000D02*
X2612108Y2212739D01*
X2593571Y2205061D01*
X2577653Y2192847D01*
X2565439Y2176929D01*
X2557761Y2158392D01*
X2555142Y2138500D01*
Y2085000D01*
X2622000D01*
Y2214041D01*
D02*
G37*
G36*
X1288000D02*
X1278108Y2212739D01*
X1259571Y2205061D01*
X1243654Y2192847D01*
X1231439Y2176929D01*
X1223761Y2158392D01*
X1221143Y2138500D01*
Y2085000D01*
X1288000D01*
Y2214041D01*
D02*
G37*
G36*
X1374858Y2065000D02*
X1308000D01*
Y1935959D01*
X1317892Y1937261D01*
X1336429Y1944939D01*
X1352347Y1957153D01*
X1364561Y1973071D01*
X1372239Y1991608D01*
X1374858Y2011500D01*
Y2065000D01*
D02*
G37*
G36*
X2708857D02*
X2642000D01*
Y1935959D01*
X2651892Y1937261D01*
X2670429Y1944939D01*
X2686346Y1957153D01*
X2698561Y1973071D01*
X2706239Y1991608D01*
X2708857Y2011500D01*
Y2065000D01*
D02*
G37*
G36*
X2622000D02*
X2555142D01*
Y2011500D01*
X2557761Y1991608D01*
X2565439Y1973071D01*
X2577653Y1957153D01*
X2593571Y1944939D01*
X2612108Y1937261D01*
X2622000Y1935959D01*
Y2065000D01*
D02*
G37*
G36*
X1288000D02*
X1221143D01*
Y2011500D01*
X1223761Y1991608D01*
X1231439Y1973071D01*
X1243654Y1957153D01*
X1259571Y1944939D01*
X1278108Y1937261D01*
X1288000Y1935959D01*
Y2065000D01*
D02*
G37*
G36*
X3772000Y2215358D02*
X3752108Y2212739D01*
X3733571Y2205061D01*
X3717653Y2192847D01*
X3705439Y2176929D01*
X3697761Y2158392D01*
X3695142Y2138500D01*
Y2011500D01*
X3697761Y1991608D01*
X3705439Y1973071D01*
X3717653Y1957153D01*
X3733571Y1944939D01*
X3752108Y1937261D01*
X3772000Y1934642D01*
X3791892Y1937261D01*
X3810429Y1944939D01*
X3826347Y1957153D01*
X3838561Y1973071D01*
X3846239Y1991608D01*
X3848858Y2011500D01*
Y2138500D01*
X3846239Y2158392D01*
X3838561Y2176929D01*
X3826347Y2192847D01*
X3810429Y2205061D01*
X3791892Y2212739D01*
X3772000Y2215358D01*
D02*
G37*
G36*
X2941999D02*
X2922107Y2212739D01*
X2903570Y2205061D01*
X2887653Y2192847D01*
X2875438Y2176929D01*
X2867760Y2158392D01*
X2865142Y2138500D01*
Y2011500D01*
X2867760Y1991608D01*
X2875438Y1973071D01*
X2887653Y1957153D01*
X2903570Y1944939D01*
X2922107Y1937261D01*
X2941999Y1934642D01*
X2961891Y1937261D01*
X2980428Y1944939D01*
X2996346Y1957153D01*
X3008560Y1973071D01*
X3016238Y1991608D01*
X3018857Y2011500D01*
Y2138500D01*
X3016238Y2158392D01*
X3008560Y2176929D01*
X2996346Y2192847D01*
X2980428Y2205061D01*
X2961891Y2212739D01*
X2941999Y2215358D01*
D02*
G37*
G36*
X988001D02*
X968109Y2212739D01*
X949572Y2205061D01*
X933654Y2192847D01*
X921440Y2176929D01*
X913762Y2158392D01*
X911143Y2138500D01*
Y2011500D01*
X913762Y1991608D01*
X921440Y1973071D01*
X933654Y1957153D01*
X949572Y1944939D01*
X968109Y1937261D01*
X988001Y1934642D01*
X1007893Y1937261D01*
X1026430Y1944939D01*
X1042347Y1957153D01*
X1054562Y1973071D01*
X1062240Y1991608D01*
X1064858Y2011500D01*
Y2138500D01*
X1062240Y2158392D01*
X1054562Y2176929D01*
X1042347Y2192847D01*
X1026430Y2205061D01*
X1007893Y2212739D01*
X988001Y2215358D01*
D02*
G37*
G36*
X158000D02*
X138108Y2212739D01*
X119571Y2205061D01*
X103653Y2192847D01*
X91439Y2176929D01*
X83761Y2158392D01*
X81142Y2138500D01*
Y2011500D01*
X83761Y1991608D01*
X91439Y1973071D01*
X103653Y1957153D01*
X119571Y1944939D01*
X138108Y1937261D01*
X158000Y1934642D01*
X177892Y1937261D01*
X196429Y1944939D01*
X212347Y1957153D01*
X224561Y1973071D01*
X232239Y1991608D01*
X234858Y2011500D01*
Y2138500D01*
X232239Y2158392D01*
X224561Y2176929D01*
X212347Y2192847D01*
X196429Y2205061D01*
X177892Y2212739D01*
X158000Y2215358D01*
D02*
G37*
G36*
X3300191Y2280000D02*
X3259809D01*
X3220204Y2272122D01*
X3182896Y2256668D01*
X3149320Y2234234D01*
X3120766Y2205680D01*
X3098332Y2172104D01*
X3082878Y2134796D01*
X3075000Y2095191D01*
Y2054809D01*
X3082878Y2015204D01*
X3098332Y1977896D01*
X3120766Y1944320D01*
X3149320Y1915766D01*
X3182896Y1893331D01*
X3220204Y1877878D01*
X3259809Y1870000D01*
X3300191D01*
X3339796Y1877878D01*
X3377104Y1893331D01*
X3410680Y1915766D01*
X3439234Y1944320D01*
X3461668Y1977896D01*
X3477122Y2015204D01*
X3485000Y2054809D01*
Y2095191D01*
X3477122Y2134796D01*
X3461668Y2172104D01*
X3439234Y2205680D01*
X3410680Y2234234D01*
X3377104Y2256668D01*
X3339796Y2272122D01*
X3300191Y2280000D01*
D02*
G37*
G36*
X670191D02*
X629809D01*
X590204Y2272122D01*
X552896Y2256668D01*
X519320Y2234234D01*
X490766Y2205680D01*
X468332Y2172104D01*
X452878Y2134796D01*
X445000Y2095191D01*
Y2054809D01*
X452878Y2015204D01*
X468332Y1977896D01*
X490766Y1944320D01*
X519320Y1915766D01*
X552896Y1893331D01*
X590204Y1877878D01*
X629809Y1870000D01*
X670191D01*
X709796Y1877878D01*
X747104Y1893331D01*
X780680Y1915766D01*
X809234Y1944320D01*
X831668Y1977896D01*
X847122Y2015204D01*
X855000Y2054809D01*
Y2095191D01*
X847122Y2134796D01*
X831668Y2172104D01*
X809234Y2205680D01*
X780680Y2234234D01*
X747104Y2256668D01*
X709796Y2272122D01*
X670191Y2280000D01*
D02*
G37*
G36*
X2795535Y1459980D02*
X2773464D01*
X2753073Y1451534D01*
X2737466Y1435927D01*
X2729020Y1415535D01*
Y1393464D01*
X2737466Y1373073D01*
X2753073Y1357466D01*
X2773464Y1349020D01*
X2795535D01*
X2815927Y1357466D01*
X2831534Y1373073D01*
X2839980Y1393464D01*
Y1415535D01*
X2831534Y1435927D01*
X2815927Y1451534D01*
X2795535Y1459980D01*
D02*
G37*
G36*
X2542700Y1272700D02*
X2407300D01*
Y1248656D01*
X2394600Y1240170D01*
X2388494Y1242700D01*
X2371507D01*
X2355813Y1236199D01*
X2343801Y1224187D01*
X2337300Y1208493D01*
Y1191506D01*
X2343801Y1175812D01*
X2355813Y1163801D01*
X2371507Y1157300D01*
X2388494D01*
X2394600Y1159829D01*
X2407300Y1151343D01*
Y1127300D01*
X2542700D01*
Y1272700D01*
D02*
G37*
G36*
X1522700D02*
X1387300D01*
Y1127300D01*
X1522700D01*
Y1151343D01*
X1535400Y1159829D01*
X1541506Y1157300D01*
X1558493D01*
X1574187Y1163801D01*
X1586199Y1175812D01*
X1592700Y1191506D01*
Y1208493D01*
X1586199Y1224187D01*
X1574187Y1236199D01*
X1558493Y1242700D01*
X1541506D01*
X1535400Y1240170D01*
X1522700Y1248656D01*
Y1272700D01*
D02*
G37*
G36*
X2386535Y1050980D02*
X2364464D01*
X2344073Y1042534D01*
X2328466Y1026927D01*
X2320020Y1006535D01*
Y984464D01*
X2328466Y964073D01*
X2344073Y948466D01*
X2364464Y940020D01*
X2386535D01*
X2406927Y948466D01*
X2422534Y964073D01*
X2430980Y984464D01*
Y1006535D01*
X2422534Y1026927D01*
X2406927Y1042534D01*
X2386535Y1050980D01*
D02*
G37*
G36*
X1156536D02*
X1134465D01*
X1114073Y1042534D01*
X1098466Y1026927D01*
X1090020Y1006535D01*
Y984464D01*
X1098466Y964073D01*
X1114073Y948466D01*
X1134465Y940020D01*
X1156536D01*
X1176927Y948466D01*
X1192534Y964073D01*
X1200980Y984464D01*
Y1006535D01*
X1192534Y1026927D01*
X1176927Y1042534D01*
X1156536Y1050980D01*
D02*
G37*
G36*
X1308000Y964041D02*
Y835000D01*
X1374858D01*
Y888500D01*
X1372239Y908392D01*
X1364561Y926929D01*
X1352347Y942846D01*
X1336429Y955061D01*
X1317892Y962739D01*
X1308000Y964041D01*
D02*
G37*
G36*
X2642000D02*
Y835000D01*
X2708857D01*
Y888500D01*
X2706239Y908392D01*
X2698561Y926929D01*
X2686346Y942846D01*
X2670429Y955061D01*
X2651892Y962739D01*
X2642000Y964041D01*
D02*
G37*
G36*
X2622000D02*
X2612108Y962739D01*
X2593571Y955061D01*
X2577653Y942846D01*
X2565439Y926929D01*
X2557761Y908392D01*
X2555142Y888500D01*
Y835000D01*
X2622000D01*
Y964041D01*
D02*
G37*
G36*
X1288000D02*
X1278108Y962739D01*
X1259571Y955061D01*
X1243654Y942846D01*
X1231439Y926929D01*
X1223761Y908392D01*
X1221143Y888500D01*
Y835000D01*
X1288000D01*
Y964041D01*
D02*
G37*
G36*
X1374858Y815000D02*
X1308000D01*
Y685959D01*
X1317892Y687261D01*
X1336429Y694939D01*
X1352347Y707153D01*
X1364561Y723071D01*
X1372239Y741608D01*
X1374858Y761500D01*
Y815000D01*
D02*
G37*
G36*
X2708857D02*
X2642000D01*
Y685959D01*
X2651892Y687261D01*
X2670429Y694939D01*
X2686346Y707153D01*
X2698561Y723071D01*
X2706239Y741608D01*
X2708857Y761500D01*
Y815000D01*
D02*
G37*
G36*
X2622000D02*
X2555142D01*
Y761500D01*
X2557761Y741608D01*
X2565439Y723071D01*
X2577653Y707153D01*
X2593571Y694939D01*
X2612108Y687261D01*
X2622000Y685959D01*
Y815000D01*
D02*
G37*
G36*
X1288000D02*
X1221143D01*
Y761500D01*
X1223761Y741608D01*
X1231439Y723071D01*
X1243654Y707153D01*
X1259571Y694939D01*
X1278108Y687261D01*
X1288000Y685959D01*
Y815000D01*
D02*
G37*
G36*
X3772000Y965357D02*
X3752108Y962739D01*
X3733571Y955061D01*
X3717653Y942846D01*
X3705439Y926929D01*
X3697761Y908392D01*
X3695142Y888500D01*
Y761500D01*
X3697761Y741608D01*
X3705439Y723071D01*
X3717653Y707153D01*
X3733571Y694939D01*
X3752108Y687261D01*
X3772000Y684642D01*
X3791892Y687261D01*
X3810429Y694939D01*
X3826347Y707153D01*
X3838561Y723071D01*
X3846239Y741608D01*
X3848858Y761500D01*
Y888500D01*
X3846239Y908392D01*
X3838561Y926929D01*
X3826347Y942846D01*
X3810429Y955061D01*
X3791892Y962739D01*
X3772000Y965357D01*
D02*
G37*
G36*
X2941999D02*
X2922107Y962739D01*
X2903570Y955061D01*
X2887653Y942846D01*
X2875438Y926929D01*
X2867760Y908392D01*
X2865142Y888500D01*
Y761500D01*
X2867760Y741608D01*
X2875438Y723071D01*
X2887653Y707153D01*
X2903570Y694939D01*
X2922107Y687261D01*
X2941999Y684642D01*
X2961891Y687261D01*
X2980428Y694939D01*
X2996346Y707153D01*
X3008560Y723071D01*
X3016238Y741608D01*
X3018857Y761500D01*
Y888500D01*
X3016238Y908392D01*
X3008560Y926929D01*
X2996346Y942846D01*
X2980428Y955061D01*
X2961891Y962739D01*
X2941999Y965357D01*
D02*
G37*
G36*
X988001D02*
X968109Y962739D01*
X949572Y955061D01*
X933654Y942846D01*
X921440Y926929D01*
X913762Y908392D01*
X911143Y888500D01*
Y761500D01*
X913762Y741608D01*
X921440Y723071D01*
X933654Y707153D01*
X949572Y694939D01*
X968109Y687261D01*
X988001Y684642D01*
X1007893Y687261D01*
X1026430Y694939D01*
X1042347Y707153D01*
X1054562Y723071D01*
X1062240Y741608D01*
X1064858Y761500D01*
Y888500D01*
X1062240Y908392D01*
X1054562Y926929D01*
X1042347Y942846D01*
X1026430Y955061D01*
X1007893Y962739D01*
X988001Y965357D01*
D02*
G37*
G36*
X158000D02*
X138108Y962739D01*
X119571Y955061D01*
X103653Y942846D01*
X91439Y926929D01*
X83761Y908392D01*
X81142Y888500D01*
Y761500D01*
X83761Y741608D01*
X91439Y723071D01*
X103653Y707153D01*
X119571Y694939D01*
X138108Y687261D01*
X158000Y684642D01*
X177892Y687261D01*
X196429Y694939D01*
X212347Y707153D01*
X224561Y723071D01*
X232239Y741608D01*
X234858Y761500D01*
Y888500D01*
X232239Y908392D01*
X224561Y926929D01*
X212347Y942846D01*
X196429Y955061D01*
X177892Y962739D01*
X158000Y965357D01*
D02*
G37*
G36*
X3300191Y1030000D02*
X3259809D01*
X3220204Y1022122D01*
X3182896Y1006668D01*
X3149320Y984234D01*
X3120766Y955680D01*
X3098332Y922104D01*
X3082878Y884796D01*
X3075000Y845191D01*
Y804809D01*
X3082878Y765204D01*
X3098332Y727896D01*
X3120766Y694320D01*
X3149320Y665766D01*
X3182896Y643331D01*
X3220204Y627878D01*
X3259809Y620000D01*
X3300191D01*
X3339796Y627878D01*
X3377104Y643331D01*
X3410680Y665766D01*
X3439234Y694320D01*
X3461668Y727896D01*
X3477122Y765204D01*
X3485000Y804809D01*
Y845191D01*
X3477122Y884796D01*
X3461668Y922104D01*
X3439234Y955680D01*
X3410680Y984234D01*
X3377104Y1006668D01*
X3339796Y1022122D01*
X3300191Y1030000D01*
D02*
G37*
G36*
X670191D02*
X629809D01*
X590204Y1022122D01*
X552896Y1006668D01*
X519320Y984234D01*
X490766Y955680D01*
X468332Y922104D01*
X452878Y884796D01*
X445000Y845191D01*
Y804809D01*
X452878Y765204D01*
X468332Y727896D01*
X490766Y694320D01*
X519320Y665766D01*
X552896Y643331D01*
X590204Y627878D01*
X629809Y620000D01*
X670191D01*
X709796Y627878D01*
X747104Y643331D01*
X780680Y665766D01*
X809234Y694320D01*
X831668Y727896D01*
X847122Y765204D01*
X855000Y804809D01*
Y845191D01*
X847122Y884796D01*
X831668Y922104D01*
X809234Y955680D01*
X780680Y984234D01*
X747104Y1006668D01*
X709796Y1022122D01*
X670191Y1030000D01*
D02*
G37*
G36*
X2486191Y527200D02*
X2459808D01*
X2434324Y520371D01*
X2411476Y507180D01*
X2392820Y488524D01*
X2379628Y465676D01*
X2372800Y440191D01*
Y413808D01*
X2379628Y388324D01*
X2392820Y365476D01*
X2411476Y346820D01*
X2434324Y333628D01*
X2459808Y326800D01*
X2486191D01*
X2511676Y333628D01*
X2534524Y346820D01*
X2553180Y365476D01*
X2566371Y388324D01*
X2573200Y413808D01*
Y440191D01*
X2566371Y465676D01*
X2553180Y488524D01*
X2534524Y507180D01*
X2511676Y520371D01*
X2486191Y527200D01*
D02*
G37*
G36*
X2232191D02*
X2205808D01*
X2180324Y520371D01*
X2157476Y507180D01*
X2138820Y488524D01*
X2125628Y465676D01*
X2118800Y440191D01*
Y413808D01*
X2125628Y388324D01*
X2138820Y365476D01*
X2157476Y346820D01*
X2180324Y333628D01*
X2205808Y326800D01*
X2232191D01*
X2257676Y333628D01*
X2280524Y346820D01*
X2299180Y365476D01*
X2312371Y388324D01*
X2319200Y413808D01*
Y440191D01*
X2312371Y465676D01*
X2299180Y488524D01*
X2280524Y507180D01*
X2257676Y520371D01*
X2232191Y527200D01*
D02*
G37*
G36*
X1978191D02*
X1951808D01*
X1926324Y520371D01*
X1903476Y507180D01*
X1884820Y488524D01*
X1871628Y465676D01*
X1864800Y440191D01*
Y413808D01*
X1871628Y388324D01*
X1884820Y365476D01*
X1903476Y346820D01*
X1926324Y333628D01*
X1951808Y326800D01*
X1978191D01*
X2003676Y333628D01*
X2026524Y346820D01*
X2045180Y365476D01*
X2058371Y388324D01*
X2065200Y413808D01*
Y440191D01*
X2058371Y465676D01*
X2045180Y488524D01*
X2026524Y507180D01*
X2003676Y520371D01*
X1978191Y527200D01*
D02*
G37*
G36*
X1724191D02*
X1697808D01*
X1672324Y520371D01*
X1649476Y507180D01*
X1630820Y488524D01*
X1617628Y465676D01*
X1610800Y440191D01*
Y413808D01*
X1617628Y388324D01*
X1630820Y365476D01*
X1649476Y346820D01*
X1672324Y333628D01*
X1697808Y326800D01*
X1724191D01*
X1749676Y333628D01*
X1772524Y346820D01*
X1791180Y365476D01*
X1804371Y388324D01*
X1811200Y413808D01*
Y440191D01*
X1804371Y465676D01*
X1791180Y488524D01*
X1772524Y507180D01*
X1749676Y520371D01*
X1724191Y527200D01*
D02*
G37*
G36*
X1470191D02*
X1443808D01*
X1418324Y520371D01*
X1395476Y507180D01*
X1376820Y488524D01*
X1363628Y465676D01*
X1356800Y440191D01*
Y413808D01*
X1363628Y388324D01*
X1376820Y365476D01*
X1395476Y346820D01*
X1418324Y333628D01*
X1443808Y326800D01*
X1470191D01*
X1495676Y333628D01*
X1518524Y346820D01*
X1537180Y365476D01*
X1550371Y388324D01*
X1557200Y413808D01*
Y440191D01*
X1550371Y465676D01*
X1537180Y488524D01*
X1518524Y507180D01*
X1495676Y520371D01*
X1470191Y527200D01*
D02*
G37*
G36*
X1978191Y273200D02*
X1975000D01*
Y183000D01*
X2065200D01*
Y186191D01*
X2058371Y211676D01*
X2045180Y234524D01*
X2026524Y253180D01*
X2003676Y266371D01*
X1978191Y273200D01*
D02*
G37*
G36*
X1955000D02*
X1951808D01*
X1926324Y266371D01*
X1903476Y253180D01*
X1884820Y234524D01*
X1871628Y211676D01*
X1864800Y186191D01*
Y183000D01*
X1955000D01*
Y273200D01*
D02*
G37*
G36*
X2486191D02*
X2459808D01*
X2434324Y266371D01*
X2411476Y253180D01*
X2392820Y234524D01*
X2379628Y211676D01*
X2372800Y186191D01*
Y159808D01*
X2379628Y134324D01*
X2392820Y111476D01*
X2411476Y92820D01*
X2434324Y79628D01*
X2459808Y72800D01*
X2486191D01*
X2511676Y79628D01*
X2534524Y92820D01*
X2553180Y111476D01*
X2566371Y134324D01*
X2573200Y159808D01*
Y186191D01*
X2566371Y211676D01*
X2553180Y234524D01*
X2534524Y253180D01*
X2511676Y266371D01*
X2486191Y273200D01*
D02*
G37*
G36*
X2232191D02*
X2205808D01*
X2180324Y266371D01*
X2157476Y253180D01*
X2138820Y234524D01*
X2125628Y211676D01*
X2118800Y186191D01*
Y159808D01*
X2125628Y134324D01*
X2138820Y111476D01*
X2157476Y92820D01*
X2180324Y79628D01*
X2205808Y72800D01*
X2232191D01*
X2257676Y79628D01*
X2280524Y92820D01*
X2299180Y111476D01*
X2312371Y134324D01*
X2319200Y159808D01*
Y186191D01*
X2312371Y211676D01*
X2299180Y234524D01*
X2280524Y253180D01*
X2257676Y266371D01*
X2232191Y273200D01*
D02*
G37*
G36*
X2065200Y163000D02*
X1975000D01*
Y72800D01*
X1978191D01*
X2003676Y79628D01*
X2026524Y92820D01*
X2045180Y111476D01*
X2058371Y134324D01*
X2065200Y159808D01*
Y163000D01*
D02*
G37*
G36*
X1955000D02*
X1864800D01*
Y159808D01*
X1871628Y134324D01*
X1884820Y111476D01*
X1903476Y92820D01*
X1926324Y79628D01*
X1951808Y72800D01*
X1955000D01*
Y163000D01*
D02*
G37*
G36*
X1724191Y273200D02*
X1697808D01*
X1672324Y266371D01*
X1649476Y253180D01*
X1630820Y234524D01*
X1617628Y211676D01*
X1610800Y186191D01*
Y159808D01*
X1617628Y134324D01*
X1630820Y111476D01*
X1649476Y92820D01*
X1672324Y79628D01*
X1697808Y72800D01*
X1724191D01*
X1749676Y79628D01*
X1772524Y92820D01*
X1791180Y111476D01*
X1804371Y134324D01*
X1811200Y159808D01*
Y186191D01*
X1804371Y211676D01*
X1791180Y234524D01*
X1772524Y253180D01*
X1749676Y266371D01*
X1724191Y273200D01*
D02*
G37*
G36*
X1470191D02*
X1443808D01*
X1418324Y266371D01*
X1395476Y253180D01*
X1376820Y234524D01*
X1363628Y211676D01*
X1356800Y186191D01*
Y159808D01*
X1363628Y134324D01*
X1376820Y111476D01*
X1395476Y92820D01*
X1418324Y79628D01*
X1443808Y72800D01*
X1470191D01*
X1495676Y79628D01*
X1518524Y92820D01*
X1537180Y111476D01*
X1550371Y134324D01*
X1557200Y159808D01*
Y186191D01*
X1550371Y211676D01*
X1537180Y234524D01*
X1518524Y253180D01*
X1495676Y266371D01*
X1470191Y273200D01*
D02*
G37*
%LPD*%
G36*
X1303491Y10289057D02*
X1302686Y10288841D01*
X1282414Y10277138D01*
X1265862Y10260586D01*
X1254159Y10240314D01*
X1248100Y10217704D01*
Y10194296D01*
X1254159Y10171686D01*
X1265862Y10151414D01*
X1282414Y10134862D01*
X1302686Y10123158D01*
X1325296Y10117100D01*
X1348704D01*
X1371314Y10123158D01*
X1391586Y10134862D01*
X1408138Y10151414D01*
X1413066Y10159950D01*
X1430024Y10163921D01*
X1431757Y10162772D01*
Y9487228D01*
X1430024Y9486079D01*
X1413066Y9490050D01*
X1408138Y9498586D01*
X1391586Y9515138D01*
X1371314Y9526841D01*
X1348704Y9532900D01*
X1325296D01*
X1302686Y9526841D01*
X1282414Y9515138D01*
X1265862Y9498586D01*
X1254159Y9478314D01*
X1250943Y9466313D01*
X1238243Y9467985D01*
Y10078999D01*
X1238243Y10079000D01*
X1236093Y10089808D01*
X1229971Y10098971D01*
X1229970Y10098971D01*
X1162699Y10166242D01*
X1165842Y10171686D01*
X1171900Y10194296D01*
Y10217704D01*
X1165842Y10240314D01*
X1154138Y10260586D01*
X1137586Y10277138D01*
X1117314Y10288841D01*
X1116510Y10289057D01*
X1118182Y10301757D01*
X1301819D01*
X1303491Y10289057D01*
D02*
G37*
G36*
X1448671Y7879057D02*
X1443801Y7874187D01*
X1437300Y7858494D01*
Y7841507D01*
X1443801Y7825813D01*
X1455813Y7813801D01*
X1471507Y7807300D01*
X1482759D01*
X2271757Y7018302D01*
Y6485191D01*
X2262920Y6481277D01*
X2259057Y6480884D01*
X989971Y7749971D01*
X982332Y7755075D01*
X980643Y7762564D01*
X980475Y7769108D01*
X981853Y7770029D01*
X1019822Y7807998D01*
X1021506Y7807300D01*
X1038493D01*
X1054187Y7813801D01*
X1066199Y7825813D01*
X1072700Y7841507D01*
Y7858494D01*
X1066199Y7874187D01*
X1061329Y7879057D01*
X1066590Y7891757D01*
X1443410D01*
X1448671Y7879057D01*
D02*
G37*
G36*
X1638671D02*
X1633801Y7874187D01*
X1627300Y7858494D01*
Y7841507D01*
X1633801Y7825813D01*
X1645813Y7813801D01*
X1661506Y7807300D01*
X1672758D01*
X2331757Y7148301D01*
Y7055190D01*
X2322919Y7051276D01*
X2319057Y7050884D01*
X1522700Y7847242D01*
Y7858494D01*
X1516199Y7874187D01*
X1511329Y7879057D01*
X1516590Y7891757D01*
X1633410D01*
X1638671Y7879057D01*
D02*
G37*
D10*
X2685000Y1200000D02*
D03*
X2475000D02*
D03*
X2685000Y2450000D02*
D03*
X2475000D02*
D03*
X2685000Y3700000D02*
D03*
X2475000D02*
D03*
X2685000Y4950000D02*
D03*
X2475000D02*
D03*
X1245000D02*
D03*
X1455000D02*
D03*
X1245000Y1200000D02*
D03*
X1455000D02*
D03*
X1245000Y2450000D02*
D03*
X1455000D02*
D03*
X1245000Y3700000D02*
D03*
X1455000D02*
D03*
D11*
X1363500Y8211200D02*
D03*
X1109500D02*
D03*
X855500D02*
D03*
X601500D02*
D03*
Y6788800D02*
D03*
X855500D02*
D03*
X1109500D02*
D03*
X1363500D02*
D03*
D12*
X2290000Y5550000D02*
X2360000Y5620000D01*
X1670000Y7850000D02*
X2360000Y7160000D01*
Y5620000D02*
Y7160000D01*
X2300000Y5640000D02*
Y7030000D01*
X1480000Y7850000D02*
X2300000Y7030000D01*
X2230000Y5570000D02*
X2300000Y5640000D01*
X970000Y7730000D02*
X2240000Y6460000D01*
X2170000Y5590000D02*
X2240000Y5660000D01*
Y6460000D01*
X1690000Y5660000D02*
X1760000Y5590001D01*
X940000Y7670000D02*
X1690000Y6920000D01*
Y5660000D02*
Y6920000D01*
X1630000Y5640000D02*
X1700000Y5570000D01*
X910000Y7610000D02*
X1630000Y6890000D01*
Y5640000D02*
Y6890000D01*
X1540000Y6857426D02*
X1570000Y6827426D01*
Y5620000D02*
X1640000Y5550000D01*
X1540000Y6857426D02*
Y6860000D01*
X1570000Y5620000D02*
Y6827426D01*
X790000Y7610000D02*
X910000D01*
X911519Y7860467D02*
X971052Y7920000D01*
X1710000D01*
X2690000Y6940000D01*
X720000Y6400000D02*
X770000Y6350000D01*
X720000Y6400000D02*
Y7560000D01*
X430000Y7850000D02*
X720000Y7560000D01*
X1240000Y6640000D02*
Y7010000D01*
X2170000Y1715000D02*
Y5590000D01*
X2230000Y2905000D02*
Y5570000D01*
X2290000Y4095000D02*
Y5550000D01*
X1240000Y6640000D02*
X1455000Y6425000D01*
Y4950000D02*
Y6425000D01*
X953000Y10330000D02*
X1380000D01*
X1460000Y10250000D01*
Y8600000D02*
Y10250000D01*
X580000Y7820000D02*
Y7880000D01*
Y7820000D02*
X790000Y7610000D01*
X580000Y7880000D02*
X620000Y7920000D01*
X650000Y7850000D02*
X830000Y7670000D01*
X940000D01*
X850000Y7730000D02*
X970000D01*
X780000Y7800000D02*
X850000Y7730000D01*
X601500Y6491500D02*
Y6788800D01*
X490000Y6380000D02*
X601500Y6491500D01*
X299000Y6380000D02*
X490000D01*
X173000Y6254000D02*
X299000Y6380000D01*
X2230000Y2905000D02*
X2685000Y2450000D01*
X1083000Y10206000D02*
X1210000Y10079000D01*
Y8662500D02*
Y10079000D01*
Y8662500D02*
X1670000Y8202500D01*
X2290000Y4095000D02*
X2685000Y3700000D01*
X575000Y9444000D02*
X910000Y9109000D01*
X2685000Y4950000D02*
X2690000Y4955000D01*
Y5090000D01*
X910000Y8610000D02*
Y9109000D01*
X2690000Y5090000D02*
Y6940000D01*
X1245000Y1200000D02*
Y1205000D01*
X1760000Y1720000D01*
Y5590001D01*
X2170000Y1715000D02*
X2685000Y1200000D01*
X780000Y7800000D02*
Y7850000D01*
X1021882D02*
X1030000D01*
X1245000Y2450000D02*
Y2455000D01*
X845760Y7824241D02*
Y7894240D01*
X880000Y7790000D02*
X961882D01*
X1021882Y7850000D01*
X845760Y7824241D02*
X880000Y7790000D01*
X620000Y7920000D02*
X820000D01*
X845760Y7894240D01*
X1245000Y2455000D02*
X1700000Y2910000D01*
Y5570000D01*
X1245000Y3700000D02*
Y3705000D01*
X1640000Y4100000D01*
Y5550000D01*
X829000Y10206000D02*
X953000Y10330000D01*
X1460000Y8600000D02*
X1680000Y8380000D01*
X1250000Y4955000D02*
Y6470000D01*
X1245000Y4950000D02*
X1250000Y4955000D01*
X1455000Y1200000D02*
X1550000D01*
X1455000Y2450000D02*
X1550000D01*
X1455000Y3700000D02*
X1550000D01*
X1455000Y4950000D02*
X1550000D01*
X2380000Y1200000D02*
X2475000D01*
X2380000Y2450000D02*
X2475000D01*
X2380000Y3700000D02*
X2475000D01*
X2380000Y4950000D02*
X2475000D01*
D13*
X1360000Y6785300D02*
X1363500Y6788800D01*
D14*
X535300Y5637700D02*
X797700D01*
X427000Y5746000D02*
X535300Y5637700D01*
X855500Y6788800D02*
X962300Y6682000D01*
X797700Y5637700D02*
X962300Y5802300D01*
Y6682000D01*
X427000Y5492000D02*
X535000Y5600000D01*
X813316D02*
X823929Y5610613D01*
X824284D01*
X535000Y5600000D02*
X813316D01*
X1000251Y6680735D02*
X1108316Y6788800D01*
X989135Y5775465D02*
X1000251Y5786581D01*
X824284Y5610613D02*
X989135Y5775465D01*
Y5775465D01*
X1000251Y5786581D02*
Y6680735D01*
D15*
X1108316Y6788800D02*
X1109500D01*
X2920000Y8600000D02*
X3290000D01*
X3090000Y9680000D02*
Y10070000D01*
Y9680000D02*
X3600000Y9170000D01*
X3310000Y5440000D02*
X3410000Y5340000D01*
X3310000Y5440000D02*
Y6930000D01*
X3410000Y5340000D02*
X3605000D01*
X3757000Y5492000D01*
X3310000Y6930000D02*
X3600000Y7220000D01*
Y8290000D01*
X3290000Y8600000D02*
X3600000Y8290000D01*
Y9170000D01*
D16*
X601500Y8159984D02*
D03*
X855500D02*
D03*
X1109500D02*
D03*
X1363500D02*
D03*
D17*
X1363500Y6839984D02*
D03*
X601500D02*
D03*
X855500D02*
D03*
X1109500D02*
D03*
D18*
X2784500Y1404500D02*
D03*
X2375500Y995500D02*
D03*
X2784500Y2654500D02*
D03*
X2375500Y2245500D02*
D03*
X2784500Y3904500D02*
D03*
X2375500Y3495500D02*
D03*
X2784500Y5154500D02*
D03*
X2375500Y4745500D02*
D03*
X1145500D02*
D03*
X1554500Y5154500D02*
D03*
X1145500Y995500D02*
D03*
X1554500Y1404500D02*
D03*
X1145500Y2245500D02*
D03*
X1554500Y2654500D02*
D03*
X1145500Y3495500D02*
D03*
X1554500Y3904500D02*
D03*
D19*
X2473000Y173000D02*
D03*
X2219000D02*
D03*
X1965000D02*
D03*
X1711000D02*
D03*
X1457000D02*
D03*
Y427000D02*
D03*
X1711000D02*
D03*
X1965000D02*
D03*
X2219000D02*
D03*
X2473000D02*
D03*
X427000Y6508000D02*
D03*
Y6254000D02*
D03*
Y6000000D02*
D03*
Y5746000D02*
D03*
Y5492000D02*
D03*
X173000D02*
D03*
Y5746000D02*
D03*
Y6000000D02*
D03*
Y6254000D02*
D03*
Y6508000D02*
D03*
X3757000D02*
D03*
Y6254000D02*
D03*
Y6000000D02*
D03*
Y5746000D02*
D03*
Y5492000D02*
D03*
X3503000D02*
D03*
Y5746000D02*
D03*
Y6000000D02*
D03*
Y6254000D02*
D03*
Y6508000D02*
D03*
D20*
X575000Y9444000D02*
D03*
X829000D02*
D03*
X1083000D02*
D03*
X1337000D02*
D03*
X575000Y10206000D02*
D03*
X829000D02*
D03*
X1083000D02*
D03*
X1337000D02*
D03*
X1591000D02*
D03*
X1845000D02*
D03*
X1591000Y9444000D02*
D03*
D21*
X3175000Y9075000D02*
D03*
X3425000D02*
D03*
X2925000D02*
D03*
X3425000Y10525000D02*
D03*
X2925000D02*
D03*
D22*
X3745000Y9825000D02*
D03*
X2605000D02*
D03*
D23*
X3772000Y4575000D02*
D03*
X2941999D02*
D03*
X2632000D02*
D03*
X3772000Y3325000D02*
D03*
X2941999D02*
D03*
X2632000D02*
D03*
X3772000Y2075000D02*
D03*
X2941999D02*
D03*
X2632000D02*
D03*
X3772000Y825000D02*
D03*
X2941999D02*
D03*
X2632000D02*
D03*
X158000Y4575000D02*
D03*
X988001D02*
D03*
X1298000D02*
D03*
X158000Y3325000D02*
D03*
X988001D02*
D03*
X1298000D02*
D03*
X158000Y2075000D02*
D03*
X988001D02*
D03*
X1298000D02*
D03*
X158000Y825000D02*
D03*
X988001D02*
D03*
X1298000D02*
D03*
D24*
X1965000Y6317000D02*
D03*
Y5486999D02*
D03*
Y5177000D02*
D03*
D25*
X1870000Y6580000D02*
D03*
X1360000Y6670000D02*
D03*
X2750000Y10400000D02*
D03*
X3680000Y8950000D02*
D03*
X770000Y6350000D02*
D03*
X1030000Y9200000D02*
D03*
Y8770000D02*
D03*
X830000Y7520000D02*
D03*
X1541250Y8791250D02*
D03*
X2610000Y8910000D02*
D03*
X1350000Y7530000D02*
D03*
X1370000Y7020000D02*
D03*
X430000Y7850000D02*
D03*
X1240000Y7010000D02*
D03*
X1480000Y7850000D02*
D03*
X1670000Y8202500D02*
D03*
Y7850000D02*
D03*
X910000Y8610000D02*
D03*
X911519Y7860467D02*
D03*
X650000Y7850000D02*
D03*
X780000D02*
D03*
X1030000D02*
D03*
X1540000Y6860000D02*
D03*
X1680000Y8380000D02*
D03*
X1250000Y6470000D02*
D03*
X1550000Y1200000D02*
D03*
Y2450000D02*
D03*
X2380000D02*
D03*
Y1200000D02*
D03*
X1550000Y4950000D02*
D03*
Y3700000D02*
D03*
X2380000D02*
D03*
Y4950000D02*
D03*
X2920000Y8600000D02*
D03*
X3290000D02*
D03*
X3090000Y10070000D02*
D03*
%TF.MD5,dc0d82aa1a401dae22c7327470415589*%
M02*
