%TF.GenerationSoftware,Altium Limited,Altium Designer,24.6.1 (21)*%
G04 Layer_Color=16711935*
%FSLAX45Y45*%
%MOMM*%
%TF.SameCoordinates,318F05BD-DB15-4788-AC08-55ADAB723DC6*%
%TF.FilePolarity,Negative*%
%TF.FileFunction,Soldermask,Bot*%
%TF.Part,Single*%
G01*
G75*
%TA.AperFunction,ComponentPad*%
%ADD41C,0.75960*%
%ADD42C,1.90000*%
%ADD43C,1.67400*%
%ADD44C,1.91200*%
%ADD45O,3.15000X4.95000*%
%ADD46O,1.42000X2.69000*%
%ADD47C,0.15000*%
%ADD48O,2.69000X1.42000*%
%TA.AperFunction,SMDPad,CuDef*%
%ADD49R,2.65000X1.75000*%
G04:AMPARAMS|DCode=50|XSize=2.2mm|YSize=0.74mm|CornerRadius=0.14875mm|HoleSize=0mm|Usage=FLASHONLY|Rotation=270.000|XOffset=0mm|YOffset=0mm|HoleType=Round|Shape=RoundedRectangle|*
%AMROUNDEDRECTD50*
21,1,2.20000,0.44250,0,0,270.0*
21,1,1.90250,0.74000,0,0,270.0*
1,1,0.29750,-0.22125,-0.95125*
1,1,0.29750,-0.22125,0.95125*
1,1,0.29750,0.22125,0.95125*
1,1,0.29750,0.22125,-0.95125*
%
%ADD50ROUNDEDRECTD50*%
%ADD51R,1.10000X1.00000*%
%ADD52R,1.15000X1.05000*%
%ADD53R,1.00000X1.10000*%
%ADD54R,1.05000X1.15000*%
D41*
X2784500Y1404500D02*
D03*
X2375500Y995500D02*
D03*
X2784500Y2654500D02*
D03*
X2375500Y2245500D02*
D03*
X2784500Y3904500D02*
D03*
X2375500Y3495500D02*
D03*
X2784500Y5154500D02*
D03*
X2375500Y4745500D02*
D03*
X1145500D02*
D03*
X1554500Y5154500D02*
D03*
X1145500Y995500D02*
D03*
X1554500Y1404500D02*
D03*
X1145500Y2245500D02*
D03*
X1554500Y2654500D02*
D03*
X1145500Y3495500D02*
D03*
X1554500Y3904500D02*
D03*
D42*
X2473000Y173000D02*
D03*
X2219000D02*
D03*
X1965000D02*
D03*
X1711000D02*
D03*
X1457000D02*
D03*
Y427000D02*
D03*
X1711000D02*
D03*
X1965000D02*
D03*
X2219000D02*
D03*
X2473000D02*
D03*
X427000Y6508000D02*
D03*
Y6254000D02*
D03*
Y6000000D02*
D03*
Y5746000D02*
D03*
Y5492000D02*
D03*
X173000D02*
D03*
Y5746000D02*
D03*
Y6000000D02*
D03*
Y6254000D02*
D03*
Y6508000D02*
D03*
X3757000D02*
D03*
Y6254000D02*
D03*
Y6000000D02*
D03*
Y5746000D02*
D03*
Y5492000D02*
D03*
X3503000D02*
D03*
Y5746000D02*
D03*
Y6000000D02*
D03*
Y6254000D02*
D03*
Y6508000D02*
D03*
D43*
X575000Y9444000D02*
D03*
X829000D02*
D03*
X1083000D02*
D03*
X1337000D02*
D03*
X575000Y10206000D02*
D03*
X829000D02*
D03*
X1083000D02*
D03*
X1337000D02*
D03*
X1591000D02*
D03*
X1845000D02*
D03*
X1591000Y9444000D02*
D03*
D44*
X3175000Y9075000D02*
D03*
X3425000D02*
D03*
X2925000D02*
D03*
X3425000Y10525000D02*
D03*
X2925000D02*
D03*
D45*
X3745000Y9825000D02*
D03*
X2605000D02*
D03*
D46*
X3772000Y4575000D02*
D03*
X2941999D02*
D03*
X2632000D02*
D03*
X3772000Y3325000D02*
D03*
X2941999D02*
D03*
X2632000D02*
D03*
X3772000Y2075000D02*
D03*
X2941999D02*
D03*
X2632000D02*
D03*
X3772000Y825000D02*
D03*
X2941999D02*
D03*
X2632000D02*
D03*
X158000Y4575000D02*
D03*
X988001D02*
D03*
X1298000D02*
D03*
X158000Y3325000D02*
D03*
X988001D02*
D03*
X1298000D02*
D03*
X158000Y2075000D02*
D03*
X988001D02*
D03*
X1298000D02*
D03*
X158000Y825000D02*
D03*
X988001D02*
D03*
X1298000D02*
D03*
D47*
X3280000Y4575000D02*
D03*
Y3325000D02*
D03*
Y2075000D02*
D03*
Y825000D02*
D03*
X650000Y4575000D02*
D03*
Y3325000D02*
D03*
Y2075000D02*
D03*
Y825000D02*
D03*
X1965000Y5825000D02*
D03*
D48*
Y6317000D02*
D03*
Y5486999D02*
D03*
Y5177000D02*
D03*
D49*
X995000Y7380000D02*
D03*
X1345000D02*
D03*
D50*
X780500Y8940500D02*
D03*
X526500Y8009500D02*
D03*
X653500D02*
D03*
X780500D02*
D03*
X907500D02*
D03*
X1034500D02*
D03*
X1161500D02*
D03*
X1288500D02*
D03*
X1415500D02*
D03*
X1542500D02*
D03*
X1669500D02*
D03*
X1796500D02*
D03*
X1923500D02*
D03*
Y8940500D02*
D03*
X1796500D02*
D03*
X1669500D02*
D03*
X1542500D02*
D03*
X1415500D02*
D03*
X1288500D02*
D03*
X1161500D02*
D03*
X1034500D02*
D03*
X907500D02*
D03*
X653500D02*
D03*
X526500D02*
D03*
D51*
X3090000Y10165000D02*
D03*
Y10295000D02*
D03*
X2920000Y10295000D02*
D03*
Y10165000D02*
D03*
X3290000Y8685000D02*
D03*
Y8815000D02*
D03*
X2920000Y8685000D02*
D03*
Y8815000D02*
D03*
X2780000Y8815000D02*
D03*
Y8685000D02*
D03*
X3430000Y8815000D02*
D03*
Y8685000D02*
D03*
X3772000Y4210000D02*
D03*
Y4340000D02*
D03*
Y2960000D02*
D03*
Y3090000D02*
D03*
Y1710000D02*
D03*
Y1840000D02*
D03*
Y460000D02*
D03*
Y590000D02*
D03*
X158000Y460000D02*
D03*
Y590000D02*
D03*
Y1710000D02*
D03*
Y1840000D02*
D03*
Y2960000D02*
D03*
Y3090000D02*
D03*
Y4210000D02*
D03*
Y4340000D02*
D03*
X2300000Y6185000D02*
D03*
Y6315000D02*
D03*
D52*
X2610000Y8817500D02*
D03*
Y8682500D02*
D03*
X3600000Y8817500D02*
D03*
Y8682500D02*
D03*
X2750000Y10297500D02*
D03*
Y10162500D02*
D03*
D53*
X1225000Y7730000D02*
D03*
X1355000D02*
D03*
X765000Y6500000D02*
D03*
X635000D02*
D03*
X765000Y6250000D02*
D03*
X635000D02*
D03*
X765000Y6000000D02*
D03*
X635000D02*
D03*
D54*
X952500Y7730000D02*
D03*
X1087500D02*
D03*
%TF.MD5,f5fd1e2ff2f0856dfc83d442a2a40f26*%
M02*
