%TF.GenerationSoftware,Altium Limited,Altium Designer,24.6.1 (21)*%
G04 Layer_Color=32768*
%FSLAX45Y45*%
%MOMM*%
%TF.SameCoordinates,318F05BD-DB15-4788-AC08-55ADAB723DC6*%
%TF.FilePolarity,Positive*%
%TF.FileFunction,Other,Mechanical_15*%
%TF.Part,Single*%
G01*
G75*
%TA.AperFunction,NonConductor*%
%ADD32C,0.25400*%
%ADD55C,0.05000*%
%ADD58C,0.10000*%
%ADD59C,0.15240*%
D32*
Y11162500D02*
X152400Y11213300D01*
X0Y11162500D02*
X152400Y11111700D01*
X3777600D02*
X3930000Y11162500D01*
X3777600Y11213300D02*
X3930000Y11162500D01*
X0D02*
X1375884D01*
X2472836D02*
X3930000D01*
X0Y10650000D02*
Y11187900D01*
X3930000Y10650000D02*
Y11187900D01*
X4472500Y10650000D02*
X4523300Y10497600D01*
X4421700D02*
X4472500Y10650000D01*
X4421700Y152400D02*
X4472500Y0D01*
X4523300Y152400D01*
X4472500Y5896315D02*
Y10650000D01*
Y0D02*
Y4672405D01*
X3930000Y10650000D02*
X4497900D01*
X3930000Y0D02*
X4497900D01*
D55*
X840000Y7130000D02*
Y7630000D01*
X1500000Y7130000D02*
Y7630000D01*
X840000Y7130000D02*
X1500000D01*
X840000Y7630000D02*
X1500000D01*
X420000Y7882000D02*
X2030000D01*
X420000Y9068000D02*
X2030000D01*
Y7882000D02*
Y9068000D01*
X420000Y7882000D02*
Y9068000D01*
X3165000Y10095000D02*
Y10365000D01*
X3015000Y10095000D02*
Y10365000D01*
Y10095000D02*
X3165000D01*
X3015000Y10365000D02*
X3165000D01*
X2845000Y10095000D02*
Y10365000D01*
X2995000Y10095000D02*
Y10365000D01*
X2845000D02*
X2995000D01*
X2845000Y10095000D02*
X2995000D01*
X3365000Y8615000D02*
Y8885000D01*
X3215000Y8615000D02*
Y8885000D01*
Y8615000D02*
X3365000D01*
X3215000Y8885000D02*
X3365000D01*
X2995000Y8615000D02*
Y8885000D01*
X2845000Y8615000D02*
Y8885000D01*
Y8615000D02*
X2995000D01*
X2845000Y8885000D02*
X2995000D01*
X2535000Y8615000D02*
Y8885000D01*
Y8615000D02*
X2685000D01*
X2535000Y8885000D02*
X2685000D01*
Y8615000D02*
Y8885000D01*
X2705000Y8615000D02*
Y8885000D01*
X2855000Y8615000D02*
Y8885000D01*
X2705000D02*
X2855000D01*
X2705000Y8615000D02*
X2855000D01*
X3355000D02*
Y8885000D01*
X3505000Y8615000D02*
Y8885000D01*
X3355000D02*
X3505000D01*
X3355000Y8615000D02*
X3505000D01*
X3525000Y8615000D02*
Y8885000D01*
Y8615000D02*
X3675000D01*
X3525000Y8885000D02*
X3675000D01*
Y8615000D02*
Y8885000D01*
X1155000Y7655000D02*
X1425000D01*
X1155000Y7805000D02*
X1425000D01*
X1155000Y7655000D02*
Y7805000D01*
X1425000Y7655000D02*
Y7805000D01*
X885000Y7655000D02*
X1155000D01*
Y7805000D01*
X885000Y7655000D02*
Y7805000D01*
X1155000D01*
X3847000Y4140000D02*
Y4410000D01*
X3697000Y4140000D02*
Y4410000D01*
Y4140000D02*
X3847000D01*
X3697000Y4410000D02*
X3847000D01*
Y2890000D02*
Y3160000D01*
X3697000Y2890000D02*
Y3160000D01*
Y2890000D02*
X3847000D01*
X3697000Y3160000D02*
X3847000D01*
Y1640000D02*
Y1910000D01*
X3697000Y1640000D02*
Y1910000D01*
Y1640000D02*
X3847000D01*
X3697000Y1910000D02*
X3847000D01*
Y390000D02*
Y660000D01*
X3697000Y390000D02*
Y660000D01*
Y390000D02*
X3847000D01*
X3697000Y660000D02*
X3847000D01*
X233000Y390000D02*
Y660000D01*
X83000Y390000D02*
Y660000D01*
Y390000D02*
X233000D01*
X83000Y660000D02*
X233000D01*
Y1640000D02*
Y1910000D01*
X83000Y1640000D02*
Y1910000D01*
Y1640000D02*
X233000D01*
X83000Y1910000D02*
X233000D01*
Y2890000D02*
Y3160000D01*
X83000Y2890000D02*
Y3160000D01*
Y2890000D02*
X233000D01*
X83000Y3160000D02*
X233000D01*
Y4140000D02*
Y4410000D01*
X83000Y4140000D02*
Y4410000D01*
Y4140000D02*
X233000D01*
X83000Y4410000D02*
X233000D01*
X565000Y6575000D02*
X835000D01*
X565000Y6425000D02*
X835000D01*
Y6575000D01*
X565000Y6425000D02*
Y6575000D01*
Y6325000D02*
X835000D01*
X565000Y6175000D02*
X835000D01*
Y6325000D01*
X565000Y6175000D02*
Y6325000D01*
Y6075000D02*
X835000D01*
X565000Y5925000D02*
X835000D01*
Y6075000D01*
X565000Y5925000D02*
Y6075000D01*
X2430000Y10635000D02*
X3920000D01*
Y8965000D02*
Y10635000D01*
X2430000Y8965000D02*
X3920000D01*
X2430000D02*
Y10635000D01*
X2675000Y10095000D02*
Y10365000D01*
Y10095000D02*
X2825000D01*
X2675000Y10365000D02*
X2825000D01*
Y10095000D02*
Y10365000D01*
X2375000Y6115000D02*
Y6385000D01*
X2225000Y6115000D02*
Y6385000D01*
Y6115000D02*
X2375000D01*
X2225000Y6385000D02*
X2375000D01*
D58*
X1120000Y7380000D02*
X1220000D01*
X1170000Y7330000D02*
Y7430000D01*
X2580000Y1150000D02*
Y1250000D01*
X2530000Y1200000D02*
X2630000D01*
X2407500Y1115000D02*
X2752500D01*
X2407500Y1285000D02*
X2752500D01*
Y1115000D02*
Y1285000D01*
X2407500Y1115000D02*
Y1285000D01*
X2580000Y2400000D02*
Y2500000D01*
X2530000Y2450000D02*
X2630000D01*
X2407500Y2365000D02*
X2752500D01*
X2407500Y2535000D02*
X2752500D01*
Y2365000D02*
Y2535000D01*
X2407500Y2365000D02*
Y2535000D01*
X2580000Y3650000D02*
Y3750000D01*
X2530000Y3700000D02*
X2630000D01*
X2407500Y3615000D02*
X2752500D01*
X2407500Y3785000D02*
X2752500D01*
Y3615000D02*
Y3785000D01*
X2407500Y3615000D02*
Y3785000D01*
X2580000Y4900000D02*
Y5000000D01*
X2530000Y4950000D02*
X2630000D01*
X2407500Y4865000D02*
X2752500D01*
X2407500Y5035000D02*
X2752500D01*
Y4865000D02*
Y5035000D01*
X2407500Y4865000D02*
Y5035000D01*
X3042500Y10230000D02*
X3137500D01*
X3090000Y10182500D02*
Y10277500D01*
X2872500Y10230000D02*
X2967500D01*
X2920000Y10182500D02*
Y10277500D01*
X3242500Y8750000D02*
X3337500D01*
X3290000Y8702500D02*
Y8797500D01*
X2872500Y8750000D02*
X2967500D01*
X2920000Y8702500D02*
Y8797500D01*
X2610000Y8702500D02*
Y8797500D01*
X2562500Y8750000D02*
X2657500D01*
X2732500D02*
X2827500D01*
X2780000Y8702500D02*
Y8797500D01*
X3382500Y8750000D02*
X3477500D01*
X3430000Y8702500D02*
Y8797500D01*
X3600000Y8702500D02*
Y8797500D01*
X3552500Y8750000D02*
X3647500D01*
X1290000Y7682500D02*
Y7777500D01*
X1242500Y7730000D02*
X1337500D01*
X972500D02*
X1067500D01*
X1020000Y7682500D02*
Y7777500D01*
X3724500Y4275000D02*
X3819500D01*
X3772000Y4227500D02*
Y4322500D01*
X3724500Y3025000D02*
X3819500D01*
X3772000Y2977500D02*
Y3072500D01*
X3724500Y1775000D02*
X3819500D01*
X3772000Y1727500D02*
Y1822500D01*
X3724500Y525000D02*
X3819500D01*
X3772000Y477500D02*
Y572500D01*
X110500Y525000D02*
X205500D01*
X158000Y477500D02*
Y572500D01*
X110500Y1775000D02*
X205500D01*
X158000Y1727500D02*
Y1822500D01*
X110500Y3025000D02*
X205500D01*
X158000Y2977500D02*
Y3072500D01*
X110500Y4275000D02*
X205500D01*
X158000Y4227500D02*
Y4322500D01*
X700000Y6452500D02*
Y6547500D01*
X652500Y6500000D02*
X747500D01*
X700000Y6202500D02*
Y6297500D01*
X652500Y6250000D02*
X747500D01*
X700000Y5952500D02*
Y6047500D01*
X652500Y6000000D02*
X747500D01*
X1350000Y4900000D02*
Y5000000D01*
X1300000Y4950000D02*
X1400000D01*
X1177500Y5035000D02*
X1522500D01*
X1177500Y4865000D02*
X1522500D01*
X1177500D02*
Y5035000D01*
X1522500Y4865000D02*
Y5035000D01*
X1350000Y1150000D02*
Y1250000D01*
X1300000Y1200000D02*
X1400000D01*
X1177500Y1285000D02*
X1522500D01*
X1177500Y1115000D02*
X1522500D01*
X1177500D02*
Y1285000D01*
X1522500Y1115000D02*
Y1285000D01*
X1350000Y2400000D02*
Y2500000D01*
X1300000Y2450000D02*
X1400000D01*
X1177500Y2535000D02*
X1522500D01*
X1177500Y2365000D02*
X1522500D01*
X1177500D02*
Y2535000D01*
X1522500Y2365000D02*
Y2535000D01*
X1350000Y3650000D02*
Y3750000D01*
X1300000Y3700000D02*
X1400000D01*
X1177500Y3785000D02*
X1522500D01*
X1177500Y3615000D02*
X1522500D01*
X1177500D02*
Y3785000D01*
X1522500Y3615000D02*
Y3785000D01*
X2750000Y10182500D02*
Y10277500D01*
X2702500Y10230000D02*
X2797500D01*
X2252500Y6250000D02*
X2347500D01*
X2300000Y6202500D02*
Y6297500D01*
D59*
X1416524Y11172652D02*
X1441916Y11198044D01*
X1492699D01*
X1518091Y11172652D01*
Y11147260D01*
X1492699Y11121868D01*
X1467307D01*
X1492699D01*
X1518091Y11096476D01*
Y11071085D01*
X1492699Y11045693D01*
X1441916D01*
X1416524Y11071085D01*
X1568875D02*
X1594267Y11045693D01*
X1645050D01*
X1670442Y11071085D01*
Y11172652D01*
X1645050Y11198044D01*
X1594267D01*
X1568875Y11172652D01*
Y11147260D01*
X1594267Y11121868D01*
X1670442D01*
X1746617Y11020301D02*
X1772009Y11045693D01*
Y11071085D01*
X1746617D01*
Y11045693D01*
X1772009D01*
X1746617Y11020301D01*
X1721225Y10994909D01*
X1873576Y11172652D02*
X1898968Y11198044D01*
X1949751D01*
X1975143Y11172652D01*
Y11147260D01*
X1949751Y11121868D01*
X1924360D01*
X1949751D01*
X1975143Y11096476D01*
Y11071085D01*
X1949751Y11045693D01*
X1898968D01*
X1873576Y11071085D01*
X2025927Y11172652D02*
X2051319Y11198044D01*
X2102102D01*
X2127494Y11172652D01*
Y11071085D01*
X2102102Y11045693D01*
X2051319D01*
X2025927Y11071085D01*
Y11172652D01*
X2178278Y11045693D02*
Y11147260D01*
X2203669D01*
X2229061Y11121868D01*
Y11045693D01*
Y11121868D01*
X2254453Y11147260D01*
X2279845Y11121868D01*
Y11045693D01*
X2330628D02*
Y11147260D01*
X2356020D01*
X2381412Y11121868D01*
Y11045693D01*
Y11121868D01*
X2406804Y11147260D01*
X2432196Y11121868D01*
Y11045693D01*
X4589307Y4713045D02*
Y4763828D01*
Y4738437D01*
X4436956D01*
X4462348Y4713045D01*
Y4840004D02*
X4436956Y4865395D01*
Y4916179D01*
X4462348Y4941571D01*
X4563915D01*
X4589307Y4916179D01*
Y4865395D01*
X4563915Y4840004D01*
X4462348D01*
X4436956Y5093921D02*
X4462348Y5043138D01*
X4513131Y4992354D01*
X4563915D01*
X4589307Y5017746D01*
Y5068530D01*
X4563915Y5093921D01*
X4538523D01*
X4513131Y5068530D01*
Y4992354D01*
X4614699Y5170097D02*
X4589307Y5195488D01*
X4563915D01*
Y5170097D01*
X4589307D01*
Y5195488D01*
X4614699Y5170097D01*
X4640090Y5144705D01*
X4436956Y5398623D02*
Y5297056D01*
X4513131D01*
X4487740Y5347839D01*
Y5373231D01*
X4513131Y5398623D01*
X4563915D01*
X4589307Y5373231D01*
Y5322448D01*
X4563915Y5297056D01*
X4462348Y5449406D02*
X4436956Y5474798D01*
Y5525582D01*
X4462348Y5550974D01*
X4563915D01*
X4589307Y5525582D01*
Y5474798D01*
X4563915Y5449406D01*
X4462348D01*
X4589307Y5601757D02*
X4487740D01*
Y5627149D01*
X4513131Y5652541D01*
X4589307D01*
X4513131D01*
X4487740Y5677933D01*
X4513131Y5703324D01*
X4589307D01*
Y5754108D02*
X4487740D01*
Y5779500D01*
X4513131Y5804891D01*
X4589307D01*
X4513131D01*
X4487740Y5830283D01*
X4513131Y5855675D01*
X4589307D01*
%TF.MD5,deead4bfd66829661b7873084891bf53*%
M02*
