%TF.GenerationSoftware,Altium Limited,Altium Designer,24.6.1 (21)*%
G04 Layer_Color=32896*
%FSLAX45Y45*%
%MOMM*%
%TF.SameCoordinates,318F05BD-DB15-4788-AC08-55ADAB723DC6*%
%TF.FilePolarity,Positive*%
%TF.FileFunction,Legend,Bot*%
%TF.Part,Single*%
G01*
G75*
%TA.AperFunction,NonConductor*%
%ADD32C,0.25400*%
%ADD33C,0.20000*%
%ADD36C,0.15000*%
D32*
X445000Y8424938D02*
G03*
X445000Y8525062I0J50062D01*
G01*
X2005000Y8095000D02*
Y8855000D01*
X445000Y8095000D02*
Y8855000D01*
D33*
X1400000Y7160000D02*
Y7270000D01*
X1030000Y7160000D02*
X1400000D01*
X955000Y7235000D02*
X1030000Y7160000D01*
X955000Y7235000D02*
Y7270000D01*
X1398033Y7491162D02*
Y7601162D01*
X1028033D02*
X1398033D01*
X953033Y7526162D02*
X1028033Y7601162D01*
X953033Y7491162D02*
Y7526162D01*
X2619000Y50000D02*
Y550000D01*
X1312000D02*
X2619000D01*
X1312000Y50000D02*
Y550000D01*
Y50000D02*
X2619000D01*
X50000Y6654000D02*
X550000D01*
X50000Y5347000D02*
Y6654000D01*
Y5347000D02*
X550000D01*
Y6654000D01*
X3380000D02*
X3880000D01*
X3380000Y5347000D02*
Y6654000D01*
Y5347000D02*
X3880000D01*
Y6654000D01*
D36*
X3160000Y10130000D02*
Y10330000D01*
X3020000Y10130000D02*
Y10330000D01*
X2850000Y10130000D02*
Y10330000D01*
X2990000Y10130000D02*
Y10330000D01*
X3360000Y8650000D02*
Y8850000D01*
X3220000Y8650000D02*
Y8850000D01*
X2990000Y8650000D02*
Y8850000D01*
X2850000Y8650000D02*
Y8850000D01*
X2685000Y8650000D02*
Y8850000D01*
X2535000Y8650000D02*
Y8850000D01*
X2710000Y8650000D02*
Y8850000D01*
X2850000Y8650000D02*
Y8850000D01*
X3360000Y8650000D02*
Y8850000D01*
X3500000Y8650000D02*
Y8850000D01*
X3675000Y8650000D02*
Y8850000D01*
X3525000Y8650000D02*
Y8850000D01*
X1190000Y7660000D02*
X1390000D01*
X1190000Y7800000D02*
X1390000D01*
X920000Y7805000D02*
X1120000D01*
X920000Y7655000D02*
X1120000D01*
X3842000Y4175000D02*
Y4375000D01*
X3702000Y4175000D02*
Y4375000D01*
X3842000Y2925000D02*
Y3125000D01*
X3702000Y2925000D02*
Y3125000D01*
X3842000Y1675000D02*
Y1875000D01*
X3702000Y1675000D02*
Y1875000D01*
X3842000Y425000D02*
Y625000D01*
X3702000Y425000D02*
Y625000D01*
X228000Y425000D02*
Y625000D01*
X88000Y425000D02*
Y625000D01*
X228000Y1675000D02*
Y1875000D01*
X88000Y1675000D02*
Y1875000D01*
X228000Y2925000D02*
Y3125000D01*
X88000Y2925000D02*
Y3125000D01*
X228000Y4175000D02*
Y4375000D01*
X88000Y4175000D02*
Y4375000D01*
X600000Y6570000D02*
X800000D01*
X600000Y6430000D02*
X800000D01*
X600000Y6320000D02*
X800000D01*
X600000Y6180000D02*
X800000D01*
X600000Y6070000D02*
X800000D01*
X600000Y5930000D02*
X800000D01*
X2825000Y10130000D02*
Y10330000D01*
X2675000Y10130000D02*
Y10330000D01*
X2370000Y6150000D02*
Y6350000D01*
X2230000Y6150000D02*
Y6350000D01*
%TF.MD5,7c24007cd89f7781f9029025f67ada16*%
M02*
