%TF.GenerationSoftware,Altium Limited,Altium Designer,24.6.1 (21)*%
G04 Layer_Color=128*
%FSLAX45Y45*%
%MOMM*%
%TF.SameCoordinates,318F05BD-DB15-4788-AC08-55ADAB723DC6*%
%TF.FilePolarity,Positive*%
%TF.FileFunction,Drillmap*%
%TF.Part,Single*%
G01*
G75*
%TA.AperFunction,NonConductor*%
%ADD57C,0.12700*%
D57*
X2754020Y1404500D02*
X2814980D01*
X2784500Y1374020D02*
Y1434980D01*
X2345020Y995500D02*
X2405980D01*
X2375500Y965020D02*
Y1025980D01*
X2754020Y2654500D02*
X2814980D01*
X2784500Y2624020D02*
Y2684980D01*
X2345020Y2245500D02*
X2405980D01*
X2375500Y2215020D02*
Y2275980D01*
X2754020Y3904500D02*
X2814980D01*
X2784500Y3874020D02*
Y3934980D01*
X2345020Y3495500D02*
X2405980D01*
X2375500Y3465020D02*
Y3525980D01*
X2754020Y5154500D02*
X2814980D01*
X2784500Y5124020D02*
Y5184980D01*
X2345020Y4745500D02*
X2405980D01*
X2375500Y4715020D02*
Y4775980D01*
X2422000Y173000D02*
X2524000D01*
X2473000Y122000D02*
Y224000D01*
X2168000Y173000D02*
X2270000D01*
X2219000Y122000D02*
Y224000D01*
X1914000Y173000D02*
X2016000D01*
X1965000Y122000D02*
Y224000D01*
X1660000Y173000D02*
X1762000D01*
X1711000Y122000D02*
Y224000D01*
X1406000Y173000D02*
X1508000D01*
X1457000Y122000D02*
Y224000D01*
X1406000Y427000D02*
X1508000D01*
X1457000Y376000D02*
Y478000D01*
X1660000Y427000D02*
X1762000D01*
X1711000Y376000D02*
Y478000D01*
X1914000Y427000D02*
X2016000D01*
X1965000Y376000D02*
Y478000D01*
X2168000Y427000D02*
X2270000D01*
X2219000Y376000D02*
Y478000D01*
X2422000Y427000D02*
X2524000D01*
X2473000Y376000D02*
Y478000D01*
X376000Y6508000D02*
X478000D01*
X427000Y6457000D02*
Y6559000D01*
X376000Y6254000D02*
X478000D01*
X427000Y6203000D02*
Y6305000D01*
X376000Y6000000D02*
X478000D01*
X427000Y5949000D02*
Y6051000D01*
X376000Y5746000D02*
X478000D01*
X427000Y5695000D02*
Y5797000D01*
X376000Y5492000D02*
X478000D01*
X427000Y5441000D02*
Y5543000D01*
X122000Y5492000D02*
X224000D01*
X173000Y5441000D02*
Y5543000D01*
X122000Y5746000D02*
X224000D01*
X173000Y5695000D02*
Y5797000D01*
X122000Y6000000D02*
X224000D01*
X173000Y5949000D02*
Y6051000D01*
X122000Y6254000D02*
X224000D01*
X173000Y6203000D02*
Y6305000D01*
X122000Y6508000D02*
X224000D01*
X173000Y6457000D02*
Y6559000D01*
X3706000Y6508000D02*
X3808000D01*
X3757000Y6457000D02*
Y6559000D01*
X3706000Y6254000D02*
X3808000D01*
X3757000Y6203000D02*
Y6305000D01*
X3706000Y6000000D02*
X3808000D01*
X3757000Y5949000D02*
Y6051000D01*
X3706000Y5746000D02*
X3808000D01*
X3757000Y5695000D02*
Y5797000D01*
X3706000Y5492000D02*
X3808000D01*
X3757000Y5441000D02*
Y5543000D01*
X3452000Y5492000D02*
X3554000D01*
X3503000Y5441000D02*
Y5543000D01*
X3452000Y5746000D02*
X3554000D01*
X3503000Y5695000D02*
Y5797000D01*
X3452000Y6000000D02*
X3554000D01*
X3503000Y5949000D02*
Y6051000D01*
X3452000Y6254000D02*
X3554000D01*
X3503000Y6203000D02*
Y6305000D01*
X3452000Y6508000D02*
X3554000D01*
X3503000Y6457000D02*
Y6559000D01*
X536900Y9444000D02*
X613100D01*
X575000Y9405900D02*
Y9482100D01*
X790900Y9444000D02*
X867100D01*
X829000Y9405900D02*
Y9482100D01*
X1044900Y9444000D02*
X1121100D01*
X1083000Y9405900D02*
Y9482100D01*
X1298900Y9444000D02*
X1375100D01*
X1337000Y9405900D02*
Y9482100D01*
X536900Y10206000D02*
X613100D01*
X575000Y10167900D02*
Y10244100D01*
X790900Y10206000D02*
X867100D01*
X829000Y10167900D02*
Y10244100D01*
X1044900Y10206000D02*
X1121100D01*
X1083000Y10167900D02*
Y10244100D01*
X1298900Y10206000D02*
X1375100D01*
X1337000Y10167900D02*
Y10244100D01*
X1552900Y10206000D02*
X1629100D01*
X1591000Y10167900D02*
Y10244100D01*
X1806900Y10206000D02*
X1883100D01*
X1845000Y10167900D02*
Y10244100D01*
X1552900Y9444000D02*
X1629100D01*
X1591000Y9405900D02*
Y9482100D01*
X3125000Y9075000D02*
X3225000D01*
X3175000Y9025000D02*
Y9125000D01*
X3655000Y9825000D02*
X3835000D01*
X3745000Y9735000D02*
Y9915000D01*
X3375000Y9075000D02*
X3475000D01*
X3425000Y9025000D02*
Y9125000D01*
X2875000Y9075000D02*
X2975000D01*
X2925000Y9025000D02*
Y9125000D01*
X3375000Y10525000D02*
X3475000D01*
X3425000Y10475000D02*
Y10575000D01*
X2875000Y10525000D02*
X2975000D01*
X2925000Y10475000D02*
Y10575000D01*
X2515000Y9825000D02*
X2695000D01*
X2605000Y9735000D02*
Y9915000D01*
X1115020Y4745500D02*
X1175980D01*
X1145500Y4715020D02*
Y4775980D01*
X1524020Y5154500D02*
X1584980D01*
X1554500Y5124020D02*
Y5184980D01*
X1115020Y995500D02*
X1175980D01*
X1145500Y965020D02*
Y1025980D01*
X1524020Y1404500D02*
X1584980D01*
X1554500Y1374020D02*
Y1434980D01*
X1115020Y2245500D02*
X1175980D01*
X1145500Y2215020D02*
Y2275980D01*
X1524020Y2654500D02*
X1584980D01*
X1554500Y2624020D02*
Y2684980D01*
X1115020Y3495500D02*
X1175980D01*
X1145500Y3465020D02*
Y3525980D01*
X1524020Y3904500D02*
X1584980D01*
X1554500Y3874020D02*
Y3934980D01*
X3742000Y4575000D02*
X3802000D01*
X3772000Y4545000D02*
Y4605000D01*
X2911999Y4575000D02*
X2971999D01*
X2941999Y4545000D02*
Y4605000D01*
X2602000Y4575000D02*
X2662000D01*
X2632000Y4545000D02*
Y4605000D01*
X3100000Y4575000D02*
X3460000D01*
X3280000Y4395000D02*
Y4755000D01*
X3742000Y3325000D02*
X3802000D01*
X3772000Y3295000D02*
Y3355000D01*
X2911999Y3325000D02*
X2971999D01*
X2941999Y3295000D02*
Y3355000D01*
X2602000Y3325000D02*
X2662000D01*
X2632000Y3295000D02*
Y3355000D01*
X3100000Y3325000D02*
X3460000D01*
X3280000Y3145000D02*
Y3505000D01*
X3742000Y2075000D02*
X3802000D01*
X3772000Y2045000D02*
Y2105000D01*
X2911999Y2075000D02*
X2971999D01*
X2941999Y2045000D02*
Y2105000D01*
X2602000Y2075000D02*
X2662000D01*
X2632000Y2045000D02*
Y2105000D01*
X3100000Y2075000D02*
X3460000D01*
X3280000Y1895000D02*
Y2255000D01*
X3742000Y825000D02*
X3802000D01*
X3772000Y795000D02*
Y855000D01*
X2911999Y825000D02*
X2971999D01*
X2941999Y795000D02*
Y855000D01*
X2602000Y825000D02*
X2662000D01*
X2632000Y795000D02*
Y855000D01*
X3100000Y825000D02*
X3460000D01*
X3280000Y645000D02*
Y1005000D01*
X128000Y4575000D02*
X188000D01*
X158000Y4545000D02*
Y4605000D01*
X958001Y4575000D02*
X1018001D01*
X988001Y4545000D02*
Y4605000D01*
X1268000Y4575000D02*
X1328000D01*
X1298000Y4545000D02*
Y4605000D01*
X470000Y4575000D02*
X830000D01*
X650000Y4395000D02*
Y4755000D01*
X128000Y3325000D02*
X188000D01*
X158000Y3295000D02*
Y3355000D01*
X958001Y3325000D02*
X1018001D01*
X988001Y3295000D02*
Y3355000D01*
X1268000Y3325000D02*
X1328000D01*
X1298000Y3295000D02*
Y3355000D01*
X470000Y3325000D02*
X830000D01*
X650000Y3145000D02*
Y3505000D01*
X128000Y2075000D02*
X188000D01*
X158000Y2045000D02*
Y2105000D01*
X958001Y2075000D02*
X1018001D01*
X988001Y2045000D02*
Y2105000D01*
X1268000Y2075000D02*
X1328000D01*
X1298000Y2045000D02*
Y2105000D01*
X470000Y2075000D02*
X830000D01*
X650000Y1895000D02*
Y2255000D01*
X128000Y825000D02*
X188000D01*
X158000Y795000D02*
Y855000D01*
X958001Y825000D02*
X1018001D01*
X988001Y795000D02*
Y855000D01*
X1268000Y825000D02*
X1328000D01*
X1298000Y795000D02*
Y855000D01*
X470000Y825000D02*
X830000D01*
X650000Y645000D02*
Y1005000D01*
X1935000Y6317000D02*
X1995000D01*
X1965000Y6287000D02*
Y6347000D01*
X1935000Y5486999D02*
X1995000D01*
X1965000Y5456999D02*
Y5516999D01*
X1935000Y5177000D02*
X1995000D01*
X1965000Y5147000D02*
Y5207000D01*
X1785000Y5825000D02*
X2145000D01*
X1965000Y5645000D02*
Y6005000D01*
X1855000Y6580000D02*
X1885000D01*
X1870000Y6565000D02*
Y6595000D01*
X1345000Y6670000D02*
X1375000D01*
X1360000Y6655000D02*
Y6685000D01*
X2735000Y10400000D02*
X2765000D01*
X2750000Y10385000D02*
Y10415000D01*
X3665000Y8950000D02*
X3695000D01*
X3680000Y8935000D02*
Y8965000D01*
X755000Y6350000D02*
X785000D01*
X770000Y6335000D02*
Y6365000D01*
X1015000Y9200000D02*
X1045000D01*
X1030000Y9185000D02*
Y9215000D01*
X1015000Y8770000D02*
X1045000D01*
X1030000Y8755000D02*
Y8785000D01*
X815000Y7520000D02*
X845000D01*
X830000Y7505000D02*
Y7535000D01*
X1526250Y8791250D02*
X1556250D01*
X1541250Y8776250D02*
Y8806250D01*
X2595000Y8910000D02*
X2625000D01*
X2610000Y8895000D02*
Y8925000D01*
X1335000Y7530000D02*
X1365000D01*
X1350000Y7515000D02*
Y7545000D01*
X1355000Y7020000D02*
X1385000D01*
X1370000Y7005000D02*
Y7035000D01*
X415000Y7850000D02*
X445000D01*
X430000Y7835000D02*
Y7865000D01*
X1225000Y7010000D02*
X1255000D01*
X1240000Y6995000D02*
Y7025000D01*
X1465000Y7850000D02*
X1495000D01*
X1480000Y7835000D02*
Y7865000D01*
X1655000Y8202500D02*
X1685000D01*
X1670000Y8187500D02*
Y8217500D01*
X1655000Y7850000D02*
X1685000D01*
X1670000Y7835000D02*
Y7865000D01*
X895000Y8610000D02*
X925000D01*
X910000Y8595000D02*
Y8625000D01*
X896519Y7860467D02*
X926519D01*
X911519Y7845467D02*
Y7875467D01*
X635000Y7850000D02*
X665000D01*
X650000Y7835000D02*
Y7865000D01*
X765000Y7850000D02*
X795000D01*
X780000Y7835000D02*
Y7865000D01*
X1015000Y7850000D02*
X1045000D01*
X1030000Y7835000D02*
Y7865000D01*
X1525000Y6860000D02*
X1555000D01*
X1540000Y6845000D02*
Y6875000D01*
X1665000Y8380000D02*
X1695000D01*
X1680000Y8365000D02*
Y8395000D01*
X1235000Y6470000D02*
X1265000D01*
X1250000Y6455000D02*
Y6485000D01*
X1535000Y1200000D02*
X1565000D01*
X1550000Y1185000D02*
Y1215000D01*
X1535000Y2450000D02*
X1565000D01*
X1550000Y2435000D02*
Y2465000D01*
X2365000Y2450000D02*
X2395000D01*
X2380000Y2435000D02*
Y2465000D01*
X2365000Y1200000D02*
X2395000D01*
X2380000Y1185000D02*
Y1215000D01*
X1535000Y4950000D02*
X1565000D01*
X1550000Y4935000D02*
Y4965000D01*
X1535000Y3700000D02*
X1565000D01*
X1550000Y3685000D02*
Y3715000D01*
X2365000Y3700000D02*
X2395000D01*
X2380000Y3685000D02*
Y3715000D01*
X2365000Y4950000D02*
X2395000D01*
X2380000Y4935000D02*
Y4965000D01*
X2905000Y8600000D02*
X2935000D01*
X2920000Y8585000D02*
Y8615000D01*
X3275000Y8600000D02*
X3305000D01*
X3290000Y8585000D02*
Y8615000D01*
X3075000Y10070000D02*
X3105000D01*
X3090000Y10055000D02*
Y10085000D01*
%TF.MD5,f12108148fae0cd5137eedf08b62458e*%
M02*
