%TF.GenerationSoftware,Altium Limited,Altium Designer,24.6.1 (21)*%
G04 Layer_Color=8388736*
%FSLAX45Y45*%
%MOMM*%
%TF.SameCoordinates,318F05BD-DB15-4788-AC08-55ADAB723DC6*%
%TF.FilePolarity,Negative*%
%TF.FileFunction,Soldermask,Top*%
%TF.Part,Single*%
G01*
G75*
%TA.AperFunction,SMDPad,CuDef*%
%ADD37R,1.25000X1.35000*%
%TA.AperFunction,BGAPad,CuDef*%
%ADD38R,1.65000X1.65000*%
%TA.AperFunction,NonConductor*%
%ADD39R,1.65000X2.65000*%
%TA.AperFunction,Conductor*%
%ADD40R,1.65000X2.65000*%
%TA.AperFunction,ComponentPad*%
%ADD41C,0.75960*%
%ADD42C,1.90000*%
%ADD43C,1.67400*%
%ADD44C,1.91200*%
%ADD45O,3.15000X4.95000*%
%ADD46O,1.42000X2.69000*%
%ADD47C,0.15000*%
%ADD48O,2.69000X1.42000*%
D37*
X2685000Y1200000D02*
D03*
X2475000D02*
D03*
X2685000Y2450000D02*
D03*
X2475000D02*
D03*
X2685000Y3700000D02*
D03*
X2475000D02*
D03*
X2685000Y4950000D02*
D03*
X2475000D02*
D03*
X1245000D02*
D03*
X1455000D02*
D03*
X1245000Y1200000D02*
D03*
X1455000D02*
D03*
X1245000Y2450000D02*
D03*
X1455000D02*
D03*
X1245000Y3700000D02*
D03*
X1455000D02*
D03*
D38*
X1363500Y8211200D02*
D03*
X1109500D02*
D03*
X855500D02*
D03*
X601500D02*
D03*
Y6788800D02*
D03*
X855500D02*
D03*
X1109500D02*
D03*
X1363500D02*
D03*
D39*
X601500Y8159984D02*
D03*
X855500D02*
D03*
X1109500D02*
D03*
X1363500D02*
D03*
D40*
X1363500Y6839984D02*
D03*
X601500D02*
D03*
X855500D02*
D03*
X1109500D02*
D03*
D41*
X2784500Y1404500D02*
D03*
X2375500Y995500D02*
D03*
X2784500Y2654500D02*
D03*
X2375500Y2245500D02*
D03*
X2784500Y3904500D02*
D03*
X2375500Y3495500D02*
D03*
X2784500Y5154500D02*
D03*
X2375500Y4745500D02*
D03*
X1145500D02*
D03*
X1554500Y5154500D02*
D03*
X1145500Y995500D02*
D03*
X1554500Y1404500D02*
D03*
X1145500Y2245500D02*
D03*
X1554500Y2654500D02*
D03*
X1145500Y3495500D02*
D03*
X1554500Y3904500D02*
D03*
D42*
X2473000Y173000D02*
D03*
X2219000D02*
D03*
X1965000D02*
D03*
X1711000D02*
D03*
X1457000D02*
D03*
Y427000D02*
D03*
X1711000D02*
D03*
X1965000D02*
D03*
X2219000D02*
D03*
X2473000D02*
D03*
X427000Y6508000D02*
D03*
Y6254000D02*
D03*
Y6000000D02*
D03*
Y5746000D02*
D03*
Y5492000D02*
D03*
X173000D02*
D03*
Y5746000D02*
D03*
Y6000000D02*
D03*
Y6254000D02*
D03*
Y6508000D02*
D03*
X3757000D02*
D03*
Y6254000D02*
D03*
Y6000000D02*
D03*
Y5746000D02*
D03*
Y5492000D02*
D03*
X3503000D02*
D03*
Y5746000D02*
D03*
Y6000000D02*
D03*
Y6254000D02*
D03*
Y6508000D02*
D03*
D43*
X575000Y9444000D02*
D03*
X829000D02*
D03*
X1083000D02*
D03*
X1337000D02*
D03*
X575000Y10206000D02*
D03*
X829000D02*
D03*
X1083000D02*
D03*
X1337000D02*
D03*
X1591000D02*
D03*
X1845000D02*
D03*
X1591000Y9444000D02*
D03*
D44*
X3175000Y9075000D02*
D03*
X3425000D02*
D03*
X2925000D02*
D03*
X3425000Y10525000D02*
D03*
X2925000D02*
D03*
D45*
X3745000Y9825000D02*
D03*
X2605000D02*
D03*
D46*
X3772000Y4575000D02*
D03*
X2941999D02*
D03*
X2632000D02*
D03*
X3772000Y3325000D02*
D03*
X2941999D02*
D03*
X2632000D02*
D03*
X3772000Y2075000D02*
D03*
X2941999D02*
D03*
X2632000D02*
D03*
X3772000Y825000D02*
D03*
X2941999D02*
D03*
X2632000D02*
D03*
X158000Y4575000D02*
D03*
X988001D02*
D03*
X1298000D02*
D03*
X158000Y3325000D02*
D03*
X988001D02*
D03*
X1298000D02*
D03*
X158000Y2075000D02*
D03*
X988001D02*
D03*
X1298000D02*
D03*
X158000Y825000D02*
D03*
X988001D02*
D03*
X1298000D02*
D03*
D47*
X3280000Y4575000D02*
D03*
Y3325000D02*
D03*
Y2075000D02*
D03*
Y825000D02*
D03*
X650000Y4575000D02*
D03*
Y3325000D02*
D03*
Y2075000D02*
D03*
Y825000D02*
D03*
X1965000Y5825000D02*
D03*
D48*
Y6317000D02*
D03*
Y5486999D02*
D03*
Y5177000D02*
D03*
%TF.MD5,04d654278a5cae6024a231bbd4513048*%
M02*
