%TF.GenerationSoftware,Altium Limited,Altium Designer,24.6.1 (21)*%
G04 Layer_Color=65535*
%FSLAX45Y45*%
%MOMM*%
%TF.SameCoordinates,318F05BD-DB15-4788-AC08-55ADAB723DC6*%
%TF.FilePolarity,Positive*%
%TF.FileFunction,Legend,Top*%
%TF.Part,Single*%
G01*
G75*
%TA.AperFunction,NonConductor*%
%ADD32C,0.25400*%
%ADD33C,0.20000*%
%ADD34R,5.00004X4.99999*%
%ADD35R,0.23994X0.21653*%
G36*
X1186303Y8570167D02*
X1187042Y8570061D01*
X1187888Y8569744D01*
X1188839Y8569427D01*
X1189684Y8568899D01*
X1190424Y8568265D01*
X1190529Y8568159D01*
X1190741Y8567948D01*
X1191058Y8567525D01*
X1191375Y8566891D01*
X1191692Y8566152D01*
X1192009Y8565306D01*
X1192220Y8564355D01*
X1192326Y8563299D01*
Y8563193D01*
Y8562876D01*
X1192220Y8562348D01*
X1192114Y8561608D01*
X1191903Y8560869D01*
X1191480Y8560129D01*
X1191058Y8559284D01*
X1190424Y8558544D01*
X1190318Y8558438D01*
X1190107Y8558227D01*
X1189684Y8557910D01*
X1189050Y8557593D01*
X1188310Y8557276D01*
X1187359Y8556959D01*
X1186303Y8556748D01*
X1185035Y8556642D01*
X1184506D01*
X1183872Y8556748D01*
X1183027Y8556853D01*
X1182182Y8557065D01*
X1181336Y8557487D01*
X1180491Y8557910D01*
X1179752Y8558544D01*
X1179646Y8558650D01*
X1179540Y8558861D01*
X1179223Y8559284D01*
X1178906Y8559812D01*
X1178589Y8560552D01*
X1178378Y8561397D01*
X1178167Y8562242D01*
X1178061Y8563299D01*
Y8563405D01*
Y8563827D01*
X1178167Y8564355D01*
X1178272Y8564989D01*
X1178484Y8565835D01*
X1178801Y8566680D01*
X1179223Y8567525D01*
X1179752Y8568265D01*
X1179857Y8568371D01*
X1180069Y8568582D01*
X1180491Y8568899D01*
X1181125Y8569322D01*
X1181865Y8569639D01*
X1182710Y8569956D01*
X1183767Y8570167D01*
X1185035Y8570273D01*
X1185669D01*
X1186303Y8570167D01*
D02*
G37*
G36*
X1266819Y8502648D02*
X1258049D01*
X1233851Y8569639D01*
X1245475D01*
X1262592Y8518180D01*
X1279181Y8569639D01*
X1290804D01*
X1266819Y8502648D01*
D02*
G37*
G36*
X1109908D02*
X1101137D01*
X1076940Y8569639D01*
X1088563D01*
X1105681Y8518180D01*
X1122270Y8569639D01*
X1133893D01*
X1109908Y8502648D01*
D02*
G37*
G36*
X2139181Y8582213D02*
X2102727D01*
X2099979Y8557593D01*
X2100085D01*
X2100296Y8557805D01*
X2100613Y8557910D01*
X2101142Y8558227D01*
X2101776Y8558544D01*
X2102515Y8558861D01*
X2103361Y8559178D01*
X2104312Y8559601D01*
X2106530Y8560235D01*
X2109066Y8560869D01*
X2111919Y8561291D01*
X2114984Y8561503D01*
X2116146D01*
X2116991Y8561397D01*
X2118048Y8561291D01*
X2119316Y8561080D01*
X2120584Y8560763D01*
X2122063Y8560446D01*
X2123648Y8560024D01*
X2125233Y8559495D01*
X2126818Y8558861D01*
X2128403Y8558016D01*
X2130094Y8557065D01*
X2131678Y8556008D01*
X2133158Y8554740D01*
X2134531Y8553261D01*
X2134637Y8553155D01*
X2134848Y8552838D01*
X2135165Y8552416D01*
X2135694Y8551782D01*
X2136222Y8550936D01*
X2136856Y8549985D01*
X2137490Y8548823D01*
X2138230Y8547450D01*
X2138864Y8545970D01*
X2139498Y8544280D01*
X2140132Y8542483D01*
X2140660Y8540581D01*
X2141188Y8538468D01*
X2141505Y8536249D01*
X2141717Y8533819D01*
X2141822Y8531283D01*
Y8531177D01*
Y8530649D01*
Y8529909D01*
X2141717Y8528958D01*
X2141611Y8527796D01*
X2141400Y8526422D01*
X2141188Y8524943D01*
X2140871Y8523358D01*
X2140449Y8521562D01*
X2139920Y8519766D01*
X2139392Y8517969D01*
X2138652Y8516173D01*
X2137701Y8514271D01*
X2136750Y8512580D01*
X2135588Y8510890D01*
X2134214Y8509305D01*
X2134109Y8509199D01*
X2133897Y8508988D01*
X2133475Y8508565D01*
X2132841Y8508037D01*
X2132101Y8507509D01*
X2131150Y8506769D01*
X2130094Y8506135D01*
X2128826Y8505395D01*
X2127346Y8504656D01*
X2125761Y8503916D01*
X2124071Y8503176D01*
X2122274Y8502648D01*
X2120161Y8502120D01*
X2118048Y8501697D01*
X2115723Y8501486D01*
X2113293Y8501380D01*
X2112131D01*
X2111285Y8501486D01*
X2110334Y8501591D01*
X2109066Y8501697D01*
X2107798Y8501908D01*
X2106425Y8502225D01*
X2103255Y8502965D01*
X2101670Y8503493D01*
X2099979Y8504127D01*
X2098394Y8504867D01*
X2096809Y8505818D01*
X2095224Y8506769D01*
X2093745Y8507931D01*
X2093639Y8508037D01*
X2093428Y8508248D01*
X2093005Y8508671D01*
X2092583Y8509199D01*
X2091949Y8509833D01*
X2091315Y8510678D01*
X2090575Y8511629D01*
X2089836Y8512686D01*
X2089096Y8513954D01*
X2088356Y8515328D01*
X2087617Y8516807D01*
X2086983Y8518498D01*
X2086349Y8520294D01*
X2085820Y8522196D01*
X2085503Y8524203D01*
X2085186Y8526317D01*
X2095964D01*
Y8526211D01*
X2096070Y8526000D01*
Y8525577D01*
X2096175Y8525049D01*
X2096387Y8524415D01*
X2096492Y8523675D01*
X2097021Y8521879D01*
X2097760Y8519977D01*
X2098711Y8518075D01*
X2099979Y8516173D01*
X2101459Y8514588D01*
X2101564D01*
X2101670Y8514377D01*
X2102304Y8513954D01*
X2103255Y8513320D01*
X2104629Y8512686D01*
X2106319Y8511946D01*
X2108327Y8511312D01*
X2110651Y8510890D01*
X2113293Y8510678D01*
X2114033D01*
X2114561Y8510784D01*
X2115301Y8510890D01*
X2116040Y8510995D01*
X2117837Y8511312D01*
X2119844Y8511946D01*
X2121852Y8513003D01*
X2122908Y8513531D01*
X2123965Y8514271D01*
X2124916Y8515116D01*
X2125761Y8516067D01*
X2125867Y8516173D01*
X2125973Y8516279D01*
X2126184Y8516596D01*
X2126501Y8517124D01*
X2126818Y8517652D01*
X2127241Y8518286D01*
X2127663Y8519132D01*
X2128086Y8519977D01*
X2128509Y8521034D01*
X2128826Y8522196D01*
X2129248Y8523464D01*
X2129565Y8524732D01*
X2130094Y8527796D01*
X2130305Y8529381D01*
Y8531177D01*
Y8531283D01*
Y8531600D01*
Y8532023D01*
X2130199Y8532657D01*
Y8533502D01*
X2130094Y8534347D01*
X2129671Y8536460D01*
X2129143Y8538785D01*
X2128192Y8541215D01*
X2127029Y8543540D01*
X2126184Y8544702D01*
X2125339Y8545759D01*
X2125233Y8545865D01*
X2125127Y8545970D01*
X2124810Y8546287D01*
X2124493Y8546604D01*
X2123331Y8547450D01*
X2121852Y8548506D01*
X2120055Y8549563D01*
X2117837Y8550408D01*
X2115195Y8551042D01*
X2113821Y8551148D01*
X2112342Y8551253D01*
X2111074D01*
X2110440Y8551148D01*
X2109700Y8551042D01*
X2108115Y8550831D01*
X2106213Y8550408D01*
X2104206Y8549880D01*
X2102304Y8549034D01*
X2100613Y8547872D01*
X2097549Y8545442D01*
X2088356Y8547766D01*
X2093005Y8592779D01*
X2139181D01*
Y8582213D01*
D02*
G37*
G36*
X2041758Y8593942D02*
X2042815Y8593836D01*
X2043977Y8593730D01*
X2045351Y8593519D01*
X2046830Y8593202D01*
X2050000Y8592462D01*
X2051691Y8591934D01*
X2053381Y8591194D01*
X2054966Y8590455D01*
X2056551Y8589609D01*
X2058136Y8588553D01*
X2059510Y8587390D01*
X2059616Y8587285D01*
X2059827Y8587074D01*
X2060144Y8586757D01*
X2060672Y8586228D01*
X2061201Y8585489D01*
X2061835Y8584749D01*
X2062469Y8583798D01*
X2063208Y8582741D01*
X2063842Y8581579D01*
X2064476Y8580205D01*
X2065110Y8578832D01*
X2065638Y8577247D01*
X2066167Y8575556D01*
X2066484Y8573760D01*
X2066695Y8571858D01*
X2066801Y8569850D01*
Y8569745D01*
Y8569216D01*
X2066695Y8568477D01*
X2066589Y8567526D01*
X2066272Y8566152D01*
X2065955Y8564673D01*
X2065427Y8562876D01*
X2064688Y8560869D01*
X2063842Y8558650D01*
X2062680Y8556220D01*
X2061306Y8553684D01*
X2059721Y8550831D01*
X2057714Y8547872D01*
X2055495Y8544808D01*
X2052853Y8541532D01*
X2049895Y8538151D01*
X2025697Y8511946D01*
X2070922D01*
Y8502648D01*
X2011856D01*
Y8510784D01*
X2043132Y8545442D01*
X2043238Y8545548D01*
X2043449Y8545759D01*
X2043766Y8546182D01*
X2044294Y8546710D01*
X2044823Y8547450D01*
X2045457Y8548189D01*
X2046936Y8549985D01*
X2048521Y8552099D01*
X2050000Y8554212D01*
X2051480Y8556325D01*
X2052642Y8558227D01*
Y8558333D01*
X2052747Y8558439D01*
X2053064Y8559073D01*
X2053487Y8560129D01*
X2054015Y8561397D01*
X2054438Y8562876D01*
X2054861Y8564673D01*
X2055178Y8566575D01*
X2055283Y8568477D01*
Y8568582D01*
Y8568794D01*
Y8569111D01*
X2055178Y8569639D01*
Y8570273D01*
X2055072Y8570907D01*
X2054755Y8572598D01*
X2054227Y8574394D01*
X2053487Y8576401D01*
X2052430Y8578303D01*
X2050951Y8580100D01*
Y8580205D01*
X2050740Y8580311D01*
X2050212Y8580839D01*
X2049261Y8581579D01*
X2047993Y8582424D01*
X2046302Y8583164D01*
X2044400Y8583904D01*
X2042181Y8584432D01*
X2040913Y8584643D01*
X2038800D01*
X2038272Y8584538D01*
X2037532D01*
X2036687Y8584432D01*
X2034785Y8584009D01*
X2032671Y8583481D01*
X2030452Y8582530D01*
X2028233Y8581368D01*
X2027282Y8580522D01*
X2026331Y8579677D01*
Y8579571D01*
X2026120Y8579466D01*
X2025909Y8579149D01*
X2025592Y8578832D01*
X2025275Y8578303D01*
X2024852Y8577669D01*
X2024007Y8576190D01*
X2023056Y8574288D01*
X2022316Y8571964D01*
X2021788Y8569216D01*
X2021682Y8567737D01*
X2021577Y8566152D01*
X2010165D01*
Y8566258D01*
Y8566680D01*
X2010271Y8567314D01*
Y8568265D01*
X2010376Y8569322D01*
X2010588Y8570484D01*
X2010799Y8571858D01*
X2011222Y8573337D01*
X2011644Y8574922D01*
X2012173Y8576613D01*
X2012806Y8578198D01*
X2013546Y8579888D01*
X2014497Y8581579D01*
X2015554Y8583270D01*
X2016822Y8584855D01*
X2018195Y8586334D01*
X2018301Y8586440D01*
X2018618Y8586651D01*
X2019041Y8587074D01*
X2019675Y8587496D01*
X2020520Y8588130D01*
X2021471Y8588764D01*
X2022633Y8589504D01*
X2023901Y8590243D01*
X2025381Y8590877D01*
X2026965Y8591617D01*
X2028762Y8592251D01*
X2030664Y8592885D01*
X2032671Y8593308D01*
X2034890Y8593730D01*
X2037215Y8593942D01*
X2039645Y8594047D01*
X2040807D01*
X2041758Y8593942D01*
D02*
G37*
G36*
X1899323D02*
X1900380Y8593836D01*
X1901542Y8593730D01*
X1902916Y8593519D01*
X1904395Y8593202D01*
X1907565Y8592462D01*
X1909256Y8591934D01*
X1910946Y8591194D01*
X1912531Y8590455D01*
X1914116Y8589609D01*
X1915701Y8588553D01*
X1917075Y8587390D01*
X1917181Y8587285D01*
X1917392Y8587074D01*
X1917709Y8586757D01*
X1918237Y8586228D01*
X1918766Y8585489D01*
X1919400Y8584749D01*
X1920033Y8583798D01*
X1920773Y8582741D01*
X1921407Y8581579D01*
X1922041Y8580205D01*
X1922675Y8578832D01*
X1923203Y8577247D01*
X1923732Y8575556D01*
X1924049Y8573760D01*
X1924260Y8571858D01*
X1924366Y8569850D01*
Y8569745D01*
Y8569216D01*
X1924260Y8568477D01*
X1924154Y8567526D01*
X1923837Y8566152D01*
X1923520Y8564673D01*
X1922992Y8562876D01*
X1922252Y8560869D01*
X1921407Y8558650D01*
X1920245Y8556220D01*
X1918871Y8553684D01*
X1917286Y8550831D01*
X1915279Y8547872D01*
X1913060Y8544808D01*
X1910418Y8541532D01*
X1907459Y8538151D01*
X1883262Y8511946D01*
X1928487D01*
Y8502648D01*
X1869420D01*
Y8510784D01*
X1900697Y8545442D01*
X1900803Y8545548D01*
X1901014Y8545759D01*
X1901331Y8546182D01*
X1901859Y8546710D01*
X1902388Y8547450D01*
X1903022Y8548189D01*
X1904501Y8549985D01*
X1906086Y8552099D01*
X1907565Y8554212D01*
X1909044Y8556325D01*
X1910207Y8558227D01*
Y8558333D01*
X1910312Y8558439D01*
X1910629Y8559073D01*
X1911052Y8560129D01*
X1911580Y8561397D01*
X1912003Y8562876D01*
X1912426Y8564673D01*
X1912743Y8566575D01*
X1912848Y8568477D01*
Y8568582D01*
Y8568794D01*
Y8569111D01*
X1912743Y8569639D01*
Y8570273D01*
X1912637Y8570907D01*
X1912320Y8572598D01*
X1911792Y8574394D01*
X1911052Y8576401D01*
X1909995Y8578303D01*
X1908516Y8580100D01*
Y8580205D01*
X1908305Y8580311D01*
X1907776Y8580839D01*
X1906825Y8581579D01*
X1905558Y8582424D01*
X1903867Y8583164D01*
X1901965Y8583904D01*
X1899746Y8584432D01*
X1898478Y8584643D01*
X1896365D01*
X1895836Y8584538D01*
X1895097D01*
X1894251Y8584432D01*
X1892350Y8584009D01*
X1890236Y8583481D01*
X1888017Y8582530D01*
X1885798Y8581368D01*
X1884847Y8580522D01*
X1883896Y8579677D01*
Y8579571D01*
X1883685Y8579466D01*
X1883474Y8579149D01*
X1883157Y8578832D01*
X1882840Y8578303D01*
X1882417Y8577669D01*
X1881572Y8576190D01*
X1880621Y8574288D01*
X1879881Y8571964D01*
X1879353Y8569216D01*
X1879247Y8567737D01*
X1879142Y8566152D01*
X1867730D01*
Y8566258D01*
Y8566680D01*
X1867835Y8567314D01*
Y8568265D01*
X1867941Y8569322D01*
X1868152Y8570484D01*
X1868364Y8571858D01*
X1868786Y8573337D01*
X1869209Y8574922D01*
X1869737Y8576613D01*
X1870371Y8578198D01*
X1871111Y8579888D01*
X1872062Y8581579D01*
X1873119Y8583270D01*
X1874387Y8584855D01*
X1875760Y8586334D01*
X1875866Y8586440D01*
X1876183Y8586651D01*
X1876606Y8587074D01*
X1877240Y8587496D01*
X1878085Y8588130D01*
X1879036Y8588764D01*
X1880198Y8589504D01*
X1881466Y8590243D01*
X1882945Y8590877D01*
X1884530Y8591617D01*
X1886327Y8592251D01*
X1888229Y8592885D01*
X1890236Y8593308D01*
X1892455Y8593730D01*
X1894780Y8593942D01*
X1897210Y8594047D01*
X1898372D01*
X1899323Y8593942D01*
D02*
G37*
G36*
X1794293Y8532868D02*
X1806762D01*
Y8523569D01*
X1794293D01*
Y8502648D01*
X1782776D01*
Y8523569D01*
X1741778D01*
Y8530226D01*
X1782142Y8592779D01*
X1794293D01*
Y8532868D01*
D02*
G37*
G36*
X1338353Y8502648D02*
X1326836D01*
Y8578937D01*
X1303695Y8570484D01*
Y8580839D01*
X1336557Y8593202D01*
X1338353D01*
Y8502648D01*
D02*
G37*
G36*
X972333Y8592673D02*
X973601Y8592568D01*
X975080Y8592462D01*
X976665Y8592251D01*
X978462Y8591934D01*
X982265Y8591088D01*
X984167Y8590560D01*
X986175Y8589821D01*
X988077Y8589081D01*
X989873Y8588130D01*
X991670Y8587073D01*
X993255Y8585805D01*
X993360Y8585700D01*
X993572Y8585488D01*
X993994Y8585066D01*
X994523Y8584537D01*
X995157Y8583798D01*
X995896Y8582952D01*
X996636Y8581896D01*
X997375Y8580628D01*
X998115Y8579360D01*
X998855Y8577775D01*
X999594Y8576190D01*
X1000228Y8574394D01*
X1000757Y8572386D01*
X1001179Y8570273D01*
X1001391Y8568054D01*
X1001496Y8565623D01*
Y8565518D01*
Y8565201D01*
Y8564778D01*
X1001391Y8564250D01*
Y8563510D01*
X1001285Y8562665D01*
X1000968Y8560657D01*
X1000440Y8558333D01*
X999594Y8555902D01*
X998432Y8553366D01*
X997798Y8552098D01*
X996953Y8550936D01*
Y8550830D01*
X996741Y8550619D01*
X996530Y8550302D01*
X996107Y8549880D01*
X995051Y8548823D01*
X993677Y8547449D01*
X991881Y8545970D01*
X989662Y8544385D01*
X987126Y8542906D01*
X984273Y8541638D01*
X1005406Y8503387D01*
Y8502648D01*
X992726D01*
X973073Y8539102D01*
X951940D01*
Y8502648D01*
X940000D01*
Y8592779D01*
X971276D01*
X972333Y8592673D01*
D02*
G37*
G36*
X1486177Y8515539D02*
X1486917Y8515433D01*
X1487762Y8515116D01*
X1488713Y8514799D01*
X1489558Y8514271D01*
X1490298Y8513637D01*
X1490404Y8513531D01*
X1490615Y8513320D01*
X1490932Y8512897D01*
X1491249Y8512263D01*
X1491566Y8511523D01*
X1491883Y8510678D01*
X1492094Y8509727D01*
X1492200Y8508671D01*
Y8508565D01*
Y8508248D01*
X1492094Y8507720D01*
X1491989Y8506980D01*
X1491777Y8506240D01*
X1491355Y8505501D01*
X1490932Y8504655D01*
X1490298Y8503916D01*
X1490192Y8503810D01*
X1489981Y8503599D01*
X1489558Y8503282D01*
X1488924Y8502965D01*
X1488185Y8502648D01*
X1487234Y8502331D01*
X1486177Y8502119D01*
X1484909Y8502014D01*
X1484381D01*
X1483747Y8502119D01*
X1482902Y8502225D01*
X1482056Y8502436D01*
X1481211Y8502859D01*
X1480366Y8503282D01*
X1479626Y8503916D01*
X1479520Y8504021D01*
X1479415Y8504233D01*
X1479098Y8504655D01*
X1478781Y8505184D01*
X1478464Y8505923D01*
X1478252Y8506769D01*
X1478041Y8507614D01*
X1477935Y8508671D01*
Y8508776D01*
Y8509199D01*
X1478041Y8509727D01*
X1478147Y8510361D01*
X1478358Y8511206D01*
X1478675Y8512052D01*
X1479098Y8512897D01*
X1479626Y8513637D01*
X1479732Y8513742D01*
X1479943Y8513954D01*
X1480366Y8514271D01*
X1481000Y8514693D01*
X1481739Y8515010D01*
X1482585Y8515327D01*
X1483641Y8515539D01*
X1484909Y8515644D01*
X1485543D01*
X1486177Y8515539D01*
D02*
G37*
G36*
X1381570D02*
X1382309Y8515433D01*
X1383155Y8515116D01*
X1384106Y8514799D01*
X1384951Y8514271D01*
X1385691Y8513637D01*
X1385796Y8513531D01*
X1386008Y8513320D01*
X1386325Y8512897D01*
X1386642Y8512263D01*
X1386959Y8511523D01*
X1387276Y8510678D01*
X1387487Y8509727D01*
X1387593Y8508671D01*
Y8508565D01*
Y8508248D01*
X1387487Y8507720D01*
X1387381Y8506980D01*
X1387170Y8506240D01*
X1386747Y8505501D01*
X1386325Y8504655D01*
X1385691Y8503916D01*
X1385585Y8503810D01*
X1385374Y8503599D01*
X1384951Y8503282D01*
X1384317Y8502965D01*
X1383577Y8502648D01*
X1382626Y8502331D01*
X1381570Y8502119D01*
X1380302Y8502014D01*
X1379773D01*
X1379139Y8502119D01*
X1378294Y8502225D01*
X1377449Y8502436D01*
X1376604Y8502859D01*
X1375758Y8503282D01*
X1375019Y8503916D01*
X1374913Y8504021D01*
X1374807Y8504233D01*
X1374490Y8504655D01*
X1374173Y8505184D01*
X1373856Y8505923D01*
X1373645Y8506769D01*
X1373434Y8507614D01*
X1373328Y8508671D01*
Y8508776D01*
Y8509199D01*
X1373434Y8509727D01*
X1373539Y8510361D01*
X1373751Y8511206D01*
X1374068Y8512052D01*
X1374490Y8512897D01*
X1375019Y8513637D01*
X1375124Y8513742D01*
X1375336Y8513954D01*
X1375758Y8514271D01*
X1376392Y8514693D01*
X1377132Y8515010D01*
X1377977Y8515327D01*
X1379034Y8515539D01*
X1380302Y8515644D01*
X1380936D01*
X1381570Y8515539D01*
D02*
G37*
G36*
X1186197D02*
X1186937Y8515433D01*
X1187782Y8515116D01*
X1188733Y8514799D01*
X1189578Y8514271D01*
X1190318Y8513637D01*
X1190424Y8513531D01*
X1190635Y8513320D01*
X1190952Y8512897D01*
X1191269Y8512263D01*
X1191586Y8511523D01*
X1191903Y8510678D01*
X1192114Y8509727D01*
X1192220Y8508671D01*
Y8508565D01*
Y8508248D01*
X1192114Y8507720D01*
X1192009Y8506980D01*
X1191797Y8506240D01*
X1191375Y8505501D01*
X1190952Y8504655D01*
X1190318Y8503916D01*
X1190212Y8503810D01*
X1190001Y8503599D01*
X1189578Y8503282D01*
X1188944Y8502965D01*
X1188205Y8502648D01*
X1187254Y8502331D01*
X1186197Y8502119D01*
X1184929Y8502014D01*
X1184401D01*
X1183767Y8502119D01*
X1182921Y8502225D01*
X1182076Y8502436D01*
X1181231Y8502859D01*
X1180385Y8503282D01*
X1179646Y8503916D01*
X1179540Y8504021D01*
X1179435Y8504233D01*
X1179118Y8504655D01*
X1178801Y8505184D01*
X1178484Y8505923D01*
X1178272Y8506769D01*
X1178061Y8507614D01*
X1177955Y8508671D01*
Y8508776D01*
Y8509199D01*
X1178061Y8509727D01*
X1178167Y8510361D01*
X1178378Y8511206D01*
X1178695Y8512052D01*
X1179118Y8512897D01*
X1179646Y8513637D01*
X1179752Y8513742D01*
X1179963Y8513954D01*
X1180385Y8514271D01*
X1181019Y8514693D01*
X1181759Y8515010D01*
X1182604Y8515327D01*
X1183661Y8515539D01*
X1184929Y8515644D01*
X1185563D01*
X1186197Y8515539D01*
D02*
G37*
G36*
X1153441D02*
X1154181Y8515433D01*
X1155026Y8515116D01*
X1155977Y8514799D01*
X1156822Y8514271D01*
X1157562Y8513637D01*
X1157668Y8513531D01*
X1157879Y8513320D01*
X1158196Y8512897D01*
X1158513Y8512263D01*
X1158830Y8511523D01*
X1159147Y8510678D01*
X1159358Y8509727D01*
X1159464Y8508671D01*
Y8508565D01*
Y8508248D01*
X1159358Y8507720D01*
X1159253Y8506980D01*
X1159041Y8506240D01*
X1158619Y8505501D01*
X1158196Y8504655D01*
X1157562Y8503916D01*
X1157456Y8503810D01*
X1157245Y8503599D01*
X1156822Y8503282D01*
X1156188Y8502965D01*
X1155449Y8502648D01*
X1154498Y8502331D01*
X1153441Y8502119D01*
X1152173Y8502014D01*
X1151645D01*
X1151011Y8502119D01*
X1150166Y8502225D01*
X1149320Y8502436D01*
X1148475Y8502859D01*
X1147630Y8503282D01*
X1146890Y8503916D01*
X1146784Y8504021D01*
X1146679Y8504233D01*
X1146362Y8504655D01*
X1146045Y8505184D01*
X1145728Y8505923D01*
X1145516Y8506769D01*
X1145305Y8507614D01*
X1145199Y8508671D01*
Y8508776D01*
Y8509199D01*
X1145305Y8509727D01*
X1145411Y8510361D01*
X1145622Y8511206D01*
X1145939Y8512052D01*
X1146362Y8512897D01*
X1146890Y8513637D01*
X1146996Y8513742D01*
X1147207Y8513954D01*
X1147630Y8514271D01*
X1148264Y8514693D01*
X1149003Y8515010D01*
X1149849Y8515327D01*
X1150905Y8515539D01*
X1152173Y8515644D01*
X1152807D01*
X1153441Y8515539D01*
D02*
G37*
G36*
X1970118Y8593942D02*
X1971175D01*
X1972337Y8593730D01*
X1973711Y8593519D01*
X1975296Y8593308D01*
X1976881Y8592885D01*
X1978571Y8592357D01*
X1980368Y8591723D01*
X1982164Y8590983D01*
X1983960Y8590032D01*
X1985651Y8588975D01*
X1987341Y8587707D01*
X1988821Y8586334D01*
X1990194Y8584643D01*
X1990300Y8584538D01*
X1990511Y8584221D01*
X1990828Y8583692D01*
X1991251Y8582847D01*
X1991779Y8581896D01*
X1992413Y8580628D01*
X1993047Y8579254D01*
X1993681Y8577564D01*
X1994315Y8575662D01*
X1994949Y8573549D01*
X1995478Y8571224D01*
X1996006Y8568582D01*
X1996534Y8565729D01*
X1996851Y8562771D01*
X1997063Y8559390D01*
X1997168Y8555903D01*
Y8541004D01*
Y8540898D01*
Y8540793D01*
Y8540476D01*
Y8540159D01*
Y8539102D01*
X1997063Y8537728D01*
X1996957Y8536038D01*
X1996851Y8534136D01*
X1996640Y8532023D01*
X1996323Y8529698D01*
X1995900Y8527373D01*
X1995478Y8524837D01*
X1994949Y8522407D01*
X1994315Y8519871D01*
X1993470Y8517547D01*
X1992519Y8515222D01*
X1991462Y8513109D01*
X1990300Y8511101D01*
X1990194Y8510995D01*
X1989983Y8510678D01*
X1989560Y8510256D01*
X1989032Y8509622D01*
X1988292Y8508882D01*
X1987341Y8508037D01*
X1986285Y8507192D01*
X1985017Y8506241D01*
X1983643Y8505290D01*
X1982058Y8504444D01*
X1980262Y8503599D01*
X1978360Y8502859D01*
X1976247Y8502331D01*
X1973922Y8501803D01*
X1971492Y8501486D01*
X1968850Y8501380D01*
X1968216D01*
X1967477Y8501486D01*
X1966526D01*
X1965258Y8501697D01*
X1963884Y8501908D01*
X1962405Y8502225D01*
X1960714Y8502542D01*
X1959024Y8503071D01*
X1957227Y8503705D01*
X1955431Y8504444D01*
X1953740Y8505395D01*
X1951944Y8506452D01*
X1950359Y8507720D01*
X1948774Y8509199D01*
X1947400Y8510890D01*
X1947295Y8510995D01*
X1947083Y8511312D01*
X1946766Y8511946D01*
X1946344Y8512686D01*
X1945816Y8513743D01*
X1945182Y8514905D01*
X1944548Y8516384D01*
X1943914Y8518075D01*
X1943280Y8519977D01*
X1942646Y8522090D01*
X1942012Y8524415D01*
X1941483Y8527056D01*
X1941061Y8529804D01*
X1940638Y8532868D01*
X1940427Y8536038D01*
X1940321Y8539525D01*
Y8554740D01*
Y8554846D01*
Y8554952D01*
Y8555269D01*
Y8555586D01*
Y8556642D01*
X1940427Y8558016D01*
X1940532Y8559707D01*
X1940638Y8561608D01*
X1940849Y8563722D01*
X1941166Y8565941D01*
X1941589Y8568265D01*
X1942012Y8570696D01*
X1942540Y8573232D01*
X1943174Y8575662D01*
X1944019Y8577986D01*
X1944970Y8580311D01*
X1946027Y8582424D01*
X1947189Y8584326D01*
X1947295Y8584432D01*
X1947506Y8584749D01*
X1947929Y8585277D01*
X1948457Y8585806D01*
X1949197Y8586545D01*
X1950148Y8587390D01*
X1951204Y8588236D01*
X1952472Y8589187D01*
X1953846Y8590138D01*
X1955431Y8590983D01*
X1957227Y8591828D01*
X1959235Y8592568D01*
X1961348Y8593202D01*
X1963567Y8593625D01*
X1966103Y8593942D01*
X1968745Y8594047D01*
X1969379D01*
X1970118Y8593942D01*
D02*
G37*
G36*
X1704162D02*
X1705219D01*
X1706381Y8593730D01*
X1707755Y8593519D01*
X1709339Y8593308D01*
X1710924Y8592885D01*
X1712615Y8592357D01*
X1714411Y8591723D01*
X1716208Y8590983D01*
X1718004Y8590032D01*
X1719695Y8588975D01*
X1721385Y8587707D01*
X1722864Y8586334D01*
X1724238Y8584643D01*
X1724344Y8584538D01*
X1724555Y8584221D01*
X1724872Y8583692D01*
X1725295Y8582847D01*
X1725823Y8581896D01*
X1726457Y8580628D01*
X1727091Y8579254D01*
X1727725Y8577564D01*
X1728359Y8575662D01*
X1728993Y8573549D01*
X1729521Y8571224D01*
X1730050Y8568582D01*
X1730578Y8565729D01*
X1730895Y8562771D01*
X1731106Y8559390D01*
X1731212Y8555903D01*
Y8541004D01*
Y8540898D01*
Y8540793D01*
Y8540476D01*
Y8540159D01*
Y8539102D01*
X1731106Y8537728D01*
X1731001Y8536038D01*
X1730895Y8534136D01*
X1730684Y8532023D01*
X1730367Y8529698D01*
X1729944Y8527373D01*
X1729521Y8524837D01*
X1728993Y8522407D01*
X1728359Y8519871D01*
X1727514Y8517547D01*
X1726563Y8515222D01*
X1725506Y8513109D01*
X1724344Y8511101D01*
X1724238Y8510995D01*
X1724027Y8510678D01*
X1723604Y8510256D01*
X1723076Y8509622D01*
X1722336Y8508882D01*
X1721385Y8508037D01*
X1720329Y8507192D01*
X1719061Y8506241D01*
X1717687Y8505290D01*
X1716102Y8504444D01*
X1714306Y8503599D01*
X1712404Y8502859D01*
X1710290Y8502331D01*
X1707966Y8501803D01*
X1705536Y8501486D01*
X1702894Y8501380D01*
X1702260D01*
X1701520Y8501486D01*
X1700569D01*
X1699301Y8501697D01*
X1697928Y8501908D01*
X1696448Y8502225D01*
X1694758Y8502542D01*
X1693067Y8503071D01*
X1691271Y8503705D01*
X1689475Y8504444D01*
X1687784Y8505395D01*
X1685988Y8506452D01*
X1684403Y8507720D01*
X1682818Y8509199D01*
X1681444Y8510890D01*
X1681339Y8510995D01*
X1681127Y8511312D01*
X1680810Y8511946D01*
X1680388Y8512686D01*
X1679859Y8513743D01*
X1679225Y8514905D01*
X1678591Y8516384D01*
X1677957Y8518075D01*
X1677323Y8519977D01*
X1676689Y8522090D01*
X1676055Y8524415D01*
X1675527Y8527056D01*
X1675104Y8529804D01*
X1674682Y8532868D01*
X1674470Y8536038D01*
X1674365Y8539525D01*
Y8554740D01*
Y8554846D01*
Y8554952D01*
Y8555269D01*
Y8555586D01*
Y8556642D01*
X1674470Y8558016D01*
X1674576Y8559707D01*
X1674682Y8561608D01*
X1674893Y8563722D01*
X1675210Y8565941D01*
X1675633Y8568265D01*
X1676055Y8570696D01*
X1676584Y8573232D01*
X1677218Y8575662D01*
X1678063Y8577986D01*
X1679014Y8580311D01*
X1680071Y8582424D01*
X1681233Y8584326D01*
X1681339Y8584432D01*
X1681550Y8584749D01*
X1681973Y8585277D01*
X1682501Y8585806D01*
X1683240Y8586545D01*
X1684191Y8587390D01*
X1685248Y8588236D01*
X1686516Y8589187D01*
X1687890Y8590138D01*
X1689475Y8590983D01*
X1691271Y8591828D01*
X1693279Y8592568D01*
X1695392Y8593202D01*
X1697611Y8593625D01*
X1700147Y8593942D01*
X1702788Y8594047D01*
X1703422D01*
X1704162Y8593942D01*
D02*
G37*
G36*
X1539326Y8593941D02*
X1540383D01*
X1541545Y8593730D01*
X1542919Y8593519D01*
X1544504Y8593307D01*
X1546089Y8592885D01*
X1547779Y8592356D01*
X1549576Y8591722D01*
X1551372Y8590983D01*
X1553168Y8590032D01*
X1554859Y8588975D01*
X1556549Y8587707D01*
X1558029Y8586334D01*
X1559402Y8584643D01*
X1559508Y8584537D01*
X1559719Y8584220D01*
X1560036Y8583692D01*
X1560459Y8582847D01*
X1560987Y8581896D01*
X1561621Y8580628D01*
X1562255Y8579254D01*
X1562889Y8577563D01*
X1563523Y8575662D01*
X1564157Y8573548D01*
X1564685Y8571224D01*
X1565214Y8568582D01*
X1565742Y8565729D01*
X1566059Y8562771D01*
X1566270Y8559389D01*
X1566376Y8555902D01*
Y8541004D01*
Y8540898D01*
Y8540792D01*
Y8540475D01*
Y8540158D01*
Y8539102D01*
X1566270Y8537728D01*
X1566165Y8536038D01*
X1566059Y8534136D01*
X1565848Y8532022D01*
X1565531Y8529698D01*
X1565108Y8527373D01*
X1564685Y8524837D01*
X1564157Y8522407D01*
X1563523Y8519871D01*
X1562678Y8517546D01*
X1561727Y8515222D01*
X1560670Y8513108D01*
X1559508Y8511101D01*
X1559402Y8510995D01*
X1559191Y8510678D01*
X1558768Y8510256D01*
X1558240Y8509622D01*
X1557500Y8508882D01*
X1556549Y8508037D01*
X1555493Y8507191D01*
X1554225Y8506240D01*
X1552851Y8505289D01*
X1551266Y8504444D01*
X1549470Y8503599D01*
X1547568Y8502859D01*
X1545455Y8502331D01*
X1543130Y8501802D01*
X1540700Y8501485D01*
X1538058Y8501380D01*
X1537424D01*
X1536685Y8501485D01*
X1535734D01*
X1534466Y8501697D01*
X1533092Y8501908D01*
X1531613Y8502225D01*
X1529922Y8502542D01*
X1528231Y8503070D01*
X1526435Y8503704D01*
X1524639Y8504444D01*
X1522948Y8505395D01*
X1521152Y8506452D01*
X1519567Y8507720D01*
X1517982Y8509199D01*
X1516608Y8510890D01*
X1516503Y8510995D01*
X1516291Y8511312D01*
X1515974Y8511946D01*
X1515552Y8512686D01*
X1515023Y8513742D01*
X1514389Y8514905D01*
X1513755Y8516384D01*
X1513121Y8518075D01*
X1512487Y8519977D01*
X1511853Y8522090D01*
X1511219Y8524414D01*
X1510691Y8527056D01*
X1510269Y8529803D01*
X1509846Y8532868D01*
X1509635Y8536038D01*
X1509529Y8539524D01*
Y8554740D01*
Y8554846D01*
Y8554951D01*
Y8555268D01*
Y8555585D01*
Y8556642D01*
X1509635Y8558016D01*
X1509740Y8559706D01*
X1509846Y8561608D01*
X1510057Y8563722D01*
X1510374Y8565940D01*
X1510797Y8568265D01*
X1511219Y8570695D01*
X1511748Y8573231D01*
X1512382Y8575662D01*
X1513227Y8577986D01*
X1514178Y8580311D01*
X1515235Y8582424D01*
X1516397Y8584326D01*
X1516503Y8584432D01*
X1516714Y8584749D01*
X1517137Y8585277D01*
X1517665Y8585805D01*
X1518405Y8586545D01*
X1519356Y8587390D01*
X1520412Y8588236D01*
X1521680Y8589187D01*
X1523054Y8590138D01*
X1524639Y8590983D01*
X1526435Y8591828D01*
X1528443Y8592568D01*
X1530556Y8593202D01*
X1532775Y8593624D01*
X1535311Y8593941D01*
X1537952Y8594047D01*
X1538586D01*
X1539326Y8593941D01*
D02*
G37*
G36*
X1434719D02*
X1435775D01*
X1436938Y8593730D01*
X1438311Y8593519D01*
X1439896Y8593307D01*
X1441481Y8592885D01*
X1443172Y8592356D01*
X1444968Y8591722D01*
X1446764Y8590983D01*
X1448561Y8590032D01*
X1450251Y8588975D01*
X1451942Y8587707D01*
X1453421Y8586334D01*
X1454795Y8584643D01*
X1454901Y8584537D01*
X1455112Y8584220D01*
X1455429Y8583692D01*
X1455852Y8582847D01*
X1456380Y8581896D01*
X1457014Y8580628D01*
X1457648Y8579254D01*
X1458282Y8577563D01*
X1458916Y8575662D01*
X1459550Y8573548D01*
X1460078Y8571224D01*
X1460606Y8568582D01*
X1461135Y8565729D01*
X1461452Y8562771D01*
X1461663Y8559389D01*
X1461769Y8555902D01*
Y8541004D01*
Y8540898D01*
Y8540792D01*
Y8540475D01*
Y8540158D01*
Y8539102D01*
X1461663Y8537728D01*
X1461557Y8536038D01*
X1461452Y8534136D01*
X1461240Y8532022D01*
X1460923Y8529698D01*
X1460501Y8527373D01*
X1460078Y8524837D01*
X1459550Y8522407D01*
X1458916Y8519871D01*
X1458070Y8517546D01*
X1457120Y8515222D01*
X1456063Y8513108D01*
X1454901Y8511101D01*
X1454795Y8510995D01*
X1454584Y8510678D01*
X1454161Y8510256D01*
X1453633Y8509622D01*
X1452893Y8508882D01*
X1451942Y8508037D01*
X1450885Y8507191D01*
X1449617Y8506240D01*
X1448244Y8505289D01*
X1446659Y8504444D01*
X1444862Y8503599D01*
X1442961Y8502859D01*
X1440847Y8502331D01*
X1438523Y8501802D01*
X1436092Y8501485D01*
X1433451Y8501380D01*
X1432817D01*
X1432077Y8501485D01*
X1431126D01*
X1429858Y8501697D01*
X1428485Y8501908D01*
X1427005Y8502225D01*
X1425315Y8502542D01*
X1423624Y8503070D01*
X1421828Y8503704D01*
X1420031Y8504444D01*
X1418341Y8505395D01*
X1416545Y8506452D01*
X1414960Y8507720D01*
X1413375Y8509199D01*
X1412001Y8510890D01*
X1411895Y8510995D01*
X1411684Y8511312D01*
X1411367Y8511946D01*
X1410944Y8512686D01*
X1410416Y8513742D01*
X1409782Y8514905D01*
X1409148Y8516384D01*
X1408514Y8518075D01*
X1407880Y8519977D01*
X1407246Y8522090D01*
X1406612Y8524414D01*
X1406084Y8527056D01*
X1405661Y8529803D01*
X1405238Y8532868D01*
X1405027Y8536038D01*
X1404921Y8539524D01*
Y8554740D01*
Y8554846D01*
Y8554951D01*
Y8555268D01*
Y8555585D01*
Y8556642D01*
X1405027Y8558016D01*
X1405133Y8559706D01*
X1405238Y8561608D01*
X1405450Y8563722D01*
X1405767Y8565940D01*
X1406189Y8568265D01*
X1406612Y8570695D01*
X1407140Y8573231D01*
X1407774Y8575662D01*
X1408620Y8577986D01*
X1409571Y8580311D01*
X1410627Y8582424D01*
X1411790Y8584326D01*
X1411895Y8584432D01*
X1412107Y8584749D01*
X1412529Y8585277D01*
X1413058Y8585805D01*
X1413797Y8586545D01*
X1414748Y8587390D01*
X1415805Y8588236D01*
X1417073Y8589187D01*
X1418446Y8590138D01*
X1420031Y8590983D01*
X1421828Y8591828D01*
X1423835Y8592568D01*
X1425949Y8593202D01*
X1428168Y8593624D01*
X1430704Y8593941D01*
X1433345Y8594047D01*
X1433979D01*
X1434719Y8593941D01*
D02*
G37*
G36*
X1043973Y8570801D02*
X1044819D01*
X1045981Y8570695D01*
X1047249Y8570484D01*
X1048622Y8570167D01*
X1050207Y8569850D01*
X1051792Y8569322D01*
X1053377Y8568793D01*
X1055068Y8568054D01*
X1056759Y8567208D01*
X1058449Y8566257D01*
X1060034Y8565095D01*
X1061619Y8563722D01*
X1062993Y8562242D01*
X1063098Y8562137D01*
X1063310Y8561820D01*
X1063627Y8561397D01*
X1064155Y8560657D01*
X1064683Y8559812D01*
X1065317Y8558650D01*
X1065951Y8557382D01*
X1066691Y8556008D01*
X1067325Y8554317D01*
X1067959Y8552521D01*
X1068593Y8550408D01*
X1069121Y8548295D01*
X1069650Y8545864D01*
X1069967Y8543328D01*
X1070178Y8540581D01*
X1070284Y8537622D01*
Y8532868D01*
X1024954D01*
Y8532762D01*
Y8532445D01*
X1025059Y8531917D01*
Y8531177D01*
X1025165Y8530332D01*
X1025271Y8529381D01*
X1025482Y8528324D01*
X1025799Y8527056D01*
X1026433Y8524520D01*
X1027490Y8521773D01*
X1028124Y8520505D01*
X1028863Y8519131D01*
X1029709Y8517863D01*
X1030660Y8516701D01*
X1030765Y8516595D01*
X1030871Y8516490D01*
X1031188Y8516173D01*
X1031716Y8515750D01*
X1032245Y8515327D01*
X1032879Y8514799D01*
X1033618Y8514271D01*
X1034569Y8513742D01*
X1036577Y8512580D01*
X1039007Y8511629D01*
X1040381Y8511206D01*
X1041754Y8510890D01*
X1043234Y8510784D01*
X1044819Y8510678D01*
X1045875D01*
X1046932Y8510784D01*
X1048411Y8510995D01*
X1049996Y8511312D01*
X1051687Y8511735D01*
X1053377Y8512263D01*
X1055068Y8513108D01*
X1055279Y8513214D01*
X1055808Y8513531D01*
X1056547Y8514165D01*
X1057604Y8514905D01*
X1058766Y8515856D01*
X1059929Y8517018D01*
X1061197Y8518286D01*
X1062464Y8519765D01*
X1069438Y8514271D01*
X1069333Y8514165D01*
X1069016Y8513742D01*
X1068593Y8513108D01*
X1067853Y8512263D01*
X1067008Y8511312D01*
X1065846Y8510150D01*
X1064578Y8508988D01*
X1063098Y8507825D01*
X1061408Y8506663D01*
X1059612Y8505501D01*
X1057498Y8504338D01*
X1055174Y8503387D01*
X1052743Y8502542D01*
X1050102Y8501908D01*
X1047249Y8501485D01*
X1044185Y8501380D01*
X1043551D01*
X1042917Y8501485D01*
X1041966D01*
X1040803Y8501697D01*
X1039430Y8501802D01*
X1037950Y8502119D01*
X1036260Y8502542D01*
X1034569Y8502965D01*
X1032773Y8503599D01*
X1030977Y8504233D01*
X1029075Y8505078D01*
X1027173Y8506135D01*
X1025376Y8507297D01*
X1023686Y8508671D01*
X1021995Y8510256D01*
X1021889Y8510361D01*
X1021678Y8510678D01*
X1021256Y8511206D01*
X1020622Y8511946D01*
X1019988Y8512791D01*
X1019248Y8513848D01*
X1018508Y8515116D01*
X1017769Y8516595D01*
X1016923Y8518286D01*
X1016184Y8520082D01*
X1015444Y8521984D01*
X1014810Y8524203D01*
X1014282Y8526422D01*
X1013859Y8528958D01*
X1013542Y8531494D01*
X1013436Y8534241D01*
Y8536355D01*
Y8536460D01*
Y8536777D01*
Y8537306D01*
X1013542Y8538045D01*
Y8538890D01*
X1013648Y8539947D01*
X1013753Y8541004D01*
X1013965Y8542272D01*
X1014387Y8545019D01*
X1015021Y8548083D01*
X1015972Y8551147D01*
X1017240Y8554106D01*
Y8554212D01*
X1017452Y8554423D01*
X1017663Y8554846D01*
X1017980Y8555374D01*
X1018297Y8556114D01*
X1018825Y8556853D01*
X1019988Y8558650D01*
X1021573Y8560657D01*
X1023369Y8562665D01*
X1025482Y8564672D01*
X1027912Y8566469D01*
X1028018Y8566574D01*
X1028229Y8566680D01*
X1028652Y8566891D01*
X1029075Y8567208D01*
X1029709Y8567525D01*
X1030554Y8567842D01*
X1031399Y8568265D01*
X1032350Y8568688D01*
X1034569Y8569533D01*
X1037105Y8570167D01*
X1039747Y8570695D01*
X1042705Y8570907D01*
X1043234D01*
X1043973Y8570801D01*
D02*
G37*
G36*
X1820604Y8494934D02*
X1810777D01*
X1848393Y8592779D01*
X1858220D01*
X1820604Y8494934D01*
D02*
G37*
G36*
X1625020Y8485953D02*
X1615827D01*
Y8592779D01*
X1625020D01*
Y8485953D01*
D02*
G37*
G36*
X1587324Y8932362D02*
X1588275Y8932256D01*
X1589332Y8932151D01*
X1590494Y8932045D01*
X1593030Y8931622D01*
X1595777Y8930988D01*
X1598630Y8930037D01*
X1601483Y8928875D01*
X1601589D01*
X1601800Y8928664D01*
X1602223Y8928452D01*
X1602646Y8928241D01*
X1603279Y8927818D01*
X1604019Y8927396D01*
X1605604Y8926339D01*
X1607400Y8924860D01*
X1609302Y8923169D01*
X1611204Y8921161D01*
X1612789Y8918943D01*
Y8918837D01*
X1613001Y8918626D01*
X1613212Y8918309D01*
X1613423Y8917886D01*
X1613740Y8917252D01*
X1614057Y8916512D01*
X1614797Y8914822D01*
X1615537Y8912814D01*
X1616171Y8910384D01*
X1616593Y8907848D01*
X1616804Y8905101D01*
X1604864D01*
Y8905206D01*
Y8905418D01*
Y8905946D01*
X1604759Y8906474D01*
Y8907108D01*
X1604547Y8907953D01*
X1604230Y8909855D01*
X1603596Y8911863D01*
X1602646Y8913976D01*
X1602012Y8915033D01*
X1601378Y8916090D01*
X1600532Y8917041D01*
X1599581Y8917992D01*
X1599476Y8918097D01*
X1599370Y8918203D01*
X1599053Y8918414D01*
X1598630Y8918731D01*
X1598102Y8919048D01*
X1597468Y8919471D01*
X1596728Y8919894D01*
X1595777Y8920422D01*
X1594826Y8920844D01*
X1593770Y8921267D01*
X1592502Y8921690D01*
X1591234Y8922007D01*
X1589755Y8922324D01*
X1588275Y8922535D01*
X1586585Y8922746D01*
X1584049D01*
X1583415Y8922641D01*
X1582675D01*
X1581830Y8922535D01*
X1579928Y8922218D01*
X1577709Y8921795D01*
X1575384Y8921056D01*
X1573165Y8920105D01*
X1571158Y8918837D01*
X1570946Y8918626D01*
X1570418Y8918097D01*
X1569573Y8917252D01*
X1568727Y8915984D01*
X1567882Y8914505D01*
X1567037Y8912603D01*
X1566508Y8910489D01*
X1566403Y8909327D01*
X1566297Y8908059D01*
Y8907953D01*
Y8907848D01*
Y8907531D01*
X1566403Y8907108D01*
X1566508Y8906157D01*
X1566931Y8904784D01*
X1567459Y8903304D01*
X1568305Y8901825D01*
X1569467Y8900134D01*
X1570101Y8899395D01*
X1570946Y8898655D01*
X1571052D01*
X1571158Y8898444D01*
X1571475Y8898338D01*
X1571897Y8898021D01*
X1572426Y8897704D01*
X1573060Y8897281D01*
X1573799Y8896859D01*
X1574750Y8896330D01*
X1575807Y8895802D01*
X1576969Y8895274D01*
X1578237Y8894745D01*
X1579716Y8894111D01*
X1581301Y8893478D01*
X1582992Y8892844D01*
X1584894Y8892315D01*
X1586902Y8891681D01*
X1587007D01*
X1587430Y8891576D01*
X1587958Y8891364D01*
X1588804Y8891153D01*
X1589649Y8890836D01*
X1590811Y8890519D01*
X1591973Y8890096D01*
X1593347Y8889674D01*
X1596094Y8888617D01*
X1599053Y8887455D01*
X1601906Y8886081D01*
X1603174Y8885447D01*
X1604442Y8884707D01*
X1604547D01*
X1604759Y8884496D01*
X1605076Y8884285D01*
X1605498Y8884073D01*
X1606661Y8883228D01*
X1608034Y8882171D01*
X1609514Y8880903D01*
X1611099Y8879319D01*
X1612578Y8877628D01*
X1613846Y8875832D01*
Y8875726D01*
X1613952Y8875620D01*
X1614163Y8875303D01*
X1614374Y8874986D01*
X1614797Y8873824D01*
X1615431Y8872450D01*
X1615959Y8870654D01*
X1616487Y8868646D01*
X1616804Y8866428D01*
X1616910Y8863892D01*
Y8863786D01*
Y8863363D01*
X1616804Y8862835D01*
Y8862095D01*
X1616699Y8861144D01*
X1616487Y8860088D01*
X1616171Y8858925D01*
X1615854Y8857552D01*
X1615431Y8856178D01*
X1614797Y8854804D01*
X1614163Y8853325D01*
X1613318Y8851846D01*
X1612367Y8850367D01*
X1611204Y8848993D01*
X1609831Y8847619D01*
X1608351Y8846351D01*
X1608246Y8846246D01*
X1607929Y8846034D01*
X1607506Y8845717D01*
X1606766Y8845295D01*
X1605921Y8844872D01*
X1604970Y8844238D01*
X1603702Y8843710D01*
X1602329Y8843076D01*
X1600744Y8842442D01*
X1599053Y8841913D01*
X1597151Y8841279D01*
X1595143Y8840857D01*
X1592924Y8840434D01*
X1590600Y8840117D01*
X1588170Y8839906D01*
X1585528Y8839800D01*
X1584577D01*
X1583943Y8839906D01*
X1583098D01*
X1582147Y8840012D01*
X1581090Y8840117D01*
X1579928Y8840223D01*
X1577180Y8840646D01*
X1574328Y8841279D01*
X1571263Y8842125D01*
X1568199Y8843287D01*
X1568093D01*
X1567882Y8843498D01*
X1567459Y8843710D01*
X1566931Y8843921D01*
X1566191Y8844344D01*
X1565452Y8844766D01*
X1563655Y8845823D01*
X1561648Y8847197D01*
X1559535Y8848887D01*
X1557527Y8850789D01*
X1555731Y8853008D01*
Y8853114D01*
X1555519Y8853325D01*
X1555308Y8853642D01*
X1555097Y8854065D01*
X1554780Y8854699D01*
X1554357Y8855438D01*
X1553617Y8857129D01*
X1552772Y8859137D01*
X1552032Y8861567D01*
X1551610Y8864209D01*
X1551398Y8867062D01*
X1563444D01*
Y8866956D01*
Y8866745D01*
Y8866322D01*
X1563550Y8865688D01*
X1563655Y8865054D01*
X1563761Y8864209D01*
X1564184Y8862412D01*
X1564923Y8860299D01*
X1565452Y8859242D01*
X1565980Y8858186D01*
X1566720Y8857129D01*
X1567459Y8856072D01*
X1568410Y8855121D01*
X1569467Y8854171D01*
X1569573D01*
X1569784Y8853959D01*
X1570101Y8853748D01*
X1570524Y8853431D01*
X1571158Y8853114D01*
X1571897Y8852691D01*
X1572743Y8852269D01*
X1573694Y8851846D01*
X1574856Y8851423D01*
X1576018Y8851001D01*
X1577392Y8850578D01*
X1578765Y8850261D01*
X1580350Y8849944D01*
X1581935Y8849733D01*
X1583732Y8849627D01*
X1585528Y8849521D01*
X1586479D01*
X1587113Y8849627D01*
X1587853D01*
X1588804Y8849733D01*
X1590811Y8850050D01*
X1593136Y8850472D01*
X1595566Y8851106D01*
X1597891Y8852057D01*
X1599898Y8853325D01*
X1600004D01*
X1600110Y8853537D01*
X1600744Y8854065D01*
X1601483Y8854910D01*
X1602434Y8856072D01*
X1603385Y8857552D01*
X1604230Y8859348D01*
X1604759Y8861461D01*
X1604864Y8862624D01*
X1604970Y8863786D01*
Y8863892D01*
Y8864103D01*
Y8864420D01*
X1604864Y8864843D01*
X1604759Y8866111D01*
X1604442Y8867590D01*
X1603808Y8869175D01*
X1602963Y8870971D01*
X1601906Y8872556D01*
X1601166Y8873296D01*
X1600321Y8874035D01*
X1600110Y8874247D01*
X1599793Y8874352D01*
X1599370Y8874669D01*
X1598842Y8874986D01*
X1598208Y8875409D01*
X1597468Y8875832D01*
X1596517Y8876254D01*
X1595355Y8876783D01*
X1594192Y8877417D01*
X1592819Y8877945D01*
X1591234Y8878579D01*
X1589543Y8879213D01*
X1587747Y8879847D01*
X1585739Y8880587D01*
X1583520Y8881220D01*
X1583309Y8881326D01*
X1582886Y8881432D01*
X1582041Y8881643D01*
X1580984Y8881960D01*
X1579716Y8882383D01*
X1578343Y8882911D01*
X1576758Y8883545D01*
X1574962Y8884179D01*
X1571369Y8885764D01*
X1567671Y8887560D01*
X1565874Y8888617D01*
X1564184Y8889674D01*
X1562599Y8890836D01*
X1561225Y8891998D01*
X1561120Y8892104D01*
X1560908Y8892315D01*
X1560591Y8892632D01*
X1560169Y8893161D01*
X1559640Y8893795D01*
X1559006Y8894534D01*
X1558372Y8895379D01*
X1557738Y8896436D01*
X1557104Y8897493D01*
X1556470Y8898655D01*
X1555308Y8901402D01*
X1554885Y8902882D01*
X1554568Y8904467D01*
X1554357Y8906157D01*
X1554251Y8907848D01*
Y8907953D01*
Y8908376D01*
X1554357Y8908904D01*
Y8909644D01*
X1554568Y8910489D01*
X1554674Y8911546D01*
X1554991Y8912814D01*
X1555308Y8914082D01*
X1555731Y8915456D01*
X1556365Y8916829D01*
X1556999Y8918309D01*
X1557844Y8919788D01*
X1558795Y8921267D01*
X1559957Y8922746D01*
X1561331Y8924120D01*
X1562810Y8925494D01*
X1562916Y8925599D01*
X1563233Y8925811D01*
X1563655Y8926128D01*
X1564395Y8926550D01*
X1565240Y8927079D01*
X1566191Y8927713D01*
X1567459Y8928347D01*
X1568833Y8928981D01*
X1570312Y8929615D01*
X1572003Y8930249D01*
X1573799Y8930883D01*
X1575701Y8931411D01*
X1577814Y8931834D01*
X1580033Y8932151D01*
X1582464Y8932362D01*
X1584894Y8932468D01*
X1586479D01*
X1587324Y8932362D01*
D02*
G37*
G36*
X1179567D02*
X1180518Y8932256D01*
X1181574Y8932151D01*
X1182737Y8932045D01*
X1185273Y8931622D01*
X1188020Y8930988D01*
X1190873Y8930037D01*
X1193726Y8928875D01*
X1193831D01*
X1194043Y8928664D01*
X1194465Y8928452D01*
X1194888Y8928241D01*
X1195522Y8927818D01*
X1196262Y8927396D01*
X1197847Y8926339D01*
X1199643Y8924860D01*
X1201545Y8923169D01*
X1203447Y8921161D01*
X1205032Y8918943D01*
Y8918837D01*
X1205243Y8918626D01*
X1205455Y8918309D01*
X1205666Y8917886D01*
X1205983Y8917252D01*
X1206300Y8916512D01*
X1207039Y8914822D01*
X1207779Y8912814D01*
X1208413Y8910384D01*
X1208836Y8907848D01*
X1209047Y8905101D01*
X1197107D01*
Y8905206D01*
Y8905418D01*
Y8905946D01*
X1197001Y8906474D01*
Y8907108D01*
X1196790Y8907953D01*
X1196473Y8909855D01*
X1195839Y8911863D01*
X1194888Y8913976D01*
X1194254Y8915033D01*
X1193620Y8916090D01*
X1192775Y8917041D01*
X1191824Y8917992D01*
X1191718Y8918097D01*
X1191613Y8918203D01*
X1191296Y8918414D01*
X1190873Y8918731D01*
X1190345Y8919048D01*
X1189711Y8919471D01*
X1188971Y8919894D01*
X1188020Y8920422D01*
X1187069Y8920844D01*
X1186012Y8921267D01*
X1184744Y8921690D01*
X1183476Y8922007D01*
X1181997Y8922324D01*
X1180518Y8922535D01*
X1178827Y8922746D01*
X1176291D01*
X1175657Y8922641D01*
X1174918D01*
X1174072Y8922535D01*
X1172170Y8922218D01*
X1169951Y8921795D01*
X1167627Y8921056D01*
X1165408Y8920105D01*
X1163400Y8918837D01*
X1163189Y8918626D01*
X1162661Y8918097D01*
X1161815Y8917252D01*
X1160970Y8915984D01*
X1160125Y8914505D01*
X1159279Y8912603D01*
X1158751Y8910489D01*
X1158645Y8909327D01*
X1158540Y8908059D01*
Y8907953D01*
Y8907848D01*
Y8907531D01*
X1158645Y8907108D01*
X1158751Y8906157D01*
X1159174Y8904784D01*
X1159702Y8903304D01*
X1160547Y8901825D01*
X1161710Y8900134D01*
X1162344Y8899395D01*
X1163189Y8898655D01*
X1163295D01*
X1163400Y8898444D01*
X1163717Y8898338D01*
X1164140Y8898021D01*
X1164668Y8897704D01*
X1165302Y8897281D01*
X1166042Y8896859D01*
X1166993Y8896330D01*
X1168049Y8895802D01*
X1169212Y8895274D01*
X1170480Y8894745D01*
X1171959Y8894111D01*
X1173544Y8893478D01*
X1175235Y8892844D01*
X1177137Y8892315D01*
X1179144Y8891681D01*
X1179250D01*
X1179673Y8891576D01*
X1180201Y8891364D01*
X1181046Y8891153D01*
X1181891Y8890836D01*
X1183054Y8890519D01*
X1184216Y8890096D01*
X1185590Y8889674D01*
X1188337Y8888617D01*
X1191296Y8887455D01*
X1194148Y8886081D01*
X1195416Y8885447D01*
X1196684Y8884707D01*
X1196790D01*
X1197001Y8884496D01*
X1197318Y8884285D01*
X1197741Y8884073D01*
X1198903Y8883228D01*
X1200277Y8882171D01*
X1201756Y8880903D01*
X1203341Y8879319D01*
X1204821Y8877628D01*
X1206089Y8875832D01*
Y8875726D01*
X1206194Y8875620D01*
X1206406Y8875303D01*
X1206617Y8874986D01*
X1207039Y8873824D01*
X1207673Y8872450D01*
X1208202Y8870654D01*
X1208730Y8868646D01*
X1209047Y8866428D01*
X1209153Y8863892D01*
Y8863786D01*
Y8863363D01*
X1209047Y8862835D01*
Y8862095D01*
X1208941Y8861144D01*
X1208730Y8860088D01*
X1208413Y8858925D01*
X1208096Y8857552D01*
X1207673Y8856178D01*
X1207039Y8854804D01*
X1206406Y8853325D01*
X1205560Y8851846D01*
X1204609Y8850367D01*
X1203447Y8848993D01*
X1202073Y8847619D01*
X1200594Y8846351D01*
X1200488Y8846246D01*
X1200171Y8846034D01*
X1199749Y8845717D01*
X1199009Y8845295D01*
X1198164Y8844872D01*
X1197213Y8844238D01*
X1195945Y8843710D01*
X1194571Y8843076D01*
X1192986Y8842442D01*
X1191296Y8841913D01*
X1189394Y8841279D01*
X1187386Y8840857D01*
X1185167Y8840434D01*
X1182842Y8840117D01*
X1180412Y8839906D01*
X1177771Y8839800D01*
X1176820D01*
X1176186Y8839906D01*
X1175340D01*
X1174389Y8840012D01*
X1173333Y8840117D01*
X1172170Y8840223D01*
X1169423Y8840646D01*
X1166570Y8841279D01*
X1163506Y8842125D01*
X1160442Y8843287D01*
X1160336D01*
X1160125Y8843498D01*
X1159702Y8843710D01*
X1159174Y8843921D01*
X1158434Y8844344D01*
X1157694Y8844766D01*
X1155898Y8845823D01*
X1153891Y8847197D01*
X1151777Y8848887D01*
X1149770Y8850789D01*
X1147973Y8853008D01*
Y8853114D01*
X1147762Y8853325D01*
X1147551Y8853642D01*
X1147339Y8854065D01*
X1147022Y8854699D01*
X1146600Y8855438D01*
X1145860Y8857129D01*
X1145015Y8859137D01*
X1144275Y8861567D01*
X1143852Y8864209D01*
X1143641Y8867062D01*
X1155687D01*
Y8866956D01*
Y8866745D01*
Y8866322D01*
X1155792Y8865688D01*
X1155898Y8865054D01*
X1156004Y8864209D01*
X1156426Y8862412D01*
X1157166Y8860299D01*
X1157694Y8859242D01*
X1158223Y8858186D01*
X1158962Y8857129D01*
X1159702Y8856072D01*
X1160653Y8855121D01*
X1161710Y8854171D01*
X1161815D01*
X1162027Y8853959D01*
X1162344Y8853748D01*
X1162766Y8853431D01*
X1163400Y8853114D01*
X1164140Y8852691D01*
X1164985Y8852269D01*
X1165936Y8851846D01*
X1167099Y8851423D01*
X1168261Y8851001D01*
X1169634Y8850578D01*
X1171008Y8850261D01*
X1172593Y8849944D01*
X1174178Y8849733D01*
X1175974Y8849627D01*
X1177771Y8849521D01*
X1178722D01*
X1179356Y8849627D01*
X1180095D01*
X1181046Y8849733D01*
X1183054Y8850050D01*
X1185378Y8850472D01*
X1187809Y8851106D01*
X1190133Y8852057D01*
X1192141Y8853325D01*
X1192247D01*
X1192352Y8853537D01*
X1192986Y8854065D01*
X1193726Y8854910D01*
X1194677Y8856072D01*
X1195628Y8857552D01*
X1196473Y8859348D01*
X1197001Y8861461D01*
X1197107Y8862624D01*
X1197213Y8863786D01*
Y8863892D01*
Y8864103D01*
Y8864420D01*
X1197107Y8864843D01*
X1197001Y8866111D01*
X1196684Y8867590D01*
X1196050Y8869175D01*
X1195205Y8870971D01*
X1194148Y8872556D01*
X1193409Y8873296D01*
X1192564Y8874035D01*
X1192352Y8874247D01*
X1192035Y8874352D01*
X1191613Y8874669D01*
X1191084Y8874986D01*
X1190450Y8875409D01*
X1189711Y8875832D01*
X1188760Y8876254D01*
X1187597Y8876783D01*
X1186435Y8877417D01*
X1185061Y8877945D01*
X1183476Y8878579D01*
X1181786Y8879213D01*
X1179990Y8879847D01*
X1177982Y8880587D01*
X1175763Y8881220D01*
X1175552Y8881326D01*
X1175129Y8881432D01*
X1174284Y8881643D01*
X1173227Y8881960D01*
X1171959Y8882383D01*
X1170585Y8882911D01*
X1169000Y8883545D01*
X1167204Y8884179D01*
X1163612Y8885764D01*
X1159913Y8887560D01*
X1158117Y8888617D01*
X1156426Y8889674D01*
X1154841Y8890836D01*
X1153468Y8891998D01*
X1153362Y8892104D01*
X1153151Y8892315D01*
X1152834Y8892632D01*
X1152411Y8893161D01*
X1151883Y8893795D01*
X1151249Y8894534D01*
X1150615Y8895379D01*
X1149981Y8896436D01*
X1149347Y8897493D01*
X1148713Y8898655D01*
X1147551Y8901402D01*
X1147128Y8902882D01*
X1146811Y8904467D01*
X1146600Y8906157D01*
X1146494Y8907848D01*
Y8907953D01*
Y8908376D01*
X1146600Y8908904D01*
Y8909644D01*
X1146811Y8910489D01*
X1146917Y8911546D01*
X1147234Y8912814D01*
X1147551Y8914082D01*
X1147973Y8915456D01*
X1148607Y8916829D01*
X1149241Y8918309D01*
X1150087Y8919788D01*
X1151038Y8921267D01*
X1152200Y8922746D01*
X1153574Y8924120D01*
X1155053Y8925494D01*
X1155158Y8925599D01*
X1155475Y8925811D01*
X1155898Y8926128D01*
X1156638Y8926550D01*
X1157483Y8927079D01*
X1158434Y8927713D01*
X1159702Y8928347D01*
X1161076Y8928981D01*
X1162555Y8929615D01*
X1164246Y8930249D01*
X1166042Y8930883D01*
X1167944Y8931411D01*
X1170057Y8931834D01*
X1172276Y8932151D01*
X1174706Y8932362D01*
X1177137Y8932468D01*
X1178722D01*
X1179567Y8932362D01*
D02*
G37*
G36*
X1535866Y8841068D02*
X1523926D01*
Y8882700D01*
X1478490D01*
Y8841068D01*
X1466656D01*
Y8931200D01*
X1478490D01*
Y8892421D01*
X1523926D01*
Y8931200D01*
X1535866D01*
Y8841068D01*
D02*
G37*
G36*
X1257864Y8874669D02*
Y8841068D01*
X1245924D01*
Y8874669D01*
X1214859Y8931200D01*
X1228489D01*
X1251947Y8885870D01*
X1275404Y8931200D01*
X1288929D01*
X1257864Y8874669D01*
D02*
G37*
G36*
X1369868Y8841068D02*
X1357928D01*
X1312492Y8910489D01*
Y8841068D01*
X1300552D01*
Y8931200D01*
X1312492D01*
X1358033Y8861356D01*
Y8931200D01*
X1369868D01*
Y8841068D01*
D02*
G37*
G36*
X1014520D02*
X1002580D01*
X957144Y8910489D01*
Y8841068D01*
X945204D01*
Y8931200D01*
X957144D01*
X1002685Y8861356D01*
Y8931200D01*
X1014520D01*
Y8841068D01*
D02*
G37*
G36*
X1099051Y8869809D02*
Y8869703D01*
Y8869280D01*
X1098945Y8868541D01*
Y8867695D01*
X1098840Y8866639D01*
X1098628Y8865371D01*
X1098311Y8863997D01*
X1097994Y8862412D01*
X1097572Y8860827D01*
X1097043Y8859137D01*
X1096409Y8857446D01*
X1095670Y8855650D01*
X1094719Y8853959D01*
X1093662Y8852269D01*
X1092394Y8850578D01*
X1091020Y8848993D01*
X1090915Y8848887D01*
X1090703Y8848676D01*
X1090175Y8848253D01*
X1089541Y8847725D01*
X1088801Y8847091D01*
X1087745Y8846457D01*
X1086688Y8845612D01*
X1085315Y8844872D01*
X1083941Y8844027D01*
X1082250Y8843287D01*
X1080560Y8842547D01*
X1078552Y8841808D01*
X1076544Y8841174D01*
X1074326Y8840646D01*
X1072001Y8840223D01*
X1069465Y8840012D01*
X1066295Y8839800D01*
X1065661D01*
X1064921Y8839906D01*
X1063865D01*
X1062597Y8840012D01*
X1061118Y8840223D01*
X1059533Y8840434D01*
X1057842Y8840751D01*
X1055940Y8841174D01*
X1054038Y8841702D01*
X1052136Y8842336D01*
X1050128Y8843181D01*
X1048121Y8844027D01*
X1046219Y8845083D01*
X1044423Y8846351D01*
X1042732Y8847725D01*
X1042626Y8847831D01*
X1042309Y8848148D01*
X1041887Y8848570D01*
X1041358Y8849204D01*
X1040724Y8850050D01*
X1039985Y8851001D01*
X1039139Y8852163D01*
X1038294Y8853537D01*
X1037449Y8855016D01*
X1036709Y8856601D01*
X1035969Y8858397D01*
X1035230Y8860405D01*
X1034702Y8862518D01*
X1034173Y8864737D01*
X1033856Y8867167D01*
X1033751Y8869703D01*
Y8931200D01*
X1045585D01*
Y8870126D01*
Y8870020D01*
Y8869703D01*
Y8869175D01*
X1045691Y8868541D01*
X1045796Y8867695D01*
X1045902Y8866745D01*
X1046219Y8864526D01*
X1046853Y8862095D01*
X1047910Y8859559D01*
X1048438Y8858291D01*
X1049177Y8857129D01*
X1050023Y8855967D01*
X1050974Y8854910D01*
X1051079Y8854804D01*
X1051185Y8854699D01*
X1051502Y8854382D01*
X1051925Y8854065D01*
X1052559Y8853642D01*
X1053193Y8853220D01*
X1054038Y8852691D01*
X1054883Y8852269D01*
X1055940Y8851740D01*
X1057102Y8851212D01*
X1058370Y8850789D01*
X1059744Y8850367D01*
X1061223Y8850050D01*
X1062808Y8849733D01*
X1064499Y8849627D01*
X1066295Y8849521D01*
X1067246D01*
X1067986Y8849627D01*
X1068831Y8849733D01*
X1069782Y8849838D01*
X1070839Y8849944D01*
X1072001Y8850155D01*
X1074537Y8850789D01*
X1077073Y8851740D01*
X1078341Y8852374D01*
X1079503Y8853114D01*
X1080665Y8853854D01*
X1081722Y8854804D01*
X1081828Y8854910D01*
X1081933Y8855016D01*
X1082250Y8855333D01*
X1082567Y8855755D01*
X1082990Y8856389D01*
X1083413Y8857023D01*
X1083941Y8857869D01*
X1084469Y8858714D01*
X1084892Y8859771D01*
X1085420Y8860933D01*
X1085843Y8862095D01*
X1086266Y8863469D01*
X1086583Y8864948D01*
X1086900Y8866533D01*
X1087005Y8868224D01*
X1087111Y8870020D01*
Y8931200D01*
X1099051D01*
Y8869809D01*
D02*
G37*
G36*
X1453237Y8921478D02*
X1424285D01*
Y8841068D01*
X1412450D01*
Y8921478D01*
X1383498D01*
Y8931200D01*
X1453237D01*
Y8921478D01*
D02*
G37*
G36*
X1564685Y8747058D02*
X1565425Y8746953D01*
X1566270Y8746741D01*
X1567116Y8746319D01*
X1567855Y8745896D01*
X1568595Y8745262D01*
X1568701Y8745156D01*
X1568912Y8744945D01*
X1569123Y8744523D01*
X1569546Y8743994D01*
X1569863Y8743255D01*
X1570074Y8742409D01*
X1570286Y8741564D01*
X1570391Y8740507D01*
Y8740402D01*
Y8740085D01*
X1570286Y8739556D01*
X1570180Y8738922D01*
X1569969Y8738183D01*
X1569652Y8737443D01*
X1569229Y8736598D01*
X1568595Y8735858D01*
X1568489Y8735752D01*
X1568278Y8735541D01*
X1567855Y8735330D01*
X1567327Y8735013D01*
X1566587Y8734590D01*
X1565742Y8734379D01*
X1564685Y8734167D01*
X1563523Y8734062D01*
X1562995D01*
X1562361Y8734167D01*
X1561727Y8734273D01*
X1560882Y8734484D01*
X1560036Y8734801D01*
X1559297Y8735224D01*
X1558557Y8735858D01*
X1558451Y8735964D01*
X1558346Y8736175D01*
X1558029Y8736598D01*
X1557712Y8737126D01*
X1557395Y8737866D01*
X1557183Y8738605D01*
X1556972Y8739556D01*
X1556866Y8740507D01*
Y8740613D01*
Y8741036D01*
X1556972Y8741564D01*
X1557078Y8742198D01*
X1557289Y8742938D01*
X1557606Y8743677D01*
X1558029Y8744523D01*
X1558557Y8745262D01*
X1558663Y8745368D01*
X1558874Y8745579D01*
X1559297Y8745896D01*
X1559825Y8746213D01*
X1560565Y8746530D01*
X1561410Y8746847D01*
X1562361Y8747058D01*
X1563523Y8747164D01*
X1564051D01*
X1564685Y8747058D01*
D02*
G37*
G36*
X1768406Y8746953D02*
X1769145Y8746847D01*
X1769991Y8746530D01*
X1770836Y8746213D01*
X1771576Y8745685D01*
X1772315Y8745051D01*
X1772421Y8744945D01*
X1772632Y8744734D01*
X1772844Y8744311D01*
X1773161Y8743783D01*
X1773478Y8743043D01*
X1773795Y8742304D01*
X1773900Y8741353D01*
X1774006Y8740402D01*
Y8740296D01*
Y8739979D01*
X1773900Y8739451D01*
X1773795Y8738817D01*
X1773583Y8738077D01*
X1773266Y8737338D01*
X1772844Y8736492D01*
X1772315Y8735753D01*
X1772210Y8735647D01*
X1771998Y8735436D01*
X1771576Y8735224D01*
X1771047Y8734907D01*
X1770308Y8734485D01*
X1769462Y8734273D01*
X1768406Y8734062D01*
X1767243Y8733956D01*
X1766715D01*
X1766081Y8734062D01*
X1765341Y8734168D01*
X1764496Y8734379D01*
X1763651Y8734696D01*
X1762911Y8735119D01*
X1762171Y8735753D01*
X1762066Y8735858D01*
X1761960Y8736070D01*
X1761643Y8736492D01*
X1761326Y8737021D01*
X1761009Y8737760D01*
X1760798Y8738500D01*
X1760587Y8739451D01*
X1760481Y8740402D01*
Y8740508D01*
Y8740825D01*
X1760587Y8741353D01*
X1760692Y8741987D01*
X1760904Y8742726D01*
X1761221Y8743572D01*
X1761643Y8744311D01*
X1762171Y8745051D01*
X1762277Y8745157D01*
X1762488Y8745368D01*
X1762911Y8745685D01*
X1763439Y8746108D01*
X1764179Y8746425D01*
X1765024Y8746742D01*
X1766081Y8746953D01*
X1767243Y8747059D01*
X1767772D01*
X1768406Y8746953D01*
D02*
G37*
G36*
X1591313Y8746953D02*
X1592052Y8746847D01*
X1592898Y8746636D01*
X1593743Y8746213D01*
X1594483Y8745790D01*
X1595222Y8745156D01*
X1595328Y8745051D01*
X1595539Y8744840D01*
X1595751Y8744417D01*
X1596173Y8743889D01*
X1596490Y8743149D01*
X1596702Y8742304D01*
X1596913Y8741458D01*
X1597019Y8740402D01*
Y8740296D01*
Y8739979D01*
X1596913Y8739451D01*
X1596807Y8738817D01*
X1596596Y8738077D01*
X1596279Y8737337D01*
X1595856Y8736492D01*
X1595222Y8735752D01*
X1595117Y8735647D01*
X1594905Y8735435D01*
X1594483Y8735224D01*
X1593954Y8734907D01*
X1593215Y8734484D01*
X1592369Y8734273D01*
X1591313Y8734062D01*
X1590150Y8733956D01*
X1589622D01*
X1588988Y8734062D01*
X1588354Y8734167D01*
X1587509Y8734379D01*
X1586664Y8734696D01*
X1585924Y8735118D01*
X1585184Y8735752D01*
X1585079Y8735858D01*
X1584973Y8736069D01*
X1584656Y8736492D01*
X1584339Y8737020D01*
X1584022Y8737760D01*
X1583811Y8738500D01*
X1583599Y8739451D01*
X1583494Y8740402D01*
Y8740507D01*
Y8740930D01*
X1583599Y8741458D01*
X1583705Y8742092D01*
X1583916Y8742832D01*
X1584233Y8743572D01*
X1584656Y8744417D01*
X1585184Y8745156D01*
X1585290Y8745262D01*
X1585501Y8745473D01*
X1585924Y8745790D01*
X1586452Y8746107D01*
X1587192Y8746424D01*
X1588037Y8746741D01*
X1588988Y8746953D01*
X1590150Y8747058D01*
X1590679D01*
X1591313Y8746953D01*
D02*
G37*
G36*
X1161894D02*
X1162634Y8746847D01*
X1163479Y8746530D01*
X1164325Y8746213D01*
X1165064Y8745685D01*
X1165804Y8745051D01*
X1165910Y8744945D01*
X1166121Y8744734D01*
X1166332Y8744311D01*
X1166649Y8743783D01*
X1166966Y8743043D01*
X1167283Y8742304D01*
X1167389Y8741353D01*
X1167494Y8740402D01*
Y8740296D01*
Y8739979D01*
X1167389Y8739451D01*
X1167283Y8738817D01*
X1167072Y8738077D01*
X1166755Y8737337D01*
X1166332Y8736492D01*
X1165804Y8735752D01*
X1165698Y8735647D01*
X1165487Y8735435D01*
X1165064Y8735224D01*
X1164536Y8734907D01*
X1163796Y8734484D01*
X1162951Y8734273D01*
X1161894Y8734062D01*
X1160732Y8733956D01*
X1160204D01*
X1159570Y8734062D01*
X1158830Y8734167D01*
X1157985Y8734379D01*
X1157139Y8734696D01*
X1156400Y8735118D01*
X1155660Y8735752D01*
X1155554Y8735858D01*
X1155449Y8736069D01*
X1155132Y8736492D01*
X1154815Y8737020D01*
X1154498Y8737760D01*
X1154286Y8738500D01*
X1154075Y8739451D01*
X1153969Y8740402D01*
Y8740507D01*
Y8740824D01*
X1154075Y8741353D01*
X1154181Y8741987D01*
X1154392Y8742726D01*
X1154709Y8743572D01*
X1155132Y8744311D01*
X1155660Y8745051D01*
X1155766Y8745156D01*
X1155977Y8745368D01*
X1156400Y8745685D01*
X1156928Y8746107D01*
X1157668Y8746424D01*
X1158513Y8746741D01*
X1159570Y8746953D01*
X1160732Y8747058D01*
X1161260D01*
X1161894Y8746953D01*
D02*
G37*
G36*
X2018407Y8723813D02*
X2020097Y8723496D01*
X2020837Y8723284D01*
X2021577Y8722967D01*
Y8712295D01*
X2021471D01*
X2021154Y8712401D01*
X2020626Y8712507D01*
X2019886Y8712612D01*
X2019041D01*
X2018090Y8712718D01*
X2015976Y8712824D01*
X2015448D01*
X2014920Y8712718D01*
X2014180D01*
X2013229Y8712507D01*
X2012173Y8712295D01*
X2011010Y8711978D01*
X2009848Y8711661D01*
X2008580Y8711133D01*
X2007312Y8710499D01*
X2006044Y8709654D01*
X2004776Y8708808D01*
X2003614Y8707646D01*
X2002451Y8706378D01*
X2001500Y8704899D01*
X2000655Y8703208D01*
Y8655659D01*
X1989243D01*
Y8722650D01*
X2000338D01*
X2000549Y8714937D01*
X2000655Y8715043D01*
X2000866Y8715360D01*
X2001183Y8715782D01*
X2001606Y8716310D01*
X2002134Y8717050D01*
X2002874Y8717790D01*
X2003719Y8718635D01*
X2004670Y8719480D01*
X2005727Y8720220D01*
X2006889Y8721065D01*
X2008263Y8721805D01*
X2009637Y8722545D01*
X2011222Y8723073D01*
X2012806Y8723496D01*
X2014603Y8723813D01*
X2016505Y8723918D01*
X2017667D01*
X2018407Y8723813D01*
D02*
G37*
G36*
X1289008Y8723812D02*
X1290276Y8723495D01*
X1291967Y8723178D01*
X1293763Y8722650D01*
X1295665Y8721910D01*
X1297673Y8720959D01*
X1299680Y8719691D01*
X1301582Y8718107D01*
X1303378Y8716099D01*
X1304963Y8713774D01*
X1305703Y8712506D01*
X1306443Y8711027D01*
X1306971Y8709548D01*
X1307499Y8707857D01*
X1307922Y8706061D01*
X1308133Y8704159D01*
X1308345Y8702151D01*
X1308450Y8699932D01*
Y8655659D01*
X1297039D01*
Y8699932D01*
Y8700038D01*
Y8700249D01*
Y8700672D01*
X1296933Y8701095D01*
Y8701729D01*
X1296827Y8702468D01*
X1296616Y8704053D01*
X1296193Y8705744D01*
X1295559Y8707540D01*
X1294714Y8709231D01*
X1293657Y8710710D01*
X1293552Y8710816D01*
X1293023Y8711238D01*
X1292284Y8711767D01*
X1291227Y8712506D01*
X1289853Y8713140D01*
X1288057Y8713669D01*
X1286049Y8714091D01*
X1283619Y8714197D01*
X1282668D01*
X1281612Y8714091D01*
X1280344Y8713774D01*
X1278759Y8713457D01*
X1277068Y8712929D01*
X1275483Y8712189D01*
X1273792Y8711133D01*
X1273581Y8711027D01*
X1273053Y8710604D01*
X1272313Y8709970D01*
X1271362Y8709019D01*
X1270306Y8707963D01*
X1269249Y8706589D01*
X1268192Y8705110D01*
X1267241Y8703419D01*
Y8655659D01*
X1255724D01*
Y8722650D01*
X1266607D01*
X1267030Y8714197D01*
X1267136Y8714303D01*
X1267347Y8714620D01*
X1267770Y8715148D01*
X1268404Y8715676D01*
X1269143Y8716416D01*
X1270094Y8717261D01*
X1271151Y8718107D01*
X1272419Y8719057D01*
X1273792Y8720008D01*
X1275272Y8720854D01*
X1276857Y8721699D01*
X1278653Y8722439D01*
X1280555Y8723073D01*
X1282563Y8723495D01*
X1284782Y8723812D01*
X1287000Y8723918D01*
X1287951D01*
X1289008Y8723812D01*
D02*
G37*
G36*
X1333704Y8723178D02*
X1334444Y8723073D01*
X1335289Y8722756D01*
X1336240Y8722439D01*
X1337085Y8721910D01*
X1337825Y8721276D01*
X1337931Y8721171D01*
X1338142Y8720959D01*
X1338459Y8720537D01*
X1338776Y8719903D01*
X1339093Y8719163D01*
X1339410Y8718318D01*
X1339621Y8717367D01*
X1339727Y8716310D01*
Y8716205D01*
Y8715888D01*
X1339621Y8715359D01*
X1339515Y8714620D01*
X1339304Y8713880D01*
X1338881Y8713140D01*
X1338459Y8712295D01*
X1337825Y8711555D01*
X1337719Y8711450D01*
X1337508Y8711238D01*
X1337085Y8710921D01*
X1336451Y8710604D01*
X1335712Y8710287D01*
X1334761Y8709970D01*
X1333704Y8709759D01*
X1332436Y8709653D01*
X1331908D01*
X1331274Y8709759D01*
X1330428Y8709865D01*
X1329583Y8710076D01*
X1328738Y8710499D01*
X1327892Y8710921D01*
X1327153Y8711555D01*
X1327047Y8711661D01*
X1326941Y8711872D01*
X1326624Y8712295D01*
X1326307Y8712823D01*
X1325990Y8713563D01*
X1325779Y8714408D01*
X1325568Y8715254D01*
X1325462Y8716310D01*
Y8716416D01*
Y8716839D01*
X1325568Y8717367D01*
X1325673Y8718001D01*
X1325885Y8718846D01*
X1326202Y8719691D01*
X1326624Y8720537D01*
X1327153Y8721276D01*
X1327258Y8721382D01*
X1327470Y8721593D01*
X1327892Y8721910D01*
X1328526Y8722333D01*
X1329266Y8722650D01*
X1330111Y8722967D01*
X1331168Y8723178D01*
X1332436Y8723284D01*
X1333070D01*
X1333704Y8723178D01*
D02*
G37*
G36*
X2058242Y8723813D02*
X2059193Y8723707D01*
X2060355Y8723601D01*
X2061623Y8723390D01*
X2062891Y8723179D01*
X2065850Y8722439D01*
X2068914Y8721382D01*
X2070499Y8720748D01*
X2071978Y8720009D01*
X2073458Y8719058D01*
X2074831Y8718001D01*
X2074937Y8717895D01*
X2075148Y8717684D01*
X2075465Y8717367D01*
X2075994Y8716944D01*
X2076522Y8716310D01*
X2077050Y8715676D01*
X2077684Y8714831D01*
X2078424Y8713880D01*
X2079058Y8712824D01*
X2079692Y8711767D01*
X2080854Y8709125D01*
X2081277Y8707752D01*
X2081594Y8706167D01*
X2081805Y8704582D01*
X2081911Y8702891D01*
X2070393D01*
Y8702997D01*
Y8703102D01*
X2070288Y8703736D01*
X2070182Y8704582D01*
X2069865Y8705744D01*
X2069442Y8707012D01*
X2068703Y8708386D01*
X2067752Y8709759D01*
X2066378Y8711027D01*
X2066167Y8711133D01*
X2065638Y8711556D01*
X2064793Y8712084D01*
X2063631Y8712824D01*
X2062257Y8713458D01*
X2060461Y8713986D01*
X2058559Y8714409D01*
X2056340Y8714514D01*
X2055283D01*
X2054227Y8714409D01*
X2052747Y8714197D01*
X2051163Y8713880D01*
X2049578Y8713352D01*
X2047993Y8712718D01*
X2046513Y8711767D01*
X2046408Y8711661D01*
X2045985Y8711239D01*
X2045457Y8710710D01*
X2044823Y8709865D01*
X2044083Y8708808D01*
X2043555Y8707540D01*
X2043132Y8706167D01*
X2043026Y8704582D01*
Y8704370D01*
X2043132Y8703842D01*
X2043238Y8703102D01*
X2043449Y8702257D01*
X2043872Y8701201D01*
X2044400Y8700144D01*
X2045245Y8699087D01*
X2046302Y8698242D01*
X2046513Y8698136D01*
X2046936Y8697925D01*
X2047781Y8697502D01*
X2049049Y8696974D01*
X2049789Y8696657D01*
X2050634Y8696340D01*
X2051585Y8696023D01*
X2052642Y8695706D01*
X2053910Y8695283D01*
X2055178Y8694966D01*
X2056551Y8694544D01*
X2058136Y8694227D01*
X2058242D01*
X2058559Y8694121D01*
X2058982Y8694015D01*
X2059616Y8693910D01*
X2060355Y8693698D01*
X2061201Y8693487D01*
X2063103Y8692959D01*
X2065321Y8692325D01*
X2067646Y8691479D01*
X2069971Y8690634D01*
X2072084Y8689683D01*
X2072190D01*
X2072295Y8689577D01*
X2072929Y8689260D01*
X2073880Y8688627D01*
X2075148Y8687887D01*
X2076416Y8686936D01*
X2077684Y8685879D01*
X2078952Y8684611D01*
X2080009Y8683238D01*
X2080114Y8683026D01*
X2080431Y8682604D01*
X2080854Y8681758D01*
X2081277Y8680702D01*
X2081699Y8679434D01*
X2082122Y8677849D01*
X2082439Y8676052D01*
X2082545Y8674151D01*
Y8674045D01*
Y8673728D01*
Y8673305D01*
X2082439Y8672671D01*
X2082333Y8671932D01*
X2082122Y8670981D01*
X2081699Y8668973D01*
X2080748Y8666648D01*
X2080220Y8665486D01*
X2079480Y8664324D01*
X2078741Y8663161D01*
X2077684Y8661999D01*
X2076628Y8660837D01*
X2075360Y8659780D01*
X2075254Y8659675D01*
X2075043Y8659569D01*
X2074620Y8659252D01*
X2074092Y8658935D01*
X2073352Y8658512D01*
X2072507Y8658090D01*
X2071450Y8657561D01*
X2070393Y8657139D01*
X2069020Y8656610D01*
X2067646Y8656082D01*
X2066167Y8655659D01*
X2064476Y8655237D01*
X2062680Y8654920D01*
X2060884Y8654603D01*
X2058876Y8654497D01*
X2056763Y8654391D01*
X2055389D01*
X2054755Y8654497D01*
X2053910D01*
X2052008Y8654708D01*
X2049789Y8655025D01*
X2047359Y8655554D01*
X2044928Y8656188D01*
X2042498Y8657139D01*
X2042392D01*
X2042181Y8657244D01*
X2041864Y8657456D01*
X2041441Y8657667D01*
X2040385Y8658301D01*
X2039011Y8659252D01*
X2037426Y8660309D01*
X2035841Y8661682D01*
X2034256Y8663267D01*
X2032777Y8665063D01*
Y8665169D01*
X2032671Y8665275D01*
X2032460Y8665592D01*
X2032249Y8666014D01*
X2031720Y8666965D01*
X2031086Y8668445D01*
X2030347Y8670030D01*
X2029818Y8671932D01*
X2029396Y8673939D01*
X2029290Y8676158D01*
X2040807D01*
Y8676052D01*
Y8675947D01*
X2040913Y8675630D01*
Y8675207D01*
X2041124Y8674151D01*
X2041547Y8672883D01*
X2042075Y8671403D01*
X2042815Y8669924D01*
X2043977Y8668445D01*
X2045351Y8667071D01*
X2045562Y8666965D01*
X2046091Y8666543D01*
X2047147Y8666014D01*
X2048415Y8665380D01*
X2050000Y8664746D01*
X2052008Y8664218D01*
X2054227Y8663795D01*
X2056763Y8663690D01*
X2057819D01*
X2058982Y8663795D01*
X2060461Y8664007D01*
X2062152Y8664324D01*
X2063842Y8664746D01*
X2065533Y8665380D01*
X2067118Y8666226D01*
X2067329Y8666331D01*
X2067752Y8666754D01*
X2068386Y8667282D01*
X2069125Y8668128D01*
X2069865Y8669079D01*
X2070499Y8670347D01*
X2070922Y8671720D01*
X2071133Y8673305D01*
Y8673411D01*
Y8673517D01*
Y8674045D01*
X2070922Y8674890D01*
X2070710Y8675947D01*
X2070288Y8677109D01*
X2069654Y8678271D01*
X2068808Y8679434D01*
X2067646Y8680490D01*
X2067435Y8680596D01*
X2067012Y8680913D01*
X2066061Y8681441D01*
X2064793Y8682075D01*
X2064054Y8682392D01*
X2063103Y8682709D01*
X2062152Y8683132D01*
X2060989Y8683449D01*
X2059827Y8683872D01*
X2058453Y8684189D01*
X2056974Y8684611D01*
X2055389Y8684928D01*
X2055283D01*
X2054966Y8685034D01*
X2054544Y8685140D01*
X2053910Y8685245D01*
X2053276Y8685457D01*
X2052430Y8685668D01*
X2050423Y8686196D01*
X2048204Y8686830D01*
X2045879Y8687676D01*
X2043660Y8688521D01*
X2041547Y8689472D01*
X2041441D01*
X2041336Y8689577D01*
X2040702Y8689894D01*
X2039856Y8690528D01*
X2038694Y8691268D01*
X2037532Y8692113D01*
X2036264Y8693170D01*
X2035102Y8694438D01*
X2034045Y8695706D01*
X2033939Y8695917D01*
X2033622Y8696340D01*
X2033305Y8697080D01*
X2032883Y8698136D01*
X2032354Y8699404D01*
X2032037Y8700884D01*
X2031720Y8702468D01*
X2031615Y8704265D01*
Y8704370D01*
Y8704582D01*
Y8705110D01*
X2031720Y8705638D01*
X2031826Y8706378D01*
X2032037Y8707223D01*
X2032460Y8709125D01*
X2033305Y8711344D01*
X2033834Y8712401D01*
X2034573Y8713669D01*
X2035313Y8714831D01*
X2036264Y8715993D01*
X2037321Y8717156D01*
X2038589Y8718212D01*
X2038694Y8718318D01*
X2038905Y8718424D01*
X2039328Y8718741D01*
X2039856Y8719058D01*
X2040490Y8719586D01*
X2041336Y8720009D01*
X2042287Y8720537D01*
X2043449Y8721065D01*
X2044611Y8721594D01*
X2045985Y8722122D01*
X2047464Y8722650D01*
X2049049Y8723073D01*
X2050740Y8723390D01*
X2052536Y8723707D01*
X2054332Y8723813D01*
X2056340Y8723918D01*
X2057397D01*
X2058242Y8723813D01*
D02*
G37*
G36*
X1882734D02*
X1883685Y8723707D01*
X1884847Y8723601D01*
X1886115Y8723390D01*
X1887383Y8723179D01*
X1890342Y8722439D01*
X1893406Y8721382D01*
X1894991Y8720748D01*
X1896470Y8720009D01*
X1897950Y8719058D01*
X1899323Y8718001D01*
X1899429Y8717895D01*
X1899640Y8717684D01*
X1899957Y8717367D01*
X1900486Y8716944D01*
X1901014Y8716310D01*
X1901542Y8715676D01*
X1902176Y8714831D01*
X1902916Y8713880D01*
X1903550Y8712824D01*
X1904184Y8711767D01*
X1905346Y8709125D01*
X1905769Y8707752D01*
X1906086Y8706167D01*
X1906297Y8704582D01*
X1906403Y8702891D01*
X1894885D01*
Y8702997D01*
Y8703102D01*
X1894780Y8703736D01*
X1894674Y8704582D01*
X1894357Y8705744D01*
X1893934Y8707012D01*
X1893195Y8708386D01*
X1892244Y8709759D01*
X1890870Y8711027D01*
X1890659Y8711133D01*
X1890131Y8711556D01*
X1889285Y8712084D01*
X1888123Y8712824D01*
X1886749Y8713458D01*
X1884953Y8713986D01*
X1883051Y8714409D01*
X1880832Y8714514D01*
X1879776D01*
X1878719Y8714409D01*
X1877240Y8714197D01*
X1875655Y8713880D01*
X1874070Y8713352D01*
X1872485Y8712718D01*
X1871005Y8711767D01*
X1870900Y8711661D01*
X1870477Y8711239D01*
X1869949Y8710710D01*
X1869315Y8709865D01*
X1868575Y8708808D01*
X1868047Y8707540D01*
X1867624Y8706167D01*
X1867518Y8704582D01*
Y8704370D01*
X1867624Y8703842D01*
X1867730Y8703102D01*
X1867941Y8702257D01*
X1868364Y8701201D01*
X1868892Y8700144D01*
X1869737Y8699087D01*
X1870794Y8698242D01*
X1871005Y8698136D01*
X1871428Y8697925D01*
X1872273Y8697502D01*
X1873541Y8696974D01*
X1874281Y8696657D01*
X1875126Y8696340D01*
X1876077Y8696023D01*
X1877134Y8695706D01*
X1878402Y8695283D01*
X1879670Y8694966D01*
X1881043Y8694544D01*
X1882628Y8694227D01*
X1882734D01*
X1883051Y8694121D01*
X1883474Y8694015D01*
X1884108Y8693910D01*
X1884847Y8693698D01*
X1885693Y8693487D01*
X1887595Y8692959D01*
X1889814Y8692325D01*
X1892138Y8691479D01*
X1894463Y8690634D01*
X1896576Y8689683D01*
X1896682D01*
X1896787Y8689577D01*
X1897421Y8689260D01*
X1898372Y8688627D01*
X1899640Y8687887D01*
X1900908Y8686936D01*
X1902176Y8685879D01*
X1903444Y8684611D01*
X1904501Y8683238D01*
X1904607Y8683026D01*
X1904924Y8682604D01*
X1905346Y8681758D01*
X1905769Y8680702D01*
X1906192Y8679434D01*
X1906614Y8677849D01*
X1906931Y8676052D01*
X1907037Y8674151D01*
Y8674045D01*
Y8673728D01*
Y8673305D01*
X1906931Y8672671D01*
X1906825Y8671932D01*
X1906614Y8670981D01*
X1906192Y8668973D01*
X1905241Y8666648D01*
X1904712Y8665486D01*
X1903973Y8664324D01*
X1903233Y8663161D01*
X1902176Y8661999D01*
X1901120Y8660837D01*
X1899852Y8659780D01*
X1899746Y8659675D01*
X1899535Y8659569D01*
X1899112Y8659252D01*
X1898584Y8658935D01*
X1897844Y8658512D01*
X1896999Y8658090D01*
X1895942Y8657561D01*
X1894885Y8657139D01*
X1893512Y8656610D01*
X1892138Y8656082D01*
X1890659Y8655659D01*
X1888968Y8655237D01*
X1887172Y8654920D01*
X1885376Y8654603D01*
X1883368Y8654497D01*
X1881255Y8654391D01*
X1879881D01*
X1879247Y8654497D01*
X1878402D01*
X1876500Y8654708D01*
X1874281Y8655025D01*
X1871851Y8655554D01*
X1869420Y8656188D01*
X1866990Y8657139D01*
X1866885D01*
X1866673Y8657244D01*
X1866356Y8657456D01*
X1865934Y8657667D01*
X1864877Y8658301D01*
X1863503Y8659252D01*
X1861918Y8660309D01*
X1860333Y8661682D01*
X1858748Y8663267D01*
X1857269Y8665063D01*
Y8665169D01*
X1857163Y8665275D01*
X1856952Y8665592D01*
X1856741Y8666014D01*
X1856212Y8666965D01*
X1855578Y8668445D01*
X1854839Y8670030D01*
X1854310Y8671932D01*
X1853888Y8673939D01*
X1853782Y8676158D01*
X1865300D01*
Y8676052D01*
Y8675947D01*
X1865405Y8675630D01*
Y8675207D01*
X1865617Y8674151D01*
X1866039Y8672883D01*
X1866568Y8671403D01*
X1867307Y8669924D01*
X1868469Y8668445D01*
X1869843Y8667071D01*
X1870054Y8666965D01*
X1870583Y8666543D01*
X1871639Y8666014D01*
X1872907Y8665380D01*
X1874492Y8664746D01*
X1876500Y8664218D01*
X1878719Y8663795D01*
X1881255Y8663690D01*
X1882311D01*
X1883474Y8663795D01*
X1884953Y8664007D01*
X1886644Y8664324D01*
X1888334Y8664746D01*
X1890025Y8665380D01*
X1891610Y8666226D01*
X1891821Y8666331D01*
X1892244Y8666754D01*
X1892878Y8667282D01*
X1893617Y8668128D01*
X1894357Y8669079D01*
X1894991Y8670347D01*
X1895414Y8671720D01*
X1895625Y8673305D01*
Y8673411D01*
Y8673517D01*
Y8674045D01*
X1895414Y8674890D01*
X1895202Y8675947D01*
X1894780Y8677109D01*
X1894146Y8678271D01*
X1893301Y8679434D01*
X1892138Y8680490D01*
X1891927Y8680596D01*
X1891504Y8680913D01*
X1890553Y8681441D01*
X1889285Y8682075D01*
X1888546Y8682392D01*
X1887595Y8682709D01*
X1886644Y8683132D01*
X1885481Y8683449D01*
X1884319Y8683872D01*
X1882945Y8684189D01*
X1881466Y8684611D01*
X1879881Y8684928D01*
X1879776D01*
X1879459Y8685034D01*
X1879036Y8685140D01*
X1878402Y8685245D01*
X1877768Y8685457D01*
X1876923Y8685668D01*
X1874915Y8686196D01*
X1872696Y8686830D01*
X1870371Y8687676D01*
X1868152Y8688521D01*
X1866039Y8689472D01*
X1865934D01*
X1865828Y8689577D01*
X1865194Y8689894D01*
X1864349Y8690528D01*
X1863186Y8691268D01*
X1862024Y8692113D01*
X1860756Y8693170D01*
X1859594Y8694438D01*
X1858537Y8695706D01*
X1858431Y8695917D01*
X1858114Y8696340D01*
X1857797Y8697080D01*
X1857375Y8698136D01*
X1856846Y8699404D01*
X1856529Y8700884D01*
X1856212Y8702468D01*
X1856107Y8704265D01*
Y8704370D01*
Y8704582D01*
Y8705110D01*
X1856212Y8705638D01*
X1856318Y8706378D01*
X1856529Y8707223D01*
X1856952Y8709125D01*
X1857797Y8711344D01*
X1858326Y8712401D01*
X1859065Y8713669D01*
X1859805Y8714831D01*
X1860756Y8715993D01*
X1861813Y8717156D01*
X1863081Y8718212D01*
X1863186Y8718318D01*
X1863398Y8718424D01*
X1863820Y8718741D01*
X1864349Y8719058D01*
X1864983Y8719586D01*
X1865828Y8720009D01*
X1866779Y8720537D01*
X1867941Y8721065D01*
X1869103Y8721594D01*
X1870477Y8722122D01*
X1871956Y8722650D01*
X1873541Y8723073D01*
X1875232Y8723390D01*
X1877028Y8723707D01*
X1878825Y8723813D01*
X1880832Y8723918D01*
X1881889D01*
X1882734Y8723813D01*
D02*
G37*
G36*
X1817328D02*
X1818279Y8723707D01*
X1819441Y8723601D01*
X1820709Y8723390D01*
X1821977Y8723179D01*
X1824936Y8722439D01*
X1828000Y8721382D01*
X1829585Y8720748D01*
X1831064Y8720009D01*
X1832544Y8719058D01*
X1833917Y8718001D01*
X1834023Y8717895D01*
X1834234Y8717684D01*
X1834551Y8717367D01*
X1835080Y8716944D01*
X1835608Y8716310D01*
X1836136Y8715676D01*
X1836770Y8714831D01*
X1837510Y8713880D01*
X1838144Y8712824D01*
X1838778Y8711767D01*
X1839940Y8709125D01*
X1840363Y8707752D01*
X1840680Y8706167D01*
X1840891Y8704582D01*
X1840997Y8702891D01*
X1829479D01*
Y8702997D01*
Y8703102D01*
X1829374Y8703736D01*
X1829268Y8704582D01*
X1828951Y8705744D01*
X1828528Y8707012D01*
X1827789Y8708386D01*
X1826838Y8709759D01*
X1825464Y8711027D01*
X1825253Y8711133D01*
X1824725Y8711556D01*
X1823879Y8712084D01*
X1822717Y8712824D01*
X1821343Y8713458D01*
X1819547Y8713986D01*
X1817645Y8714409D01*
X1815426Y8714514D01*
X1814369D01*
X1813313Y8714409D01*
X1811834Y8714197D01*
X1810249Y8713880D01*
X1808664Y8713352D01*
X1807079Y8712718D01*
X1805599Y8711767D01*
X1805494Y8711661D01*
X1805071Y8711239D01*
X1804543Y8710710D01*
X1803909Y8709865D01*
X1803169Y8708808D01*
X1802641Y8707540D01*
X1802218Y8706167D01*
X1802112Y8704582D01*
Y8704370D01*
X1802218Y8703842D01*
X1802324Y8703102D01*
X1802535Y8702257D01*
X1802958Y8701201D01*
X1803486Y8700144D01*
X1804331Y8699087D01*
X1805388Y8698242D01*
X1805599Y8698136D01*
X1806022Y8697925D01*
X1806867Y8697502D01*
X1808135Y8696974D01*
X1808875Y8696657D01*
X1809720Y8696340D01*
X1810671Y8696023D01*
X1811728Y8695706D01*
X1812996Y8695283D01*
X1814264Y8694966D01*
X1815637Y8694544D01*
X1817222Y8694227D01*
X1817328D01*
X1817645Y8694121D01*
X1818068Y8694015D01*
X1818702Y8693910D01*
X1819441Y8693698D01*
X1820287Y8693487D01*
X1822189Y8692959D01*
X1824408Y8692325D01*
X1826732Y8691479D01*
X1829057Y8690634D01*
X1831170Y8689683D01*
X1831276D01*
X1831381Y8689577D01*
X1832015Y8689260D01*
X1832966Y8688627D01*
X1834234Y8687887D01*
X1835502Y8686936D01*
X1836770Y8685879D01*
X1838038Y8684611D01*
X1839095Y8683238D01*
X1839201Y8683026D01*
X1839518Y8682604D01*
X1839940Y8681758D01*
X1840363Y8680702D01*
X1840785Y8679434D01*
X1841208Y8677849D01*
X1841525Y8676052D01*
X1841631Y8674151D01*
Y8674045D01*
Y8673728D01*
Y8673305D01*
X1841525Y8672671D01*
X1841419Y8671932D01*
X1841208Y8670981D01*
X1840785Y8668973D01*
X1839835Y8666648D01*
X1839306Y8665486D01*
X1838567Y8664324D01*
X1837827Y8663161D01*
X1836770Y8661999D01*
X1835714Y8660837D01*
X1834446Y8659780D01*
X1834340Y8659675D01*
X1834129Y8659569D01*
X1833706Y8659252D01*
X1833178Y8658935D01*
X1832438Y8658512D01*
X1831593Y8658090D01*
X1830536Y8657561D01*
X1829479Y8657139D01*
X1828106Y8656610D01*
X1826732Y8656082D01*
X1825253Y8655659D01*
X1823562Y8655237D01*
X1821766Y8654920D01*
X1819970Y8654603D01*
X1817962Y8654497D01*
X1815849Y8654391D01*
X1814475D01*
X1813841Y8654497D01*
X1812996D01*
X1811094Y8654708D01*
X1808875Y8655025D01*
X1806445Y8655554D01*
X1804014Y8656188D01*
X1801584Y8657139D01*
X1801478D01*
X1801267Y8657244D01*
X1800950Y8657456D01*
X1800528Y8657667D01*
X1799471Y8658301D01*
X1798097Y8659252D01*
X1796512Y8660309D01*
X1794927Y8661682D01*
X1793342Y8663267D01*
X1791863Y8665063D01*
Y8665169D01*
X1791757Y8665275D01*
X1791546Y8665592D01*
X1791335Y8666014D01*
X1790806Y8666965D01*
X1790172Y8668445D01*
X1789433Y8670030D01*
X1788904Y8671932D01*
X1788482Y8673939D01*
X1788376Y8676158D01*
X1799894D01*
Y8676052D01*
Y8675947D01*
X1799999Y8675630D01*
Y8675207D01*
X1800211Y8674151D01*
X1800633Y8672883D01*
X1801161Y8671403D01*
X1801901Y8669924D01*
X1803063Y8668445D01*
X1804437Y8667071D01*
X1804648Y8666965D01*
X1805177Y8666543D01*
X1806233Y8666014D01*
X1807501Y8665380D01*
X1809086Y8664746D01*
X1811094Y8664218D01*
X1813313Y8663795D01*
X1815849Y8663690D01*
X1816905D01*
X1818068Y8663795D01*
X1819547Y8664007D01*
X1821238Y8664324D01*
X1822928Y8664746D01*
X1824619Y8665380D01*
X1826204Y8666226D01*
X1826415Y8666331D01*
X1826838Y8666754D01*
X1827472Y8667282D01*
X1828211Y8668128D01*
X1828951Y8669079D01*
X1829585Y8670347D01*
X1830008Y8671720D01*
X1830219Y8673305D01*
Y8673411D01*
Y8673517D01*
Y8674045D01*
X1830008Y8674890D01*
X1829796Y8675947D01*
X1829374Y8677109D01*
X1828740Y8678271D01*
X1827894Y8679434D01*
X1826732Y8680490D01*
X1826521Y8680596D01*
X1826098Y8680913D01*
X1825147Y8681441D01*
X1823879Y8682075D01*
X1823140Y8682392D01*
X1822189Y8682709D01*
X1821238Y8683132D01*
X1820075Y8683449D01*
X1818913Y8683872D01*
X1817539Y8684189D01*
X1816060Y8684611D01*
X1814475Y8684928D01*
X1814369D01*
X1814053Y8685034D01*
X1813630Y8685140D01*
X1812996Y8685245D01*
X1812362Y8685457D01*
X1811517Y8685668D01*
X1809509Y8686196D01*
X1807290Y8686830D01*
X1804965Y8687676D01*
X1802746Y8688521D01*
X1800633Y8689472D01*
X1800528D01*
X1800422Y8689577D01*
X1799788Y8689894D01*
X1798943Y8690528D01*
X1797780Y8691268D01*
X1796618Y8692113D01*
X1795350Y8693170D01*
X1794188Y8694438D01*
X1793131Y8695706D01*
X1793025Y8695917D01*
X1792708Y8696340D01*
X1792391Y8697080D01*
X1791969Y8698136D01*
X1791440Y8699404D01*
X1791123Y8700884D01*
X1790806Y8702468D01*
X1790701Y8704265D01*
Y8704370D01*
Y8704582D01*
Y8705110D01*
X1790806Y8705638D01*
X1790912Y8706378D01*
X1791123Y8707223D01*
X1791546Y8709125D01*
X1792391Y8711344D01*
X1792920Y8712401D01*
X1793659Y8713669D01*
X1794399Y8714831D01*
X1795350Y8715993D01*
X1796407Y8717156D01*
X1797675Y8718212D01*
X1797780Y8718318D01*
X1797992Y8718424D01*
X1798414Y8718741D01*
X1798943Y8719058D01*
X1799577Y8719586D01*
X1800422Y8720009D01*
X1801373Y8720537D01*
X1802535Y8721065D01*
X1803697Y8721594D01*
X1805071Y8722122D01*
X1806550Y8722650D01*
X1808135Y8723073D01*
X1809826Y8723390D01*
X1811622Y8723707D01*
X1813419Y8723813D01*
X1815426Y8723918D01*
X1816483D01*
X1817328Y8723813D01*
D02*
G37*
G36*
X1114662Y8723812D02*
X1115613Y8723707D01*
X1116776Y8723601D01*
X1118044Y8723390D01*
X1119312Y8723178D01*
X1122270Y8722439D01*
X1125335Y8721382D01*
X1126920Y8720748D01*
X1128399Y8720008D01*
X1129878Y8719057D01*
X1131252Y8718001D01*
X1131357Y8717895D01*
X1131569Y8717684D01*
X1131886Y8717367D01*
X1132414Y8716944D01*
X1132942Y8716310D01*
X1133471Y8715676D01*
X1134105Y8714831D01*
X1134844Y8713880D01*
X1135478Y8712823D01*
X1136112Y8711767D01*
X1137275Y8709125D01*
X1137697Y8707751D01*
X1138014Y8706166D01*
X1138226Y8704582D01*
X1138331Y8702891D01*
X1126814D01*
Y8702997D01*
Y8703102D01*
X1126708Y8703736D01*
X1126603Y8704582D01*
X1126286Y8705744D01*
X1125863Y8707012D01*
X1125123Y8708385D01*
X1124172Y8709759D01*
X1122799Y8711027D01*
X1122587Y8711133D01*
X1122059Y8711555D01*
X1121214Y8712084D01*
X1120051Y8712823D01*
X1118678Y8713457D01*
X1116881Y8713986D01*
X1114979Y8714408D01*
X1112761Y8714514D01*
X1111704D01*
X1110647Y8714408D01*
X1109168Y8714197D01*
X1107583Y8713880D01*
X1105998Y8713352D01*
X1104413Y8712718D01*
X1102934Y8711767D01*
X1102828Y8711661D01*
X1102405Y8711238D01*
X1101877Y8710710D01*
X1101243Y8709865D01*
X1100504Y8708808D01*
X1099975Y8707540D01*
X1099553Y8706166D01*
X1099447Y8704582D01*
Y8704370D01*
X1099553Y8703842D01*
X1099658Y8703102D01*
X1099870Y8702257D01*
X1100292Y8701200D01*
X1100821Y8700144D01*
X1101666Y8699087D01*
X1102722Y8698242D01*
X1102934Y8698136D01*
X1103356Y8697925D01*
X1104202Y8697502D01*
X1105470Y8696974D01*
X1106209Y8696657D01*
X1107055Y8696340D01*
X1108006Y8696023D01*
X1109062Y8695706D01*
X1110330Y8695283D01*
X1111598Y8694966D01*
X1112972Y8694543D01*
X1114557Y8694226D01*
X1114662D01*
X1114979Y8694121D01*
X1115402Y8694015D01*
X1116036Y8693909D01*
X1116776Y8693698D01*
X1117621Y8693487D01*
X1119523Y8692958D01*
X1121742Y8692324D01*
X1124067Y8691479D01*
X1126391Y8690634D01*
X1128504Y8689683D01*
X1128610D01*
X1128716Y8689577D01*
X1129350Y8689260D01*
X1130301Y8688626D01*
X1131569Y8687887D01*
X1132837Y8686936D01*
X1134105Y8685879D01*
X1135373Y8684611D01*
X1136429Y8683237D01*
X1136535Y8683026D01*
X1136852Y8682603D01*
X1137275Y8681758D01*
X1137697Y8680701D01*
X1138120Y8679433D01*
X1138543Y8677849D01*
X1138860Y8676052D01*
X1138965Y8674150D01*
Y8674045D01*
Y8673728D01*
Y8673305D01*
X1138860Y8672671D01*
X1138754Y8671931D01*
X1138543Y8670980D01*
X1138120Y8668973D01*
X1137169Y8666648D01*
X1136641Y8665486D01*
X1135901Y8664324D01*
X1135161Y8663161D01*
X1134105Y8661999D01*
X1133048Y8660837D01*
X1131780Y8659780D01*
X1131674Y8659674D01*
X1131463Y8659569D01*
X1131040Y8659252D01*
X1130512Y8658935D01*
X1129772Y8658512D01*
X1128927Y8658089D01*
X1127870Y8657561D01*
X1126814Y8657138D01*
X1125440Y8656610D01*
X1124067Y8656082D01*
X1122587Y8655659D01*
X1120897Y8655236D01*
X1119100Y8654919D01*
X1117304Y8654602D01*
X1115296Y8654497D01*
X1113183Y8654391D01*
X1111810D01*
X1111176Y8654497D01*
X1110330D01*
X1108428Y8654708D01*
X1106209Y8655025D01*
X1103779Y8655553D01*
X1101349Y8656187D01*
X1098919Y8657138D01*
X1098813D01*
X1098602Y8657244D01*
X1098285Y8657455D01*
X1097862Y8657667D01*
X1096805Y8658301D01*
X1095432Y8659252D01*
X1093847Y8660308D01*
X1092262Y8661682D01*
X1090677Y8663267D01*
X1089197Y8665063D01*
Y8665169D01*
X1089092Y8665275D01*
X1088880Y8665592D01*
X1088669Y8666014D01*
X1088141Y8666965D01*
X1087507Y8668444D01*
X1086767Y8670029D01*
X1086239Y8671931D01*
X1085816Y8673939D01*
X1085711Y8676158D01*
X1097228D01*
Y8676052D01*
Y8675947D01*
X1097334Y8675630D01*
Y8675207D01*
X1097545Y8674150D01*
X1097968Y8672882D01*
X1098496Y8671403D01*
X1099236Y8669924D01*
X1100398Y8668444D01*
X1101771Y8667071D01*
X1101983Y8666965D01*
X1102511Y8666542D01*
X1103568Y8666014D01*
X1104836Y8665380D01*
X1106421Y8664746D01*
X1108428Y8664218D01*
X1110647Y8663795D01*
X1113183Y8663690D01*
X1114240D01*
X1115402Y8663795D01*
X1116881Y8664007D01*
X1118572Y8664324D01*
X1120263Y8664746D01*
X1121953Y8665380D01*
X1123538Y8666225D01*
X1123750Y8666331D01*
X1124172Y8666754D01*
X1124806Y8667282D01*
X1125546Y8668127D01*
X1126286Y8669078D01*
X1126920Y8670346D01*
X1127342Y8671720D01*
X1127553Y8673305D01*
Y8673411D01*
Y8673516D01*
Y8674045D01*
X1127342Y8674890D01*
X1127131Y8675947D01*
X1126708Y8677109D01*
X1126074Y8678271D01*
X1125229Y8679433D01*
X1124067Y8680490D01*
X1123855Y8680596D01*
X1123433Y8680913D01*
X1122482Y8681441D01*
X1121214Y8682075D01*
X1120474Y8682392D01*
X1119523Y8682709D01*
X1118572Y8683132D01*
X1117410Y8683449D01*
X1116247Y8683871D01*
X1114874Y8684188D01*
X1113395Y8684611D01*
X1111810Y8684928D01*
X1111704D01*
X1111387Y8685034D01*
X1110964Y8685139D01*
X1110330Y8685245D01*
X1109696Y8685456D01*
X1108851Y8685668D01*
X1106843Y8686196D01*
X1104624Y8686830D01*
X1102300Y8687675D01*
X1100081Y8688521D01*
X1097968Y8689472D01*
X1097862D01*
X1097756Y8689577D01*
X1097122Y8689894D01*
X1096277Y8690528D01*
X1095115Y8691268D01*
X1093952Y8692113D01*
X1092684Y8693170D01*
X1091522Y8694438D01*
X1090465Y8695706D01*
X1090360Y8695917D01*
X1090043Y8696340D01*
X1089726Y8697079D01*
X1089303Y8698136D01*
X1088775Y8699404D01*
X1088458Y8700883D01*
X1088141Y8702468D01*
X1088035Y8704265D01*
Y8704370D01*
Y8704582D01*
Y8705110D01*
X1088141Y8705638D01*
X1088246Y8706378D01*
X1088458Y8707223D01*
X1088880Y8709125D01*
X1089726Y8711344D01*
X1090254Y8712401D01*
X1090994Y8713669D01*
X1091733Y8714831D01*
X1092684Y8715993D01*
X1093741Y8717156D01*
X1095009Y8718212D01*
X1095115Y8718318D01*
X1095326Y8718424D01*
X1095749Y8718740D01*
X1096277Y8719057D01*
X1096911Y8719586D01*
X1097756Y8720008D01*
X1098707Y8720537D01*
X1099870Y8721065D01*
X1101032Y8721593D01*
X1102405Y8722122D01*
X1103885Y8722650D01*
X1105470Y8723073D01*
X1107160Y8723390D01*
X1108957Y8723707D01*
X1110753Y8723812D01*
X1112761Y8723918D01*
X1113817D01*
X1114662Y8723812D01*
D02*
G37*
G36*
X1458916Y8655659D02*
X1446976D01*
X1401540Y8725080D01*
Y8655659D01*
X1389600D01*
Y8745790D01*
X1401540D01*
X1447081Y8675947D01*
Y8745790D01*
X1458916D01*
Y8655659D01*
D02*
G37*
G36*
X1716736Y8655659D02*
X1706170D01*
X1672885Y8745791D01*
X1685776D01*
X1711453Y8671403D01*
X1737129Y8745791D01*
X1750231D01*
X1716736Y8655659D01*
D02*
G37*
G36*
X1772844D02*
X1761432D01*
Y8722650D01*
X1772844D01*
Y8655659D01*
D02*
G37*
G36*
X1630091Y8655659D02*
X1618680D01*
Y8750757D01*
X1630091D01*
Y8655659D01*
D02*
G37*
G36*
X1166332D02*
X1154920D01*
Y8722650D01*
X1166332D01*
Y8655659D01*
D02*
G37*
G36*
X967367Y8745685D02*
X968424D01*
X969586Y8745473D01*
X970959Y8745368D01*
X972439Y8745156D01*
X975609Y8744523D01*
X979096Y8743572D01*
X980892Y8742938D01*
X982688Y8742304D01*
X984484Y8741458D01*
X986175Y8740507D01*
X986281Y8740402D01*
X986598Y8740296D01*
X987020Y8739979D01*
X987654Y8739556D01*
X988394Y8739028D01*
X989345Y8738394D01*
X990296Y8737549D01*
X991353Y8736703D01*
X992409Y8735752D01*
X993572Y8734590D01*
X994734Y8733428D01*
X995896Y8732054D01*
X997058Y8730681D01*
X998115Y8729096D01*
X999172Y8727511D01*
X1000123Y8725714D01*
X1000228Y8725609D01*
X1000334Y8725292D01*
X1000545Y8724763D01*
X1000862Y8724024D01*
X1001285Y8723073D01*
X1001708Y8722016D01*
X1002130Y8720748D01*
X1002659Y8719374D01*
X1003081Y8717790D01*
X1003504Y8716099D01*
X1003927Y8714303D01*
X1004349Y8712401D01*
X1004983Y8708280D01*
X1005089Y8706061D01*
X1005195Y8703736D01*
Y8697925D01*
Y8697819D01*
Y8697396D01*
Y8696657D01*
X1005089Y8695811D01*
Y8694649D01*
X1004983Y8693381D01*
X1004772Y8692008D01*
X1004561Y8690423D01*
X1004349Y8688732D01*
X1004032Y8686936D01*
X1003081Y8683132D01*
X1001919Y8679328D01*
X1001074Y8677426D01*
X1000228Y8675630D01*
X1000123Y8675524D01*
X1000017Y8675207D01*
X999700Y8674679D01*
X999277Y8674045D01*
X998855Y8673199D01*
X998221Y8672354D01*
X997481Y8671297D01*
X996636Y8670135D01*
X995685Y8668973D01*
X994628Y8667810D01*
X992198Y8665380D01*
X989345Y8662950D01*
X986175Y8660837D01*
X986069Y8660731D01*
X985752Y8660625D01*
X985224Y8660414D01*
X984590Y8660097D01*
X983745Y8659674D01*
X982688Y8659252D01*
X981420Y8658723D01*
X980152Y8658301D01*
X978673Y8657772D01*
X976982Y8657350D01*
X975292Y8656927D01*
X973390Y8656504D01*
X971382Y8656187D01*
X969374Y8655870D01*
X967156Y8655765D01*
X964937Y8655659D01*
X940000D01*
Y8745790D01*
X966522D01*
X967367Y8745685D01*
D02*
G37*
G36*
X1333598Y8668550D02*
X1334338Y8668444D01*
X1335183Y8668127D01*
X1336134Y8667810D01*
X1336980Y8667282D01*
X1337719Y8666648D01*
X1337825Y8666542D01*
X1338036Y8666331D01*
X1338353Y8665909D01*
X1338670Y8665275D01*
X1338987Y8664535D01*
X1339304Y8663690D01*
X1339515Y8662739D01*
X1339621Y8661682D01*
Y8661576D01*
Y8661259D01*
X1339515Y8660731D01*
X1339410Y8659991D01*
X1339198Y8659252D01*
X1338776Y8658512D01*
X1338353Y8657667D01*
X1337719Y8656927D01*
X1337614Y8656821D01*
X1337402Y8656610D01*
X1336980Y8656293D01*
X1336346Y8655976D01*
X1335606Y8655659D01*
X1334655Y8655342D01*
X1333598Y8655131D01*
X1332330Y8655025D01*
X1331802D01*
X1331168Y8655131D01*
X1330323Y8655236D01*
X1329477Y8655448D01*
X1328632Y8655870D01*
X1327787Y8656293D01*
X1327047Y8656927D01*
X1326941Y8657033D01*
X1326836Y8657244D01*
X1326519Y8657667D01*
X1326202Y8658195D01*
X1325885Y8658935D01*
X1325673Y8659780D01*
X1325462Y8660625D01*
X1325357Y8661682D01*
Y8661788D01*
Y8662210D01*
X1325462Y8662739D01*
X1325568Y8663373D01*
X1325779Y8664218D01*
X1326096Y8665063D01*
X1326519Y8665909D01*
X1327047Y8666648D01*
X1327153Y8666754D01*
X1327364Y8666965D01*
X1327787Y8667282D01*
X1328421Y8667705D01*
X1329160Y8668022D01*
X1330006Y8668339D01*
X1331062Y8668550D01*
X1332330Y8668656D01*
X1332964D01*
X1333598Y8668550D01*
D02*
G37*
G36*
X1949619Y8723813D02*
X1950465D01*
X1951627Y8723707D01*
X1952895Y8723496D01*
X1954269Y8723179D01*
X1955854Y8722862D01*
X1957439Y8722333D01*
X1959024Y8721805D01*
X1960714Y8721065D01*
X1962405Y8720220D01*
X1964095Y8719269D01*
X1965680Y8718107D01*
X1967265Y8716733D01*
X1968639Y8715254D01*
X1968745Y8715148D01*
X1968956Y8714831D01*
X1969273Y8714409D01*
X1969801Y8713669D01*
X1970330Y8712824D01*
X1970964Y8711661D01*
X1971598Y8710393D01*
X1972337Y8709020D01*
X1972971Y8707329D01*
X1973605Y8705533D01*
X1974239Y8703419D01*
X1974767Y8701306D01*
X1975296Y8698876D01*
X1975613Y8696340D01*
X1975824Y8693593D01*
X1975930Y8690634D01*
Y8685879D01*
X1930600D01*
Y8685774D01*
Y8685457D01*
X1930706Y8684928D01*
Y8684189D01*
X1930811Y8683343D01*
X1930917Y8682392D01*
X1931128Y8681336D01*
X1931445Y8680068D01*
X1932079Y8677532D01*
X1933136Y8674785D01*
X1933770Y8673517D01*
X1934509Y8672143D01*
X1935355Y8670875D01*
X1936306Y8669713D01*
X1936411Y8669607D01*
X1936517Y8669501D01*
X1936834Y8669184D01*
X1937362Y8668762D01*
X1937891Y8668339D01*
X1938525Y8667811D01*
X1939264Y8667282D01*
X1940215Y8666754D01*
X1942223Y8665592D01*
X1944653Y8664641D01*
X1946027Y8664218D01*
X1947400Y8663901D01*
X1948880Y8663795D01*
X1950465Y8663690D01*
X1951521D01*
X1952578Y8663795D01*
X1954057Y8664007D01*
X1955642Y8664324D01*
X1957333Y8664746D01*
X1959024Y8665275D01*
X1960714Y8666120D01*
X1960925Y8666226D01*
X1961454Y8666543D01*
X1962193Y8667177D01*
X1963250Y8667916D01*
X1964412Y8668867D01*
X1965575Y8670030D01*
X1966843Y8671298D01*
X1968111Y8672777D01*
X1975084Y8667282D01*
X1974979Y8667177D01*
X1974662Y8666754D01*
X1974239Y8666120D01*
X1973499Y8665275D01*
X1972654Y8664324D01*
X1971492Y8663161D01*
X1970224Y8661999D01*
X1968745Y8660837D01*
X1967054Y8659675D01*
X1965258Y8658512D01*
X1963144Y8657350D01*
X1960820Y8656399D01*
X1958390Y8655554D01*
X1955748Y8654920D01*
X1952895Y8654497D01*
X1949831Y8654391D01*
X1949197D01*
X1948563Y8654497D01*
X1947612D01*
X1946449Y8654708D01*
X1945076Y8654814D01*
X1943597Y8655131D01*
X1941906Y8655554D01*
X1940215Y8655976D01*
X1938419Y8656610D01*
X1936623Y8657244D01*
X1934721Y8658090D01*
X1932819Y8659146D01*
X1931023Y8660309D01*
X1929332Y8661682D01*
X1927641Y8663267D01*
X1927536Y8663373D01*
X1927324Y8663690D01*
X1926902Y8664218D01*
X1926268Y8664958D01*
X1925634Y8665803D01*
X1924894Y8666860D01*
X1924154Y8668128D01*
X1923415Y8669607D01*
X1922569Y8671298D01*
X1921830Y8673094D01*
X1921090Y8674996D01*
X1920456Y8677215D01*
X1919928Y8679434D01*
X1919505Y8681970D01*
X1919188Y8684506D01*
X1919083Y8687253D01*
Y8689366D01*
Y8689472D01*
Y8689789D01*
Y8690317D01*
X1919188Y8691057D01*
Y8691902D01*
X1919294Y8692959D01*
X1919400Y8694015D01*
X1919611Y8695283D01*
X1920033Y8698031D01*
X1920667Y8701095D01*
X1921618Y8704159D01*
X1922886Y8707118D01*
Y8707223D01*
X1923098Y8707435D01*
X1923309Y8707857D01*
X1923626Y8708386D01*
X1923943Y8709125D01*
X1924471Y8709865D01*
X1925634Y8711661D01*
X1927219Y8713669D01*
X1929015Y8715676D01*
X1931128Y8717684D01*
X1933558Y8719480D01*
X1933664Y8719586D01*
X1933875Y8719692D01*
X1934298Y8719903D01*
X1934721Y8720220D01*
X1935355Y8720537D01*
X1936200Y8720854D01*
X1937045Y8721277D01*
X1937996Y8721699D01*
X1940215Y8722545D01*
X1942751Y8723179D01*
X1945393Y8723707D01*
X1948351Y8723918D01*
X1948880D01*
X1949619Y8723813D01*
D02*
G37*
G36*
X1578105Y8723812D02*
X1578950D01*
X1580112Y8723707D01*
X1581380Y8723495D01*
X1582754Y8723178D01*
X1584339Y8722861D01*
X1585924Y8722333D01*
X1587509Y8721805D01*
X1589200Y8721065D01*
X1590890Y8720220D01*
X1592581Y8719269D01*
X1594166Y8718107D01*
X1595751Y8716733D01*
X1597124Y8715254D01*
X1597230Y8715148D01*
X1597441Y8714831D01*
X1597758Y8714408D01*
X1598287Y8713669D01*
X1598815Y8712823D01*
X1599449Y8711661D01*
X1600083Y8710393D01*
X1600823Y8709019D01*
X1601457Y8707329D01*
X1602091Y8705532D01*
X1602725Y8703419D01*
X1603253Y8701306D01*
X1603781Y8698876D01*
X1604098Y8696340D01*
X1604309Y8693592D01*
X1604415Y8690634D01*
Y8685879D01*
X1559085D01*
Y8685773D01*
Y8685456D01*
X1559191Y8684928D01*
Y8684188D01*
X1559297Y8683343D01*
X1559402Y8682392D01*
X1559614Y8681335D01*
X1559931Y8680067D01*
X1560565Y8677532D01*
X1561621Y8674784D01*
X1562255Y8673516D01*
X1562995Y8672143D01*
X1563840Y8670875D01*
X1564791Y8669712D01*
X1564897Y8669607D01*
X1565002Y8669501D01*
X1565319Y8669184D01*
X1565848Y8668761D01*
X1566376Y8668339D01*
X1567010Y8667810D01*
X1567750Y8667282D01*
X1568701Y8666754D01*
X1570708Y8665592D01*
X1573139Y8664641D01*
X1574512Y8664218D01*
X1575886Y8663901D01*
X1577365Y8663795D01*
X1578950Y8663690D01*
X1580007D01*
X1581063Y8663795D01*
X1582543Y8664007D01*
X1584128Y8664324D01*
X1585818Y8664746D01*
X1587509Y8665275D01*
X1589200Y8666120D01*
X1589411Y8666225D01*
X1589939Y8666542D01*
X1590679Y8667176D01*
X1591735Y8667916D01*
X1592898Y8668867D01*
X1594060Y8670029D01*
X1595328Y8671297D01*
X1596596Y8672777D01*
X1603570Y8667282D01*
X1603464Y8667176D01*
X1603147Y8666754D01*
X1602725Y8666120D01*
X1601985Y8665275D01*
X1601140Y8664324D01*
X1599977Y8663161D01*
X1598709Y8661999D01*
X1597230Y8660837D01*
X1595539Y8659674D01*
X1593743Y8658512D01*
X1591630Y8657350D01*
X1589305Y8656399D01*
X1586875Y8655553D01*
X1584233Y8654919D01*
X1581380Y8654497D01*
X1578316Y8654391D01*
X1577682D01*
X1577048Y8654497D01*
X1576097D01*
X1574935Y8654708D01*
X1573561Y8654814D01*
X1572082Y8655131D01*
X1570391Y8655553D01*
X1568701Y8655976D01*
X1566904Y8656610D01*
X1565108Y8657244D01*
X1563206Y8658089D01*
X1561304Y8659146D01*
X1559508Y8660308D01*
X1557817Y8661682D01*
X1556127Y8663267D01*
X1556021Y8663373D01*
X1555810Y8663690D01*
X1555387Y8664218D01*
X1554753Y8664958D01*
X1554119Y8665803D01*
X1553379Y8666859D01*
X1552640Y8668127D01*
X1551900Y8669607D01*
X1551055Y8671297D01*
X1550315Y8673094D01*
X1549576Y8674996D01*
X1548942Y8677215D01*
X1548413Y8679433D01*
X1547991Y8681969D01*
X1547674Y8684505D01*
X1547568Y8687253D01*
Y8689366D01*
Y8689472D01*
Y8689789D01*
Y8690317D01*
X1547674Y8691057D01*
Y8691902D01*
X1547779Y8692958D01*
X1547885Y8694015D01*
X1548096Y8695283D01*
X1548519Y8698030D01*
X1549153Y8701095D01*
X1550104Y8704159D01*
X1551372Y8707117D01*
Y8707223D01*
X1551583Y8707434D01*
X1551794Y8707857D01*
X1552111Y8708385D01*
X1552428Y8709125D01*
X1552957Y8709865D01*
X1554119Y8711661D01*
X1555704Y8713669D01*
X1557500Y8715676D01*
X1559614Y8717684D01*
X1562044Y8719480D01*
X1562150Y8719586D01*
X1562361Y8719691D01*
X1562784Y8719903D01*
X1563206Y8720220D01*
X1563840Y8720537D01*
X1564685Y8720854D01*
X1565531Y8721276D01*
X1566482Y8721699D01*
X1568701Y8722544D01*
X1571237Y8723178D01*
X1573878Y8723707D01*
X1576837Y8723918D01*
X1577365D01*
X1578105Y8723812D01*
D02*
G37*
G36*
X1506887D02*
X1507838D01*
X1509001Y8723601D01*
X1510269Y8723390D01*
X1511853Y8723073D01*
X1513438Y8722756D01*
X1515129Y8722227D01*
X1516925Y8721593D01*
X1518827Y8720854D01*
X1520624Y8719903D01*
X1522526Y8718846D01*
X1524322Y8717578D01*
X1526012Y8716099D01*
X1527703Y8714408D01*
X1527809Y8714303D01*
X1528020Y8713986D01*
X1528443Y8713457D01*
X1529077Y8712718D01*
X1529711Y8711767D01*
X1530345Y8710604D01*
X1531190Y8709231D01*
X1531930Y8707646D01*
X1532669Y8705955D01*
X1533515Y8704053D01*
X1534149Y8701940D01*
X1534888Y8699721D01*
X1535417Y8697291D01*
X1535839Y8694755D01*
X1536051Y8692008D01*
X1536156Y8689155D01*
Y8688309D01*
Y8688204D01*
Y8687887D01*
Y8687358D01*
X1536051Y8686724D01*
Y8685773D01*
X1535945Y8684822D01*
X1535839Y8683660D01*
X1535734Y8682498D01*
X1535205Y8679750D01*
X1534571Y8676792D01*
X1533620Y8673728D01*
X1532352Y8670769D01*
Y8670663D01*
X1532141Y8670452D01*
X1531930Y8670029D01*
X1531718Y8669501D01*
X1531296Y8668867D01*
X1530767Y8668127D01*
X1529605Y8666331D01*
X1528126Y8664429D01*
X1526329Y8662422D01*
X1524110Y8660520D01*
X1521680Y8658723D01*
X1521575D01*
X1521363Y8658512D01*
X1520941Y8658301D01*
X1520412Y8658089D01*
X1519778Y8657772D01*
X1519039Y8657350D01*
X1518088Y8656927D01*
X1517031Y8656610D01*
X1514706Y8655765D01*
X1511959Y8655025D01*
X1509001Y8654602D01*
X1505725Y8654391D01*
X1505091D01*
X1504457Y8654497D01*
X1503506D01*
X1502344Y8654708D01*
X1500970Y8654919D01*
X1499491Y8655131D01*
X1497906Y8655553D01*
X1496110Y8656082D01*
X1494313Y8656716D01*
X1492517Y8657455D01*
X1490615Y8658406D01*
X1488819Y8659463D01*
X1487022Y8660731D01*
X1485332Y8662105D01*
X1483641Y8663795D01*
X1483536Y8663901D01*
X1483324Y8664218D01*
X1482902Y8664746D01*
X1482373Y8665486D01*
X1481634Y8666437D01*
X1481000Y8667599D01*
X1480154Y8668973D01*
X1479415Y8670558D01*
X1478675Y8672248D01*
X1477830Y8674150D01*
X1477196Y8676158D01*
X1476562Y8678377D01*
X1475928Y8680807D01*
X1475505Y8683343D01*
X1475294Y8686090D01*
X1475188Y8688943D01*
Y8689683D01*
Y8689789D01*
Y8690106D01*
Y8690634D01*
X1475294Y8691374D01*
Y8692219D01*
X1475399Y8693275D01*
X1475505Y8694332D01*
X1475716Y8695600D01*
X1476139Y8698347D01*
X1476773Y8701412D01*
X1477724Y8704476D01*
X1478992Y8707434D01*
Y8707540D01*
X1479203Y8707751D01*
X1479415Y8708174D01*
X1479732Y8708702D01*
X1480154Y8709442D01*
X1480577Y8710182D01*
X1481845Y8711978D01*
X1483324Y8713880D01*
X1485226Y8715888D01*
X1487339Y8717895D01*
X1489770Y8719586D01*
X1489875D01*
X1490087Y8719797D01*
X1490509Y8720008D01*
X1491038Y8720220D01*
X1491672Y8720642D01*
X1492411Y8720959D01*
X1493362Y8721382D01*
X1494313Y8721805D01*
X1496638Y8722544D01*
X1499385Y8723284D01*
X1502344Y8723707D01*
X1505514Y8723918D01*
X1506148D01*
X1506887Y8723812D01*
D02*
G37*
G36*
X1048939D02*
X1049785D01*
X1050947Y8723707D01*
X1052215Y8723495D01*
X1053589Y8723178D01*
X1055174Y8722861D01*
X1056759Y8722333D01*
X1058344Y8721805D01*
X1060034Y8721065D01*
X1061725Y8720220D01*
X1063415Y8719269D01*
X1065000Y8718107D01*
X1066585Y8716733D01*
X1067959Y8715254D01*
X1068065Y8715148D01*
X1068276Y8714831D01*
X1068593Y8714408D01*
X1069121Y8713669D01*
X1069650Y8712823D01*
X1070284Y8711661D01*
X1070918Y8710393D01*
X1071657Y8709019D01*
X1072291Y8707329D01*
X1072925Y8705532D01*
X1073559Y8703419D01*
X1074088Y8701306D01*
X1074616Y8698876D01*
X1074933Y8696340D01*
X1075144Y8693592D01*
X1075250Y8690634D01*
Y8685879D01*
X1029920D01*
Y8685773D01*
Y8685456D01*
X1030026Y8684928D01*
Y8684188D01*
X1030131Y8683343D01*
X1030237Y8682392D01*
X1030448Y8681335D01*
X1030765Y8680067D01*
X1031399Y8677532D01*
X1032456Y8674784D01*
X1033090Y8673516D01*
X1033830Y8672143D01*
X1034675Y8670875D01*
X1035626Y8669712D01*
X1035731Y8669607D01*
X1035837Y8669501D01*
X1036154Y8669184D01*
X1036682Y8668761D01*
X1037211Y8668339D01*
X1037845Y8667810D01*
X1038584Y8667282D01*
X1039535Y8666754D01*
X1041543Y8665592D01*
X1043973Y8664641D01*
X1045347Y8664218D01*
X1046721Y8663901D01*
X1048200Y8663795D01*
X1049785Y8663690D01*
X1050841D01*
X1051898Y8663795D01*
X1053377Y8664007D01*
X1054962Y8664324D01*
X1056653Y8664746D01*
X1058344Y8665275D01*
X1060034Y8666120D01*
X1060246Y8666225D01*
X1060774Y8666542D01*
X1061513Y8667176D01*
X1062570Y8667916D01*
X1063732Y8668867D01*
X1064895Y8670029D01*
X1066163Y8671297D01*
X1067431Y8672777D01*
X1074405Y8667282D01*
X1074299Y8667176D01*
X1073982Y8666754D01*
X1073559Y8666120D01*
X1072820Y8665275D01*
X1071974Y8664324D01*
X1070812Y8663161D01*
X1069544Y8661999D01*
X1068065Y8660837D01*
X1066374Y8659674D01*
X1064578Y8658512D01*
X1062464Y8657350D01*
X1060140Y8656399D01*
X1057710Y8655553D01*
X1055068Y8654919D01*
X1052215Y8654497D01*
X1049151Y8654391D01*
X1048517D01*
X1047883Y8654497D01*
X1046932D01*
X1045770Y8654708D01*
X1044396Y8654814D01*
X1042917Y8655131D01*
X1041226Y8655553D01*
X1039535Y8655976D01*
X1037739Y8656610D01*
X1035943Y8657244D01*
X1034041Y8658089D01*
X1032139Y8659146D01*
X1030343Y8660308D01*
X1028652Y8661682D01*
X1026961Y8663267D01*
X1026856Y8663373D01*
X1026644Y8663690D01*
X1026222Y8664218D01*
X1025588Y8664958D01*
X1024954Y8665803D01*
X1024214Y8666859D01*
X1023474Y8668127D01*
X1022735Y8669607D01*
X1021889Y8671297D01*
X1021150Y8673094D01*
X1020410Y8674996D01*
X1019776Y8677215D01*
X1019248Y8679433D01*
X1018825Y8681969D01*
X1018508Y8684505D01*
X1018403Y8687253D01*
Y8689366D01*
Y8689472D01*
Y8689789D01*
Y8690317D01*
X1018508Y8691057D01*
Y8691902D01*
X1018614Y8692958D01*
X1018720Y8694015D01*
X1018931Y8695283D01*
X1019354Y8698030D01*
X1019988Y8701095D01*
X1020939Y8704159D01*
X1022206Y8707117D01*
Y8707223D01*
X1022418Y8707434D01*
X1022629Y8707857D01*
X1022946Y8708385D01*
X1023263Y8709125D01*
X1023791Y8709865D01*
X1024954Y8711661D01*
X1026539Y8713669D01*
X1028335Y8715676D01*
X1030448Y8717684D01*
X1032879Y8719480D01*
X1032984Y8719586D01*
X1033196Y8719691D01*
X1033618Y8719903D01*
X1034041Y8720220D01*
X1034675Y8720537D01*
X1035520Y8720854D01*
X1036365Y8721276D01*
X1037316Y8721699D01*
X1039535Y8722544D01*
X1042071Y8723178D01*
X1044713Y8723707D01*
X1047672Y8723918D01*
X1048200D01*
X1048939Y8723812D01*
D02*
G37*
G36*
X1209549D02*
X1210394D01*
X1211451Y8723601D01*
X1212613Y8723495D01*
X1213987Y8723178D01*
X1215360Y8722861D01*
X1216840Y8722333D01*
X1218425Y8721805D01*
X1220009Y8721065D01*
X1221594Y8720220D01*
X1223179Y8719269D01*
X1224764Y8718001D01*
X1226138Y8716733D01*
X1227512Y8715148D01*
X1228040Y8722650D01*
X1238501D01*
Y8657138D01*
Y8657033D01*
Y8656610D01*
Y8655870D01*
X1238395Y8655025D01*
X1238289Y8653968D01*
X1238078Y8652700D01*
X1237867Y8651221D01*
X1237550Y8649742D01*
X1237127Y8648157D01*
X1236599Y8646466D01*
X1235965Y8644776D01*
X1235225Y8643085D01*
X1234380Y8641394D01*
X1233323Y8639809D01*
X1232161Y8638225D01*
X1230787Y8636745D01*
X1230682Y8636640D01*
X1230470Y8636428D01*
X1229942Y8636006D01*
X1229414Y8635583D01*
X1228568Y8635055D01*
X1227617Y8634421D01*
X1226561Y8633681D01*
X1225293Y8633047D01*
X1223919Y8632307D01*
X1222334Y8631568D01*
X1220643Y8630934D01*
X1218847Y8630405D01*
X1216840Y8629983D01*
X1214726Y8629560D01*
X1212507Y8629349D01*
X1210077Y8629243D01*
X1209337D01*
X1208809Y8629349D01*
X1208175D01*
X1207435Y8629454D01*
X1205639Y8629666D01*
X1203420Y8629983D01*
X1201096Y8630617D01*
X1198560Y8631356D01*
X1195918Y8632413D01*
X1195812D01*
X1195601Y8632519D01*
X1195284Y8632730D01*
X1194756Y8632941D01*
X1193488Y8633681D01*
X1192009Y8634632D01*
X1190318Y8635794D01*
X1188522Y8637274D01*
X1186831Y8638964D01*
X1185352Y8640866D01*
X1191269Y8647734D01*
X1191375Y8647629D01*
X1191586Y8647312D01*
X1192009Y8646889D01*
X1192643Y8646255D01*
X1193277Y8645621D01*
X1194227Y8644881D01*
X1195178Y8644036D01*
X1196341Y8643191D01*
X1197609Y8642240D01*
X1198982Y8641500D01*
X1200462Y8640655D01*
X1202047Y8640021D01*
X1203737Y8639387D01*
X1205534Y8638964D01*
X1207330Y8638647D01*
X1209337Y8638542D01*
X1210183D01*
X1210711Y8638647D01*
X1211451D01*
X1212190Y8638753D01*
X1214092Y8639176D01*
X1216206Y8639704D01*
X1218319Y8640549D01*
X1220432Y8641711D01*
X1221383Y8642451D01*
X1222334Y8643296D01*
X1222440Y8643402D01*
X1222545Y8643508D01*
X1222757Y8643825D01*
X1223074Y8644142D01*
X1223813Y8645198D01*
X1224659Y8646783D01*
X1225504Y8648580D01*
X1226244Y8650904D01*
X1226772Y8653546D01*
X1226983Y8654919D01*
Y8656504D01*
Y8662316D01*
X1226878Y8662210D01*
X1226666Y8661999D01*
X1226244Y8661576D01*
X1225715Y8661048D01*
X1225081Y8660520D01*
X1224236Y8659780D01*
X1223179Y8659146D01*
X1222123Y8658406D01*
X1220855Y8657667D01*
X1219376Y8656927D01*
X1217896Y8656187D01*
X1216206Y8655659D01*
X1214409Y8655131D01*
X1212507Y8654708D01*
X1210394Y8654497D01*
X1208281Y8654391D01*
X1207752D01*
X1207118Y8654497D01*
X1206273D01*
X1205322Y8654708D01*
X1204160Y8654919D01*
X1202892Y8655131D01*
X1201413Y8655553D01*
X1199933Y8656082D01*
X1198454Y8656716D01*
X1196869Y8657455D01*
X1195178Y8658406D01*
X1193593Y8659463D01*
X1192114Y8660731D01*
X1190529Y8662105D01*
X1189156Y8663795D01*
X1189050Y8663901D01*
X1188839Y8664218D01*
X1188522Y8664746D01*
X1187993Y8665592D01*
X1187465Y8666542D01*
X1186937Y8667705D01*
X1186197Y8669078D01*
X1185563Y8670558D01*
X1184929Y8672354D01*
X1184295Y8674256D01*
X1183661Y8676475D01*
X1183133Y8678694D01*
X1182604Y8681230D01*
X1182287Y8683871D01*
X1182076Y8686724D01*
X1181970Y8689683D01*
Y8689894D01*
Y8690423D01*
Y8691162D01*
X1182076Y8692324D01*
X1182182Y8693592D01*
X1182393Y8695177D01*
X1182604Y8696868D01*
X1182921Y8698664D01*
X1183238Y8700566D01*
X1183767Y8702680D01*
X1184295Y8704687D01*
X1185035Y8706800D01*
X1185880Y8708914D01*
X1186831Y8710921D01*
X1187888Y8712823D01*
X1189156Y8714620D01*
X1189261Y8714725D01*
X1189473Y8715042D01*
X1189895Y8715465D01*
X1190529Y8716099D01*
X1191163Y8716733D01*
X1192114Y8717578D01*
X1193171Y8718424D01*
X1194333Y8719269D01*
X1195601Y8720114D01*
X1197080Y8720959D01*
X1198665Y8721805D01*
X1200356Y8722439D01*
X1202152Y8723073D01*
X1204160Y8723495D01*
X1206168Y8723812D01*
X1208386Y8723918D01*
X1208915D01*
X1209549Y8723812D01*
D02*
G37*
G36*
X1490134Y9139809D02*
X1492423Y9139619D01*
X1495285Y9139237D01*
X1498337Y9138665D01*
X1501580Y9138092D01*
X1505204Y9137329D01*
X1508828Y9136376D01*
X1512643Y9135040D01*
X1516458Y9133514D01*
X1520274Y9131798D01*
X1523898Y9129699D01*
X1527522Y9127410D01*
X1530765Y9124740D01*
X1530956Y9124549D01*
X1531528Y9123977D01*
X1532482Y9123214D01*
X1533436Y9121878D01*
X1534962Y9120352D01*
X1536488Y9118445D01*
X1538014Y9116347D01*
X1539730Y9113867D01*
X1541638Y9111005D01*
X1543355Y9107763D01*
X1544881Y9104329D01*
X1546598Y9100514D01*
X1547933Y9096508D01*
X1549268Y9092121D01*
X1550222Y9087352D01*
X1550794Y9082392D01*
X1517222D01*
Y9082583D01*
Y9083155D01*
X1517031Y9083918D01*
X1516840Y9085063D01*
X1516649Y9086207D01*
X1516458Y9087733D01*
X1515695Y9091167D01*
X1514360Y9094982D01*
X1512834Y9098797D01*
X1510927Y9102231D01*
X1509591Y9103948D01*
X1508256Y9105283D01*
X1507875Y9105664D01*
X1506921Y9106427D01*
X1505013Y9107572D01*
X1502533Y9108907D01*
X1499481Y9110242D01*
X1495476Y9111387D01*
X1490707Y9112150D01*
X1485366Y9112531D01*
X1483840D01*
X1482695Y9112341D01*
X1481360Y9112150D01*
X1479643Y9111959D01*
X1476019Y9111005D01*
X1472013Y9109670D01*
X1469915Y9108716D01*
X1467816Y9107381D01*
X1465718Y9106046D01*
X1463810Y9104520D01*
X1462094Y9102612D01*
X1460377Y9100514D01*
Y9100323D01*
X1459995Y9099942D01*
X1459614Y9099179D01*
X1459042Y9098225D01*
X1458469Y9096890D01*
X1457706Y9095364D01*
X1456943Y9093456D01*
X1456180Y9091358D01*
X1455417Y9088878D01*
X1454654Y9086017D01*
X1453891Y9082965D01*
X1453128Y9079722D01*
X1452747Y9076097D01*
X1452174Y9072092D01*
X1451984Y9067704D01*
X1451793Y9063126D01*
Y9050918D01*
Y9050536D01*
Y9049773D01*
Y9048438D01*
X1451984Y9046531D01*
Y9044432D01*
X1452174Y9041952D01*
X1452556Y9039091D01*
X1452747Y9036230D01*
X1453700Y9029744D01*
X1455226Y9023449D01*
X1456180Y9020397D01*
X1457134Y9017345D01*
X1458469Y9014675D01*
X1459805Y9012195D01*
X1459995Y9012004D01*
X1460186Y9011623D01*
X1460758Y9011050D01*
X1461331Y9010287D01*
X1462284Y9009334D01*
X1463238Y9008380D01*
X1464573Y9007235D01*
X1465909Y9006281D01*
X1467625Y9005137D01*
X1469533Y9003992D01*
X1471631Y9003039D01*
X1473730Y9002085D01*
X1476209Y9001322D01*
X1479071Y9000750D01*
X1481932Y9000368D01*
X1484984Y9000177D01*
X1486510D01*
X1487464Y9000368D01*
X1488799D01*
X1490325Y9000559D01*
X1493759Y9001131D01*
X1497383Y9001894D01*
X1501198Y9003229D01*
X1504822Y9004946D01*
X1508065Y9007235D01*
X1508447Y9007617D01*
X1509401Y9008571D01*
X1510545Y9010287D01*
X1512071Y9012576D01*
X1513788Y9015628D01*
X1515123Y9019443D01*
X1516268Y9023831D01*
X1517031Y9028981D01*
X1550413D01*
Y9028600D01*
X1550222Y9027837D01*
Y9026501D01*
X1549840Y9024594D01*
X1549459Y9022496D01*
X1548887Y9020016D01*
X1548124Y9017154D01*
X1547361Y9014102D01*
X1546216Y9010860D01*
X1544881Y9007426D01*
X1543164Y9003992D01*
X1541447Y9000559D01*
X1539349Y8997125D01*
X1536869Y8993882D01*
X1534008Y8990640D01*
X1530956Y8987778D01*
X1530765Y8987588D01*
X1530193Y8987206D01*
X1529239Y8986443D01*
X1527713Y8985489D01*
X1525996Y8984345D01*
X1523898Y8983009D01*
X1521418Y8981674D01*
X1518748Y8980339D01*
X1515505Y8978813D01*
X1512071Y8977478D01*
X1508256Y8976142D01*
X1504250Y8974998D01*
X1499863Y8974044D01*
X1495094Y8973281D01*
X1490134Y8972900D01*
X1484984Y8972709D01*
X1483649D01*
X1481932Y8972900D01*
X1479834Y8973090D01*
X1477163Y8973281D01*
X1474111Y8973853D01*
X1470678Y8974426D01*
X1467053Y8975379D01*
X1463238Y8976524D01*
X1459232Y8977859D01*
X1455226Y8979576D01*
X1451030Y8981483D01*
X1447024Y8983963D01*
X1443018Y8986825D01*
X1439203Y8990067D01*
X1435770Y8993692D01*
X1435579Y8993882D01*
X1435007Y8994645D01*
X1434053Y8995981D01*
X1432908Y8997507D01*
X1431573Y8999796D01*
X1430047Y9002276D01*
X1428521Y9005328D01*
X1426804Y9008952D01*
X1425087Y9012767D01*
X1423561Y9017154D01*
X1422035Y9021923D01*
X1420700Y9027074D01*
X1419555Y9032606D01*
X1418602Y9038519D01*
X1418029Y9044814D01*
X1417839Y9051490D01*
Y9061600D01*
Y9061791D01*
Y9062554D01*
Y9063889D01*
X1418029Y9065606D01*
Y9067513D01*
X1418220Y9069993D01*
X1418602Y9072664D01*
X1418792Y9075525D01*
X1419365Y9078768D01*
X1419937Y9082011D01*
X1421272Y9088878D01*
X1423371Y9095936D01*
X1424515Y9099369D01*
X1426041Y9102803D01*
X1426232Y9102994D01*
X1426423Y9103566D01*
X1426995Y9104520D01*
X1427567Y9105855D01*
X1428521Y9107190D01*
X1429475Y9108907D01*
X1432145Y9112913D01*
X1435579Y9117300D01*
X1439585Y9121878D01*
X1444353Y9126266D01*
X1446833Y9128364D01*
X1449695Y9130272D01*
X1449885Y9130462D01*
X1450458Y9130653D01*
X1451221Y9131225D01*
X1452365Y9131798D01*
X1453891Y9132561D01*
X1455608Y9133324D01*
X1457706Y9134277D01*
X1459995Y9135231D01*
X1462475Y9135994D01*
X1465146Y9136948D01*
X1468198Y9137711D01*
X1471250Y9138474D01*
X1478117Y9139619D01*
X1481551Y9139809D01*
X1485366Y9140000D01*
X1488036D01*
X1490134Y9139809D01*
D02*
G37*
G36*
X1111106Y8974998D02*
X1077534D01*
Y9019443D01*
X1080967Y9096127D01*
X1036903Y8974998D01*
X1014012D01*
X970139Y9096127D01*
X973382Y9019443D01*
Y8974998D01*
X940000D01*
Y9137711D01*
X983683D01*
X1025648Y9019634D01*
X1067042Y9137711D01*
X1111106D01*
Y8974998D01*
D02*
G37*
G36*
X1893579Y9001894D02*
X1964921D01*
Y8974998D01*
X1860197D01*
Y9137711D01*
X1893579D01*
Y9001894D01*
D02*
G37*
G36*
X1779317Y9137520D02*
X1781797Y9137330D01*
X1784468Y9136948D01*
X1787520Y9136567D01*
X1790953Y9136185D01*
X1798011Y9134468D01*
X1801826Y9133515D01*
X1805451Y9132179D01*
X1809075Y9130844D01*
X1812509Y9128937D01*
X1815942Y9127029D01*
X1818994Y9124740D01*
X1819185Y9124549D01*
X1819757Y9124168D01*
X1820520Y9123405D01*
X1821474Y9122451D01*
X1822619Y9121116D01*
X1823954Y9119399D01*
X1825289Y9117491D01*
X1826815Y9115393D01*
X1828341Y9112913D01*
X1829677Y9110243D01*
X1831012Y9107381D01*
X1832156Y9104139D01*
X1833110Y9100514D01*
X1834064Y9096890D01*
X1834445Y9092693D01*
X1834636Y9088497D01*
Y9088306D01*
Y9087734D01*
Y9086971D01*
X1834445Y9085826D01*
Y9084300D01*
X1834255Y9082583D01*
X1834064Y9080867D01*
X1833682Y9078768D01*
X1832919Y9074381D01*
X1831584Y9069803D01*
X1829867Y9065034D01*
X1827388Y9060647D01*
Y9060456D01*
X1827006Y9060074D01*
X1826624Y9059502D01*
X1826052Y9058739D01*
X1824335Y9056832D01*
X1822046Y9054352D01*
X1818994Y9051490D01*
X1815179Y9048629D01*
X1810792Y9045768D01*
X1805642Y9043097D01*
X1840740Y8976524D01*
Y8974998D01*
X1804879D01*
X1774358Y9034704D01*
X1747652D01*
Y8974998D01*
X1714080D01*
Y9137711D01*
X1777410D01*
X1779317Y9137520D01*
D02*
G37*
G36*
X1695004Y9110624D02*
X1645217Y9110624D01*
Y8974998D01*
X1611645D01*
Y9110624D01*
X1562430D01*
Y9137711D01*
X1695004Y9137711D01*
Y9110624D01*
D02*
G37*
G36*
X1391705Y8974998D02*
X1358133D01*
Y9137711D01*
X1391705D01*
Y8974998D01*
D02*
G37*
G36*
X1260848Y9137520D02*
X1262756Y9137329D01*
X1264854Y9137139D01*
X1267334Y9136948D01*
X1270195Y9136566D01*
X1273056Y9135994D01*
X1276108Y9135422D01*
X1282594Y9133705D01*
X1285837Y9132561D01*
X1289080Y9131225D01*
X1292323Y9129699D01*
X1295565Y9127983D01*
X1295756Y9127792D01*
X1296328Y9127601D01*
X1297282Y9127029D01*
X1298427Y9126266D01*
X1299762Y9125121D01*
X1301479Y9123977D01*
X1303196Y9122451D01*
X1305294Y9120925D01*
X1307392Y9119017D01*
X1309490Y9116919D01*
X1311779Y9114630D01*
X1313878Y9112150D01*
X1316167Y9109479D01*
X1318265Y9106618D01*
X1320173Y9103566D01*
X1322080Y9100323D01*
X1322271Y9100132D01*
X1322462Y9099560D01*
X1323034Y9098606D01*
X1323606Y9097271D01*
X1324369Y9095554D01*
X1325132Y9093456D01*
X1325895Y9091167D01*
X1326849Y9088687D01*
X1327803Y9085826D01*
X1328566Y9082583D01*
X1329329Y9079340D01*
X1330092Y9075716D01*
X1330664Y9072092D01*
X1331236Y9068086D01*
X1331427Y9064080D01*
X1331618Y9059883D01*
Y9052444D01*
Y9052253D01*
Y9051490D01*
Y9050155D01*
X1331427Y9048629D01*
Y9046721D01*
X1331046Y9044241D01*
X1330855Y9041762D01*
X1330473Y9038900D01*
X1329901Y9035848D01*
X1329329Y9032606D01*
X1327612Y9025738D01*
X1326658Y9022305D01*
X1325323Y9018871D01*
X1323988Y9015438D01*
X1322271Y9012004D01*
X1322080Y9011813D01*
X1321889Y9011241D01*
X1321317Y9010287D01*
X1320554Y9009143D01*
X1319600Y9007617D01*
X1318456Y9005900D01*
X1317121Y9003992D01*
X1315404Y9002085D01*
X1313687Y8999796D01*
X1311779Y8997698D01*
X1309490Y8995408D01*
X1307201Y8993119D01*
X1302051Y8988732D01*
X1295947Y8984726D01*
X1295756Y8984535D01*
X1295184Y8984345D01*
X1294230Y8983772D01*
X1292895Y8983200D01*
X1291369Y8982437D01*
X1289461Y8981674D01*
X1287172Y8980720D01*
X1284883Y8979957D01*
X1282022Y8979004D01*
X1279161Y8978050D01*
X1275918Y8977287D01*
X1272675Y8976524D01*
X1265426Y8975379D01*
X1261611Y8975189D01*
X1257605Y8974998D01*
X1207246D01*
Y9137711D01*
X1259322D01*
X1260848Y9137520D01*
D02*
G37*
G36*
X1176153Y8974998D02*
X1142581D01*
Y9137711D01*
X1176153D01*
Y8974998D01*
D02*
G37*
%LPC*%
G36*
X1782776Y8577035D02*
X1781402Y8574605D01*
X1754775Y8532868D01*
X1782776D01*
Y8577035D01*
D02*
G37*
G36*
X970114Y8583058D02*
X951940D01*
Y8548823D01*
X971065D01*
X971699Y8548929D01*
X972439D01*
X973284Y8549034D01*
X975292Y8549351D01*
X977511Y8549985D01*
X979941Y8550725D01*
X982160Y8551887D01*
X983216Y8552521D01*
X984273Y8553366D01*
X984379Y8553472D01*
X984484Y8553578D01*
X985118Y8554212D01*
X985964Y8555163D01*
X986915Y8556642D01*
X987866Y8558333D01*
X988711Y8560446D01*
X989345Y8562876D01*
X989451Y8564250D01*
X989556Y8565623D01*
Y8565729D01*
Y8566046D01*
Y8566469D01*
X989451Y8566997D01*
Y8567737D01*
X989345Y8568476D01*
X988922Y8570378D01*
X988288Y8572386D01*
X987443Y8574499D01*
X986175Y8576613D01*
X985330Y8577563D01*
X984484Y8578409D01*
X984379Y8578514D01*
X984273Y8578620D01*
X983956Y8578831D01*
X983533Y8579148D01*
X983005Y8579465D01*
X982371Y8579888D01*
X981632Y8580311D01*
X980786Y8580733D01*
X979835Y8581156D01*
X978779Y8581579D01*
X977616Y8581896D01*
X976348Y8582318D01*
X974975Y8582635D01*
X973390Y8582847D01*
X970114Y8583058D01*
D02*
G37*
G36*
X1968745Y8584643D02*
X1967899D01*
X1967265Y8584538D01*
X1966631Y8584432D01*
X1965786Y8584326D01*
X1963884Y8583798D01*
X1961771Y8583058D01*
X1960714Y8582530D01*
X1959657Y8581790D01*
X1958601Y8581051D01*
X1957544Y8580205D01*
X1956699Y8579149D01*
X1955854Y8577986D01*
Y8577881D01*
X1955642Y8577669D01*
X1955537Y8577247D01*
X1955220Y8576718D01*
X1954903Y8575979D01*
X1954586Y8575133D01*
X1954163Y8574182D01*
X1953846Y8572915D01*
X1953423Y8571647D01*
X1953106Y8570062D01*
X1952789Y8568371D01*
X1952472Y8566575D01*
X1952155Y8564567D01*
X1951944Y8562454D01*
X1951838Y8560129D01*
X1951733Y8557593D01*
Y8539208D01*
Y8538996D01*
Y8538574D01*
Y8537834D01*
X1951838Y8536777D01*
Y8535615D01*
X1951944Y8534242D01*
X1952050Y8532657D01*
X1952261Y8531072D01*
X1952789Y8527585D01*
X1953529Y8523992D01*
X1953952Y8522196D01*
X1954586Y8520611D01*
X1955220Y8519026D01*
X1955959Y8517652D01*
X1956065Y8517547D01*
X1956171Y8517335D01*
X1956382Y8517018D01*
X1956805Y8516596D01*
X1957756Y8515433D01*
X1959235Y8514165D01*
X1961031Y8512897D01*
X1963250Y8511735D01*
X1964518Y8511312D01*
X1965892Y8510995D01*
X1967265Y8510784D01*
X1968850Y8510678D01*
X1969696D01*
X1970224Y8510784D01*
X1970964Y8510890D01*
X1971703Y8510995D01*
X1973605Y8511524D01*
X1975613Y8512263D01*
X1976669Y8512792D01*
X1977726Y8513426D01*
X1978783Y8514165D01*
X1979734Y8515116D01*
X1980579Y8516067D01*
X1981424Y8517230D01*
Y8517335D01*
X1981636Y8517547D01*
X1981847Y8517969D01*
X1982058Y8518498D01*
X1982375Y8519237D01*
X1982692Y8520083D01*
X1983115Y8521034D01*
X1983538Y8522301D01*
X1983960Y8523675D01*
X1984277Y8525154D01*
X1984700Y8526845D01*
X1985017Y8528747D01*
X1985334Y8530755D01*
X1985545Y8532974D01*
X1985651Y8535404D01*
X1985757Y8537940D01*
Y8556642D01*
Y8556854D01*
Y8557276D01*
Y8558016D01*
X1985651Y8559073D01*
Y8560235D01*
X1985545Y8561608D01*
X1985440Y8563088D01*
X1985228Y8564778D01*
X1984806Y8568265D01*
X1984066Y8571752D01*
X1983538Y8573443D01*
X1983009Y8575028D01*
X1982375Y8576507D01*
X1981636Y8577881D01*
Y8577986D01*
X1981424Y8578198D01*
X1981213Y8578515D01*
X1980896Y8578937D01*
X1979945Y8579994D01*
X1978571Y8581262D01*
X1977726Y8581896D01*
X1976775Y8582530D01*
X1975718Y8583058D01*
X1974556Y8583587D01*
X1973182Y8584009D01*
X1971809Y8584326D01*
X1970330Y8584538D01*
X1968745Y8584643D01*
D02*
G37*
G36*
X1702788D02*
X1701943D01*
X1701309Y8584538D01*
X1700675Y8584432D01*
X1699830Y8584326D01*
X1697928Y8583798D01*
X1695814Y8583058D01*
X1694758Y8582530D01*
X1693701Y8581790D01*
X1692645Y8581051D01*
X1691588Y8580205D01*
X1690743Y8579149D01*
X1689897Y8577986D01*
Y8577881D01*
X1689686Y8577669D01*
X1689580Y8577247D01*
X1689263Y8576718D01*
X1688946Y8575979D01*
X1688629Y8575133D01*
X1688207Y8574182D01*
X1687890Y8572915D01*
X1687467Y8571647D01*
X1687150Y8570062D01*
X1686833Y8568371D01*
X1686516Y8566575D01*
X1686199Y8564567D01*
X1685988Y8562454D01*
X1685882Y8560129D01*
X1685776Y8557593D01*
Y8539208D01*
Y8538996D01*
Y8538574D01*
Y8537834D01*
X1685882Y8536777D01*
Y8535615D01*
X1685988Y8534242D01*
X1686093Y8532657D01*
X1686305Y8531072D01*
X1686833Y8527585D01*
X1687573Y8523992D01*
X1687995Y8522196D01*
X1688629Y8520611D01*
X1689263Y8519026D01*
X1690003Y8517652D01*
X1690109Y8517547D01*
X1690214Y8517335D01*
X1690426Y8517018D01*
X1690848Y8516596D01*
X1691799Y8515433D01*
X1693279Y8514165D01*
X1695075Y8512897D01*
X1697294Y8511735D01*
X1698562Y8511312D01*
X1699935Y8510995D01*
X1701309Y8510784D01*
X1702894Y8510678D01*
X1703739D01*
X1704268Y8510784D01*
X1705007Y8510890D01*
X1705747Y8510995D01*
X1707649Y8511524D01*
X1709656Y8512263D01*
X1710713Y8512792D01*
X1711770Y8513426D01*
X1712826Y8514165D01*
X1713777Y8515116D01*
X1714623Y8516067D01*
X1715468Y8517230D01*
Y8517335D01*
X1715679Y8517547D01*
X1715891Y8517969D01*
X1716102Y8518498D01*
X1716419Y8519237D01*
X1716736Y8520083D01*
X1717159Y8521034D01*
X1717581Y8522301D01*
X1718004Y8523675D01*
X1718321Y8525154D01*
X1718744Y8526845D01*
X1719061Y8528747D01*
X1719378Y8530755D01*
X1719589Y8532974D01*
X1719695Y8535404D01*
X1719800Y8537940D01*
Y8556642D01*
Y8556854D01*
Y8557276D01*
Y8558016D01*
X1719695Y8559073D01*
Y8560235D01*
X1719589Y8561608D01*
X1719483Y8563088D01*
X1719272Y8564778D01*
X1718849Y8568265D01*
X1718110Y8571752D01*
X1717581Y8573443D01*
X1717053Y8575028D01*
X1716419Y8576507D01*
X1715679Y8577881D01*
Y8577986D01*
X1715468Y8578198D01*
X1715257Y8578515D01*
X1714940Y8578937D01*
X1713989Y8579994D01*
X1712615Y8581262D01*
X1711770Y8581896D01*
X1710819Y8582530D01*
X1709762Y8583058D01*
X1708600Y8583587D01*
X1707226Y8584009D01*
X1705853Y8584326D01*
X1704373Y8584538D01*
X1702788Y8584643D01*
D02*
G37*
G36*
X1537952Y8584643D02*
X1537107D01*
X1536473Y8584537D01*
X1535839Y8584432D01*
X1534994Y8584326D01*
X1533092Y8583798D01*
X1530979Y8583058D01*
X1529922Y8582530D01*
X1528865Y8581790D01*
X1527809Y8581050D01*
X1526752Y8580205D01*
X1525907Y8579148D01*
X1525061Y8577986D01*
Y8577880D01*
X1524850Y8577669D01*
X1524744Y8577246D01*
X1524427Y8576718D01*
X1524110Y8575979D01*
X1523793Y8575133D01*
X1523371Y8574182D01*
X1523054Y8572914D01*
X1522631Y8571646D01*
X1522314Y8570061D01*
X1521997Y8568371D01*
X1521680Y8566574D01*
X1521363Y8564567D01*
X1521152Y8562454D01*
X1521046Y8560129D01*
X1520941Y8557593D01*
Y8539207D01*
Y8538996D01*
Y8538573D01*
Y8537834D01*
X1521046Y8536777D01*
Y8535615D01*
X1521152Y8534241D01*
X1521258Y8532656D01*
X1521469Y8531071D01*
X1521997Y8527584D01*
X1522737Y8523992D01*
X1523160Y8522196D01*
X1523793Y8520611D01*
X1524427Y8519026D01*
X1525167Y8517652D01*
X1525273Y8517546D01*
X1525378Y8517335D01*
X1525590Y8517018D01*
X1526012Y8516595D01*
X1526963Y8515433D01*
X1528443Y8514165D01*
X1530239Y8512897D01*
X1532458Y8511735D01*
X1533726Y8511312D01*
X1535100Y8510995D01*
X1536473Y8510784D01*
X1538058Y8510678D01*
X1538903D01*
X1539432Y8510784D01*
X1540171Y8510890D01*
X1540911Y8510995D01*
X1542813Y8511523D01*
X1544821Y8512263D01*
X1545877Y8512791D01*
X1546934Y8513425D01*
X1547991Y8514165D01*
X1548942Y8515116D01*
X1549787Y8516067D01*
X1550632Y8517229D01*
Y8517335D01*
X1550843Y8517546D01*
X1551055Y8517969D01*
X1551266Y8518497D01*
X1551583Y8519237D01*
X1551900Y8520082D01*
X1552323Y8521033D01*
X1552745Y8522301D01*
X1553168Y8523675D01*
X1553485Y8525154D01*
X1553908Y8526845D01*
X1554225Y8528747D01*
X1554542Y8530754D01*
X1554753Y8532973D01*
X1554859Y8535404D01*
X1554964Y8537939D01*
Y8556642D01*
Y8556853D01*
Y8557276D01*
Y8558016D01*
X1554859Y8559072D01*
Y8560235D01*
X1554753Y8561608D01*
X1554647Y8563088D01*
X1554436Y8564778D01*
X1554013Y8568265D01*
X1553274Y8571752D01*
X1552745Y8573443D01*
X1552217Y8575028D01*
X1551583Y8576507D01*
X1550843Y8577880D01*
Y8577986D01*
X1550632Y8578197D01*
X1550421Y8578514D01*
X1550104Y8578937D01*
X1549153Y8579994D01*
X1547779Y8581262D01*
X1546934Y8581896D01*
X1545983Y8582530D01*
X1544926Y8583058D01*
X1543764Y8583586D01*
X1542390Y8584009D01*
X1541017Y8584326D01*
X1539537Y8584537D01*
X1537952Y8584643D01*
D02*
G37*
G36*
X1433345D02*
X1432500D01*
X1431866Y8584537D01*
X1431232Y8584432D01*
X1430387Y8584326D01*
X1428485Y8583798D01*
X1426371Y8583058D01*
X1425315Y8582530D01*
X1424258Y8581790D01*
X1423201Y8581050D01*
X1422145Y8580205D01*
X1421299Y8579148D01*
X1420454Y8577986D01*
Y8577880D01*
X1420243Y8577669D01*
X1420137Y8577246D01*
X1419820Y8576718D01*
X1419503Y8575979D01*
X1419186Y8575133D01*
X1418763Y8574182D01*
X1418446Y8572914D01*
X1418024Y8571646D01*
X1417707Y8570061D01*
X1417390Y8568371D01*
X1417073Y8566574D01*
X1416756Y8564567D01*
X1416545Y8562454D01*
X1416439Y8560129D01*
X1416333Y8557593D01*
Y8539207D01*
Y8538996D01*
Y8538573D01*
Y8537834D01*
X1416439Y8536777D01*
Y8535615D01*
X1416545Y8534241D01*
X1416650Y8532656D01*
X1416862Y8531071D01*
X1417390Y8527584D01*
X1418129Y8523992D01*
X1418552Y8522196D01*
X1419186Y8520611D01*
X1419820Y8519026D01*
X1420560Y8517652D01*
X1420665Y8517546D01*
X1420771Y8517335D01*
X1420982Y8517018D01*
X1421405Y8516595D01*
X1422356Y8515433D01*
X1423835Y8514165D01*
X1425632Y8512897D01*
X1427851Y8511735D01*
X1429119Y8511312D01*
X1430492Y8510995D01*
X1431866Y8510784D01*
X1433451Y8510678D01*
X1434296D01*
X1434824Y8510784D01*
X1435564Y8510890D01*
X1436304Y8510995D01*
X1438206Y8511523D01*
X1440213Y8512263D01*
X1441270Y8512791D01*
X1442327Y8513425D01*
X1443383Y8514165D01*
X1444334Y8515116D01*
X1445179Y8516067D01*
X1446025Y8517229D01*
Y8517335D01*
X1446236Y8517546D01*
X1446447Y8517969D01*
X1446659Y8518497D01*
X1446976Y8519237D01*
X1447293Y8520082D01*
X1447715Y8521033D01*
X1448138Y8522301D01*
X1448561Y8523675D01*
X1448878Y8525154D01*
X1449300Y8526845D01*
X1449617Y8528747D01*
X1449934Y8530754D01*
X1450146Y8532973D01*
X1450251Y8535404D01*
X1450357Y8537939D01*
Y8556642D01*
Y8556853D01*
Y8557276D01*
Y8558016D01*
X1450251Y8559072D01*
Y8560235D01*
X1450146Y8561608D01*
X1450040Y8563088D01*
X1449829Y8564778D01*
X1449406Y8568265D01*
X1448666Y8571752D01*
X1448138Y8573443D01*
X1447610Y8575028D01*
X1446976Y8576507D01*
X1446236Y8577880D01*
Y8577986D01*
X1446025Y8578197D01*
X1445813Y8578514D01*
X1445496Y8578937D01*
X1444545Y8579994D01*
X1443172Y8581262D01*
X1442327Y8581896D01*
X1441376Y8582530D01*
X1440319Y8583058D01*
X1439157Y8583586D01*
X1437783Y8584009D01*
X1436409Y8584326D01*
X1434930Y8584537D01*
X1433345Y8584643D01*
D02*
G37*
G36*
X1043973Y8561503D02*
X1042071D01*
X1041543Y8561397D01*
X1041015D01*
X1040275Y8561291D01*
X1038690Y8560869D01*
X1036894Y8560235D01*
X1034886Y8559389D01*
X1032984Y8558121D01*
X1032033Y8557276D01*
X1031082Y8556431D01*
Y8556325D01*
X1030871Y8556219D01*
X1030660Y8555902D01*
X1030343Y8555480D01*
X1029920Y8554951D01*
X1029603Y8554317D01*
X1029075Y8553578D01*
X1028652Y8552732D01*
X1028124Y8551781D01*
X1027595Y8550725D01*
X1026644Y8548295D01*
X1025905Y8545442D01*
X1025271Y8542272D01*
X1058872D01*
Y8543117D01*
Y8543223D01*
Y8543540D01*
X1058766Y8543962D01*
Y8544596D01*
X1058661Y8545336D01*
X1058449Y8546181D01*
X1058132Y8548083D01*
X1057498Y8550302D01*
X1056653Y8552521D01*
X1055491Y8554740D01*
X1054117Y8556642D01*
Y8556748D01*
X1053906Y8556853D01*
X1053377Y8557382D01*
X1052426Y8558227D01*
X1051158Y8559072D01*
X1049468Y8559918D01*
X1047566Y8560763D01*
X1045241Y8561291D01*
X1043973Y8561503D01*
D02*
G37*
G36*
X965676Y8736069D02*
X951834D01*
Y8665380D01*
X964937D01*
X965676Y8665486D01*
X966522D01*
X967684Y8665592D01*
X969057Y8665803D01*
X970537Y8666120D01*
X972122Y8666437D01*
X973812Y8666859D01*
X975503Y8667493D01*
X977299Y8668127D01*
X979096Y8668973D01*
X980892Y8669924D01*
X982582Y8671086D01*
X984167Y8672354D01*
X985647Y8673833D01*
X985752Y8673939D01*
X985964Y8674256D01*
X986386Y8674679D01*
X986809Y8675418D01*
X987443Y8676264D01*
X988077Y8677426D01*
X988817Y8678694D01*
X989556Y8680067D01*
X990190Y8681758D01*
X990930Y8683554D01*
X991564Y8685562D01*
X992198Y8687781D01*
X992621Y8690106D01*
X993043Y8692641D01*
X993255Y8695389D01*
X993360Y8698242D01*
Y8703525D01*
Y8703736D01*
Y8704159D01*
Y8705004D01*
X993255Y8706061D01*
X993149Y8707329D01*
X992938Y8708808D01*
X992726Y8710499D01*
X992515Y8712295D01*
X991564Y8716099D01*
X991036Y8718001D01*
X990296Y8720008D01*
X989556Y8722016D01*
X988500Y8723812D01*
X987443Y8725609D01*
X986175Y8727299D01*
X986069Y8727405D01*
X985858Y8727722D01*
X985435Y8728145D01*
X984801Y8728673D01*
X984062Y8729307D01*
X983216Y8730047D01*
X982160Y8730786D01*
X980892Y8731632D01*
X979518Y8732371D01*
X978039Y8733216D01*
X976348Y8733956D01*
X974552Y8734590D01*
X972544Y8735224D01*
X970431Y8735647D01*
X968107Y8735964D01*
X965676Y8736069D01*
D02*
G37*
G36*
X1949619Y8714514D02*
X1947717D01*
X1947189Y8714409D01*
X1946661D01*
X1945921Y8714303D01*
X1944336Y8713880D01*
X1942540Y8713246D01*
X1940532Y8712401D01*
X1938630Y8711133D01*
X1937679Y8710288D01*
X1936728Y8709442D01*
Y8709337D01*
X1936517Y8709231D01*
X1936306Y8708914D01*
X1935989Y8708491D01*
X1935566Y8707963D01*
X1935249Y8707329D01*
X1934721Y8706589D01*
X1934298Y8705744D01*
X1933770Y8704793D01*
X1933241Y8703736D01*
X1932291Y8701306D01*
X1931551Y8698453D01*
X1930917Y8695283D01*
X1964518D01*
Y8696129D01*
Y8696234D01*
Y8696551D01*
X1964412Y8696974D01*
Y8697608D01*
X1964307Y8698348D01*
X1964095Y8699193D01*
X1963778Y8701095D01*
X1963144Y8703314D01*
X1962299Y8705533D01*
X1961137Y8707752D01*
X1959763Y8709654D01*
Y8709759D01*
X1959552Y8709865D01*
X1959024Y8710393D01*
X1958073Y8711239D01*
X1956805Y8712084D01*
X1955114Y8712929D01*
X1953212Y8713775D01*
X1950887Y8714303D01*
X1949619Y8714514D01*
D02*
G37*
G36*
X1578105Y8714514D02*
X1576203D01*
X1575675Y8714408D01*
X1575146D01*
X1574407Y8714303D01*
X1572822Y8713880D01*
X1571025Y8713246D01*
X1569018Y8712401D01*
X1567116Y8711133D01*
X1566165Y8710287D01*
X1565214Y8709442D01*
Y8709336D01*
X1565002Y8709231D01*
X1564791Y8708914D01*
X1564474Y8708491D01*
X1564051Y8707963D01*
X1563734Y8707329D01*
X1563206Y8706589D01*
X1562784Y8705744D01*
X1562255Y8704793D01*
X1561727Y8703736D01*
X1560776Y8701306D01*
X1560036Y8698453D01*
X1559402Y8695283D01*
X1593003D01*
Y8696128D01*
Y8696234D01*
Y8696551D01*
X1592898Y8696974D01*
Y8697608D01*
X1592792Y8698347D01*
X1592581Y8699193D01*
X1592264Y8701095D01*
X1591630Y8703314D01*
X1590784Y8705532D01*
X1589622Y8707751D01*
X1588249Y8709653D01*
Y8709759D01*
X1588037Y8709865D01*
X1587509Y8710393D01*
X1586558Y8711238D01*
X1585290Y8712084D01*
X1583599Y8712929D01*
X1581697Y8713774D01*
X1579373Y8714303D01*
X1578105Y8714514D01*
D02*
G37*
G36*
X1505514D02*
X1504668D01*
X1504140Y8714408D01*
X1503400Y8714303D01*
X1502555Y8714197D01*
X1500653Y8713669D01*
X1498434Y8712823D01*
X1497377Y8712295D01*
X1496215Y8711661D01*
X1495053Y8710816D01*
X1493996Y8709865D01*
X1492940Y8708808D01*
X1491883Y8707646D01*
X1491777Y8707540D01*
X1491672Y8707329D01*
X1491460Y8706906D01*
X1491038Y8706378D01*
X1490721Y8705744D01*
X1490298Y8704899D01*
X1489770Y8703842D01*
X1489347Y8702680D01*
X1488819Y8701412D01*
X1488396Y8699932D01*
X1487868Y8698347D01*
X1487551Y8696657D01*
X1487234Y8694755D01*
X1486917Y8692747D01*
X1486811Y8690634D01*
X1486705Y8688309D01*
Y8688204D01*
Y8687781D01*
Y8687253D01*
X1486811Y8686513D01*
Y8685562D01*
X1487022Y8684400D01*
X1487128Y8683237D01*
X1487339Y8681969D01*
X1487973Y8679116D01*
X1488819Y8676052D01*
X1490087Y8673199D01*
X1490932Y8671720D01*
X1491777Y8670452D01*
X1491883Y8670346D01*
X1491989Y8670135D01*
X1492306Y8669818D01*
X1492728Y8669395D01*
X1493257Y8668867D01*
X1493891Y8668339D01*
X1494630Y8667705D01*
X1495476Y8667071D01*
X1497483Y8665803D01*
X1499808Y8664746D01*
X1501181Y8664324D01*
X1502661Y8664007D01*
X1504140Y8663795D01*
X1505725Y8663690D01*
X1506570D01*
X1507204Y8663795D01*
X1507944Y8663901D01*
X1508789Y8664007D01*
X1510691Y8664535D01*
X1512910Y8665380D01*
X1514072Y8665909D01*
X1515129Y8666542D01*
X1516291Y8667282D01*
X1517454Y8668233D01*
X1518510Y8669290D01*
X1519461Y8670452D01*
X1519567Y8670558D01*
X1519673Y8670769D01*
X1519990Y8671192D01*
X1520307Y8671720D01*
X1520624Y8672460D01*
X1521152Y8673305D01*
X1521575Y8674256D01*
X1522103Y8675418D01*
X1522526Y8676686D01*
X1523054Y8678166D01*
X1523477Y8679750D01*
X1523793Y8681441D01*
X1524216Y8683343D01*
X1524427Y8685351D01*
X1524533Y8687464D01*
X1524639Y8689683D01*
Y8689789D01*
Y8690211D01*
Y8690740D01*
X1524533Y8691479D01*
Y8692430D01*
X1524322Y8693592D01*
X1524216Y8694755D01*
X1524005Y8696128D01*
X1523371Y8698981D01*
X1522420Y8701940D01*
X1521786Y8703419D01*
X1521152Y8704899D01*
X1520307Y8706272D01*
X1519356Y8707646D01*
X1519250Y8707751D01*
X1519144Y8707963D01*
X1518827Y8708280D01*
X1518405Y8708702D01*
X1517876Y8709231D01*
X1517242Y8709865D01*
X1516503Y8710393D01*
X1515657Y8711133D01*
X1513755Y8712295D01*
X1511325Y8713457D01*
X1510057Y8713880D01*
X1508578Y8714197D01*
X1507099Y8714408D01*
X1505514Y8714514D01*
D02*
G37*
G36*
X1048939D02*
X1047038D01*
X1046509Y8714408D01*
X1045981D01*
X1045241Y8714303D01*
X1043656Y8713880D01*
X1041860Y8713246D01*
X1039852Y8712401D01*
X1037950Y8711133D01*
X1036999Y8710287D01*
X1036048Y8709442D01*
Y8709336D01*
X1035837Y8709231D01*
X1035626Y8708914D01*
X1035309Y8708491D01*
X1034886Y8707963D01*
X1034569Y8707329D01*
X1034041Y8706589D01*
X1033618Y8705744D01*
X1033090Y8704793D01*
X1032562Y8703736D01*
X1031611Y8701306D01*
X1030871Y8698453D01*
X1030237Y8695283D01*
X1063838D01*
Y8696128D01*
Y8696234D01*
Y8696551D01*
X1063732Y8696974D01*
Y8697608D01*
X1063627Y8698347D01*
X1063415Y8699193D01*
X1063098Y8701095D01*
X1062464Y8703314D01*
X1061619Y8705532D01*
X1060457Y8707751D01*
X1059083Y8709653D01*
Y8709759D01*
X1058872Y8709865D01*
X1058344Y8710393D01*
X1057393Y8711238D01*
X1056125Y8712084D01*
X1054434Y8712929D01*
X1052532Y8713774D01*
X1050207Y8714303D01*
X1048939Y8714514D01*
D02*
G37*
G36*
X1211239Y8714197D02*
X1210394D01*
X1209866Y8714091D01*
X1209126Y8713986D01*
X1208386Y8713880D01*
X1206485Y8713352D01*
X1204371Y8712612D01*
X1203315Y8712084D01*
X1202152Y8711450D01*
X1201096Y8710710D01*
X1200039Y8709759D01*
X1199088Y8708808D01*
X1198137Y8707646D01*
Y8707540D01*
X1197926Y8707329D01*
X1197714Y8707012D01*
X1197397Y8706378D01*
X1197080Y8705744D01*
X1196658Y8704899D01*
X1196235Y8703948D01*
X1195812Y8702785D01*
X1195390Y8701517D01*
X1194967Y8700038D01*
X1194544Y8698453D01*
X1194227Y8696762D01*
X1193910Y8694860D01*
X1193699Y8692853D01*
X1193593Y8690634D01*
X1193488Y8688309D01*
Y8688204D01*
Y8687781D01*
Y8687253D01*
X1193593Y8686407D01*
Y8685456D01*
X1193699Y8684400D01*
X1193910Y8683132D01*
X1194122Y8681864D01*
X1194650Y8679011D01*
X1195495Y8676052D01*
X1196658Y8673199D01*
X1197292Y8671826D01*
X1198137Y8670558D01*
X1198243Y8670452D01*
X1198348Y8670241D01*
X1198665Y8669924D01*
X1198982Y8669607D01*
X1200039Y8668550D01*
X1201518Y8667388D01*
X1203315Y8666120D01*
X1205534Y8665169D01*
X1206801Y8664746D01*
X1208175Y8664429D01*
X1209654Y8664218D01*
X1211134Y8664112D01*
X1211662D01*
X1212190Y8664218D01*
X1212930D01*
X1213775Y8664429D01*
X1214832Y8664641D01*
X1215994Y8664958D01*
X1217157Y8665380D01*
X1218425Y8665909D01*
X1219693Y8666542D01*
X1221066Y8667282D01*
X1222334Y8668233D01*
X1223602Y8669395D01*
X1224870Y8670663D01*
X1225927Y8672248D01*
X1226983Y8673939D01*
Y8704582D01*
X1226878Y8704687D01*
X1226772Y8705004D01*
X1226455Y8705427D01*
X1226032Y8706061D01*
X1225398Y8706800D01*
X1224764Y8707646D01*
X1223919Y8708491D01*
X1223074Y8709442D01*
X1222017Y8710287D01*
X1220855Y8711133D01*
X1219481Y8711978D01*
X1218108Y8712718D01*
X1216628Y8713352D01*
X1214938Y8713774D01*
X1213141Y8714091D01*
X1211239Y8714197D01*
D02*
G37*
G36*
X1774549Y9110624D02*
X1747652D01*
Y9061791D01*
X1775693D01*
X1776647Y9061982D01*
X1778936Y9062173D01*
X1781797Y9062554D01*
X1785040Y9063317D01*
X1788283Y9064462D01*
X1791335Y9065988D01*
X1794196Y9068086D01*
X1794578Y9068468D01*
X1795341Y9069231D01*
X1796295Y9070757D01*
X1797630Y9072664D01*
X1798965Y9075335D01*
X1799919Y9078387D01*
X1800682Y9081820D01*
X1801063Y9085826D01*
Y9086017D01*
Y9086398D01*
Y9086971D01*
Y9087734D01*
X1800682Y9089832D01*
X1800300Y9092312D01*
X1799537Y9095364D01*
X1798393Y9098225D01*
X1796676Y9101277D01*
X1794578Y9103948D01*
X1794196Y9104329D01*
X1793433Y9105092D01*
X1791907Y9106046D01*
X1789618Y9107381D01*
X1786757Y9108526D01*
X1783323Y9109670D01*
X1779317Y9110433D01*
X1774549Y9110624D01*
D02*
G37*
G36*
X1257224Y9110624D02*
X1240628D01*
Y9001894D01*
X1258750D01*
X1260085Y9002085D01*
X1261802Y9002276D01*
X1263709Y9002657D01*
X1265808Y9003039D01*
X1268097Y9003420D01*
X1272866Y9004946D01*
X1275345Y9006091D01*
X1278016Y9007235D01*
X1280305Y9008761D01*
X1282785Y9010478D01*
X1284883Y9012386D01*
X1286981Y9014675D01*
X1287172Y9014865D01*
X1287363Y9015247D01*
X1287935Y9016010D01*
X1288698Y9016964D01*
X1289461Y9018299D01*
X1290224Y9020016D01*
X1291178Y9021923D01*
X1292323Y9024022D01*
X1293276Y9026501D01*
X1294230Y9029363D01*
X1295184Y9032224D01*
X1295947Y9035658D01*
X1296519Y9039091D01*
X1297091Y9043097D01*
X1297473Y9047103D01*
X1297664Y9051490D01*
Y9060074D01*
Y9060456D01*
Y9061219D01*
Y9062363D01*
X1297473Y9064080D01*
X1297282Y9066178D01*
X1297091Y9068658D01*
X1296901Y9071329D01*
X1296328Y9073999D01*
X1295184Y9080103D01*
X1293276Y9086398D01*
X1292132Y9089450D01*
X1290797Y9092312D01*
X1289270Y9095173D01*
X1287363Y9097653D01*
X1287172Y9097843D01*
X1286981Y9098225D01*
X1286218Y9098797D01*
X1285455Y9099751D01*
X1284311Y9100705D01*
X1282976Y9101849D01*
X1281450Y9102994D01*
X1279733Y9104138D01*
X1277634Y9105283D01*
X1275536Y9106618D01*
X1273056Y9107572D01*
X1270386Y9108526D01*
X1267334Y9109479D01*
X1264282Y9110052D01*
X1260848Y9110433D01*
X1257224Y9110624D01*
D02*
G37*
%LPD*%
D32*
X2783200Y945999D02*
X2834000D01*
X2326000Y1453999D02*
X2376800D01*
X2326000Y1403199D02*
Y1453999D01*
X2834000Y945999D02*
Y996799D01*
X2783200Y2195999D02*
X2834000D01*
X2326000Y2703999D02*
X2376800D01*
X2326000Y2653199D02*
Y2703999D01*
X2834000Y2195999D02*
Y2246799D01*
X2783200Y3445999D02*
X2834000D01*
X2326000Y3953999D02*
X2376800D01*
X2326000Y3903199D02*
Y3953999D01*
X2834000Y3445999D02*
Y3496799D01*
X2783200Y4695999D02*
X2834000D01*
X2326000Y5203999D02*
X2376800D01*
X2326000Y5153199D02*
Y5203999D01*
X2834000Y4695999D02*
Y4746799D01*
X2336500Y9324620D02*
Y10324620D01*
X83500D02*
X2336500D01*
X83500Y9324620D02*
Y10324620D01*
Y9324620D02*
X2336500D01*
X2550000Y9155000D02*
Y9485000D01*
Y9155000D02*
X2805000D01*
X3800000D02*
Y9485000D01*
X3545000Y9155000D02*
X3800000D01*
Y10165000D02*
Y10495000D01*
X3545000D02*
X3800000D01*
X2550000D02*
X2805000D01*
X2550000Y10165000D02*
Y10495000D01*
X1096000Y5204001D02*
X1146800D01*
X1553200Y4696001D02*
X1604000D01*
Y4746801D01*
X1096000Y5153201D02*
Y5204001D01*
Y1454000D02*
X1146800D01*
X1553200Y946000D02*
X1604000D01*
Y996800D01*
X1096000Y1403200D02*
Y1454000D01*
Y2704000D02*
X1146800D01*
X1553200Y2196000D02*
X1604000D01*
Y2246800D01*
X1096000Y2653200D02*
Y2704000D01*
Y3954000D02*
X1146800D01*
X1553200Y3446000D02*
X1604000D01*
Y3496800D01*
X1096000Y3903200D02*
Y3954000D01*
X2831999Y4125001D02*
Y5024999D01*
X2831999Y4125001D02*
X3882000D01*
X2831999Y5024999D02*
X3882000D01*
X3882000Y4125000D02*
Y5024999D01*
X2831999Y2875001D02*
Y3774999D01*
X2831999Y2875001D02*
X3882000D01*
X2831999Y3774999D02*
X3882000D01*
X3882000Y2875000D02*
Y3774999D01*
X2831999Y1625001D02*
Y2524999D01*
X2831999Y1625001D02*
X3882000D01*
X2831999Y2524999D02*
X3882000D01*
X3882000Y1625000D02*
Y2524999D01*
X2831999Y375001D02*
Y1274999D01*
X2831999Y375001D02*
X3882000D01*
X2831999Y1274999D02*
X3882000D01*
X3882000Y375000D02*
Y1274999D01*
X1098001Y4125001D02*
Y5024999D01*
X48000D02*
X1098001D01*
X48000Y4125001D02*
X1098001D01*
X48000D02*
Y5025000D01*
X1098001Y2875001D02*
Y3774999D01*
X48000D02*
X1098001D01*
X48000Y2875001D02*
X1098001D01*
X48000D02*
Y3775000D01*
X1098001Y1625001D02*
Y2524999D01*
X48000D02*
X1098001D01*
X48000Y1625001D02*
X1098001D01*
X48000D02*
Y2525000D01*
X1098001Y375001D02*
Y1274999D01*
X48000D02*
X1098001D01*
X48000Y375001D02*
X1098001D01*
X48000D02*
Y1275000D01*
X1515001Y5376999D02*
X2414999D01*
Y5376999D02*
Y6427000D01*
X1515001Y5376999D02*
Y6427000D01*
Y6427000D02*
X2415000D01*
D33*
X2427600Y1110000D02*
X2730000D01*
X2427600Y1290000D02*
X2730000D01*
X2565000Y1200000D02*
X2595000Y1225025D01*
X2565000Y1200000D02*
X2595000Y1175025D01*
Y1225025D01*
X2427600Y2360000D02*
X2730000D01*
X2427600Y2540000D02*
X2730000D01*
X2565000Y2450000D02*
X2595000Y2475025D01*
X2565000Y2450000D02*
X2595000Y2425025D01*
Y2475025D01*
X2427600Y3610000D02*
X2730000D01*
X2427600Y3790000D02*
X2730000D01*
X2565000Y3700000D02*
X2595000Y3725025D01*
X2565000Y3700000D02*
X2595000Y3675025D01*
Y3725025D01*
X2427600Y4860000D02*
X2730000D01*
X2427600Y5040000D02*
X2730000D01*
X2565000Y4950000D02*
X2595000Y4975025D01*
X2565000Y4950000D02*
X2595000Y4925025D01*
Y4975025D01*
X1200000Y5040000D02*
X1502400D01*
X1200000Y4860000D02*
X1502400D01*
X1335000Y4924975D02*
X1365000Y4950000D01*
X1335000Y4974975D02*
X1365000Y4950000D01*
X1335000Y4924975D02*
Y4974975D01*
X1200000Y1290000D02*
X1502400D01*
X1200000Y1110000D02*
X1502400D01*
X1335000Y1174975D02*
X1365000Y1200000D01*
X1335000Y1224975D02*
X1365000Y1200000D01*
X1335000Y1174975D02*
Y1224975D01*
X1200000Y2540000D02*
X1502400D01*
X1200000Y2360000D02*
X1502400D01*
X1335000Y2424975D02*
X1365000Y2450000D01*
X1335000Y2474975D02*
X1365000Y2450000D01*
X1335000Y2424975D02*
Y2474975D01*
X1200000Y3790000D02*
X1502400D01*
X1200000Y3610000D02*
X1502400D01*
X1335000Y3674975D02*
X1365000Y3700000D01*
X1335000Y3724975D02*
X1365000Y3700000D01*
X1335000Y3674975D02*
Y3724975D01*
D34*
X580002Y8890001D02*
D03*
D35*
X2583923Y1200481D02*
D03*
Y2450481D02*
D03*
Y3700481D02*
D03*
Y4950481D02*
D03*
X1346077Y4949519D02*
D03*
Y1199519D02*
D03*
Y2449519D02*
D03*
Y3699519D02*
D03*
%TF.MD5,39f84906ad92038dadca6c497dcf8b75*%
M02*
