M48
;Layer_Color=9474304
;FILE_FORMAT=4:4
METRIC,TZ
;TYPE=PLATED
T01F00S00C0.3000
T02F00S00C0.7100
T03F00S00C1.0200
T04F00S00C1.2000
%
T01
X97000Y92000
X137000Y84000
X126454Y119725
X158093Y118843
X157450Y164550
X137454Y153725
X98000Y147000
Y190000
X98000Y201156
X67000Y215000
Y230000
X49000Y251000
X128455Y254196
X141000Y255000
X157000Y241000
X157053Y231000
X129000Y229000
X186000Y215000
Y208000
X244000Y204000
Y190000
Y218000
Y232000
Y246000
X286000Y247000
X321000
Y267000
X334000
X356000
X369000
X356000Y247000
X346000Y197000
X335000Y187000
X312000Y197000
X299000Y187000
X282020Y197000
X301000Y147000
X287000Y119000
X278000
X234407Y119157
X204000Y132000
Y157000
Y106000
X295000Y92000
X369000Y187000
X357000Y326000
X322000
X337000Y387000
X216000Y358000
X203000Y362000
X209597Y346597
X204000Y290000
X205000Y272000
Y255000
X191000Y396000
X192454Y411725
X251000Y407000
X253000Y417000
X261000Y437000
X251000Y479000
X226000Y482000
X227000Y473000
X215000Y495000
X203000Y511000
X197000Y520000
X191000Y485000
X184000Y477000
X172000Y469000
X164000Y472000
X161695Y479501
X142000Y486000
X139000Y513000
X131000
X147773Y519227
X147000Y537000
X155000Y532000
X163000Y529000
X130000Y537000
X105000Y526000
Y550000
X124000Y580000
X134000Y603000
X124000Y616000
X134000Y638000
X124000Y651000
X151000Y654000
X134000Y673000
X163000Y680000
X209000Y678000
Y687000
X230000Y678000
Y643000
X212000Y639000
X182000Y640000
X209000Y586000
X219000
X237000Y524000
X245000
X268000Y526000
X262227Y502227
X312191Y497809
X325809Y430809
X363000Y411000
Y397000
X372000Y404000
X106000Y433000
X117000Y446000
X128000Y458000
X111000Y505000
X67000Y526000
X72000Y621000
Y656000
X81000Y683000
X49000Y783000
X24000Y784000
X9000Y798000
X29000Y815000
X27500Y907500
X17500
Y917500
X27500
X37500
Y907500
X47500
Y917500
Y927500
Y937500
X37500
X27500
Y927500
X17500
Y937500
Y947500
Y957500
Y967500
X27500
Y957500
Y947500
X37500
X47500
Y957500
Y967500
X37500
Y957500
Y927500
X140000Y895000
X139000Y961000
X152000Y965000
X170000
X192000Y981000
X233000Y979000
X242000Y955000
X232000Y912000
X234000Y840000
X265000Y839000
X280000
Y866000
X265000
Y1011000
X281000
Y1039000
X265000
X154000Y1041000
Y1029000
X126000
Y1041000
X128000Y815000
X140000Y822000
X114000Y802000
Y794000
T02
X25600Y93000
X51000
X76400
Y146000
X51000
X25600
X316600
X342000
X367400
Y93000
X342000
X316600
T03
X145700Y17300
X171100
X196500
X221900
X247300
Y42700
X221900
X196500
X171100
X145700
X42700Y549200
Y574600
Y600000
Y625400
Y650800
X17300
Y625400
Y600000
Y574600
Y549200
X350300
X375700
Y574600
Y600000
Y625400
Y650800
X350300
Y625400
Y600000
Y574600
Y511400
Y486000
Y460600
X375700
Y486000
Y511400
T04
X329600Y885900
X355000
Y911300
X329600
Y936700
X355000
Y962100
X329600
Y987500
X355000
M30
