%TF.GenerationSoftware,Altium Limited,Altium Designer,24.6.1 (21)*%
G04 Layer_Color=32896*
%FSLAX45Y45*%
%MOMM*%
%TF.SameCoordinates,FEC14C44-D625-4E92-8207-BAE4E8E866B2*%
%TF.FilePolarity,Positive*%
%TF.FileFunction,Other,Bottom_Component_Center*%
%TF.Part,Single*%
G01*
G75*
%TA.AperFunction,NonConductor*%
%ADD60C,0.10000*%
%ADD92C,0.05000*%
D60*
X1514643Y4065354D02*
X1585356Y3994646D01*
X1514643D02*
X1585356Y4065354D01*
X1134643Y4255354D02*
X1205357Y4184645D01*
X1134643D02*
X1205357Y4255353D01*
X1909999Y1190000D02*
X2009999D01*
X1960001Y1140003D02*
Y1240003D01*
X1900002Y2849999D02*
Y2949999D01*
X1850000Y2900002D02*
X1950000D01*
X1139998Y2329998D02*
Y2429998D01*
X1090000Y2380000D02*
X1190000D01*
X1915003Y6689999D02*
X2015002D01*
X1965000Y6640002D02*
Y6740002D01*
X925002Y9325000D02*
Y9425000D01*
X875000Y9374998D02*
X974999D01*
X1090002Y2539999D02*
X1190002D01*
X1139999Y2490002D02*
Y2590002D01*
X2100504Y7449993D02*
Y7549993D01*
X2050506Y7499990D02*
X2150506D01*
D92*
X3630000Y3990000D02*
Y4089999D01*
X3579998Y4040002D02*
X3679998D01*
%TF.MD5,ddf89df8328c5fe74e372ccfb3ab0240*%
M02*
