%TF.GenerationSoftware,Altium Limited,Altium Designer,24.6.1 (21)*%
G04 Layer_Physical_Order=3*
G04 Layer_Color=16440176*
%FSLAX45Y45*%
%MOMM*%
%TF.SameCoordinates,FEC14C44-D625-4E92-8207-BAE4E8E866B2*%
%TF.FilePolarity,Positive*%
%TF.FileFunction,Copper,L3,Inr,Signal*%
%TF.Part,Single*%
G01*
G75*
%TA.AperFunction,ComponentPad*%
%ADD11C,1.75000*%
%ADD12C,1.21000*%
%ADD13R,1.21000X1.21000*%
%ADD14C,1.83500*%
%TA.AperFunction,ViaPad*%
%ADD15C,0.60000*%
%TA.AperFunction,Conductor*%
%ADD16C,0.50000*%
%ADD17C,1.00000*%
G36*
X525000Y9025000D02*
X130000D01*
Y9725000D01*
X525000D01*
Y9025000D01*
D02*
G37*
G36*
X1200000Y8080000D02*
X1210000D01*
X2390000Y6900000D01*
Y6740000D01*
X2310000Y6660000D01*
X2120000D01*
X1160000Y7620000D01*
X880000Y7340000D01*
Y3130000D01*
X1370000Y2640000D01*
Y2565012D01*
X1367300Y2558493D01*
Y2541506D01*
X1370000Y2534988D01*
Y1579950D01*
X1366051D01*
X1350357Y1573449D01*
X1338345Y1561438D01*
X1331844Y1545744D01*
Y1528757D01*
X1338345Y1513063D01*
X1350357Y1501051D01*
X1366051Y1494550D01*
X1370000D01*
Y1270000D01*
X1660000Y980000D01*
X2270000Y980000D01*
X2780000Y1490000D01*
X2780000Y2000000D01*
X3140000Y2360000D01*
Y2690000D01*
X3190000Y2740000D01*
X3560000Y2740000D01*
X3610000Y2690000D01*
Y2590000D01*
X3500000Y2480000D01*
Y1920000D01*
X3113202Y1533202D01*
X3092798D01*
Y1512798D01*
X3064117Y1484117D01*
X3049136Y1487097D01*
X3046199Y1494188D01*
X3034187Y1506199D01*
X3018494Y1512700D01*
X3001507D01*
X2985813Y1506199D01*
X2973801Y1494188D01*
X2967300Y1478494D01*
Y1461507D01*
X2973801Y1445813D01*
X2985813Y1433801D01*
X2992903Y1430864D01*
X2995883Y1415883D01*
X2805193Y1225193D01*
X2804187Y1226199D01*
X2788494Y1232700D01*
X2771507D01*
X2755813Y1226199D01*
X2743801Y1214187D01*
X2737300Y1198493D01*
Y1181506D01*
X2743801Y1165813D01*
X2744807Y1164807D01*
X2350000Y770000D01*
X1530000D01*
X1130000Y1170000D01*
Y2540000D01*
X620000Y3050000D01*
Y5235944D01*
X632700Y5238470D01*
X633801Y5235812D01*
X645813Y5223801D01*
X661506Y5217300D01*
X678493D01*
X694187Y5223801D01*
X706199Y5235812D01*
X712700Y5251506D01*
Y5268493D01*
X706199Y5284187D01*
X694187Y5296199D01*
X678493Y5302700D01*
X661506D01*
X645813Y5296199D01*
X633801Y5284187D01*
X632700Y5281530D01*
X620000Y5284056D01*
Y6380000D01*
X20391D01*
Y7040391D01*
X1060000Y8080000D01*
X1200000D01*
Y8080000D01*
D02*
G37*
%LPC*%
G36*
X186191Y6608198D02*
X182999D01*
Y6517998D01*
X273199D01*
Y6521190D01*
X266371Y6546674D01*
X253179Y6569522D01*
X234524Y6588178D01*
X211675Y6601370D01*
X186191Y6608198D01*
D02*
G37*
G36*
X162999D02*
X159808D01*
X134324Y6601370D01*
X111475Y6588178D01*
X92819Y6569522D01*
X79628Y6546674D01*
X72799Y6521190D01*
Y6517998D01*
X162999D01*
Y6608198D01*
D02*
G37*
G36*
X440191D02*
X413808D01*
X388324Y6601370D01*
X365475Y6588178D01*
X346819Y6569522D01*
X333628Y6546674D01*
X326799Y6521190D01*
Y6494807D01*
X333628Y6469322D01*
X346819Y6446474D01*
X365475Y6427818D01*
X388324Y6414627D01*
X413808Y6407798D01*
X440191D01*
X465675Y6414627D01*
X488524Y6427818D01*
X507179Y6446474D01*
X520371Y6469322D01*
X527199Y6494807D01*
Y6521190D01*
X520371Y6546674D01*
X507179Y6569522D01*
X488524Y6588178D01*
X465675Y6601370D01*
X440191Y6608198D01*
D02*
G37*
G36*
X273199Y6497998D02*
X182999D01*
Y6407798D01*
X186191D01*
X211675Y6414627D01*
X234524Y6427818D01*
X253179Y6446474D01*
X266371Y6469322D01*
X273199Y6494807D01*
Y6497998D01*
D02*
G37*
G36*
X162999D02*
X72799D01*
Y6494807D01*
X79628Y6469322D01*
X92819Y6446474D01*
X111475Y6427818D01*
X134324Y6414627D01*
X159808Y6407798D01*
X162999D01*
Y6497998D01*
D02*
G37*
G36*
X3348493Y2712700D02*
X3331506D01*
X3315813Y2706199D01*
X3303801Y2694187D01*
X3297300Y2678493D01*
Y2661506D01*
X3303801Y2645813D01*
X3315813Y2633801D01*
X3331506Y2627300D01*
X3348493D01*
X3364187Y2633801D01*
X3376199Y2645813D01*
X3382700Y2661506D01*
Y2678493D01*
X3376199Y2694187D01*
X3364187Y2706199D01*
X3348493Y2712700D01*
D02*
G37*
G36*
X3218493Y2512700D02*
X3201506D01*
X3185813Y2506199D01*
X3173801Y2494187D01*
X3167300Y2478493D01*
Y2461506D01*
X3173801Y2445812D01*
X3185813Y2433801D01*
X3201506Y2427300D01*
X3218493D01*
X3234187Y2433801D01*
X3246199Y2445812D01*
X3252700Y2461506D01*
Y2478493D01*
X3246199Y2494187D01*
X3234187Y2506199D01*
X3218493Y2512700D01*
D02*
G37*
G36*
X1298493Y2332700D02*
X1281506D01*
X1265813Y2326199D01*
X1253801Y2314187D01*
X1247300Y2298493D01*
Y2281506D01*
X1253801Y2265813D01*
X1265813Y2253801D01*
X1281506Y2247300D01*
X1298493D01*
X1314187Y2253801D01*
X1326199Y2265813D01*
X1332700Y2281506D01*
Y2298493D01*
X1326199Y2314187D01*
X1314187Y2326199D01*
X1298493Y2332700D01*
D02*
G37*
G36*
X3358493Y1912700D02*
X3341506D01*
X3325812Y1906199D01*
X3313801Y1894187D01*
X3307300Y1878494D01*
Y1861507D01*
X3313801Y1845813D01*
X3325812Y1833801D01*
X3341506Y1827300D01*
X3358493D01*
X3374187Y1833801D01*
X3386199Y1845813D01*
X3392700Y1861507D01*
Y1878494D01*
X3386199Y1894187D01*
X3374187Y1906199D01*
X3358493Y1912700D01*
D02*
G37*
G36*
X2998494D02*
X2981507D01*
X2965813Y1906199D01*
X2953801Y1894187D01*
X2947300Y1878494D01*
Y1861507D01*
X2953801Y1845813D01*
X2965813Y1833801D01*
X2981507Y1827300D01*
X2998494D01*
X3014188Y1833801D01*
X3026199Y1845813D01*
X3032700Y1861507D01*
Y1878494D01*
X3026199Y1894187D01*
X3014188Y1906199D01*
X2998494Y1912700D01*
D02*
G37*
G36*
X1273038Y1239951D02*
X1256051D01*
X1240357Y1233450D01*
X1228345Y1221438D01*
X1221844Y1205744D01*
Y1188757D01*
X1228345Y1173063D01*
X1240357Y1161052D01*
X1256051Y1154551D01*
X1273038D01*
X1288732Y1161052D01*
X1300743Y1173063D01*
X1307244Y1188757D01*
Y1205744D01*
X1300743Y1221438D01*
X1288732Y1233450D01*
X1273038Y1239951D01*
D02*
G37*
%LPD*%
D11*
X3503000Y5114000D02*
D03*
Y4860000D02*
D03*
Y4606000D02*
D03*
X3757000D02*
D03*
Y4860000D02*
D03*
Y5114000D02*
D03*
X426999Y5491998D02*
D03*
Y5745998D02*
D03*
X2473000Y172999D02*
D03*
X2219000D02*
D03*
X1965000D02*
D03*
X1711000D02*
D03*
X1457000D02*
D03*
Y426999D02*
D03*
X1711000D02*
D03*
X1965000D02*
D03*
X2219000D02*
D03*
X2473000D02*
D03*
X426999Y6507998D02*
D03*
Y6253998D02*
D03*
Y5999998D02*
D03*
X172999Y5491998D02*
D03*
Y5745998D02*
D03*
Y5999998D02*
D03*
Y6253998D02*
D03*
Y6507998D02*
D03*
X3757000D02*
D03*
Y6253998D02*
D03*
Y5999998D02*
D03*
Y5745998D02*
D03*
Y5491998D02*
D03*
X3503000D02*
D03*
Y5745998D02*
D03*
Y5999998D02*
D03*
Y6253998D02*
D03*
Y6507998D02*
D03*
D12*
X3673998Y1460002D02*
D03*
X3419998D02*
D03*
X3673998Y930001D02*
D03*
X3419998D02*
D03*
X256002Y1460002D02*
D03*
X510002D02*
D03*
X256002Y930001D02*
D03*
X510002D02*
D03*
D13*
X3165998Y1460002D02*
D03*
Y930001D02*
D03*
X764002Y1460002D02*
D03*
Y930001D02*
D03*
D14*
X3296001Y8859002D02*
D03*
X3550001D02*
D03*
X3296001Y9113002D02*
D03*
X3550001D02*
D03*
Y9367002D02*
D03*
X3296001Y9621002D02*
D03*
X3550001D02*
D03*
X3296001Y9875002D02*
D03*
X3550001D02*
D03*
X3296001Y9367002D02*
D03*
D15*
X2090000Y6780000D02*
D03*
Y6870000D02*
D03*
X2340000Y8400000D02*
D03*
X1520000Y9650000D02*
D03*
X1700000D02*
D03*
X1920000Y9810000D02*
D03*
X3720000Y4040000D02*
D03*
X3630000Y4110000D02*
D03*
Y3970000D02*
D03*
X3370000Y3870000D02*
D03*
X240000Y7840000D02*
D03*
X2810000Y10110000D02*
D03*
Y10390000D02*
D03*
X2650000Y10110000D02*
D03*
Y10390000D02*
D03*
X1260000Y10290000D02*
D03*
Y10410000D02*
D03*
X1540000D02*
D03*
Y10290000D02*
D03*
X1390000Y9610000D02*
D03*
X2420000Y9550000D02*
D03*
X2320000Y9120000D02*
D03*
X2800000Y8660000D02*
D03*
X2650000D02*
D03*
X2800000Y8390000D02*
D03*
X2650000D02*
D03*
X90000Y7980000D02*
D03*
X1400000Y8220000D02*
D03*
X1280000Y8150000D02*
D03*
X2300000Y6430000D02*
D03*
X1630000Y6800000D02*
D03*
X2120000Y6390000D02*
D03*
X1050000Y5500000D02*
D03*
Y5260000D02*
D03*
X670000D02*
D03*
X1300000Y5370000D02*
D03*
X1470000D02*
D03*
X2510000Y4790000D02*
D03*
X2680000Y5260000D02*
D03*
X2510000Y4070000D02*
D03*
X2610000Y4370000D02*
D03*
X1924544Y4117251D02*
D03*
X1840000Y4770000D02*
D03*
X1280000Y4580000D02*
D03*
X1170000Y4460000D02*
D03*
X1910000Y3960000D02*
D03*
X980001Y2011561D02*
D03*
X2870000Y1190000D02*
D03*
X1374544Y1537250D02*
D03*
X1370000Y840000D02*
D03*
X1264544Y1197251D02*
D03*
X970000Y920000D02*
D03*
X980000Y1470000D02*
D03*
X3010000D02*
D03*
X2950000Y920000D02*
D03*
X2780000Y1190000D02*
D03*
X1290000Y2290000D02*
D03*
X1860000Y2080000D02*
D03*
Y2150000D02*
D03*
X2050000Y2720000D02*
D03*
Y2550000D02*
D03*
X1410000D02*
D03*
X980000Y1900000D02*
D03*
X670000Y2150000D02*
D03*
Y2300000D02*
D03*
X490000Y2510000D02*
D03*
X1140000Y8020000D02*
D03*
Y7940000D02*
D03*
X2860000Y2470000D02*
D03*
X2440000Y2040000D02*
D03*
X2040000Y1570000D02*
D03*
X2095968Y3465968D02*
D03*
X2090000Y5860000D02*
D03*
X2160000Y3580000D02*
D03*
X2190000Y5860000D02*
D03*
X2150000Y4950000D02*
D03*
X2040000Y2900000D02*
D03*
X2030000Y5110000D02*
D03*
Y3620000D02*
D03*
X1820000Y6400000D02*
D03*
X1910000Y4850000D02*
D03*
X2300000Y6780000D02*
D03*
X1340000Y6730000D02*
D03*
X2820200Y1970000D02*
D03*
X1630000Y5290000D02*
D03*
X1550000Y5320000D02*
D03*
X2440000Y2460000D02*
D03*
X1390000Y5130000D02*
D03*
X1310000D02*
D03*
X1110000Y5050000D02*
D03*
X1284546Y2541961D02*
D03*
X3120000Y1970000D02*
D03*
X2330000Y9790000D02*
D03*
X1400002Y8950000D02*
D03*
X2440000Y1900000D02*
D03*
X2990000Y1870000D02*
D03*
X3350000D02*
D03*
X3690000D02*
D03*
X1970000Y5200000D02*
D03*
X1420000Y4860000D02*
D03*
X1616949Y4795014D02*
D03*
X1640000Y4720000D02*
D03*
X1720000Y4690000D02*
D03*
X1477729Y5192271D02*
D03*
X2370000Y5240000D02*
D03*
X2260000Y4820000D02*
D03*
X2270000Y4730000D02*
D03*
X2450000Y5240000D02*
D03*
X3121913Y4978087D02*
D03*
X2622270Y5022271D02*
D03*
X3220000Y3260000D02*
D03*
X1060000Y4330000D02*
D03*
X2530000Y4170000D02*
D03*
X3258087Y4308087D02*
D03*
X1570529Y2310000D02*
D03*
X1570000Y2410000D02*
D03*
X1240000Y5800000D02*
D03*
Y6160000D02*
D03*
Y6510000D02*
D03*
X1340000Y6380000D02*
D03*
Y6030000D02*
D03*
X720000Y6210000D02*
D03*
X2440000Y2180000D02*
D03*
Y2320000D02*
D03*
X3560000Y2470000D02*
D03*
X3690000Y2670000D02*
D03*
X3560000D02*
D03*
X3210000D02*
D03*
X1510000Y6540000D02*
D03*
X720000Y6560000D02*
D03*
X810000Y6830000D02*
D03*
X3570000Y3260000D02*
D03*
X3460000Y1970000D02*
D03*
X3340000Y2670000D02*
D03*
X3210000Y2470000D02*
D03*
X290000Y8150000D02*
D03*
X2040000Y1320000D02*
D03*
X1574500Y1645500D02*
D03*
X2040000Y1060000D02*
D03*
X2344066Y1191572D02*
D03*
X1580929Y1188429D02*
D03*
X490000Y7830000D02*
D03*
X175001Y9074998D02*
D03*
X275001D02*
D03*
X375001D02*
D03*
X475000D02*
D03*
Y9174998D02*
D03*
X375001D02*
D03*
X275001D02*
D03*
X175001D02*
D03*
Y9475003D02*
D03*
X475000D02*
D03*
X375001D02*
D03*
X175001Y9675002D02*
D03*
X475000D02*
D03*
X275001Y9575002D02*
D03*
X175001D02*
D03*
X275001Y9475003D02*
D03*
X475000Y9575002D02*
D03*
X375001Y9675002D02*
D03*
X275001D02*
D03*
X375001Y9575002D02*
D03*
X475000Y9374998D02*
D03*
X275001Y9274998D02*
D03*
Y9374998D02*
D03*
X175001D02*
D03*
Y9274998D02*
D03*
X375001D02*
D03*
Y9374998D02*
D03*
X475000Y9274998D02*
D03*
D16*
X2340000Y7270000D02*
Y8400000D01*
Y7270000D02*
X2880000Y6730000D01*
X2680000Y2680000D02*
X2880000Y2880000D01*
X2344066Y1191572D02*
X2680000Y1527505D01*
Y2680000D01*
X2108429Y1188429D02*
X2570000Y1650000D01*
Y2720000D02*
X2770000Y2920000D01*
X2570000Y1650000D02*
Y2720000D01*
X2770000Y2920000D02*
Y6680000D01*
X2260000Y7190000D02*
X2770000Y6680000D01*
X2880000Y2880000D02*
Y6730000D01*
X1400002Y8950000D02*
X2260000Y8090002D01*
Y7190000D02*
Y8090002D01*
X1580929Y1188429D02*
X2108429D01*
D17*
X1400002Y8950000D02*
X2240002Y9790000D01*
X2330000D01*
%TF.MD5,aa536161402a527a82287e3bca4450a8*%
M02*
