%TF.GenerationSoftware,Altium Limited,Altium Designer,24.6.1 (21)*%
G04 Layer_Color=32768*
%FSLAX45Y45*%
%MOMM*%
%TF.SameCoordinates,FEC14C44-D625-4E92-8207-BAE4E8E866B2*%
%TF.FilePolarity,Positive*%
%TF.FileFunction,Other,Bottom_3D_Body*%
%TF.Part,Single*%
G01*
G75*
%TA.AperFunction,NonConductor*%
%ADD56C,0.20000*%
D56*
X1376761Y4090104D02*
X1610106Y3856759D01*
X1723243Y3969896D01*
X1489898Y4203240D02*
X1723243Y3969896D01*
X1376761Y4090104D02*
X1489898Y4203240D01*
X1074542Y4248282D02*
X1198286Y4124538D01*
X1265458Y4191716D01*
X1141715Y4315460D02*
X1265458Y4191716D01*
X1074542Y4248282D02*
X1141715Y4315460D01*
X1765000Y757499D02*
X2154997D01*
Y1622501D01*
X1765000D02*
X2154997D01*
X1765000Y757499D02*
Y1622501D01*
X1987500Y2852498D02*
Y2947500D01*
X1812499Y2852498D02*
X1987500D01*
X1812499D02*
Y2947500D01*
X1987500D01*
X1052500Y2332502D02*
Y2427498D01*
X1227501D01*
Y2332502D02*
Y2427498D01*
X1052500Y2332502D02*
X1227501D01*
X2189998Y6572499D02*
Y6820499D01*
X1740002D02*
X2189998D01*
X1740002Y6572499D02*
X2189998D01*
X1740002D02*
Y6820499D01*
X1102502Y9047500D02*
Y9702500D01*
X747502Y9047500D02*
X1102502D01*
X747502D02*
Y9702500D01*
X1102502D01*
X1052502Y2587502D02*
X1227502D01*
X1052502Y2492501D02*
Y2587502D01*
Y2492501D02*
X1227502D01*
Y2587502D01*
X2384999Y7002501D02*
Y8002499D01*
X1545001Y7002501D02*
Y8002499D01*
Y7002501D02*
X2384999D01*
X1545001Y8002499D02*
X2384999D01*
%TF.MD5,ba5b2350f7d229aab2165c7f4beb42eb*%
M02*
