%TF.GenerationSoftware,Altium Limited,Altium Designer,24.6.1 (21)*%
G04 Layer_Color=32768*
%FSLAX45Y45*%
%MOMM*%
%TF.SameCoordinates,FEC14C44-D625-4E92-8207-BAE4E8E866B2*%
%TF.FilePolarity,Positive*%
%TF.FileFunction,Other,Bottom_Assembly*%
%TF.Part,Single*%
G01*
G75*
%TA.AperFunction,NonConductor*%
%ADD56C,0.20000*%
G36*
X2123578Y7578902D02*
X2165044D01*
Y7572453D01*
X2123578Y7543190D01*
X2116366D01*
Y7571066D01*
X2101042D01*
Y7578902D01*
X2116366D01*
Y7587569D01*
X2123578D01*
Y7578902D01*
D02*
G37*
G36*
X2165044Y7526756D02*
X2120943D01*
X2119972D01*
X2119001Y7526687D01*
X2117406Y7526618D01*
X2116020Y7526479D01*
X2114910Y7526340D01*
X2114078Y7526132D01*
X2113454Y7525994D01*
X2113107Y7525924D01*
X2112969Y7525855D01*
X2112067Y7525439D01*
X2111304Y7524953D01*
X2110611Y7524399D01*
X2110056Y7523913D01*
X2109640Y7523359D01*
X2109293Y7523012D01*
X2109085Y7522735D01*
X2109016Y7522596D01*
X2108531Y7521694D01*
X2108184Y7520793D01*
X2107907Y7519891D01*
X2107768Y7518990D01*
X2107629Y7518227D01*
X2107560Y7517673D01*
Y7517118D01*
X2107699Y7515592D01*
X2107976Y7514275D01*
X2108392Y7513096D01*
X2108877Y7512125D01*
X2109363Y7511362D01*
X2109779Y7510808D01*
X2110056Y7510461D01*
X2110195Y7510322D01*
X2110750Y7509906D01*
X2111374Y7509490D01*
X2112136Y7509143D01*
X2112899Y7508866D01*
X2114563Y7508381D01*
X2116228Y7508034D01*
X2117753Y7507826D01*
X2118447Y7507757D01*
X2119071Y7507687D01*
X2119556D01*
X2119903Y7507618D01*
X2120180D01*
X2120250D01*
X2119140Y7499990D01*
X2117406D01*
X2115812Y7500129D01*
X2114286Y7500337D01*
X2112899Y7500545D01*
X2111582Y7500892D01*
X2110403Y7501238D01*
X2109363Y7501655D01*
X2108392Y7502001D01*
X2107560Y7502417D01*
X2106797Y7502833D01*
X2106173Y7503180D01*
X2105688Y7503527D01*
X2105272Y7503804D01*
X2104994Y7504012D01*
X2104856Y7504151D01*
X2104786Y7504220D01*
X2103954Y7505122D01*
X2103191Y7506092D01*
X2102567Y7507063D01*
X2102013Y7508173D01*
X2101527Y7509213D01*
X2101180Y7510322D01*
X2100834Y7511362D01*
X2100626Y7512403D01*
X2100418Y7513373D01*
X2100279Y7514275D01*
X2100140Y7515107D01*
X2100071Y7515800D01*
X2100002Y7516355D01*
Y7517187D01*
X2100071Y7519267D01*
X2100348Y7521140D01*
X2100695Y7522804D01*
X2101180Y7524260D01*
X2101388Y7524884D01*
X2101597Y7525439D01*
X2101735Y7525924D01*
X2101943Y7526271D01*
X2102082Y7526618D01*
X2102221Y7526826D01*
X2102290Y7526964D01*
Y7527034D01*
X2103261Y7528490D01*
X2104301Y7529807D01*
X2105410Y7530848D01*
X2106450Y7531680D01*
X2107421Y7532373D01*
X2108253Y7532858D01*
X2108531Y7532997D01*
X2108739Y7533136D01*
X2108877Y7533205D01*
X2108947D01*
X2109848Y7533552D01*
X2110750Y7533899D01*
X2112761Y7534384D01*
X2114841Y7534731D01*
X2116852Y7534939D01*
X2117753Y7535077D01*
X2118655Y7535147D01*
X2119417D01*
X2120111Y7535216D01*
X2120666D01*
X2121082D01*
X2121359D01*
X2121428D01*
X2165044D01*
Y7526756D01*
D02*
G37*
%LPC*%
G36*
X2152424Y7571066D02*
X2123578D01*
Y7550887D01*
X2152424Y7571066D01*
D02*
G37*
%LPD*%
D56*
X1341404Y4090104D02*
X1610106Y3821402D01*
X1758594Y3969896D01*
X1489898Y4238597D02*
X1758594Y3969896D01*
X1341404Y4090104D02*
X1489898Y4238597D01*
X1051560Y4257121D02*
X1207125Y4101562D01*
X1288440Y4182877D01*
X1132876Y4338442D02*
X1288440Y4182877D01*
X1051560Y4257121D02*
X1132876Y4338442D01*
X3379998Y4460001D02*
X3880002D01*
Y5260000D01*
X3379998Y4460001D02*
Y5260000D01*
X3880002D01*
X3579998Y4860000D02*
X3679998D01*
X3630000Y4809998D02*
Y4909998D01*
X1589689Y732500D02*
X2330308D01*
Y1647500D01*
X1589689D02*
X2330308D01*
X1589689Y732500D02*
Y1647500D01*
X2010000Y2842501D02*
Y2957502D01*
X1790000Y2842501D02*
X2010000D01*
X1790000D02*
Y2957502D01*
X2010000D01*
X1030000Y2322500D02*
Y2437501D01*
X1250000D01*
Y2322500D02*
Y2437501D01*
X1030000Y2322500D02*
X1250000D01*
X1740002Y6470000D02*
X2189998D01*
X1740002D02*
Y6917502D01*
X2189998D01*
Y6470000D02*
Y6917502D01*
X1334999Y9037498D02*
Y9712498D01*
X515000Y9037498D02*
X1334999D01*
X515000D02*
Y9712498D01*
X1334999D01*
X1030002Y2597500D02*
X1250002D01*
X1030002Y2482499D02*
Y2597500D01*
Y2482499D02*
X1250002D01*
Y2597500D01*
X2384999Y7002501D02*
Y8002499D01*
X1545001D02*
X2384999D01*
X1545001Y7002501D02*
Y8002499D01*
Y7002501D02*
X2384999D01*
%TF.MD5,8a2faa422fcb1e4d05ff0c569184871a*%
M02*
