%TF.GenerationSoftware,Altium Limited,Altium Designer,24.6.1 (21)*%
G04 Layer_Color=16711935*
%FSLAX45Y45*%
%MOMM*%
%TF.SameCoordinates,FEC14C44-D625-4E92-8207-BAE4E8E866B2*%
%TF.FilePolarity,Positive*%
%TF.FileFunction,Other,Mechanical_1*%
%TF.Part,Single*%
G01*
G75*
%TA.AperFunction,NonConductor*%
%ADD58C,0.25000*%
G36*
X740282Y10776163D02*
X741444Y10776057D01*
X742607Y10775952D01*
X743980Y10775846D01*
X746939Y10775423D01*
X750214Y10774789D01*
X753490Y10773838D01*
X756660Y10772676D01*
X756766D01*
X756977Y10772465D01*
X757505Y10772359D01*
X758034Y10772042D01*
X758668Y10771619D01*
X759513Y10771197D01*
X761309Y10770140D01*
X763422Y10768661D01*
X765536Y10766864D01*
X767543Y10764857D01*
X769340Y10762427D01*
X769445Y10762321D01*
X769551Y10762110D01*
X769762Y10761793D01*
X770079Y10761264D01*
X770396Y10760630D01*
X770819Y10759891D01*
X771136Y10758940D01*
X771664Y10757989D01*
X772510Y10755770D01*
X773249Y10753128D01*
X773883Y10750275D01*
X774200Y10747105D01*
X761837Y10746154D01*
Y10746260D01*
X761732Y10746577D01*
Y10747000D01*
X761626Y10747634D01*
X761415Y10748479D01*
X761203Y10749324D01*
X760569Y10751332D01*
X759724Y10753551D01*
X758456Y10755875D01*
X756977Y10758094D01*
X756026Y10759045D01*
X754969Y10759996D01*
X754864Y10760102D01*
X754758Y10760208D01*
X754335Y10760419D01*
X753913Y10760736D01*
X753279Y10761053D01*
X752539Y10761476D01*
X751694Y10761898D01*
X750743Y10762427D01*
X749580Y10762849D01*
X748312Y10763272D01*
X746939Y10763694D01*
X745460Y10764011D01*
X743769Y10764328D01*
X741973Y10764540D01*
X740071Y10764751D01*
X737006D01*
X736161Y10764645D01*
X735210D01*
X734153Y10764540D01*
X732886Y10764434D01*
X731618Y10764223D01*
X728765Y10763694D01*
X726017Y10762955D01*
X723376Y10761898D01*
X722108Y10761159D01*
X721051Y10760419D01*
X720945D01*
X720840Y10760208D01*
X720206Y10759679D01*
X719361Y10758728D01*
X718410Y10757460D01*
X717459Y10755981D01*
X716613Y10754185D01*
X715979Y10752283D01*
X715874Y10751226D01*
X715768Y10750064D01*
Y10749958D01*
Y10749853D01*
X715874Y10749219D01*
X715979Y10748268D01*
X716191Y10747105D01*
X716719Y10745732D01*
X717353Y10744252D01*
X718198Y10742879D01*
X719466Y10741505D01*
X719678Y10741399D01*
X719889Y10741188D01*
X720311Y10740871D01*
X720840Y10740554D01*
X721474Y10740237D01*
X722319Y10739814D01*
X723270Y10739286D01*
X724432Y10738758D01*
X725806Y10738229D01*
X727391Y10737701D01*
X729187Y10737067D01*
X731301Y10736433D01*
X733519Y10735799D01*
X736055Y10735060D01*
X738908Y10734426D01*
X739120D01*
X739648Y10734320D01*
X740388Y10734109D01*
X741444Y10733792D01*
X742712Y10733580D01*
X744192Y10733158D01*
X745777Y10732841D01*
X747467Y10732312D01*
X751060Y10731361D01*
X754652Y10730410D01*
X756343Y10729882D01*
X757822Y10729354D01*
X759302Y10728825D01*
X760464Y10728297D01*
X760569D01*
X760886Y10728086D01*
X761309Y10727874D01*
X761837Y10727557D01*
X762577Y10727240D01*
X763422Y10726712D01*
X765219Y10725550D01*
X767332Y10724176D01*
X769340Y10722486D01*
X771347Y10720478D01*
X772193Y10719421D01*
X773038Y10718365D01*
Y10718259D01*
X773249Y10718048D01*
X773460Y10717731D01*
X773672Y10717308D01*
X773989Y10716780D01*
X774306Y10716040D01*
X775151Y10714349D01*
X775891Y10712342D01*
X776525Y10710017D01*
X776947Y10707376D01*
X777159Y10704523D01*
Y10704417D01*
Y10704206D01*
Y10703783D01*
X777053Y10703255D01*
Y10702515D01*
X776947Y10701775D01*
X776630Y10699768D01*
X776102Y10697549D01*
X775257Y10695119D01*
X774094Y10692583D01*
X773460Y10691209D01*
X772615Y10689941D01*
Y10689835D01*
X772404Y10689624D01*
X772193Y10689307D01*
X771770Y10688779D01*
X770819Y10687616D01*
X769340Y10686031D01*
X767543Y10684341D01*
X765324Y10682545D01*
X762788Y10680854D01*
X759830Y10679269D01*
X759724D01*
X759407Y10679058D01*
X758985Y10678952D01*
X758351Y10678635D01*
X757611Y10678424D01*
X756660Y10678107D01*
X755603Y10677684D01*
X754335Y10677367D01*
X753067Y10677050D01*
X751588Y10676627D01*
X748418Y10676099D01*
X744931Y10675676D01*
X741127Y10675465D01*
X739859D01*
X738908Y10675571D01*
X737746D01*
X736478Y10675676D01*
X734999Y10675782D01*
X733308Y10675993D01*
X729821Y10676416D01*
X726123Y10677050D01*
X722425Y10678001D01*
X718832Y10679269D01*
X718727D01*
X718410Y10679480D01*
X717987Y10679692D01*
X717353Y10680009D01*
X716613Y10680431D01*
X715768Y10680854D01*
X713760Y10682122D01*
X711541Y10683707D01*
X709217Y10685714D01*
X706892Y10688039D01*
X704885Y10690786D01*
X704779Y10690892D01*
X704673Y10691103D01*
X704462Y10691526D01*
X704145Y10692160D01*
X703722Y10692900D01*
X703300Y10693745D01*
X702771Y10694802D01*
X702349Y10695964D01*
X701820Y10697126D01*
X701398Y10698500D01*
X700552Y10701564D01*
X699918Y10704840D01*
X699707Y10706636D01*
X699601Y10708432D01*
X711753Y10709489D01*
Y10709383D01*
Y10709172D01*
X711858Y10708749D01*
X711964Y10708221D01*
X712070Y10707587D01*
X712175Y10706953D01*
X712598Y10705157D01*
X713126Y10703255D01*
X713760Y10701247D01*
X714606Y10699239D01*
X715662Y10697338D01*
X715768Y10697126D01*
X716296Y10696598D01*
X717036Y10695753D01*
X718093Y10694696D01*
X719466Y10693428D01*
X721157Y10692266D01*
X723164Y10690998D01*
X725489Y10689835D01*
X725595D01*
X725806Y10689730D01*
X726123Y10689624D01*
X726651Y10689413D01*
X727285Y10689201D01*
X728025Y10688884D01*
X728870Y10688673D01*
X729821Y10688462D01*
X732040Y10687933D01*
X734682Y10687405D01*
X737429Y10687088D01*
X740493Y10686982D01*
X741761D01*
X742395Y10687088D01*
X743135D01*
X744826Y10687299D01*
X746833Y10687511D01*
X749052Y10687828D01*
X751271Y10688356D01*
X753384Y10689096D01*
X753490D01*
X753596Y10689201D01*
X753913Y10689307D01*
X754335Y10689518D01*
X755286Y10690047D01*
X756554Y10690681D01*
X757928Y10691526D01*
X759407Y10692583D01*
X760675Y10693745D01*
X761837Y10695119D01*
X761943Y10695330D01*
X762260Y10695753D01*
X762788Y10696598D01*
X763317Y10697655D01*
X763739Y10698922D01*
X764268Y10700296D01*
X764585Y10701881D01*
X764690Y10703466D01*
Y10703572D01*
Y10703677D01*
Y10704206D01*
X764585Y10705157D01*
X764373Y10706213D01*
X764056Y10707481D01*
X763528Y10708855D01*
X762894Y10710229D01*
X761943Y10711496D01*
X761837Y10711602D01*
X761415Y10712025D01*
X760781Y10712659D01*
X759830Y10713504D01*
X758668Y10714349D01*
X757083Y10715300D01*
X755286Y10716251D01*
X753173Y10717202D01*
X752962Y10717308D01*
X752750Y10717414D01*
X752328Y10717519D01*
X751905Y10717625D01*
X751271Y10717836D01*
X750426Y10718153D01*
X749580Y10718365D01*
X748418Y10718682D01*
X747256Y10719104D01*
X745777Y10719421D01*
X744192Y10719844D01*
X742395Y10720372D01*
X740493Y10720795D01*
X738274Y10721429D01*
X735844Y10721957D01*
X735738D01*
X735316Y10722063D01*
X734576Y10722274D01*
X733731Y10722486D01*
X732569Y10722803D01*
X731301Y10723120D01*
X730033Y10723542D01*
X728553Y10723965D01*
X725383Y10724916D01*
X722319Y10725972D01*
X720840Y10726501D01*
X719466Y10727029D01*
X718198Y10727557D01*
X717142Y10728086D01*
X717036D01*
X716825Y10728297D01*
X716508Y10728508D01*
X715979Y10728720D01*
X714711Y10729459D01*
X713232Y10730516D01*
X711436Y10731890D01*
X709745Y10733369D01*
X708054Y10735165D01*
X706681Y10737067D01*
Y10737173D01*
X706575Y10737278D01*
X706364Y10737595D01*
X706153Y10738018D01*
X705624Y10739180D01*
X704990Y10740660D01*
X704356Y10742456D01*
X703828Y10744569D01*
X703405Y10746894D01*
X703300Y10749324D01*
Y10749430D01*
Y10749641D01*
Y10750064D01*
X703405Y10750592D01*
Y10751226D01*
X703511Y10751966D01*
X703828Y10753868D01*
X704356Y10755981D01*
X704990Y10758200D01*
X706047Y10760630D01*
X707420Y10763061D01*
Y10763166D01*
X707632Y10763378D01*
X707843Y10763694D01*
X708160Y10764117D01*
X709217Y10765279D01*
X710590Y10766759D01*
X712281Y10768344D01*
X714394Y10769929D01*
X716825Y10771514D01*
X719678Y10772887D01*
X719783D01*
X719994Y10772993D01*
X720523Y10773204D01*
X721051Y10773416D01*
X721791Y10773627D01*
X722742Y10773944D01*
X723798Y10774261D01*
X724961Y10774578D01*
X726229Y10774895D01*
X727602Y10775212D01*
X730561Y10775740D01*
X733942Y10776163D01*
X737535Y10776269D01*
X739331D01*
X740282Y10776163D01*
D02*
G37*
G36*
X278636D02*
X279798Y10776057D01*
X280961Y10775952D01*
X282334Y10775846D01*
X285293Y10775423D01*
X288568Y10774789D01*
X291844Y10773838D01*
X295014Y10772676D01*
X295120D01*
X295331Y10772465D01*
X295859Y10772359D01*
X296388Y10772042D01*
X297022Y10771619D01*
X297867Y10771197D01*
X299663Y10770140D01*
X301776Y10768661D01*
X303890Y10766864D01*
X305897Y10764857D01*
X307694Y10762427D01*
X307799Y10762321D01*
X307905Y10762110D01*
X308116Y10761793D01*
X308433Y10761264D01*
X308750Y10760630D01*
X309173Y10759891D01*
X309490Y10758940D01*
X310018Y10757989D01*
X310863Y10755770D01*
X311603Y10753128D01*
X312237Y10750275D01*
X312554Y10747105D01*
X300191Y10746154D01*
Y10746260D01*
X300086Y10746577D01*
Y10747000D01*
X299980Y10747634D01*
X299769Y10748479D01*
X299557Y10749324D01*
X298923Y10751332D01*
X298078Y10753551D01*
X296810Y10755875D01*
X295331Y10758094D01*
X294380Y10759045D01*
X293323Y10759996D01*
X293218Y10760102D01*
X293112Y10760208D01*
X292689Y10760419D01*
X292267Y10760736D01*
X291633Y10761053D01*
X290893Y10761476D01*
X290048Y10761898D01*
X289097Y10762427D01*
X287934Y10762849D01*
X286666Y10763272D01*
X285293Y10763694D01*
X283814Y10764011D01*
X282123Y10764328D01*
X280327Y10764540D01*
X278425Y10764751D01*
X275360D01*
X274515Y10764645D01*
X273564D01*
X272507Y10764540D01*
X271239Y10764434D01*
X269972Y10764223D01*
X267119Y10763694D01*
X264371Y10762955D01*
X261730Y10761898D01*
X260462Y10761159D01*
X259405Y10760419D01*
X259299D01*
X259194Y10760208D01*
X258560Y10759679D01*
X257714Y10758728D01*
X256764Y10757460D01*
X255813Y10755981D01*
X254967Y10754185D01*
X254333Y10752283D01*
X254228Y10751226D01*
X254122Y10750064D01*
Y10749958D01*
Y10749853D01*
X254228Y10749219D01*
X254333Y10748268D01*
X254545Y10747105D01*
X255073Y10745732D01*
X255707Y10744252D01*
X256552Y10742879D01*
X257820Y10741505D01*
X258031Y10741399D01*
X258243Y10741188D01*
X258665Y10740871D01*
X259194Y10740554D01*
X259828Y10740237D01*
X260673Y10739814D01*
X261624Y10739286D01*
X262786Y10738758D01*
X264160Y10738229D01*
X265745Y10737701D01*
X267541Y10737067D01*
X269655Y10736433D01*
X271873Y10735799D01*
X274409Y10735060D01*
X277262Y10734426D01*
X277474D01*
X278002Y10734320D01*
X278742Y10734109D01*
X279798Y10733792D01*
X281066Y10733580D01*
X282546Y10733158D01*
X284130Y10732841D01*
X285821Y10732312D01*
X289414Y10731361D01*
X293006Y10730410D01*
X294697Y10729882D01*
X296176Y10729354D01*
X297655Y10728825D01*
X298818Y10728297D01*
X298923D01*
X299240Y10728086D01*
X299663Y10727874D01*
X300191Y10727557D01*
X300931Y10727240D01*
X301776Y10726712D01*
X303573Y10725550D01*
X305686Y10724176D01*
X307694Y10722486D01*
X309701Y10720478D01*
X310546Y10719421D01*
X311392Y10718365D01*
Y10718259D01*
X311603Y10718048D01*
X311814Y10717731D01*
X312026Y10717308D01*
X312343Y10716780D01*
X312660Y10716040D01*
X313505Y10714349D01*
X314245Y10712342D01*
X314879Y10710017D01*
X315301Y10707376D01*
X315513Y10704523D01*
Y10704417D01*
Y10704206D01*
Y10703783D01*
X315407Y10703255D01*
Y10702515D01*
X315301Y10701775D01*
X314984Y10699768D01*
X314456Y10697549D01*
X313611Y10695119D01*
X312448Y10692583D01*
X311814Y10691209D01*
X310969Y10689941D01*
Y10689835D01*
X310758Y10689624D01*
X310546Y10689307D01*
X310124Y10688779D01*
X309173Y10687616D01*
X307694Y10686031D01*
X305897Y10684341D01*
X303678Y10682545D01*
X301142Y10680854D01*
X298184Y10679269D01*
X298078D01*
X297761Y10679058D01*
X297338Y10678952D01*
X296705Y10678635D01*
X295965Y10678424D01*
X295014Y10678107D01*
X293957Y10677684D01*
X292689Y10677367D01*
X291421Y10677050D01*
X289942Y10676627D01*
X286772Y10676099D01*
X283285Y10675676D01*
X279481Y10675465D01*
X278213D01*
X277262Y10675571D01*
X276100D01*
X274832Y10675676D01*
X273353Y10675782D01*
X271662Y10675993D01*
X268175Y10676416D01*
X264477Y10677050D01*
X260779Y10678001D01*
X257186Y10679269D01*
X257081D01*
X256764Y10679480D01*
X256341Y10679692D01*
X255707Y10680009D01*
X254967Y10680431D01*
X254122Y10680854D01*
X252114Y10682122D01*
X249895Y10683707D01*
X247571Y10685714D01*
X245246Y10688039D01*
X243239Y10690786D01*
X243133Y10690892D01*
X243027Y10691103D01*
X242816Y10691526D01*
X242499Y10692160D01*
X242076Y10692900D01*
X241654Y10693745D01*
X241125Y10694802D01*
X240703Y10695964D01*
X240174Y10697126D01*
X239752Y10698500D01*
X238906Y10701564D01*
X238272Y10704840D01*
X238061Y10706636D01*
X237955Y10708432D01*
X250107Y10709489D01*
Y10709383D01*
Y10709172D01*
X250212Y10708749D01*
X250318Y10708221D01*
X250424Y10707587D01*
X250529Y10706953D01*
X250952Y10705157D01*
X251480Y10703255D01*
X252114Y10701247D01*
X252960Y10699239D01*
X254016Y10697338D01*
X254122Y10697126D01*
X254650Y10696598D01*
X255390Y10695753D01*
X256447Y10694696D01*
X257820Y10693428D01*
X259511Y10692266D01*
X261518Y10690998D01*
X263843Y10689835D01*
X263949D01*
X264160Y10689730D01*
X264477Y10689624D01*
X265005Y10689413D01*
X265639Y10689201D01*
X266379Y10688884D01*
X267224Y10688673D01*
X268175Y10688462D01*
X270394Y10687933D01*
X273036Y10687405D01*
X275783Y10687088D01*
X278847Y10686982D01*
X280115D01*
X280749Y10687088D01*
X281489D01*
X283180Y10687299D01*
X285187Y10687511D01*
X287406Y10687828D01*
X289625Y10688356D01*
X291738Y10689096D01*
X291844D01*
X291950Y10689201D01*
X292267Y10689307D01*
X292689Y10689518D01*
X293640Y10690047D01*
X294908Y10690681D01*
X296282Y10691526D01*
X297761Y10692583D01*
X299029Y10693745D01*
X300191Y10695119D01*
X300297Y10695330D01*
X300614Y10695753D01*
X301142Y10696598D01*
X301671Y10697655D01*
X302093Y10698922D01*
X302622Y10700296D01*
X302939Y10701881D01*
X303044Y10703466D01*
Y10703572D01*
Y10703677D01*
Y10704206D01*
X302939Y10705157D01*
X302727Y10706213D01*
X302410Y10707481D01*
X301882Y10708855D01*
X301248Y10710229D01*
X300297Y10711496D01*
X300191Y10711602D01*
X299769Y10712025D01*
X299135Y10712659D01*
X298184Y10713504D01*
X297022Y10714349D01*
X295437Y10715300D01*
X293640Y10716251D01*
X291527Y10717202D01*
X291316Y10717308D01*
X291104Y10717414D01*
X290682Y10717519D01*
X290259Y10717625D01*
X289625Y10717836D01*
X288780Y10718153D01*
X287934Y10718365D01*
X286772Y10718682D01*
X285610Y10719104D01*
X284130Y10719421D01*
X282546Y10719844D01*
X280749Y10720372D01*
X278847Y10720795D01*
X276628Y10721429D01*
X274198Y10721957D01*
X274092D01*
X273670Y10722063D01*
X272930Y10722274D01*
X272085Y10722486D01*
X270922Y10722803D01*
X269655Y10723120D01*
X268387Y10723542D01*
X266907Y10723965D01*
X263737Y10724916D01*
X260673Y10725972D01*
X259194Y10726501D01*
X257820Y10727029D01*
X256552Y10727557D01*
X255496Y10728086D01*
X255390D01*
X255179Y10728297D01*
X254862Y10728508D01*
X254333Y10728720D01*
X253065Y10729459D01*
X251586Y10730516D01*
X249790Y10731890D01*
X248099Y10733369D01*
X246408Y10735165D01*
X245035Y10737067D01*
Y10737173D01*
X244929Y10737278D01*
X244718Y10737595D01*
X244506Y10738018D01*
X243978Y10739180D01*
X243344Y10740660D01*
X242710Y10742456D01*
X242182Y10744569D01*
X241759Y10746894D01*
X241654Y10749324D01*
Y10749430D01*
Y10749641D01*
Y10750064D01*
X241759Y10750592D01*
Y10751226D01*
X241865Y10751966D01*
X242182Y10753868D01*
X242710Y10755981D01*
X243344Y10758200D01*
X244401Y10760630D01*
X245774Y10763061D01*
Y10763166D01*
X245986Y10763378D01*
X246197Y10763694D01*
X246514Y10764117D01*
X247571Y10765279D01*
X248944Y10766759D01*
X250635Y10768344D01*
X252748Y10769929D01*
X255179Y10771514D01*
X258031Y10772887D01*
X258137D01*
X258348Y10772993D01*
X258877Y10773204D01*
X259405Y10773416D01*
X260145Y10773627D01*
X261096Y10773944D01*
X262152Y10774261D01*
X263315Y10774578D01*
X264583Y10774895D01*
X265956Y10775212D01*
X268915Y10775740D01*
X272296Y10776163D01*
X275889Y10776269D01*
X277685D01*
X278636Y10776163D01*
D02*
G37*
G36*
X1202668D02*
X1203936Y10776057D01*
X1205415Y10775846D01*
X1207000Y10775635D01*
X1208796Y10775318D01*
X1210698Y10774895D01*
X1212706Y10774472D01*
X1214713Y10773838D01*
X1216827Y10773099D01*
X1218940Y10772253D01*
X1220948Y10771197D01*
X1222955Y10770140D01*
X1224857Y10768766D01*
X1224963Y10768661D01*
X1225280Y10768449D01*
X1225808Y10768027D01*
X1226442Y10767393D01*
X1227287Y10766653D01*
X1228238Y10765702D01*
X1229189Y10764645D01*
X1230352Y10763378D01*
X1231514Y10762004D01*
X1232676Y10760419D01*
X1233839Y10758728D01*
X1234895Y10756826D01*
X1236057Y10754819D01*
X1237008Y10752600D01*
X1237959Y10750275D01*
X1238805Y10747845D01*
X1226125Y10744886D01*
Y10744992D01*
X1225914Y10745309D01*
X1225808Y10745943D01*
X1225491Y10746683D01*
X1225174Y10747528D01*
X1224646Y10748479D01*
X1223589Y10750803D01*
X1222215Y10753339D01*
X1220419Y10755981D01*
X1218517Y10758411D01*
X1217355Y10759468D01*
X1216193Y10760419D01*
X1216087Y10760525D01*
X1215876Y10760630D01*
X1215559Y10760842D01*
X1215030Y10761159D01*
X1214396Y10761581D01*
X1213657Y10762004D01*
X1212811Y10762427D01*
X1211755Y10762849D01*
X1210592Y10763272D01*
X1209430Y10763694D01*
X1206683Y10764540D01*
X1203513Y10765068D01*
X1201822Y10765279D01*
X1198969D01*
X1198124Y10765174D01*
X1197173Y10765068D01*
X1196011Y10764962D01*
X1194743Y10764857D01*
X1193475Y10764645D01*
X1190411Y10763906D01*
X1187241Y10762955D01*
X1185656Y10762321D01*
X1184071Y10761581D01*
X1182591Y10760736D01*
X1181112Y10759785D01*
X1181007Y10759679D01*
X1180795Y10759574D01*
X1180373Y10759257D01*
X1179844Y10758834D01*
X1179316Y10758306D01*
X1178576Y10757566D01*
X1177837Y10756826D01*
X1176991Y10755981D01*
X1176146Y10754924D01*
X1175195Y10753868D01*
X1173504Y10751437D01*
X1171919Y10748585D01*
X1170546Y10745309D01*
Y10745203D01*
X1170440Y10744886D01*
X1170229Y10744358D01*
X1170123Y10743724D01*
X1169912Y10742879D01*
X1169595Y10741928D01*
X1169383Y10740765D01*
X1169066Y10739603D01*
X1168750Y10738229D01*
X1168538Y10736750D01*
X1168010Y10733580D01*
X1167693Y10730199D01*
X1167587Y10726606D01*
Y10726501D01*
Y10726078D01*
Y10725444D01*
X1167693Y10724493D01*
Y10723437D01*
X1167799Y10722169D01*
X1167904Y10720795D01*
X1168010Y10719210D01*
X1168221Y10717519D01*
X1168433Y10715829D01*
X1169066Y10712130D01*
X1170017Y10708432D01*
X1171180Y10704840D01*
Y10704734D01*
X1171391Y10704417D01*
X1171602Y10703994D01*
X1171814Y10703360D01*
X1172236Y10702515D01*
X1172765Y10701670D01*
X1173927Y10699662D01*
X1175512Y10697338D01*
X1177414Y10695119D01*
X1179739Y10692900D01*
X1181007Y10691949D01*
X1182380Y10690998D01*
X1182486D01*
X1182697Y10690786D01*
X1183120Y10690575D01*
X1183754Y10690258D01*
X1184493Y10689941D01*
X1185339Y10689518D01*
X1186290Y10689201D01*
X1187346Y10688779D01*
X1189777Y10687933D01*
X1192630Y10687194D01*
X1195694Y10686665D01*
X1197279Y10686560D01*
X1198969Y10686454D01*
X1200026D01*
X1200766Y10686560D01*
X1201717Y10686665D01*
X1202773Y10686771D01*
X1204041Y10686982D01*
X1205309Y10687194D01*
X1208268Y10687933D01*
X1209747Y10688462D01*
X1211332Y10689096D01*
X1212917Y10689835D01*
X1214396Y10690681D01*
X1215876Y10691632D01*
X1217355Y10692688D01*
X1217461Y10692794D01*
X1217672Y10693005D01*
X1218095Y10693322D01*
X1218623Y10693851D01*
X1219151Y10694485D01*
X1219891Y10695330D01*
X1220631Y10696281D01*
X1221476Y10697338D01*
X1222321Y10698605D01*
X1223166Y10699979D01*
X1224012Y10701458D01*
X1224857Y10703149D01*
X1225597Y10704945D01*
X1226336Y10706953D01*
X1227076Y10709066D01*
X1227604Y10711285D01*
X1240495Y10708010D01*
Y10707798D01*
X1240284Y10707270D01*
X1240073Y10706530D01*
X1239650Y10705368D01*
X1239227Y10704100D01*
X1238593Y10702515D01*
X1237959Y10700824D01*
X1237114Y10699028D01*
X1236163Y10697021D01*
X1235106Y10695119D01*
X1233944Y10693005D01*
X1232571Y10690998D01*
X1231091Y10689096D01*
X1229506Y10687194D01*
X1227710Y10685397D01*
X1225808Y10683707D01*
X1225702Y10683601D01*
X1225280Y10683390D01*
X1224751Y10682967D01*
X1223906Y10682439D01*
X1222955Y10681805D01*
X1221687Y10681065D01*
X1220314Y10680326D01*
X1218623Y10679586D01*
X1216827Y10678846D01*
X1214925Y10678107D01*
X1212811Y10677367D01*
X1210487Y10676733D01*
X1208057Y10676205D01*
X1205521Y10675782D01*
X1202879Y10675571D01*
X1200026Y10675465D01*
X1198547D01*
X1197384Y10675571D01*
X1196116Y10675676D01*
X1194532Y10675782D01*
X1192841Y10675993D01*
X1190939Y10676310D01*
X1188931Y10676627D01*
X1186818Y10677050D01*
X1184705Y10677578D01*
X1182591Y10678107D01*
X1180373Y10678846D01*
X1178259Y10679692D01*
X1176252Y10680643D01*
X1174350Y10681805D01*
X1174244Y10681911D01*
X1173927Y10682122D01*
X1173399Y10682439D01*
X1172765Y10682967D01*
X1171919Y10683707D01*
X1170968Y10684446D01*
X1169912Y10685397D01*
X1168750Y10686560D01*
X1167587Y10687828D01*
X1166319Y10689201D01*
X1165157Y10690681D01*
X1163889Y10692371D01*
X1162621Y10694168D01*
X1161459Y10696070D01*
X1160402Y10698183D01*
X1159345Y10700402D01*
X1159240Y10700507D01*
X1159134Y10700930D01*
X1158923Y10701670D01*
X1158606Y10702515D01*
X1158183Y10703677D01*
X1157760Y10704945D01*
X1157338Y10706530D01*
X1156809Y10708221D01*
X1156387Y10710123D01*
X1155858Y10712130D01*
X1155436Y10714244D01*
X1155119Y10716568D01*
X1154485Y10721429D01*
X1154379Y10723965D01*
X1154274Y10726501D01*
Y10726712D01*
Y10727135D01*
Y10727980D01*
X1154379Y10729037D01*
X1154485Y10730410D01*
X1154591Y10731995D01*
X1154802Y10733686D01*
X1155013Y10735588D01*
X1155330Y10737595D01*
X1155647Y10739709D01*
X1156704Y10744252D01*
X1157443Y10746471D01*
X1158183Y10748690D01*
X1159028Y10751015D01*
X1160085Y10753128D01*
X1160191Y10753234D01*
X1160402Y10753656D01*
X1160719Y10754185D01*
X1161142Y10755030D01*
X1161776Y10755981D01*
X1162515Y10757038D01*
X1163361Y10758200D01*
X1164312Y10759574D01*
X1165474Y10760842D01*
X1166636Y10762321D01*
X1168010Y10763694D01*
X1169489Y10765174D01*
X1171074Y10766547D01*
X1172765Y10767921D01*
X1174667Y10769189D01*
X1176569Y10770351D01*
X1176674Y10770457D01*
X1177097Y10770563D01*
X1177625Y10770880D01*
X1178471Y10771302D01*
X1179422Y10771725D01*
X1180690Y10772253D01*
X1182063Y10772782D01*
X1183542Y10773310D01*
X1185233Y10773838D01*
X1187135Y10774367D01*
X1189037Y10774895D01*
X1191150Y10775318D01*
X1195482Y10776057D01*
X1197807Y10776163D01*
X1200237Y10776269D01*
X1201611D01*
X1202668Y10776163D01*
D02*
G37*
G36*
X1575662Y10677050D02*
X1562771D01*
Y10723014D01*
X1512158D01*
Y10677050D01*
X1499266D01*
Y10774578D01*
X1512158D01*
Y10734531D01*
X1562771D01*
Y10774578D01*
X1575662D01*
Y10677050D01*
D02*
G37*
G36*
X682378D02*
X669487D01*
Y10723014D01*
X618874D01*
Y10677050D01*
X605983D01*
Y10774578D01*
X618874D01*
Y10734531D01*
X669487D01*
Y10774578D01*
X682378D01*
Y10677050D01*
D02*
G37*
G36*
X373417Y10718259D02*
Y10677050D01*
X360526D01*
Y10718259D01*
X322909Y10774578D01*
X338547D01*
X357778Y10745098D01*
X357884Y10744992D01*
X357990Y10744781D01*
X358307Y10744252D01*
X358729Y10743724D01*
X359152Y10742984D01*
X359680Y10742033D01*
X360314Y10741082D01*
X361054Y10739920D01*
X362533Y10737490D01*
X364224Y10734743D01*
X366020Y10731784D01*
X367711Y10728720D01*
X367816Y10728825D01*
X367922Y10729037D01*
X368133Y10729459D01*
X368556Y10730093D01*
X368979Y10730727D01*
X369401Y10731573D01*
X370035Y10732629D01*
X370669Y10733686D01*
X371409Y10734848D01*
X372254Y10736222D01*
X374051Y10739075D01*
X376164Y10742350D01*
X378383Y10745837D01*
X397297Y10774578D01*
X412301D01*
X373417Y10718259D01*
D02*
G37*
G36*
X2163682Y10749219D02*
X2164633Y10749113D01*
X2165795Y10749007D01*
X2167063Y10748796D01*
X2168437Y10748585D01*
X2171395Y10747845D01*
X2174565Y10746788D01*
X2176150Y10746154D01*
X2177735Y10745415D01*
X2179214Y10744464D01*
X2180588Y10743407D01*
X2180694Y10743301D01*
X2180905Y10743090D01*
X2181328Y10742773D01*
X2181750Y10742350D01*
X2182384Y10741716D01*
X2183018Y10740977D01*
X2183758Y10740131D01*
X2184498Y10739180D01*
X2185343Y10738018D01*
X2186082Y10736856D01*
X2186928Y10735482D01*
X2187667Y10734003D01*
X2188301Y10732418D01*
X2188935Y10730727D01*
X2189569Y10728825D01*
X2189992Y10726923D01*
X2178369Y10725127D01*
Y10725233D01*
X2178263Y10725444D01*
X2178158Y10725761D01*
X2178052Y10726289D01*
X2177629Y10727557D01*
X2176995Y10729142D01*
X2176150Y10730833D01*
X2175199Y10732629D01*
X2173931Y10734320D01*
X2172452Y10735799D01*
X2172241Y10736011D01*
X2171712Y10736433D01*
X2170761Y10736962D01*
X2169599Y10737701D01*
X2168120Y10738335D01*
X2166429Y10738969D01*
X2164421Y10739392D01*
X2162308Y10739497D01*
X2161463D01*
X2160829Y10739392D01*
X2159983Y10739286D01*
X2159138Y10739180D01*
X2157025Y10738652D01*
X2154700Y10737912D01*
X2153538Y10737384D01*
X2152270Y10736750D01*
X2151108Y10736011D01*
X2149840Y10735060D01*
X2148677Y10734109D01*
X2147621Y10732946D01*
X2147515Y10732841D01*
X2147409Y10732629D01*
X2147092Y10732312D01*
X2146775Y10731678D01*
X2146353Y10731044D01*
X2145825Y10730199D01*
X2145296Y10729142D01*
X2144874Y10727980D01*
X2144345Y10726606D01*
X2143817Y10725127D01*
X2143289Y10723437D01*
X2142866Y10721535D01*
X2142549Y10719527D01*
X2142232Y10717414D01*
X2142126Y10714983D01*
X2142021Y10712447D01*
Y10712342D01*
Y10711813D01*
Y10711074D01*
X2142126Y10710123D01*
X2142232Y10708961D01*
X2142338Y10707587D01*
X2142443Y10706108D01*
X2142655Y10704523D01*
X2143289Y10701141D01*
X2144345Y10697655D01*
X2144874Y10696070D01*
X2145613Y10694485D01*
X2146458Y10693005D01*
X2147409Y10691737D01*
X2147515Y10691632D01*
X2147621Y10691420D01*
X2147938Y10691103D01*
X2148360Y10690786D01*
X2148994Y10690258D01*
X2149628Y10689730D01*
X2150368Y10689096D01*
X2151213Y10688567D01*
X2153327Y10687299D01*
X2155757Y10686348D01*
X2157131Y10685926D01*
X2158504Y10685609D01*
X2160089Y10685397D01*
X2161674Y10685292D01*
X2162308D01*
X2162836Y10685397D01*
X2163470D01*
X2164104Y10685503D01*
X2165795Y10685820D01*
X2167591Y10686348D01*
X2169599Y10687088D01*
X2171501Y10688145D01*
X2173403Y10689518D01*
X2173508Y10689624D01*
X2173614Y10689730D01*
X2174142Y10690364D01*
X2174988Y10691420D01*
X2175410Y10692054D01*
X2175939Y10692794D01*
X2176467Y10693745D01*
X2176995Y10694696D01*
X2177418Y10695753D01*
X2177946Y10697021D01*
X2178369Y10698288D01*
X2178792Y10699768D01*
X2179109Y10701247D01*
X2179426Y10702938D01*
X2191154Y10701353D01*
Y10701247D01*
X2191049Y10700824D01*
X2190943Y10700190D01*
X2190732Y10699345D01*
X2190415Y10698288D01*
X2190098Y10697126D01*
X2189675Y10695858D01*
X2189147Y10694379D01*
X2187879Y10691420D01*
X2187033Y10689835D01*
X2186082Y10688250D01*
X2185132Y10686665D01*
X2183969Y10685080D01*
X2182596Y10683707D01*
X2181222Y10682333D01*
X2181116Y10682228D01*
X2180905Y10682016D01*
X2180377Y10681699D01*
X2179848Y10681277D01*
X2179003Y10680748D01*
X2178158Y10680114D01*
X2176995Y10679586D01*
X2175833Y10678952D01*
X2174459Y10678212D01*
X2172980Y10677684D01*
X2171395Y10677050D01*
X2169705Y10676522D01*
X2167803Y10676099D01*
X2165901Y10675782D01*
X2163893Y10675571D01*
X2161780Y10675465D01*
X2161146D01*
X2160406Y10675571D01*
X2159350D01*
X2158187Y10675782D01*
X2156708Y10675993D01*
X2155123Y10676205D01*
X2153432Y10676627D01*
X2151636Y10677156D01*
X2149734Y10677790D01*
X2147832Y10678529D01*
X2145825Y10679480D01*
X2143923Y10680537D01*
X2142021Y10681805D01*
X2140224Y10683179D01*
X2138534Y10684869D01*
X2138428Y10684975D01*
X2138111Y10685292D01*
X2137688Y10685820D01*
X2137160Y10686665D01*
X2136526Y10687616D01*
X2135786Y10688779D01*
X2134941Y10690258D01*
X2134201Y10691843D01*
X2133356Y10693639D01*
X2132511Y10695647D01*
X2131771Y10697866D01*
X2131137Y10700296D01*
X2130609Y10702938D01*
X2130186Y10705791D01*
X2129869Y10708855D01*
X2129764Y10712025D01*
Y10712130D01*
Y10712553D01*
Y10713187D01*
X2129869Y10713927D01*
Y10714983D01*
X2129975Y10716146D01*
X2130081Y10717414D01*
X2130186Y10718893D01*
X2130715Y10721957D01*
X2131349Y10725338D01*
X2132194Y10728825D01*
X2133462Y10732101D01*
Y10732207D01*
X2133673Y10732524D01*
X2133884Y10732946D01*
X2134201Y10733475D01*
X2134624Y10734214D01*
X2135047Y10735060D01*
X2136315Y10736962D01*
X2137900Y10738969D01*
X2139907Y10741188D01*
X2142232Y10743196D01*
X2144979Y10744992D01*
X2145085D01*
X2145296Y10745203D01*
X2145719Y10745415D01*
X2146353Y10745626D01*
X2147092Y10746049D01*
X2147938Y10746366D01*
X2148889Y10746788D01*
X2149945Y10747211D01*
X2151213Y10747528D01*
X2152481Y10747951D01*
X2155334Y10748690D01*
X2158504Y10749113D01*
X2161780Y10749324D01*
X2162942D01*
X2163682Y10749219D01*
D02*
G37*
G36*
X1845633D02*
X1846584Y10749113D01*
X1847746Y10749007D01*
X1849014Y10748796D01*
X1850388Y10748585D01*
X1853347Y10747845D01*
X1856516Y10746788D01*
X1858101Y10746154D01*
X1859686Y10745415D01*
X1861166Y10744464D01*
X1862539Y10743407D01*
X1862645Y10743301D01*
X1862856Y10743090D01*
X1863279Y10742773D01*
X1863702Y10742350D01*
X1864336Y10741716D01*
X1864970Y10740977D01*
X1865709Y10740131D01*
X1866449Y10739180D01*
X1867294Y10738018D01*
X1868034Y10736856D01*
X1868879Y10735482D01*
X1869619Y10734003D01*
X1870253Y10732418D01*
X1870887Y10730727D01*
X1871521Y10728825D01*
X1871943Y10726923D01*
X1860320Y10725127D01*
Y10725233D01*
X1860215Y10725444D01*
X1860109Y10725761D01*
X1860003Y10726289D01*
X1859581Y10727557D01*
X1858947Y10729142D01*
X1858101Y10730833D01*
X1857150Y10732629D01*
X1855882Y10734320D01*
X1854403Y10735799D01*
X1854192Y10736011D01*
X1853664Y10736433D01*
X1852713Y10736962D01*
X1851550Y10737701D01*
X1850071Y10738335D01*
X1848380Y10738969D01*
X1846373Y10739392D01*
X1844259Y10739497D01*
X1843414D01*
X1842780Y10739392D01*
X1841935Y10739286D01*
X1841090Y10739180D01*
X1838976Y10738652D01*
X1836652Y10737912D01*
X1835489Y10737384D01*
X1834221Y10736750D01*
X1833059Y10736011D01*
X1831791Y10735060D01*
X1830629Y10734109D01*
X1829572Y10732946D01*
X1829466Y10732841D01*
X1829361Y10732629D01*
X1829044Y10732312D01*
X1828727Y10731678D01*
X1828304Y10731044D01*
X1827776Y10730199D01*
X1827248Y10729142D01*
X1826825Y10727980D01*
X1826297Y10726606D01*
X1825768Y10725127D01*
X1825240Y10723437D01*
X1824817Y10721535D01*
X1824500Y10719527D01*
X1824183Y10717414D01*
X1824078Y10714983D01*
X1823972Y10712447D01*
Y10712342D01*
Y10711813D01*
Y10711074D01*
X1824078Y10710123D01*
X1824183Y10708961D01*
X1824289Y10707587D01*
X1824395Y10706108D01*
X1824606Y10704523D01*
X1825240Y10701141D01*
X1826297Y10697655D01*
X1826825Y10696070D01*
X1827565Y10694485D01*
X1828410Y10693005D01*
X1829361Y10691737D01*
X1829466Y10691632D01*
X1829572Y10691420D01*
X1829889Y10691103D01*
X1830312Y10690786D01*
X1830946Y10690258D01*
X1831580Y10689730D01*
X1832319Y10689096D01*
X1833165Y10688567D01*
X1835278Y10687299D01*
X1837708Y10686348D01*
X1839082Y10685926D01*
X1840456Y10685609D01*
X1842041Y10685397D01*
X1843625Y10685292D01*
X1844259D01*
X1844788Y10685397D01*
X1845422D01*
X1846056Y10685503D01*
X1847746Y10685820D01*
X1849543Y10686348D01*
X1851550Y10687088D01*
X1853452Y10688145D01*
X1855354Y10689518D01*
X1855460Y10689624D01*
X1855566Y10689730D01*
X1856094Y10690364D01*
X1856939Y10691420D01*
X1857362Y10692054D01*
X1857890Y10692794D01*
X1858418Y10693745D01*
X1858947Y10694696D01*
X1859369Y10695753D01*
X1859898Y10697021D01*
X1860320Y10698288D01*
X1860743Y10699768D01*
X1861060Y10701247D01*
X1861377Y10702938D01*
X1873106Y10701353D01*
Y10701247D01*
X1873000Y10700824D01*
X1872894Y10700190D01*
X1872683Y10699345D01*
X1872366Y10698288D01*
X1872049Y10697126D01*
X1871626Y10695858D01*
X1871098Y10694379D01*
X1869830Y10691420D01*
X1868985Y10689835D01*
X1868034Y10688250D01*
X1867083Y10686665D01*
X1865921Y10685080D01*
X1864547Y10683707D01*
X1863173Y10682333D01*
X1863068Y10682228D01*
X1862856Y10682016D01*
X1862328Y10681699D01*
X1861800Y10681277D01*
X1860954Y10680748D01*
X1860109Y10680114D01*
X1858947Y10679586D01*
X1857784Y10678952D01*
X1856411Y10678212D01*
X1854932Y10677684D01*
X1853347Y10677050D01*
X1851656Y10676522D01*
X1849754Y10676099D01*
X1847852Y10675782D01*
X1845844Y10675571D01*
X1843731Y10675465D01*
X1843097D01*
X1842358Y10675571D01*
X1841301D01*
X1840139Y10675782D01*
X1838659Y10675993D01*
X1837074Y10676205D01*
X1835384Y10676627D01*
X1833587Y10677156D01*
X1831685Y10677790D01*
X1829783Y10678529D01*
X1827776Y10679480D01*
X1825874Y10680537D01*
X1823972Y10681805D01*
X1822176Y10683179D01*
X1820485Y10684869D01*
X1820379Y10684975D01*
X1820062Y10685292D01*
X1819640Y10685820D01*
X1819111Y10686665D01*
X1818477Y10687616D01*
X1817738Y10688779D01*
X1816892Y10690258D01*
X1816153Y10691843D01*
X1815308Y10693639D01*
X1814462Y10695647D01*
X1813723Y10697866D01*
X1813089Y10700296D01*
X1812560Y10702938D01*
X1812138Y10705791D01*
X1811821Y10708855D01*
X1811715Y10712025D01*
Y10712130D01*
Y10712553D01*
Y10713187D01*
X1811821Y10713927D01*
Y10714983D01*
X1811926Y10716146D01*
X1812032Y10717414D01*
X1812138Y10718893D01*
X1812666Y10721957D01*
X1813300Y10725338D01*
X1814145Y10728825D01*
X1815413Y10732101D01*
Y10732207D01*
X1815625Y10732524D01*
X1815836Y10732946D01*
X1816153Y10733475D01*
X1816575Y10734214D01*
X1816998Y10735060D01*
X1818266Y10736962D01*
X1819851Y10738969D01*
X1821859Y10741188D01*
X1824183Y10743196D01*
X1826931Y10744992D01*
X1827036D01*
X1827248Y10745203D01*
X1827670Y10745415D01*
X1828304Y10745626D01*
X1829044Y10746049D01*
X1829889Y10746366D01*
X1830840Y10746788D01*
X1831897Y10747211D01*
X1833165Y10747528D01*
X1834433Y10747951D01*
X1837286Y10748690D01*
X1840456Y10749113D01*
X1843731Y10749324D01*
X1844893D01*
X1845633Y10749219D01*
D02*
G37*
G36*
X227495Y10706319D02*
X190618D01*
Y10718365D01*
X227495D01*
Y10706319D01*
D02*
G37*
G36*
X500636Y10677050D02*
X487322D01*
X436181Y10753551D01*
Y10677050D01*
X423818D01*
Y10774578D01*
X437026D01*
X488273Y10697971D01*
Y10774578D01*
X500636D01*
Y10677050D01*
D02*
G37*
G36*
X76818D02*
X63504D01*
X12363Y10753551D01*
Y10677050D01*
X0D01*
Y10774578D01*
X13208D01*
X64455Y10697971D01*
Y10774578D01*
X76818D01*
Y10677050D01*
D02*
G37*
G36*
X963233D02*
X950765D01*
Y10758728D01*
X922235Y10677050D01*
X910612D01*
X882506Y10760102D01*
Y10677050D01*
X870037D01*
Y10774578D01*
X889374D01*
X912514Y10705474D01*
Y10705368D01*
X912620Y10705051D01*
X912831Y10704523D01*
X913043Y10703889D01*
X913254Y10703149D01*
X913571Y10702198D01*
X914311Y10700085D01*
X915050Y10697760D01*
X915790Y10695330D01*
X916530Y10693111D01*
X916847Y10692054D01*
X917164Y10691103D01*
Y10691209D01*
X917269Y10691315D01*
X917375Y10691632D01*
X917481Y10692054D01*
X917692Y10692688D01*
X917903Y10693322D01*
X918114Y10694168D01*
X918431Y10695013D01*
X918748Y10696070D01*
X919171Y10697232D01*
X919594Y10698500D01*
X920016Y10699979D01*
X920545Y10701458D01*
X921073Y10703149D01*
X921707Y10704840D01*
X922341Y10706742D01*
X945798Y10774578D01*
X963233D01*
Y10677050D01*
D02*
G37*
G36*
X1297554D02*
X1284240D01*
X1246413Y10774578D01*
X1260466D01*
X1285825Y10703677D01*
Y10703572D01*
X1285931Y10703255D01*
X1286142Y10702832D01*
X1286354Y10702198D01*
X1286565Y10701458D01*
X1286882Y10700613D01*
X1287199Y10699662D01*
X1287622Y10698500D01*
X1288361Y10696070D01*
X1289206Y10693428D01*
X1290052Y10690575D01*
X1290897Y10687722D01*
Y10687828D01*
X1291003Y10688039D01*
X1291108Y10688567D01*
X1291320Y10689096D01*
X1291531Y10689835D01*
X1291742Y10690681D01*
X1292059Y10691632D01*
X1292376Y10692688D01*
X1293116Y10695119D01*
X1294067Y10697866D01*
X1295124Y10700719D01*
X1296180Y10703677D01*
X1322491Y10774578D01*
X1335593D01*
X1297554Y10677050D01*
D02*
G37*
G36*
X175402Y10718259D02*
Y10718048D01*
Y10717625D01*
Y10716885D01*
Y10715829D01*
X175297Y10714561D01*
X175191Y10713187D01*
X175085Y10711602D01*
X174980Y10709806D01*
X174557Y10706108D01*
X174029Y10702198D01*
X173183Y10698394D01*
X172655Y10696598D01*
X172021Y10694907D01*
Y10694802D01*
X171915Y10694485D01*
X171704Y10694062D01*
X171387Y10693428D01*
X170964Y10692688D01*
X170542Y10691843D01*
X169274Y10689941D01*
X168534Y10688779D01*
X167689Y10687722D01*
X166632Y10686454D01*
X165575Y10685292D01*
X164308Y10684130D01*
X163040Y10682967D01*
X161560Y10681911D01*
X159975Y10680854D01*
X159870Y10680748D01*
X159553Y10680643D01*
X159130Y10680326D01*
X158390Y10680009D01*
X157545Y10679586D01*
X156488Y10679163D01*
X155326Y10678635D01*
X153847Y10678212D01*
X152367Y10677684D01*
X150677Y10677156D01*
X148775Y10676733D01*
X146767Y10676310D01*
X144548Y10675993D01*
X142224Y10675676D01*
X139793Y10675571D01*
X137258Y10675465D01*
X135884D01*
X134933Y10675571D01*
X133771D01*
X132503Y10675676D01*
X130918Y10675888D01*
X129333Y10676099D01*
X125740Y10676627D01*
X121936Y10677473D01*
X118238Y10678635D01*
X116442Y10679269D01*
X114751Y10680114D01*
X114645Y10680220D01*
X114328Y10680326D01*
X113906Y10680643D01*
X113377Y10680960D01*
X112638Y10681488D01*
X111793Y10682122D01*
X110947Y10682756D01*
X109996Y10683601D01*
X107883Y10685503D01*
X105875Y10687828D01*
X103973Y10690575D01*
X103128Y10692160D01*
X102388Y10693745D01*
Y10693851D01*
X102283Y10694168D01*
X102071Y10694696D01*
X101860Y10695436D01*
X101543Y10696281D01*
X101226Y10697443D01*
X100909Y10698711D01*
X100592Y10700190D01*
X100169Y10701881D01*
X99852Y10703677D01*
X99535Y10705685D01*
X99324Y10707904D01*
X99007Y10710229D01*
X98902Y10712764D01*
X98690Y10715406D01*
Y10718259D01*
Y10774578D01*
X111581D01*
Y10718259D01*
Y10718153D01*
Y10717731D01*
Y10717097D01*
Y10716146D01*
X111687Y10715089D01*
Y10713927D01*
X111793Y10712553D01*
X111898Y10711179D01*
X112110Y10708115D01*
X112532Y10705051D01*
X113166Y10702092D01*
X113483Y10700719D01*
X113906Y10699556D01*
Y10699451D01*
X114011Y10699345D01*
X114117Y10699028D01*
X114328Y10698605D01*
X114962Y10697443D01*
X115808Y10696175D01*
X116864Y10694590D01*
X118238Y10693111D01*
X119929Y10691632D01*
X121936Y10690258D01*
X122042D01*
X122253Y10690152D01*
X122570Y10689941D01*
X122993Y10689730D01*
X123521Y10689518D01*
X124261Y10689307D01*
X125001Y10688990D01*
X125846Y10688673D01*
X127959Y10688145D01*
X130389Y10687616D01*
X133137Y10687194D01*
X136095Y10687088D01*
X137469D01*
X138420Y10687194D01*
X139582Y10687299D01*
X140956Y10687405D01*
X142435Y10687616D01*
X144020Y10687933D01*
X147296Y10688673D01*
X148986Y10689201D01*
X150677Y10689835D01*
X152262Y10690575D01*
X153741Y10691420D01*
X155115Y10692371D01*
X156383Y10693534D01*
X156488Y10693639D01*
X156700Y10693851D01*
X156911Y10694273D01*
X157334Y10694802D01*
X157756Y10695541D01*
X158285Y10696492D01*
X158919Y10697655D01*
X159447Y10699028D01*
X159975Y10700613D01*
X160609Y10702409D01*
X161138Y10704417D01*
X161560Y10706636D01*
X161983Y10709172D01*
X162300Y10711919D01*
X162406Y10714983D01*
X162511Y10718259D01*
Y10774578D01*
X175402D01*
Y10718259D01*
D02*
G37*
G36*
X1998001Y10774472D02*
X1999269D01*
X2000537Y10774367D01*
X2003389Y10774261D01*
X2006242Y10773944D01*
X2009095Y10773627D01*
X2010363Y10773310D01*
X2011526Y10773099D01*
X2011631D01*
X2011948Y10772993D01*
X2012371Y10772887D01*
X2012899Y10772676D01*
X2013639Y10772465D01*
X2014484Y10772253D01*
X2016492Y10771514D01*
X2018711Y10770563D01*
X2021035Y10769400D01*
X2023466Y10767921D01*
X2025790Y10766125D01*
X2025896Y10766019D01*
X2026107Y10765808D01*
X2026530Y10765491D01*
X2027058Y10764962D01*
X2027692Y10764328D01*
X2028432Y10763483D01*
X2029277Y10762638D01*
X2030122Y10761581D01*
X2031073Y10760419D01*
X2032024Y10759151D01*
X2032975Y10757777D01*
X2033926Y10756298D01*
X2035723Y10753022D01*
X2037308Y10749430D01*
Y10749324D01*
X2037519Y10749007D01*
X2037625Y10748373D01*
X2037942Y10747634D01*
X2038259Y10746683D01*
X2038576Y10745520D01*
X2038893Y10744252D01*
X2039315Y10742773D01*
X2039632Y10741082D01*
X2039949Y10739286D01*
X2040266Y10737384D01*
X2040583Y10735377D01*
X2040900Y10733263D01*
X2041006Y10731044D01*
X2041217Y10726289D01*
Y10726184D01*
Y10725761D01*
Y10725233D01*
Y10724387D01*
X2041111Y10723437D01*
Y10722274D01*
X2041006Y10721006D01*
X2040900Y10719633D01*
X2040583Y10716568D01*
X2040055Y10713293D01*
X2039421Y10709912D01*
X2038576Y10706530D01*
Y10706425D01*
X2038470Y10706108D01*
X2038259Y10705685D01*
X2038153Y10705157D01*
X2037836Y10704417D01*
X2037519Y10703572D01*
X2036779Y10701564D01*
X2035828Y10699345D01*
X2034666Y10696915D01*
X2033398Y10694590D01*
X2031919Y10692371D01*
Y10692266D01*
X2031707Y10692160D01*
X2031496Y10691843D01*
X2031179Y10691420D01*
X2030439Y10690469D01*
X2029277Y10689201D01*
X2028009Y10687722D01*
X2026530Y10686243D01*
X2024839Y10684869D01*
X2023043Y10683496D01*
X2022937D01*
X2022832Y10683390D01*
X2022198Y10682967D01*
X2021141Y10682439D01*
X2019767Y10681699D01*
X2018077Y10680960D01*
X2016069Y10680114D01*
X2013745Y10679375D01*
X2011314Y10678635D01*
X2011209D01*
X2010997Y10678529D01*
X2010680D01*
X2010152Y10678424D01*
X2009518Y10678318D01*
X2008673Y10678107D01*
X2007827Y10678001D01*
X2006876Y10677895D01*
X2004552Y10677578D01*
X2001910Y10677261D01*
X1998952Y10677156D01*
X1995782Y10677050D01*
X1960596D01*
Y10774578D01*
X1996944D01*
X1998001Y10774472D01*
D02*
G37*
G36*
X1768076D02*
X1770506Y10774367D01*
X1772936Y10774155D01*
X1775261Y10773944D01*
X1776423Y10773838D01*
X1777374Y10773627D01*
X1777480D01*
X1777691Y10773521D01*
X1778114D01*
X1778536Y10773416D01*
X1779170Y10773204D01*
X1779910Y10773099D01*
X1781601Y10772570D01*
X1783503Y10771936D01*
X1785510Y10771091D01*
X1787518Y10770140D01*
X1789420Y10768978D01*
X1789526D01*
X1789631Y10768872D01*
X1790265Y10768344D01*
X1791110Y10767604D01*
X1792273Y10766547D01*
X1793435Y10765279D01*
X1794809Y10763589D01*
X1796077Y10761793D01*
X1797239Y10759574D01*
Y10759468D01*
X1797345Y10759257D01*
X1797556Y10758940D01*
X1797767Y10758517D01*
X1797979Y10757989D01*
X1798190Y10757249D01*
X1798824Y10755664D01*
X1799352Y10753656D01*
X1799881Y10751437D01*
X1800198Y10748902D01*
X1800303Y10746260D01*
Y10746154D01*
Y10745732D01*
Y10745098D01*
X1800198Y10744147D01*
X1800092Y10743090D01*
X1799881Y10741928D01*
X1799669Y10740554D01*
X1799352Y10738969D01*
X1798930Y10737384D01*
X1798401Y10735694D01*
X1797767Y10734003D01*
X1796922Y10732207D01*
X1796077Y10730410D01*
X1795020Y10728614D01*
X1793752Y10726923D01*
X1792378Y10725233D01*
X1792273Y10725127D01*
X1791956Y10724916D01*
X1791533Y10724493D01*
X1790793Y10723859D01*
X1789948Y10723225D01*
X1788786Y10722486D01*
X1787412Y10721746D01*
X1785827Y10721006D01*
X1783925Y10720161D01*
X1781918Y10719421D01*
X1779487Y10718682D01*
X1776951Y10718048D01*
X1773993Y10717519D01*
X1770823Y10717097D01*
X1767442Y10716780D01*
X1763638Y10716674D01*
X1738701D01*
Y10677050D01*
X1725810D01*
Y10774578D01*
X1765962D01*
X1768076Y10774472D01*
D02*
G37*
G36*
X1703515Y10677050D02*
X1689884D01*
Y10690681D01*
X1703515D01*
Y10677050D01*
D02*
G37*
G36*
X1639377Y10774472D02*
X1641807Y10774367D01*
X1644238Y10774155D01*
X1646562Y10773944D01*
X1647724Y10773838D01*
X1648675Y10773627D01*
X1648781D01*
X1648992Y10773521D01*
X1649415D01*
X1649838Y10773416D01*
X1650472Y10773204D01*
X1651211Y10773099D01*
X1652902Y10772570D01*
X1654804Y10771936D01*
X1656812Y10771091D01*
X1658819Y10770140D01*
X1660721Y10768978D01*
X1660827D01*
X1660932Y10768872D01*
X1661566Y10768344D01*
X1662412Y10767604D01*
X1663574Y10766547D01*
X1664736Y10765279D01*
X1666110Y10763589D01*
X1667378Y10761793D01*
X1668540Y10759574D01*
Y10759468D01*
X1668646Y10759257D01*
X1668857Y10758940D01*
X1669069Y10758517D01*
X1669280Y10757989D01*
X1669491Y10757249D01*
X1670125Y10755664D01*
X1670654Y10753656D01*
X1671182Y10751437D01*
X1671499Y10748902D01*
X1671604Y10746260D01*
Y10746154D01*
Y10745732D01*
Y10745098D01*
X1671499Y10744147D01*
X1671393Y10743090D01*
X1671182Y10741928D01*
X1670970Y10740554D01*
X1670654Y10738969D01*
X1670231Y10737384D01*
X1669703Y10735694D01*
X1669069Y10734003D01*
X1668223Y10732207D01*
X1667378Y10730410D01*
X1666321Y10728614D01*
X1665053Y10726923D01*
X1663680Y10725233D01*
X1663574Y10725127D01*
X1663257Y10724916D01*
X1662834Y10724493D01*
X1662095Y10723859D01*
X1661249Y10723225D01*
X1660087Y10722486D01*
X1658713Y10721746D01*
X1657129Y10721006D01*
X1655227Y10720161D01*
X1653219Y10719421D01*
X1650789Y10718682D01*
X1648253Y10718048D01*
X1645294Y10717519D01*
X1642124Y10717097D01*
X1638743Y10716780D01*
X1634939Y10716674D01*
X1610002D01*
Y10677050D01*
X1597111D01*
Y10774578D01*
X1637264D01*
X1639377Y10774472D01*
D02*
G37*
G36*
X1135254Y10677050D02*
X1122363D01*
Y10774578D01*
X1135254D01*
Y10677050D01*
D02*
G37*
G36*
X1059176Y10774472D02*
X1060444D01*
X1061712Y10774367D01*
X1064565Y10774261D01*
X1067418Y10773944D01*
X1070271Y10773627D01*
X1071539Y10773310D01*
X1072701Y10773099D01*
X1072807D01*
X1073124Y10772993D01*
X1073546Y10772887D01*
X1074075Y10772676D01*
X1074814Y10772465D01*
X1075660Y10772253D01*
X1077667Y10771514D01*
X1079886Y10770563D01*
X1082211Y10769400D01*
X1084641Y10767921D01*
X1086966Y10766125D01*
X1087071Y10766019D01*
X1087283Y10765808D01*
X1087705Y10765491D01*
X1088234Y10764962D01*
X1088868Y10764328D01*
X1089607Y10763483D01*
X1090452Y10762638D01*
X1091298Y10761581D01*
X1092249Y10760419D01*
X1093200Y10759151D01*
X1094151Y10757777D01*
X1095102Y10756298D01*
X1096898Y10753022D01*
X1098483Y10749430D01*
Y10749324D01*
X1098694Y10749007D01*
X1098800Y10748373D01*
X1099117Y10747634D01*
X1099434Y10746683D01*
X1099751Y10745520D01*
X1100068Y10744252D01*
X1100491Y10742773D01*
X1100808Y10741082D01*
X1101125Y10739286D01*
X1101442Y10737384D01*
X1101759Y10735377D01*
X1102076Y10733263D01*
X1102181Y10731044D01*
X1102393Y10726289D01*
Y10726184D01*
Y10725761D01*
Y10725233D01*
Y10724387D01*
X1102287Y10723437D01*
Y10722274D01*
X1102181Y10721006D01*
X1102076Y10719633D01*
X1101759Y10716568D01*
X1101230Y10713293D01*
X1100596Y10709912D01*
X1099751Y10706530D01*
Y10706425D01*
X1099645Y10706108D01*
X1099434Y10705685D01*
X1099328Y10705157D01*
X1099011Y10704417D01*
X1098694Y10703572D01*
X1097955Y10701564D01*
X1097004Y10699345D01*
X1095841Y10696915D01*
X1094573Y10694590D01*
X1093094Y10692371D01*
Y10692266D01*
X1092883Y10692160D01*
X1092671Y10691843D01*
X1092354Y10691420D01*
X1091615Y10690469D01*
X1090452Y10689201D01*
X1089185Y10687722D01*
X1087705Y10686243D01*
X1086015Y10684869D01*
X1084218Y10683496D01*
X1084113D01*
X1084007Y10683390D01*
X1083373Y10682967D01*
X1082316Y10682439D01*
X1080943Y10681699D01*
X1079252Y10680960D01*
X1077244Y10680114D01*
X1074920Y10679375D01*
X1072490Y10678635D01*
X1072384D01*
X1072173Y10678529D01*
X1071856D01*
X1071327Y10678424D01*
X1070693Y10678318D01*
X1069848Y10678107D01*
X1069003Y10678001D01*
X1068052Y10677895D01*
X1065727Y10677578D01*
X1063086Y10677261D01*
X1060127Y10677156D01*
X1056957Y10677050D01*
X1021771D01*
Y10774578D01*
X1058119D01*
X1059176Y10774472D01*
D02*
G37*
G36*
X999053Y10677050D02*
X986162D01*
Y10774578D01*
X999053D01*
Y10677050D01*
D02*
G37*
G36*
X592141Y10763061D02*
X560019D01*
Y10677050D01*
X547128D01*
Y10763061D01*
X515006D01*
Y10774578D01*
X592141D01*
Y10763061D01*
D02*
G37*
G36*
X2087498Y10749219D02*
X2088555D01*
X2089823Y10749007D01*
X2091196Y10748796D01*
X2092781Y10748479D01*
X2094577Y10748162D01*
X2096374Y10747634D01*
X2098381Y10747000D01*
X2100283Y10746154D01*
X2102291Y10745309D01*
X2104299Y10744147D01*
X2106201Y10742879D01*
X2108102Y10741399D01*
X2109899Y10739709D01*
X2110004Y10739603D01*
X2110321Y10739286D01*
X2110744Y10738758D01*
X2111378Y10737912D01*
X2112012Y10736962D01*
X2112857Y10735799D01*
X2113703Y10734426D01*
X2114548Y10732841D01*
X2115393Y10731044D01*
X2116239Y10729037D01*
X2117084Y10726923D01*
X2117718Y10724599D01*
X2118352Y10722063D01*
X2118775Y10719316D01*
X2119092Y10716357D01*
X2119197Y10713293D01*
Y10713187D01*
Y10712659D01*
Y10712025D01*
X2119092Y10711074D01*
Y10709912D01*
X2118986Y10708538D01*
X2118880Y10707059D01*
X2118669Y10705474D01*
X2118246Y10702092D01*
X2117507Y10698500D01*
X2116450Y10695013D01*
X2115816Y10693428D01*
X2115076Y10691843D01*
Y10691737D01*
X2114865Y10691526D01*
X2114654Y10691103D01*
X2114337Y10690575D01*
X2113914Y10689941D01*
X2113386Y10689096D01*
X2112012Y10687405D01*
X2110321Y10685397D01*
X2108314Y10683390D01*
X2105884Y10681488D01*
X2103136Y10679692D01*
X2103031D01*
X2102819Y10679480D01*
X2102397Y10679269D01*
X2101763Y10679058D01*
X2101023Y10678741D01*
X2100178Y10678318D01*
X2099227Y10678001D01*
X2098064Y10677578D01*
X2096902Y10677156D01*
X2095528Y10676839D01*
X2092676Y10676099D01*
X2089506Y10675676D01*
X2086124Y10675465D01*
X2085490D01*
X2084751Y10675571D01*
X2083694D01*
X2082426Y10675782D01*
X2080947Y10675993D01*
X2079362Y10676310D01*
X2077566Y10676627D01*
X2075664Y10677156D01*
X2073762Y10677790D01*
X2071754Y10678529D01*
X2069746Y10679480D01*
X2067739Y10680537D01*
X2065837Y10681805D01*
X2063935Y10683284D01*
X2062139Y10684975D01*
X2062033Y10685080D01*
X2061716Y10685397D01*
X2061293Y10685926D01*
X2060765Y10686771D01*
X2060025Y10687722D01*
X2059286Y10688884D01*
X2058440Y10690364D01*
X2057595Y10691949D01*
X2056750Y10693851D01*
X2055904Y10695858D01*
X2055165Y10698077D01*
X2054425Y10700507D01*
X2053897Y10703149D01*
X2053474Y10706002D01*
X2053157Y10709066D01*
X2053052Y10712342D01*
Y10712447D01*
Y10712553D01*
Y10713187D01*
X2053157Y10714244D01*
X2053263Y10715512D01*
X2053369Y10717202D01*
X2053580Y10719104D01*
X2054002Y10721112D01*
X2054425Y10723331D01*
X2054953Y10725655D01*
X2055693Y10728086D01*
X2056644Y10730516D01*
X2057595Y10732946D01*
X2058863Y10735271D01*
X2060342Y10737490D01*
X2062033Y10739497D01*
X2063935Y10741399D01*
X2064041Y10741505D01*
X2064358Y10741716D01*
X2064886Y10742139D01*
X2065520Y10742667D01*
X2066471Y10743196D01*
X2067527Y10743935D01*
X2068690Y10744675D01*
X2070169Y10745415D01*
X2071648Y10746154D01*
X2073339Y10746788D01*
X2075135Y10747528D01*
X2077143Y10748056D01*
X2079256Y10748585D01*
X2081369Y10749007D01*
X2083694Y10749219D01*
X2086124Y10749324D01*
X2086758D01*
X2087498Y10749219D01*
D02*
G37*
G36*
X1895190Y10739814D02*
X1895295Y10739920D01*
X1895506Y10740237D01*
X1895929Y10740660D01*
X1896563Y10741294D01*
X1897303Y10742033D01*
X1898148Y10742879D01*
X1899205Y10743724D01*
X1900473Y10744569D01*
X1901741Y10745415D01*
X1903220Y10746366D01*
X1904805Y10747105D01*
X1906496Y10747845D01*
X1908398Y10748479D01*
X1910299Y10748902D01*
X1912413Y10749219D01*
X1914526Y10749324D01*
X1915688D01*
X1916217Y10749219D01*
X1916956D01*
X1918541Y10749007D01*
X1920443Y10748690D01*
X1922556Y10748162D01*
X1924670Y10747528D01*
X1926889Y10746683D01*
X1926994D01*
X1927100Y10746577D01*
X1927417Y10746366D01*
X1927840Y10746154D01*
X1928896Y10745626D01*
X1930270Y10744781D01*
X1931749Y10743724D01*
X1933334Y10742456D01*
X1934919Y10740977D01*
X1936398Y10739286D01*
X1936610Y10739075D01*
X1937032Y10738441D01*
X1937666Y10737384D01*
X1938617Y10736116D01*
X1939568Y10734426D01*
X1940519Y10732418D01*
X1941470Y10730199D01*
X1942316Y10727769D01*
Y10727663D01*
X1942421Y10727452D01*
X1942527Y10727135D01*
X1942633Y10726606D01*
X1942844Y10725972D01*
X1943055Y10725233D01*
X1943267Y10724387D01*
X1943478Y10723437D01*
X1943795Y10721323D01*
X1944218Y10718893D01*
X1944429Y10716251D01*
X1944535Y10713398D01*
Y10713187D01*
Y10712553D01*
X1944429Y10711708D01*
Y10710440D01*
X1944218Y10708855D01*
X1944006Y10707164D01*
X1943795Y10705157D01*
X1943372Y10703043D01*
X1942950Y10700824D01*
X1942316Y10698605D01*
X1941576Y10696175D01*
X1940731Y10693851D01*
X1939674Y10691526D01*
X1938406Y10689307D01*
X1937032Y10687299D01*
X1935447Y10685292D01*
X1935342Y10685186D01*
X1935025Y10684869D01*
X1934497Y10684341D01*
X1933863Y10683813D01*
X1933017Y10682967D01*
X1931961Y10682228D01*
X1930693Y10681277D01*
X1929425Y10680431D01*
X1927840Y10679480D01*
X1926255Y10678529D01*
X1924458Y10677790D01*
X1922556Y10677050D01*
X1920549Y10676416D01*
X1918436Y10675888D01*
X1916217Y10675571D01*
X1913892Y10675465D01*
X1913364D01*
X1912730Y10675571D01*
X1911884Y10675676D01*
X1910828Y10675782D01*
X1909560Y10675993D01*
X1908186Y10676310D01*
X1906813Y10676733D01*
X1905228Y10677261D01*
X1903643Y10678001D01*
X1902058Y10678846D01*
X1900367Y10679797D01*
X1898782Y10681065D01*
X1897197Y10682439D01*
X1895718Y10684024D01*
X1894344Y10685820D01*
Y10677050D01*
X1883249D01*
Y10774578D01*
X1895190D01*
Y10739814D01*
D02*
G37*
G36*
X1451929Y10774789D02*
X1452986Y10774684D01*
X1454254Y10774472D01*
X1455627Y10774261D01*
X1457212Y10773944D01*
X1458797Y10773521D01*
X1460488Y10773099D01*
X1462178Y10772465D01*
X1463869Y10771725D01*
X1465665Y10770880D01*
X1467250Y10769823D01*
X1468941Y10768766D01*
X1470420Y10767393D01*
X1470526Y10767287D01*
X1470737Y10767076D01*
X1471160Y10766653D01*
X1471688Y10766125D01*
X1472217Y10765385D01*
X1472850Y10764540D01*
X1473590Y10763483D01*
X1474330Y10762427D01*
X1475069Y10761159D01*
X1475809Y10759785D01*
X1476443Y10758306D01*
X1476971Y10756721D01*
X1477500Y10755030D01*
X1477922Y10753234D01*
X1478134Y10751332D01*
X1478239Y10749430D01*
Y10749324D01*
Y10749113D01*
Y10748796D01*
Y10748268D01*
X1478134Y10747739D01*
X1478028Y10747000D01*
X1477817Y10745415D01*
X1477394Y10743618D01*
X1476760Y10741611D01*
X1475809Y10739603D01*
X1474647Y10737595D01*
Y10737490D01*
X1474435Y10737384D01*
X1474013Y10736750D01*
X1473167Y10735905D01*
X1472005Y10734743D01*
X1470420Y10733580D01*
X1468624Y10732207D01*
X1466405Y10731044D01*
X1463869Y10729882D01*
X1463975D01*
X1464292Y10729776D01*
X1464714Y10729565D01*
X1465348Y10729354D01*
X1466088Y10729037D01*
X1466933Y10728614D01*
X1468941Y10727557D01*
X1471160Y10726289D01*
X1473379Y10724599D01*
X1475598Y10722697D01*
X1477500Y10720372D01*
X1477605Y10720267D01*
X1477711Y10720055D01*
X1477922Y10719738D01*
X1478239Y10719210D01*
X1478556Y10718576D01*
X1478979Y10717836D01*
X1479402Y10716991D01*
X1479930Y10716040D01*
X1480775Y10713821D01*
X1481515Y10711179D01*
X1482043Y10708221D01*
X1482255Y10706636D01*
Y10704945D01*
Y10704840D01*
Y10704417D01*
X1482149Y10703783D01*
Y10702832D01*
X1481938Y10701775D01*
X1481832Y10700507D01*
X1481515Y10699134D01*
X1481198Y10697655D01*
X1480670Y10695964D01*
X1480141Y10694273D01*
X1479402Y10692583D01*
X1478556Y10690786D01*
X1477500Y10688990D01*
X1476337Y10687299D01*
X1474964Y10685503D01*
X1473379Y10683918D01*
X1473273Y10683813D01*
X1472956Y10683601D01*
X1472428Y10683179D01*
X1471794Y10682650D01*
X1470843Y10681911D01*
X1469786Y10681277D01*
X1468518Y10680431D01*
X1467145Y10679692D01*
X1465560Y10678952D01*
X1463763Y10678107D01*
X1461861Y10677473D01*
X1459854Y10676839D01*
X1457635Y10676205D01*
X1455310Y10675782D01*
X1452774Y10675571D01*
X1450133Y10675465D01*
X1449499D01*
X1448759Y10675571D01*
X1447702D01*
X1446540Y10675676D01*
X1445061Y10675888D01*
X1443476Y10676205D01*
X1441785Y10676522D01*
X1439989Y10676944D01*
X1438087Y10677578D01*
X1436185Y10678212D01*
X1434177Y10679058D01*
X1432276Y10680009D01*
X1430374Y10681171D01*
X1428472Y10682439D01*
X1426781Y10683918D01*
X1426675Y10684024D01*
X1426358Y10684341D01*
X1425936Y10684763D01*
X1425407Y10685503D01*
X1424773Y10686348D01*
X1424034Y10687299D01*
X1423188Y10688462D01*
X1422449Y10689835D01*
X1421603Y10691315D01*
X1420758Y10692900D01*
X1420018Y10694696D01*
X1419385Y10696492D01*
X1418856Y10698500D01*
X1418434Y10700719D01*
X1418117Y10702938D01*
X1418011Y10705262D01*
Y10705368D01*
Y10705685D01*
Y10706213D01*
X1418117Y10706847D01*
Y10707693D01*
X1418222Y10708644D01*
X1418434Y10709700D01*
X1418645Y10710863D01*
X1419173Y10713293D01*
X1420018Y10715934D01*
X1421181Y10718576D01*
X1421920Y10719844D01*
X1422766Y10721112D01*
X1422871Y10721218D01*
X1422977Y10721429D01*
X1423294Y10721746D01*
X1423717Y10722169D01*
X1424139Y10722697D01*
X1424773Y10723225D01*
X1425513Y10723965D01*
X1426358Y10724599D01*
X1428260Y10726078D01*
X1430585Y10727557D01*
X1433332Y10728825D01*
X1436502Y10729882D01*
X1436396D01*
X1436185Y10729988D01*
X1435762Y10730199D01*
X1435340Y10730410D01*
X1434706Y10730622D01*
X1433966Y10731044D01*
X1432381Y10731890D01*
X1430585Y10732946D01*
X1428789Y10734320D01*
X1426992Y10735799D01*
X1425513Y10737595D01*
Y10737701D01*
X1425407Y10737807D01*
X1425196Y10738124D01*
X1424985Y10738546D01*
X1424351Y10739603D01*
X1423717Y10740977D01*
X1423083Y10742773D01*
X1422449Y10744886D01*
X1422026Y10747211D01*
X1421920Y10749747D01*
Y10749853D01*
Y10750170D01*
X1422026Y10750803D01*
Y10751543D01*
X1422132Y10752388D01*
X1422343Y10753445D01*
X1422554Y10754607D01*
X1422871Y10755981D01*
X1423294Y10757355D01*
X1423822Y10758728D01*
X1424351Y10760208D01*
X1425090Y10761793D01*
X1426041Y10763272D01*
X1426992Y10764751D01*
X1428155Y10766230D01*
X1429528Y10767604D01*
X1429634Y10767710D01*
X1429845Y10767921D01*
X1430268Y10768238D01*
X1430902Y10768766D01*
X1431642Y10769295D01*
X1432593Y10769929D01*
X1433649Y10770563D01*
X1434917Y10771302D01*
X1436291Y10771936D01*
X1437876Y10772570D01*
X1439461Y10773204D01*
X1441257Y10773733D01*
X1443265Y10774261D01*
X1445272Y10774578D01*
X1447491Y10774789D01*
X1449816Y10774895D01*
X1451084D01*
X1451929Y10774789D01*
D02*
G37*
G36*
X1413996Y10650000D02*
X1334642D01*
Y10658664D01*
X1413996D01*
Y10650000D01*
D02*
G37*
G36*
X861479D02*
X782125D01*
Y10658664D01*
X861479D01*
Y10650000D01*
D02*
G37*
%LPC*%
G36*
X1995993Y10763061D02*
X1973487D01*
Y10688567D01*
X1995887D01*
X1996733Y10688673D01*
X1997684D01*
X1999797Y10688779D01*
X2002227Y10688990D01*
X2004763Y10689307D01*
X2007193Y10689730D01*
X2009412Y10690258D01*
X2009518D01*
X2009624Y10690364D01*
X2009941Y10690469D01*
X2010363Y10690575D01*
X2011314Y10690998D01*
X2012582Y10691526D01*
X2013956Y10692266D01*
X2015435Y10693111D01*
X2016914Y10694168D01*
X2018182Y10695330D01*
X2018288Y10695436D01*
X2018394Y10695541D01*
X2018922Y10696175D01*
X2019767Y10697232D01*
X2020824Y10698605D01*
X2021881Y10700402D01*
X2023043Y10702515D01*
X2024205Y10704945D01*
X2025262Y10707693D01*
Y10707798D01*
X2025368Y10708010D01*
X2025473Y10708432D01*
X2025685Y10709066D01*
X2025896Y10709806D01*
X2026107Y10710757D01*
X2026319Y10711813D01*
X2026636Y10712976D01*
X2026847Y10714244D01*
X2027058Y10715723D01*
X2027270Y10717202D01*
X2027481Y10718893D01*
X2027798Y10722486D01*
X2027903Y10726501D01*
Y10726712D01*
Y10727135D01*
Y10727980D01*
X2027798Y10729037D01*
Y10730305D01*
X2027692Y10731784D01*
X2027481Y10733369D01*
X2027270Y10735165D01*
X2026636Y10738969D01*
X2025790Y10742879D01*
X2024522Y10746577D01*
X2023677Y10748373D01*
X2022832Y10749958D01*
X2022726Y10750064D01*
X2022620Y10750275D01*
X2022303Y10750698D01*
X2021881Y10751332D01*
X2021458Y10751966D01*
X2020824Y10752705D01*
X2019450Y10754396D01*
X2017654Y10756298D01*
X2015541Y10758094D01*
X2013216Y10759785D01*
X2011948Y10760419D01*
X2010575Y10761053D01*
X2010469D01*
X2010363Y10761159D01*
X2010046Y10761264D01*
X2009624Y10761370D01*
X2008990Y10761476D01*
X2008356Y10761687D01*
X2007510Y10761898D01*
X2006559Y10762110D01*
X2005503Y10762215D01*
X2004235Y10762427D01*
X2002861Y10762638D01*
X2001382Y10762744D01*
X1999691Y10762849D01*
X1997895Y10762955D01*
X1995993Y10763061D01*
D02*
G37*
G36*
X1766702D02*
X1738701D01*
Y10728191D01*
X1765011D01*
X1765857Y10728297D01*
X1766913D01*
X1768076Y10728403D01*
X1769449Y10728614D01*
X1770823Y10728825D01*
X1773782Y10729354D01*
X1776740Y10730199D01*
X1778114Y10730727D01*
X1779382Y10731361D01*
X1780650Y10731995D01*
X1781706Y10732841D01*
X1781812Y10732946D01*
X1781918Y10733052D01*
X1782235Y10733369D01*
X1782552Y10733686D01*
X1783397Y10734743D01*
X1784348Y10736222D01*
X1785299Y10738124D01*
X1786144Y10740343D01*
X1786778Y10742984D01*
X1786884Y10744358D01*
X1786990Y10745943D01*
Y10746049D01*
Y10746260D01*
Y10746577D01*
Y10747000D01*
X1786778Y10748162D01*
X1786567Y10749536D01*
X1786250Y10751226D01*
X1785616Y10752917D01*
X1784876Y10754713D01*
X1783820Y10756404D01*
X1783714Y10756615D01*
X1783291Y10757143D01*
X1782552Y10757883D01*
X1781706Y10758728D01*
X1780438Y10759679D01*
X1779065Y10760630D01*
X1777480Y10761476D01*
X1775684Y10762110D01*
X1775578D01*
X1775050Y10762215D01*
X1774204Y10762427D01*
X1772936Y10762638D01*
X1772197D01*
X1771351Y10762744D01*
X1770295Y10762849D01*
X1769238Y10762955D01*
X1767970D01*
X1766702Y10763061D01*
D02*
G37*
G36*
X1638003D02*
X1610002D01*
Y10728191D01*
X1636313D01*
X1637158Y10728297D01*
X1638215D01*
X1639377Y10728403D01*
X1640751Y10728614D01*
X1642124Y10728825D01*
X1645083Y10729354D01*
X1648041Y10730199D01*
X1649415Y10730727D01*
X1650683Y10731361D01*
X1651951Y10731995D01*
X1653008Y10732841D01*
X1653113Y10732946D01*
X1653219Y10733052D01*
X1653536Y10733369D01*
X1653853Y10733686D01*
X1654698Y10734743D01*
X1655649Y10736222D01*
X1656600Y10738124D01*
X1657446Y10740343D01*
X1658079Y10742984D01*
X1658185Y10744358D01*
X1658291Y10745943D01*
Y10746049D01*
Y10746260D01*
Y10746577D01*
Y10747000D01*
X1658079Y10748162D01*
X1657868Y10749536D01*
X1657551Y10751226D01*
X1656917Y10752917D01*
X1656178Y10754713D01*
X1655121Y10756404D01*
X1655015Y10756615D01*
X1654593Y10757143D01*
X1653853Y10757883D01*
X1653008Y10758728D01*
X1651740Y10759679D01*
X1650366Y10760630D01*
X1648781Y10761476D01*
X1646985Y10762110D01*
X1646879D01*
X1646351Y10762215D01*
X1645505Y10762427D01*
X1644238Y10762638D01*
X1643498D01*
X1642653Y10762744D01*
X1641596Y10762849D01*
X1640539Y10762955D01*
X1639271D01*
X1638003Y10763061D01*
D02*
G37*
G36*
X1057168D02*
X1034662D01*
Y10688567D01*
X1057063D01*
X1057908Y10688673D01*
X1058859D01*
X1060972Y10688779D01*
X1063402Y10688990D01*
X1065938Y10689307D01*
X1068369Y10689730D01*
X1070588Y10690258D01*
X1070693D01*
X1070799Y10690364D01*
X1071116Y10690469D01*
X1071539Y10690575D01*
X1072490Y10690998D01*
X1073758Y10691526D01*
X1075131Y10692266D01*
X1076610Y10693111D01*
X1078090Y10694168D01*
X1079358Y10695330D01*
X1079463Y10695436D01*
X1079569Y10695541D01*
X1080097Y10696175D01*
X1080943Y10697232D01*
X1081999Y10698605D01*
X1083056Y10700402D01*
X1084218Y10702515D01*
X1085381Y10704945D01*
X1086437Y10707693D01*
Y10707798D01*
X1086543Y10708010D01*
X1086649Y10708432D01*
X1086860Y10709066D01*
X1087071Y10709806D01*
X1087283Y10710757D01*
X1087494Y10711813D01*
X1087811Y10712976D01*
X1088022Y10714244D01*
X1088234Y10715723D01*
X1088445Y10717202D01*
X1088656Y10718893D01*
X1088973Y10722486D01*
X1089079Y10726501D01*
Y10726712D01*
Y10727135D01*
Y10727980D01*
X1088973Y10729037D01*
Y10730305D01*
X1088868Y10731784D01*
X1088656Y10733369D01*
X1088445Y10735165D01*
X1087811Y10738969D01*
X1086966Y10742879D01*
X1085698Y10746577D01*
X1084852Y10748373D01*
X1084007Y10749958D01*
X1083901Y10750064D01*
X1083796Y10750275D01*
X1083479Y10750698D01*
X1083056Y10751332D01*
X1082633Y10751966D01*
X1081999Y10752705D01*
X1080626Y10754396D01*
X1078829Y10756298D01*
X1076716Y10758094D01*
X1074392Y10759785D01*
X1073124Y10760419D01*
X1071750Y10761053D01*
X1071644D01*
X1071539Y10761159D01*
X1071222Y10761264D01*
X1070799Y10761370D01*
X1070165Y10761476D01*
X1069531Y10761687D01*
X1068686Y10761898D01*
X1067735Y10762110D01*
X1066678Y10762215D01*
X1065410Y10762427D01*
X1064036Y10762638D01*
X1062557Y10762744D01*
X1060867Y10762849D01*
X1059070Y10762955D01*
X1057168Y10763061D01*
D02*
G37*
G36*
X2086124Y10739392D02*
X2085279D01*
X2084645Y10739286D01*
X2083905Y10739180D01*
X2082954Y10739075D01*
X2080947Y10738546D01*
X2078517Y10737701D01*
X2077354Y10737173D01*
X2076086Y10736539D01*
X2074818Y10735799D01*
X2073550Y10734848D01*
X2072388Y10733792D01*
X2071226Y10732629D01*
X2071120Y10732524D01*
X2071014Y10732312D01*
X2070697Y10731890D01*
X2070275Y10731361D01*
X2069852Y10730622D01*
X2069324Y10729776D01*
X2068795Y10728720D01*
X2068267Y10727557D01*
X2067739Y10726184D01*
X2067210Y10724704D01*
X2066682Y10723014D01*
X2066260Y10721218D01*
X2065837Y10719210D01*
X2065520Y10717097D01*
X2065414Y10714772D01*
X2065309Y10712342D01*
Y10712236D01*
Y10711708D01*
Y10711074D01*
X2065414Y10710123D01*
X2065520Y10708961D01*
X2065626Y10707693D01*
X2065837Y10706213D01*
X2066048Y10704734D01*
X2066788Y10701353D01*
X2067844Y10697971D01*
X2068478Y10696387D01*
X2069324Y10694802D01*
X2070169Y10693322D01*
X2071226Y10691949D01*
X2071331Y10691843D01*
X2071543Y10691632D01*
X2071860Y10691315D01*
X2072282Y10690892D01*
X2072916Y10690364D01*
X2073550Y10689835D01*
X2074396Y10689201D01*
X2075347Y10688673D01*
X2077460Y10687405D01*
X2079996Y10686348D01*
X2081369Y10685926D01*
X2082954Y10685609D01*
X2084434Y10685397D01*
X2086124Y10685292D01*
X2086970D01*
X2087604Y10685397D01*
X2088343Y10685503D01*
X2089294Y10685609D01*
X2091302Y10686137D01*
X2093626Y10686982D01*
X2094894Y10687511D01*
X2096162Y10688145D01*
X2097325Y10688884D01*
X2098593Y10689835D01*
X2099755Y10690892D01*
X2100917Y10692054D01*
X2101023Y10692160D01*
X2101129Y10692371D01*
X2101446Y10692794D01*
X2101868Y10693322D01*
X2102291Y10694062D01*
X2102819Y10694907D01*
X2103348Y10695964D01*
X2103982Y10697232D01*
X2104510Y10698500D01*
X2105038Y10700085D01*
X2105567Y10701775D01*
X2105989Y10703677D01*
X2106412Y10705685D01*
X2106729Y10707904D01*
X2106834Y10710229D01*
X2106940Y10712764D01*
Y10712870D01*
Y10713293D01*
Y10714032D01*
X2106834Y10714878D01*
X2106729Y10716040D01*
X2106623Y10717308D01*
X2106412Y10718682D01*
X2106201Y10720161D01*
X2105461Y10723331D01*
X2105038Y10725021D01*
X2104404Y10726712D01*
X2103665Y10728297D01*
X2102925Y10729882D01*
X2101974Y10731256D01*
X2100917Y10732629D01*
X2100812Y10732735D01*
X2100600Y10732946D01*
X2100283Y10733263D01*
X2099861Y10733686D01*
X2099227Y10734214D01*
X2098593Y10734743D01*
X2097747Y10735377D01*
X2096902Y10736011D01*
X2094683Y10737278D01*
X2092147Y10738335D01*
X2090774Y10738758D01*
X2089294Y10739075D01*
X2087709Y10739286D01*
X2086124Y10739392D01*
D02*
G37*
G36*
X1913469Y10739497D02*
X1912730D01*
X1912201Y10739392D01*
X1911462Y10739286D01*
X1910722Y10739180D01*
X1908820Y10738652D01*
X1906707Y10737807D01*
X1905650Y10737278D01*
X1904488Y10736645D01*
X1903326Y10735799D01*
X1902163Y10734848D01*
X1901001Y10733792D01*
X1899944Y10732629D01*
X1899839Y10732524D01*
X1899733Y10732312D01*
X1899416Y10731890D01*
X1899099Y10731361D01*
X1898676Y10730622D01*
X1898148Y10729776D01*
X1897620Y10728720D01*
X1897091Y10727557D01*
X1896563Y10726289D01*
X1896035Y10724810D01*
X1895612Y10723120D01*
X1895084Y10721429D01*
X1894767Y10719527D01*
X1894450Y10717414D01*
X1894344Y10715195D01*
X1894239Y10712870D01*
Y10712764D01*
Y10712342D01*
Y10711708D01*
X1894344Y10710757D01*
Y10709806D01*
X1894450Y10708538D01*
X1894556Y10707270D01*
X1894661Y10705791D01*
X1895084Y10702832D01*
X1895718Y10699768D01*
X1896035Y10698288D01*
X1896457Y10696915D01*
X1896986Y10695647D01*
X1897620Y10694485D01*
X1897725Y10694379D01*
X1897937Y10694062D01*
X1898254Y10693639D01*
X1898676Y10693005D01*
X1899205Y10692371D01*
X1899944Y10691632D01*
X1900790Y10690786D01*
X1901635Y10689941D01*
X1902692Y10688990D01*
X1903854Y10688250D01*
X1905122Y10687405D01*
X1906496Y10686771D01*
X1907975Y10686137D01*
X1909560Y10685714D01*
X1911145Y10685397D01*
X1912941Y10685292D01*
X1913681D01*
X1914209Y10685397D01*
X1914949Y10685503D01*
X1915688Y10685609D01*
X1917590Y10686137D01*
X1919704Y10686982D01*
X1920760Y10687511D01*
X1921922Y10688145D01*
X1923085Y10688884D01*
X1924247Y10689835D01*
X1925409Y10690892D01*
X1926466Y10692054D01*
X1926572Y10692160D01*
X1926677Y10692371D01*
X1926994Y10692794D01*
X1927417Y10693322D01*
X1927840Y10694062D01*
X1928262Y10694907D01*
X1928791Y10695964D01*
X1929425Y10697232D01*
X1929953Y10698500D01*
X1930481Y10700085D01*
X1930904Y10701775D01*
X1931327Y10703572D01*
X1931749Y10705579D01*
X1932066Y10707693D01*
X1932172Y10710017D01*
X1932278Y10712447D01*
Y10712659D01*
Y10713081D01*
Y10713821D01*
X1932172Y10714666D01*
X1932066Y10715829D01*
X1931961Y10717202D01*
X1931855Y10718682D01*
X1931644Y10720161D01*
X1930904Y10723542D01*
X1929953Y10726923D01*
X1929319Y10728508D01*
X1928579Y10730093D01*
X1927734Y10731573D01*
X1926783Y10732841D01*
X1926677Y10732946D01*
X1926572Y10733158D01*
X1926255Y10733475D01*
X1925832Y10733897D01*
X1925304Y10734426D01*
X1924670Y10734954D01*
X1923085Y10736222D01*
X1921077Y10737384D01*
X1918858Y10738441D01*
X1917590Y10738863D01*
X1916322Y10739180D01*
X1914949Y10739392D01*
X1913469Y10739497D01*
D02*
G37*
G36*
X1451295Y10765068D02*
X1449393D01*
X1448865Y10764962D01*
X1448336D01*
X1447597Y10764857D01*
X1446012Y10764540D01*
X1444216Y10764011D01*
X1442314Y10763166D01*
X1440412Y10762110D01*
X1438615Y10760630D01*
X1438404Y10760419D01*
X1437876Y10759891D01*
X1437242Y10758940D01*
X1436396Y10757672D01*
X1435551Y10756192D01*
X1434917Y10754396D01*
X1434389Y10752388D01*
X1434177Y10750170D01*
Y10750064D01*
Y10749853D01*
Y10749536D01*
X1434283Y10749007D01*
Y10748373D01*
X1434389Y10747739D01*
X1434706Y10746154D01*
X1435234Y10744358D01*
X1435974Y10742456D01*
X1437030Y10740554D01*
X1438510Y10738863D01*
X1438721Y10738652D01*
X1439355Y10738229D01*
X1440306Y10737490D01*
X1441680Y10736750D01*
X1443265Y10735905D01*
X1445272Y10735165D01*
X1447597Y10734743D01*
X1450133Y10734531D01*
X1450767D01*
X1451295Y10734637D01*
X1451929D01*
X1452563Y10734743D01*
X1454148Y10735060D01*
X1455944Y10735588D01*
X1457846Y10736328D01*
X1459748Y10737384D01*
X1461544Y10738863D01*
X1461756Y10739075D01*
X1462284Y10739603D01*
X1462918Y10740554D01*
X1463763Y10741822D01*
X1464609Y10743301D01*
X1465243Y10745203D01*
X1465771Y10747211D01*
X1465982Y10749430D01*
Y10749536D01*
Y10749747D01*
Y10750064D01*
X1465877Y10750592D01*
X1465771Y10751754D01*
X1465454Y10753339D01*
X1464926Y10755030D01*
X1464080Y10756932D01*
X1462918Y10758728D01*
X1462284Y10759679D01*
X1461439Y10760525D01*
Y10760630D01*
X1461227Y10760736D01*
X1460593Y10761264D01*
X1459642Y10762004D01*
X1458269Y10762849D01*
X1456684Y10763589D01*
X1454676Y10764328D01*
X1452457Y10764857D01*
X1451295Y10765068D01*
D02*
G37*
G36*
X1449816Y10724704D02*
X1448970D01*
X1448442Y10724599D01*
X1447702Y10724493D01*
X1446857Y10724387D01*
X1444850Y10723965D01*
X1442631Y10723331D01*
X1440306Y10722380D01*
X1439144Y10721746D01*
X1437981Y10721006D01*
X1436819Y10720055D01*
X1435762Y10719104D01*
X1435657Y10718999D01*
X1435551Y10718893D01*
X1435234Y10718576D01*
X1434917Y10718153D01*
X1434494Y10717519D01*
X1434072Y10716885D01*
X1433543Y10716146D01*
X1433015Y10715300D01*
X1431959Y10713293D01*
X1431113Y10710863D01*
X1430479Y10708115D01*
X1430374Y10706742D01*
X1430268Y10705157D01*
Y10705051D01*
Y10704945D01*
Y10704311D01*
X1430374Y10703255D01*
X1430585Y10701987D01*
X1430796Y10700507D01*
X1431219Y10698817D01*
X1431853Y10697021D01*
X1432593Y10695224D01*
X1432698Y10695013D01*
X1433015Y10694485D01*
X1433649Y10693534D01*
X1434389Y10692477D01*
X1435445Y10691315D01*
X1436608Y10690152D01*
X1438087Y10688884D01*
X1439778Y10687828D01*
X1439883D01*
X1439989Y10687722D01*
X1440623Y10687405D01*
X1441574Y10686982D01*
X1442948Y10686560D01*
X1444427Y10686137D01*
X1446223Y10685714D01*
X1448125Y10685397D01*
X1450133Y10685292D01*
X1450978D01*
X1451612Y10685397D01*
X1452352Y10685503D01*
X1453197Y10685609D01*
X1455205Y10686031D01*
X1457424Y10686665D01*
X1459854Y10687616D01*
X1461016Y10688250D01*
X1462178Y10688990D01*
X1463341Y10689835D01*
X1464397Y10690786D01*
X1464503Y10690892D01*
X1464609Y10690998D01*
X1464926Y10691315D01*
X1465243Y10691737D01*
X1465665Y10692371D01*
X1466194Y10693005D01*
X1466722Y10693745D01*
X1467250Y10694590D01*
X1468201Y10696598D01*
X1469152Y10699028D01*
X1469786Y10701670D01*
X1469892Y10703149D01*
X1469998Y10704734D01*
Y10704840D01*
Y10705157D01*
Y10705579D01*
X1469892Y10706213D01*
X1469786Y10706953D01*
X1469681Y10707798D01*
X1469258Y10709806D01*
X1468624Y10712025D01*
X1467567Y10714455D01*
X1466933Y10715617D01*
X1466088Y10716780D01*
X1465243Y10717942D01*
X1464186Y10718999D01*
X1464080Y10719104D01*
X1463975Y10719210D01*
X1463658Y10719527D01*
X1463129Y10719844D01*
X1462601Y10720372D01*
X1461967Y10720795D01*
X1461122Y10721323D01*
X1460276Y10721852D01*
X1458163Y10722908D01*
X1455733Y10723859D01*
X1452880Y10724493D01*
X1451401Y10724599D01*
X1449816Y10724704D01*
D02*
G37*
%LPD*%
D58*
X3930000Y0D02*
Y10650002D01*
X0Y0D02*
X3930000D01*
X0Y10650002D02*
X3930000D01*
X0Y0D02*
Y10650002D01*
%TF.MD5,60b1ed66f98b523a137faf6efa024f5b*%
M02*
