%TF.GenerationSoftware,Altium Limited,Altium Designer,24.6.1 (21)*%
G04 Layer_Color=128*
%FSLAX45Y45*%
%MOMM*%
%TF.SameCoordinates,FEC14C44-D625-4E92-8207-BAE4E8E866B2*%
%TF.FilePolarity,Positive*%
%TF.FileFunction,Drillmap*%
%TF.Part,Single*%
G01*
G75*
%TA.AperFunction,NonConductor*%
%ADD62C,0.12700*%
D62*
X3452000Y5114000D02*
X3554000D01*
X3503000Y5063001D02*
Y5165000D01*
X3452000Y4860000D02*
X3554000D01*
X3503000Y4809001D02*
Y4911000D01*
X3452000Y4606000D02*
X3554000D01*
X3503000Y4555001D02*
Y4657000D01*
X3706000Y4606000D02*
X3808000D01*
X3757000Y4555001D02*
Y4657000D01*
X3706000Y4860000D02*
X3808000D01*
X3757000Y4809001D02*
Y4911000D01*
X3706000Y5114000D02*
X3808000D01*
X3757000Y5063001D02*
Y5165000D01*
X376000Y5491998D02*
X477999D01*
X426999Y5440998D02*
Y5542998D01*
X376000Y5745998D02*
X477999D01*
X426999Y5694998D02*
Y5796998D01*
X3638498Y1460002D02*
X3709498D01*
X3673998Y1424502D02*
Y1495502D01*
X3384498Y1460002D02*
X3455498D01*
X3419998Y1424502D02*
Y1495502D01*
X3130498Y1460002D02*
X3201498D01*
X3165998Y1424502D02*
Y1495502D01*
X3638498Y930001D02*
X3709498D01*
X3673998Y894501D02*
Y965501D01*
X3384498Y930001D02*
X3455498D01*
X3419998Y894501D02*
Y965501D01*
X3130498Y930001D02*
X3201498D01*
X3165998Y894501D02*
Y965501D01*
X220501Y1460002D02*
X291502D01*
X256002Y1424502D02*
Y1495502D01*
X474501Y1460002D02*
X545502D01*
X510002Y1424502D02*
Y1495502D01*
X728501Y1460002D02*
X799502D01*
X764002Y1424502D02*
Y1495502D01*
X220501Y930001D02*
X291502D01*
X256002Y894501D02*
Y965501D01*
X474501Y930001D02*
X545502D01*
X510002Y894501D02*
Y965501D01*
X728501Y930001D02*
X799502D01*
X764002Y894501D02*
Y965501D01*
X3236001Y8859002D02*
X3356000D01*
X3296001Y8799002D02*
Y8919002D01*
X3490001Y8859002D02*
X3610000D01*
X3550001Y8799002D02*
Y8919002D01*
X3236001Y9113002D02*
X3356000D01*
X3296001Y9053002D02*
Y9173002D01*
X3490001Y9113002D02*
X3610000D01*
X3550001Y9053002D02*
Y9173002D01*
X3490001Y9367002D02*
X3610000D01*
X3550001Y9307002D02*
Y9427002D01*
X3236001Y9621002D02*
X3356000D01*
X3296001Y9561002D02*
Y9681002D01*
X3490001Y9621002D02*
X3610000D01*
X3550001Y9561002D02*
Y9681002D01*
X3236001Y9875002D02*
X3356000D01*
X3296001Y9815002D02*
Y9935002D01*
X3490001Y9875002D02*
X3610000D01*
X3550001Y9815002D02*
Y9935002D01*
X3236001Y9367002D02*
X3356000D01*
X3296001Y9307002D02*
Y9427002D01*
X2422000Y172999D02*
X2524000D01*
X2473000Y122000D02*
Y223999D01*
X2168000Y172999D02*
X2270000D01*
X2219000Y122000D02*
Y223999D01*
X1914000Y172999D02*
X2016000D01*
X1965000Y122000D02*
Y223999D01*
X1660000Y172999D02*
X1762000D01*
X1711000Y122000D02*
Y223999D01*
X1406000Y172999D02*
X1508000D01*
X1457000Y122000D02*
Y223999D01*
X1406000Y426999D02*
X1508000D01*
X1457000Y376000D02*
Y477999D01*
X1660000Y426999D02*
X1762000D01*
X1711000Y376000D02*
Y477999D01*
X1914000Y426999D02*
X2016000D01*
X1965000Y376000D02*
Y477999D01*
X2168000Y426999D02*
X2270000D01*
X2219000Y376000D02*
Y477999D01*
X2422000Y426999D02*
X2524000D01*
X2473000Y376000D02*
Y477999D01*
X376000Y6507998D02*
X477999D01*
X426999Y6456998D02*
Y6558998D01*
X376000Y6253998D02*
X477999D01*
X426999Y6202998D02*
Y6304998D01*
X376000Y5999998D02*
X477999D01*
X426999Y5948998D02*
Y6050998D01*
X122000Y5491998D02*
X223999D01*
X172999Y5440998D02*
Y5542998D01*
X122000Y5745998D02*
X223999D01*
X172999Y5694998D02*
Y5796998D01*
X122000Y5999998D02*
X223999D01*
X172999Y5948998D02*
Y6050998D01*
X122000Y6253998D02*
X223999D01*
X172999Y6202998D02*
Y6304998D01*
X122000Y6507998D02*
X223999D01*
X172999Y6456998D02*
Y6558998D01*
X3706000Y6507998D02*
X3808000D01*
X3757000Y6456998D02*
Y6558998D01*
X3706000Y6253998D02*
X3808000D01*
X3757000Y6202998D02*
Y6304998D01*
X3706000Y5999998D02*
X3808000D01*
X3757000Y5948998D02*
Y6050998D01*
X3706000Y5745998D02*
X3808000D01*
X3757000Y5694998D02*
Y5796998D01*
X3706000Y5491998D02*
X3808000D01*
X3757000Y5440998D02*
Y5542998D01*
X3452000Y5491998D02*
X3554000D01*
X3503000Y5440998D02*
Y5542998D01*
X3452000Y5745998D02*
X3554000D01*
X3503000Y5694998D02*
Y5796998D01*
X3452000Y5999998D02*
X3554000D01*
X3503000Y5948998D02*
Y6050998D01*
X3452000Y6253998D02*
X3554000D01*
X3503000Y6202998D02*
Y6304998D01*
X3452000Y6507998D02*
X3554000D01*
X3503000Y6456998D02*
Y6558998D01*
X2075000Y6780000D02*
X2105000D01*
X2090000Y6765000D02*
Y6795000D01*
X2075000Y6870000D02*
X2105000D01*
X2090000Y6855000D02*
Y6885000D01*
X2325000Y8400000D02*
X2355000D01*
X2340000Y8385000D02*
Y8415000D01*
X1505000Y9650000D02*
X1535000D01*
X1520000Y9635000D02*
Y9665000D01*
X1685000Y9650000D02*
X1715000D01*
X1700000Y9635000D02*
Y9665000D01*
X1905000Y9810000D02*
X1935000D01*
X1920000Y9795000D02*
Y9825000D01*
X3705000Y4040000D02*
X3735000D01*
X3720000Y4025000D02*
Y4055000D01*
X3615000Y4110000D02*
X3645000D01*
X3630000Y4095000D02*
Y4125000D01*
X3615000Y3970000D02*
X3645000D01*
X3630000Y3955000D02*
Y3985000D01*
X3355000Y3870000D02*
X3385000D01*
X3370000Y3855000D02*
Y3885000D01*
X225000Y7840000D02*
X255000D01*
X240000Y7825000D02*
Y7855000D01*
X2795000Y10110000D02*
X2825000D01*
X2810000Y10095000D02*
Y10125000D01*
X2795000Y10390000D02*
X2825000D01*
X2810000Y10375000D02*
Y10405000D01*
X2635000Y10110000D02*
X2665000D01*
X2650000Y10095000D02*
Y10125000D01*
X2635000Y10390000D02*
X2665000D01*
X2650000Y10375000D02*
Y10405000D01*
X1245000Y10290000D02*
X1275000D01*
X1260000Y10275000D02*
Y10305000D01*
X1245000Y10410000D02*
X1275000D01*
X1260000Y10395000D02*
Y10425000D01*
X1525000Y10410000D02*
X1555000D01*
X1540000Y10395000D02*
Y10425000D01*
X1525000Y10290000D02*
X1555000D01*
X1540000Y10275000D02*
Y10305000D01*
X1375000Y9610000D02*
X1405000D01*
X1390000Y9595000D02*
Y9625000D01*
X2405000Y9550000D02*
X2435000D01*
X2420000Y9535000D02*
Y9565000D01*
X2305000Y9120000D02*
X2335000D01*
X2320000Y9105000D02*
Y9135000D01*
X2785000Y8660000D02*
X2815000D01*
X2800000Y8645000D02*
Y8675000D01*
X2635000Y8660000D02*
X2665000D01*
X2650000Y8645000D02*
Y8675000D01*
X2785000Y8390000D02*
X2815000D01*
X2800000Y8375000D02*
Y8405000D01*
X2635000Y8390000D02*
X2665000D01*
X2650000Y8375000D02*
Y8405000D01*
X75000Y7980000D02*
X105000D01*
X90000Y7965000D02*
Y7995000D01*
X1385000Y8220000D02*
X1415000D01*
X1400000Y8205000D02*
Y8235000D01*
X1265000Y8150000D02*
X1295000D01*
X1280000Y8135000D02*
Y8165000D01*
X2285000Y6430000D02*
X2315000D01*
X2300000Y6415000D02*
Y6445000D01*
X1615000Y6800000D02*
X1645000D01*
X1630000Y6785000D02*
Y6815000D01*
X2105000Y6390000D02*
X2135000D01*
X2120000Y6375000D02*
Y6405000D01*
X1035000Y5500000D02*
X1065000D01*
X1050000Y5485000D02*
Y5515000D01*
X1035000Y5260000D02*
X1065000D01*
X1050000Y5245000D02*
Y5275000D01*
X655000Y5260000D02*
X685000D01*
X670000Y5245000D02*
Y5275000D01*
X1285000Y5370000D02*
X1315000D01*
X1300000Y5355000D02*
Y5385000D01*
X1455000Y5370000D02*
X1485000D01*
X1470000Y5355000D02*
Y5385000D01*
X2495000Y4790000D02*
X2525000D01*
X2510000Y4775000D02*
Y4805000D01*
X2665000Y5260000D02*
X2695000D01*
X2680000Y5245000D02*
Y5275000D01*
X2495000Y4070000D02*
X2525000D01*
X2510000Y4055000D02*
Y4085000D01*
X2595000Y4370000D02*
X2625000D01*
X2610000Y4355000D02*
Y4385000D01*
X1909544Y4117251D02*
X1939544D01*
X1924544Y4102251D02*
Y4132251D01*
X1825000Y4770000D02*
X1855000D01*
X1840000Y4755000D02*
Y4785000D01*
X1265000Y4580000D02*
X1295000D01*
X1280000Y4565000D02*
Y4595000D01*
X1155000Y4460000D02*
X1185000D01*
X1170000Y4445000D02*
Y4475000D01*
X1895000Y3960000D02*
X1925000D01*
X1910000Y3945000D02*
Y3975000D01*
X965001Y2011561D02*
X995001D01*
X980001Y1996561D02*
Y2026561D01*
X2855000Y1190000D02*
X2885000D01*
X2870000Y1175000D02*
Y1205000D01*
X1359544Y1537250D02*
X1389544D01*
X1374544Y1522250D02*
Y1552250D01*
X1355000Y840000D02*
X1385000D01*
X1370000Y825000D02*
Y855000D01*
X1249544Y1197251D02*
X1279544D01*
X1264544Y1182251D02*
Y1212251D01*
X955000Y920000D02*
X985000D01*
X970000Y905000D02*
Y935000D01*
X965000Y1470000D02*
X995000D01*
X980000Y1455000D02*
Y1485000D01*
X2995000Y1470000D02*
X3025000D01*
X3010000Y1455000D02*
Y1485000D01*
X2935000Y920000D02*
X2965000D01*
X2950000Y905000D02*
Y935000D01*
X2765000Y1190000D02*
X2795000D01*
X2780000Y1175000D02*
Y1205000D01*
X1275000Y2290000D02*
X1305000D01*
X1290000Y2275000D02*
Y2305000D01*
X1845000Y2080000D02*
X1875000D01*
X1860000Y2065000D02*
Y2095000D01*
X1845000Y2150000D02*
X1875000D01*
X1860000Y2135000D02*
Y2165000D01*
X2035000Y2720000D02*
X2065000D01*
X2050000Y2705000D02*
Y2735000D01*
X2035000Y2550000D02*
X2065000D01*
X2050000Y2535000D02*
Y2565000D01*
X1395000Y2550000D02*
X1425000D01*
X1410000Y2535000D02*
Y2565000D01*
X965000Y1900000D02*
X995000D01*
X980000Y1885000D02*
Y1915000D01*
X655000Y2150000D02*
X685000D01*
X670000Y2135000D02*
Y2165000D01*
X655000Y2300000D02*
X685000D01*
X670000Y2285000D02*
Y2315000D01*
X475000Y2510000D02*
X505000D01*
X490000Y2495000D02*
Y2525000D01*
X1125000Y8020000D02*
X1155000D01*
X1140000Y8005000D02*
Y8035000D01*
X1125000Y7940000D02*
X1155000D01*
X1140000Y7925000D02*
Y7955000D01*
X2845000Y2470000D02*
X2875000D01*
X2860000Y2455000D02*
Y2485000D01*
X2425000Y2040000D02*
X2455000D01*
X2440000Y2025000D02*
Y2055000D01*
X2025000Y1570000D02*
X2055000D01*
X2040000Y1555000D02*
Y1585000D01*
X2080968Y3465968D02*
X2110968D01*
X2095968Y3450968D02*
Y3480968D01*
X2075000Y5860000D02*
X2105000D01*
X2090000Y5845000D02*
Y5875000D01*
X2145000Y3580000D02*
X2175000D01*
X2160000Y3565000D02*
Y3595000D01*
X2175000Y5860000D02*
X2205000D01*
X2190000Y5845000D02*
Y5875000D01*
X2135000Y4950000D02*
X2165000D01*
X2150000Y4935000D02*
Y4965000D01*
X2025000Y2900000D02*
X2055000D01*
X2040000Y2885000D02*
Y2915000D01*
X2015000Y5110000D02*
X2045000D01*
X2030000Y5095000D02*
Y5125000D01*
X2015000Y3620000D02*
X2045000D01*
X2030000Y3605000D02*
Y3635000D01*
X1805000Y6400000D02*
X1835000D01*
X1820000Y6385000D02*
Y6415000D01*
X1895000Y4850000D02*
X1925000D01*
X1910000Y4835000D02*
Y4865000D01*
X2285000Y6780000D02*
X2315000D01*
X2300000Y6765000D02*
Y6795000D01*
X1325000Y6730000D02*
X1355000D01*
X1340000Y6715000D02*
Y6745000D01*
X2805200Y1970000D02*
X2835200D01*
X2820200Y1955000D02*
Y1985000D01*
X1615000Y5290000D02*
X1645000D01*
X1630000Y5275000D02*
Y5305000D01*
X1535000Y5320000D02*
X1565000D01*
X1550000Y5305000D02*
Y5335000D01*
X2425000Y2460000D02*
X2455000D01*
X2440000Y2445000D02*
Y2475000D01*
X1375000Y5130000D02*
X1405000D01*
X1390000Y5115000D02*
Y5145000D01*
X1295000Y5130000D02*
X1325000D01*
X1310000Y5115000D02*
Y5145000D01*
X1095000Y5050000D02*
X1125000D01*
X1110000Y5035000D02*
Y5065000D01*
X1269546Y2541961D02*
X1299546D01*
X1284546Y2526961D02*
Y2556961D01*
X3105000Y1970000D02*
X3135000D01*
X3120000Y1955000D02*
Y1985000D01*
X2315000Y9790000D02*
X2345000D01*
X2330000Y9775000D02*
Y9805000D01*
X1385002Y8950000D02*
X1415002D01*
X1400002Y8935000D02*
Y8965000D01*
X2425000Y1900000D02*
X2455000D01*
X2440000Y1885000D02*
Y1915000D01*
X2975000Y1870000D02*
X3005000D01*
X2990000Y1855000D02*
Y1885000D01*
X3335000Y1870000D02*
X3365000D01*
X3350000Y1855000D02*
Y1885000D01*
X3675000Y1870000D02*
X3705000D01*
X3690000Y1855000D02*
Y1885000D01*
X1955000Y5200000D02*
X1985000D01*
X1970000Y5185000D02*
Y5215000D01*
X1405000Y4860000D02*
X1435000D01*
X1420000Y4845000D02*
Y4875000D01*
X1601949Y4795014D02*
X1631949D01*
X1616949Y4780014D02*
Y4810014D01*
X1625000Y4720000D02*
X1655000D01*
X1640000Y4705000D02*
Y4735000D01*
X1705000Y4690000D02*
X1735000D01*
X1720000Y4675000D02*
Y4705000D01*
X1462729Y5192271D02*
X1492729D01*
X1477729Y5177271D02*
Y5207271D01*
X2355000Y5240000D02*
X2385000D01*
X2370000Y5225000D02*
Y5255000D01*
X2245000Y4820000D02*
X2275000D01*
X2260000Y4805000D02*
Y4835000D01*
X2255000Y4730000D02*
X2285000D01*
X2270000Y4715000D02*
Y4745000D01*
X2435000Y5240000D02*
X2465000D01*
X2450000Y5225000D02*
Y5255000D01*
X3106913Y4978087D02*
X3136913D01*
X3121913Y4963087D02*
Y4993087D01*
X2607270Y5022271D02*
X2637270D01*
X2622270Y5007271D02*
Y5037271D01*
X3205000Y3260000D02*
X3235000D01*
X3220000Y3245000D02*
Y3275000D01*
X1045000Y4330000D02*
X1075000D01*
X1060000Y4315000D02*
Y4345000D01*
X2515000Y4170000D02*
X2545000D01*
X2530000Y4155000D02*
Y4185000D01*
X3243087Y4308087D02*
X3273087D01*
X3258087Y4293087D02*
Y4323087D01*
X1555529Y2310000D02*
X1585529D01*
X1570529Y2295000D02*
Y2325000D01*
X1555000Y2410000D02*
X1585000D01*
X1570000Y2395000D02*
Y2425000D01*
X1225000Y5800000D02*
X1255000D01*
X1240000Y5785000D02*
Y5815000D01*
X1225000Y6160000D02*
X1255000D01*
X1240000Y6145000D02*
Y6175000D01*
X1225000Y6510000D02*
X1255000D01*
X1240000Y6495000D02*
Y6525000D01*
X1325000Y6380000D02*
X1355000D01*
X1340000Y6365000D02*
Y6395000D01*
X1325000Y6030000D02*
X1355000D01*
X1340000Y6015000D02*
Y6045000D01*
X705000Y6210000D02*
X735000D01*
X720000Y6195000D02*
Y6225000D01*
X2425000Y2180000D02*
X2455000D01*
X2440000Y2165000D02*
Y2195000D01*
X2425000Y2320000D02*
X2455000D01*
X2440000Y2305000D02*
Y2335000D01*
X3545000Y2470000D02*
X3575000D01*
X3560000Y2455000D02*
Y2485000D01*
X3675000Y2670000D02*
X3705000D01*
X3690000Y2655000D02*
Y2685000D01*
X3545000Y2670000D02*
X3575000D01*
X3560000Y2655000D02*
Y2685000D01*
X3195000Y2670000D02*
X3225000D01*
X3210000Y2655000D02*
Y2685000D01*
X1495000Y6540000D02*
X1525000D01*
X1510000Y6525000D02*
Y6555000D01*
X705000Y6560000D02*
X735000D01*
X720000Y6545000D02*
Y6575000D01*
X795000Y6830000D02*
X825000D01*
X810000Y6815000D02*
Y6845000D01*
X3555000Y3260000D02*
X3585000D01*
X3570000Y3245000D02*
Y3275000D01*
X3445000Y1970000D02*
X3475000D01*
X3460000Y1955000D02*
Y1985000D01*
X3325000Y2670000D02*
X3355000D01*
X3340000Y2655000D02*
Y2685000D01*
X3195000Y2470000D02*
X3225000D01*
X3210000Y2455000D02*
Y2485000D01*
X275000Y8150000D02*
X305000D01*
X290000Y8135000D02*
Y8165000D01*
X2025000Y1320000D02*
X2055000D01*
X2040000Y1305000D02*
Y1335000D01*
X1559500Y1645500D02*
X1589500D01*
X1574500Y1630500D02*
Y1660500D01*
X2025000Y1060000D02*
X2055000D01*
X2040000Y1045000D02*
Y1075000D01*
X2329066Y1191572D02*
X2359066D01*
X2344066Y1176572D02*
Y1206572D01*
X1565929Y1188429D02*
X1595928D01*
X1580929Y1173429D02*
Y1203429D01*
X475000Y7830000D02*
X505000D01*
X490000Y7815000D02*
Y7845000D01*
X160001Y9074998D02*
X190001D01*
X175001Y9059998D02*
Y9089998D01*
X260001Y9074998D02*
X290001D01*
X275001Y9059998D02*
Y9089998D01*
X360001Y9074998D02*
X390000D01*
X375001Y9059998D02*
Y9089998D01*
X460000Y9074998D02*
X490000D01*
X475000Y9059998D02*
Y9089998D01*
X460000Y9174998D02*
X490000D01*
X475000Y9159998D02*
Y9189998D01*
X360001Y9174998D02*
X390000D01*
X375001Y9159998D02*
Y9189998D01*
X260001Y9174998D02*
X290001D01*
X275001Y9159998D02*
Y9189998D01*
X160001Y9174998D02*
X190001D01*
X175001Y9159998D02*
Y9189998D01*
X160001Y9475003D02*
X190001D01*
X175001Y9460003D02*
Y9490003D01*
X460000Y9475003D02*
X490000D01*
X475000Y9460003D02*
Y9490003D01*
X360001Y9475003D02*
X390000D01*
X375001Y9460003D02*
Y9490003D01*
X160001Y9675002D02*
X190001D01*
X175001Y9660002D02*
Y9690002D01*
X460000Y9675002D02*
X490000D01*
X475000Y9660002D02*
Y9690002D01*
X260001Y9575002D02*
X290001D01*
X275001Y9560002D02*
Y9590002D01*
X160001Y9575002D02*
X190001D01*
X175001Y9560002D02*
Y9590002D01*
X260001Y9475003D02*
X290001D01*
X275001Y9460003D02*
Y9490003D01*
X460000Y9575002D02*
X490000D01*
X475000Y9560002D02*
Y9590002D01*
X360001Y9675002D02*
X390000D01*
X375001Y9660002D02*
Y9690002D01*
X260001Y9675002D02*
X290001D01*
X275001Y9660002D02*
Y9690002D01*
X360001Y9575002D02*
X390000D01*
X375001Y9560002D02*
Y9590002D01*
X460000Y9374998D02*
X490000D01*
X475000Y9359998D02*
Y9389998D01*
X260001Y9274998D02*
X290001D01*
X275001Y9259998D02*
Y9289998D01*
X260001Y9374998D02*
X290001D01*
X275001Y9359998D02*
Y9389998D01*
X160001Y9374998D02*
X190001D01*
X175001Y9359998D02*
Y9389998D01*
X160001Y9274998D02*
X190001D01*
X175001Y9259998D02*
Y9289998D01*
X360001Y9274998D02*
X390000D01*
X375001Y9259998D02*
Y9289998D01*
X360001Y9374998D02*
X390000D01*
X375001Y9359998D02*
Y9389998D01*
X460000Y9274998D02*
X490000D01*
X475000Y9259998D02*
Y9289998D01*
%TF.MD5,e155acdf5bfed100f993971a92d12c0e*%
M02*
