%TF.GenerationSoftware,Altium Limited,Altium Designer,24.6.1 (21)*%
G04 Layer_Color=16711935*
%FSLAX45Y45*%
%MOMM*%
%TF.SameCoordinates,FEC14C44-D625-4E92-8207-BAE4E8E866B2*%
%TF.FilePolarity,Positive*%
%TF.FileFunction,Other,Bottom_Courtyard*%
%TF.Part,Single*%
G01*
G75*
%TA.AperFunction,NonConductor*%
%ADD56C,0.20000*%
%ADD92C,0.05000*%
D56*
X1341404Y4090104D02*
X1610106Y3821402D01*
X1758594Y3969896D01*
X1489898Y4238597D02*
X1758594Y3969896D01*
X1341404Y4090104D02*
X1489898Y4238597D01*
X1051560Y4257121D02*
X1207125Y4101562D01*
X1288440Y4182877D01*
X1132876Y4338442D02*
X1288440Y4182877D01*
X1051560Y4257121D02*
X1132876Y4338442D01*
X3350001Y4429999D02*
Y5290002D01*
X3910000D01*
X3350001Y4429999D02*
X3910000D01*
Y5290002D01*
X1589689Y732500D02*
X2330308D01*
Y1647500D01*
X1589689D02*
X2330308D01*
X1589689Y732500D02*
Y1647500D01*
X2010000Y2842501D02*
Y2957502D01*
X1790000Y2842501D02*
X2010000D01*
X1790000D02*
Y2957502D01*
X2010000D01*
X1030000Y2322500D02*
Y2437501D01*
X1250000D01*
Y2322500D02*
Y2437501D01*
X1030000Y2322500D02*
X1250000D01*
X2189998Y6470000D02*
Y6917502D01*
X1740002D02*
X2189998D01*
X1740002Y6470000D02*
X2189998D01*
X1740002D02*
Y6917502D01*
X1334999Y9037498D02*
Y9712498D01*
X515000Y9037498D02*
X1334999D01*
X515000D02*
Y9712498D01*
X1334999D01*
X1030002Y2597500D02*
X1250002D01*
X1030002Y2482499D02*
Y2597500D01*
Y2482499D02*
X1250002D01*
Y2597500D01*
X2384999Y7002501D02*
Y8002499D01*
X1545001Y7002501D02*
Y8002499D01*
Y7002501D02*
X2384999D01*
X1545001Y8002499D02*
X2384999D01*
D92*
X3794999Y3830000D02*
Y4249999D01*
X3465002D02*
X3794999D01*
X3465002Y3830000D02*
Y4249999D01*
Y3830000D02*
X3794999D01*
%TF.MD5,143962852df42728f6a68f8e29915fd9*%
M02*
