%TF.GenerationSoftware,Altium Limited,Altium Designer,24.6.1 (21)*%
G04 Layer_Physical_Order=2*
G04 Layer_Color=36540*
%FSLAX45Y45*%
%MOMM*%
%TF.SameCoordinates,FEC14C44-D625-4E92-8207-BAE4E8E866B2*%
%TF.FilePolarity,Positive*%
%TF.FileFunction,Copper,L2,Inr,Signal*%
%TF.Part,Single*%
G01*
G75*
%TA.AperFunction,ComponentPad*%
%ADD11C,1.75000*%
%ADD12C,1.21000*%
%ADD13R,1.21000X1.21000*%
%ADD14C,1.83500*%
%TA.AperFunction,ViaPad*%
%ADD15C,0.60000*%
%TA.AperFunction,Conductor*%
%ADD16C,0.50000*%
G36*
X2685000Y6615000D02*
Y5975000D01*
X3040000Y5620000D01*
X3909609D01*
Y2709610D01*
X3590000Y2390000D01*
X2340000D01*
X2064117Y2665883D01*
X2067097Y2680864D01*
X2074187Y2683801D01*
X2086199Y2695812D01*
X2092700Y2711506D01*
Y2728493D01*
X2086199Y2744187D01*
X2074187Y2756199D01*
X2058493Y2762700D01*
X2041506D01*
X2025813Y2756199D01*
X2013801Y2744187D01*
X2010864Y2737097D01*
X1995883Y2734117D01*
X1010000Y3720000D01*
X1010000Y5221653D01*
X1022700Y5226913D01*
X1025813Y5223801D01*
X1041506Y5217300D01*
X1058493D01*
X1074187Y5223801D01*
X1086199Y5235812D01*
X1092700Y5251506D01*
Y5268493D01*
X1086199Y5284187D01*
X1074187Y5296199D01*
X1058493Y5302700D01*
X1041506D01*
X1025813Y5296199D01*
X1022700Y5293086D01*
X1010000Y5298347D01*
Y5461653D01*
X1022700Y5466913D01*
X1025813Y5463801D01*
X1041506Y5457300D01*
X1058493D01*
X1074187Y5463801D01*
X1086199Y5475813D01*
X1092700Y5491506D01*
Y5508493D01*
X1086199Y5524187D01*
X1074187Y5536199D01*
X1058493Y5542700D01*
X1041506D01*
X1025813Y5536199D01*
X1022700Y5533086D01*
X1010000Y5538347D01*
Y6440000D01*
X220000Y7230000D01*
Y7790636D01*
X230560Y7797692D01*
X231507Y7797300D01*
X248494D01*
X264187Y7803801D01*
X276199Y7815813D01*
X282700Y7831507D01*
Y7848494D01*
X276199Y7864187D01*
X264187Y7876199D01*
X248494Y7882700D01*
X231507D01*
X230560Y7882308D01*
X220000Y7889364D01*
Y8210000D01*
X1090000D01*
X2685000Y6615000D01*
D02*
G37*
G36*
X130000Y9725000D02*
Y9025000D01*
X525000D01*
Y9725000D01*
X130000D01*
D02*
G37*
%LPC*%
G36*
X1148494Y8062700D02*
X1131506D01*
X1115813Y8056199D01*
X1103801Y8044187D01*
X1097300Y8028493D01*
Y8011506D01*
X1103801Y7995813D01*
X1111468Y7988146D01*
X1114430Y7980000D01*
X1111468Y7971854D01*
X1103801Y7964188D01*
X1097300Y7948494D01*
Y7931507D01*
X1103801Y7915813D01*
X1115813Y7903801D01*
X1131506Y7897300D01*
X1148494D01*
X1164187Y7903801D01*
X1176199Y7915813D01*
X1182700Y7931507D01*
Y7948494D01*
X1176199Y7964188D01*
X1168532Y7971854D01*
X1165570Y7980000D01*
X1168532Y7988146D01*
X1176199Y7995813D01*
X1182700Y8011506D01*
Y8028493D01*
X1176199Y8044187D01*
X1164187Y8056199D01*
X1148494Y8062700D01*
D02*
G37*
G36*
X498494Y7872700D02*
X481507D01*
X465813Y7866199D01*
X453801Y7854187D01*
X447300Y7838494D01*
Y7821507D01*
X453801Y7805813D01*
X465813Y7793801D01*
X481507Y7787300D01*
X498494D01*
X514187Y7793801D01*
X526199Y7805813D01*
X532700Y7821507D01*
Y7838494D01*
X526199Y7854187D01*
X514187Y7866199D01*
X498494Y7872700D01*
D02*
G37*
G36*
X818493Y6872700D02*
X801506D01*
X785813Y6866199D01*
X773801Y6854187D01*
X767300Y6838494D01*
Y6821507D01*
X773801Y6805813D01*
X785813Y6793801D01*
X801506Y6787300D01*
X818493D01*
X834187Y6793801D01*
X846199Y6805813D01*
X852700Y6821507D01*
Y6838494D01*
X846199Y6854187D01*
X834187Y6866199D01*
X818493Y6872700D01*
D02*
G37*
G36*
X1638494Y6842700D02*
X1621507D01*
X1605813Y6836199D01*
X1593801Y6824188D01*
X1587300Y6808494D01*
Y6791507D01*
X1593801Y6775813D01*
X1605813Y6763801D01*
X1621507Y6757300D01*
X1638494D01*
X1654187Y6763801D01*
X1666199Y6775813D01*
X1672700Y6791507D01*
Y6808494D01*
X1666199Y6824188D01*
X1654187Y6836199D01*
X1638494Y6842700D01*
D02*
G37*
G36*
X2308493Y6822700D02*
X2291506D01*
X2275813Y6816199D01*
X2263801Y6804187D01*
X2257300Y6788493D01*
Y6771506D01*
X2263801Y6755812D01*
X2275813Y6743801D01*
X2291506Y6737300D01*
X2308493D01*
X2324187Y6743801D01*
X2336199Y6755812D01*
X2342700Y6771506D01*
Y6788493D01*
X2336199Y6804187D01*
X2324187Y6816199D01*
X2308493Y6822700D01*
D02*
G37*
G36*
X2098493Y6912700D02*
X2081506D01*
X2065812Y6906199D01*
X2053801Y6894187D01*
X2047300Y6878493D01*
Y6861506D01*
X2053801Y6845813D01*
X2065812Y6833801D01*
X2070466Y6831873D01*
Y6818127D01*
X2065812Y6816199D01*
X2053801Y6804187D01*
X2047300Y6788493D01*
Y6771506D01*
X2053801Y6755812D01*
X2065812Y6743801D01*
X2081506Y6737300D01*
X2098493D01*
X2114187Y6743801D01*
X2126199Y6755812D01*
X2132700Y6771506D01*
Y6788493D01*
X2126199Y6804187D01*
X2114187Y6816199D01*
X2109534Y6818127D01*
Y6831873D01*
X2114187Y6833801D01*
X2126199Y6845813D01*
X2132700Y6861506D01*
Y6878493D01*
X2126199Y6894187D01*
X2114187Y6906199D01*
X2098493Y6912700D01*
D02*
G37*
G36*
X1248494Y6552700D02*
X1231507D01*
X1215813Y6546199D01*
X1203801Y6534187D01*
X1197300Y6518493D01*
Y6501506D01*
X1203801Y6485813D01*
X1215813Y6473801D01*
X1231507Y6467300D01*
X1248494D01*
X1264187Y6473801D01*
X1276199Y6485813D01*
X1282700Y6501506D01*
Y6518493D01*
X1276199Y6534187D01*
X1264187Y6546199D01*
X1248494Y6552700D01*
D02*
G37*
G36*
X2308493Y6472700D02*
X2291506D01*
X2275813Y6466199D01*
X2263801Y6454187D01*
X2257300Y6438494D01*
Y6421507D01*
X2263801Y6405813D01*
X2275813Y6393801D01*
X2291506Y6387300D01*
X2308493D01*
X2324187Y6393801D01*
X2336199Y6405813D01*
X2342700Y6421507D01*
Y6438494D01*
X2336199Y6454187D01*
X2324187Y6466199D01*
X2308493Y6472700D01*
D02*
G37*
G36*
X2128494Y6432700D02*
X2111507D01*
X2095813Y6426199D01*
X2083801Y6414187D01*
X2077300Y6398493D01*
Y6381506D01*
X2083801Y6365813D01*
X2095813Y6353801D01*
X2111507Y6347300D01*
X2128494D01*
X2144187Y6353801D01*
X2156199Y6365813D01*
X2162700Y6381506D01*
Y6398493D01*
X2156199Y6414187D01*
X2144187Y6426199D01*
X2128494Y6432700D01*
D02*
G37*
G36*
X1248494Y6202700D02*
X1231507D01*
X1215813Y6196199D01*
X1203801Y6184188D01*
X1197300Y6168494D01*
Y6151507D01*
X1203801Y6135813D01*
X1215813Y6123801D01*
X1231507Y6117300D01*
X1248494D01*
X1264187Y6123801D01*
X1276199Y6135813D01*
X1282700Y6151507D01*
Y6168494D01*
X1276199Y6184188D01*
X1264187Y6196199D01*
X1248494Y6202700D01*
D02*
G37*
G36*
X2198493Y5902700D02*
X2181506D01*
X2165813Y5896199D01*
X2153801Y5884187D01*
X2147300Y5868493D01*
Y5851506D01*
X2153801Y5835813D01*
X2165813Y5823801D01*
X2181506Y5817300D01*
X2198493D01*
X2214187Y5823801D01*
X2226199Y5835813D01*
X2232700Y5851506D01*
Y5868493D01*
X2226199Y5884187D01*
X2214187Y5896199D01*
X2198493Y5902700D01*
D02*
G37*
G36*
X2098493D02*
X2081506D01*
X2065812Y5896199D01*
X2053801Y5884187D01*
X2047300Y5868493D01*
Y5851506D01*
X2053801Y5835813D01*
X2065812Y5823801D01*
X2081506Y5817300D01*
X2098493D01*
X2114187Y5823801D01*
X2126199Y5835813D01*
X2132700Y5851506D01*
Y5868493D01*
X2126199Y5884187D01*
X2114187Y5896199D01*
X2098493Y5902700D01*
D02*
G37*
G36*
X1248494Y5842700D02*
X1231507D01*
X1215813Y5836199D01*
X1203801Y5824187D01*
X1197300Y5808494D01*
Y5791507D01*
X1203801Y5775813D01*
X1215813Y5763801D01*
X1231507Y5757300D01*
X1248494D01*
X1264187Y5763801D01*
X1276199Y5775813D01*
X1282700Y5791507D01*
Y5808494D01*
X1276199Y5824187D01*
X1264187Y5836199D01*
X1248494Y5842700D01*
D02*
G37*
G36*
X3770192Y5592198D02*
X3767000D01*
Y5501998D01*
X3857200D01*
Y5505190D01*
X3850372Y5530674D01*
X3837180Y5553522D01*
X3818524Y5572178D01*
X3795676Y5585370D01*
X3770192Y5592198D01*
D02*
G37*
G36*
X3747000D02*
X3743809D01*
X3718325Y5585370D01*
X3695476Y5572178D01*
X3676820Y5553522D01*
X3663629Y5530674D01*
X3656800Y5505190D01*
Y5501998D01*
X3747000D01*
Y5592198D01*
D02*
G37*
G36*
X3857200Y5481998D02*
X3767000D01*
Y5391798D01*
X3770192D01*
X3795676Y5398627D01*
X3818524Y5411818D01*
X3837180Y5430474D01*
X3850372Y5453322D01*
X3857200Y5478807D01*
Y5481998D01*
D02*
G37*
G36*
X3747000D02*
X3656800D01*
Y5478807D01*
X3663629Y5453322D01*
X3676820Y5430474D01*
X3695476Y5411818D01*
X3718325Y5398627D01*
X3743809Y5391798D01*
X3747000D01*
Y5481998D01*
D02*
G37*
G36*
X3516192Y5592198D02*
X3489809D01*
X3464325Y5585370D01*
X3441476Y5572178D01*
X3422820Y5553522D01*
X3409629Y5530674D01*
X3402800Y5505190D01*
Y5478807D01*
X3409629Y5453322D01*
X3422820Y5430474D01*
X3441476Y5411818D01*
X3464325Y5398627D01*
X3489809Y5391798D01*
X3516192D01*
X3541676Y5398627D01*
X3564524Y5411818D01*
X3583180Y5430474D01*
X3596372Y5453322D01*
X3603200Y5478807D01*
Y5505190D01*
X3596372Y5530674D01*
X3583180Y5553522D01*
X3564524Y5572178D01*
X3541676Y5585370D01*
X3516192Y5592198D01*
D02*
G37*
G36*
X1308493Y5412700D02*
X1291506D01*
X1275813Y5406199D01*
X1263801Y5394187D01*
X1257300Y5378493D01*
Y5361506D01*
X1263801Y5345813D01*
X1275813Y5333801D01*
X1291506Y5327300D01*
X1308493D01*
X1324187Y5333801D01*
X1336199Y5345813D01*
X1342700Y5361506D01*
Y5378493D01*
X1336199Y5394187D01*
X1324187Y5406199D01*
X1308493Y5412700D01*
D02*
G37*
G36*
X2458493Y5282700D02*
X2441506D01*
X2425813Y5276199D01*
X2418146Y5268532D01*
X2410000Y5265570D01*
X2401854Y5268532D01*
X2394187Y5276199D01*
X2378494Y5282700D01*
X2361507D01*
X2345813Y5276199D01*
X2333801Y5264187D01*
X2327300Y5248493D01*
Y5231506D01*
X2333801Y5215813D01*
X2345813Y5203801D01*
X2361507Y5197300D01*
X2378494D01*
X2394187Y5203801D01*
X2401854Y5211468D01*
X2410000Y5214430D01*
X2418146Y5211468D01*
X2425813Y5203801D01*
X2441506Y5197300D01*
X2458493D01*
X2474187Y5203801D01*
X2486199Y5215813D01*
X2492700Y5231506D01*
Y5248493D01*
X2486199Y5264187D01*
X2474187Y5276199D01*
X2458493Y5282700D01*
D02*
G37*
G36*
X1478494Y5412700D02*
X1461507D01*
X1445813Y5406199D01*
X1433801Y5394187D01*
X1427300Y5378493D01*
Y5361506D01*
X1433801Y5345813D01*
X1445813Y5333801D01*
X1461507Y5327300D01*
X1478494D01*
X1494188Y5333801D01*
X1496858Y5336472D01*
X1507625Y5329277D01*
X1507300Y5328494D01*
Y5311507D01*
X1513801Y5295813D01*
X1525813Y5283801D01*
X1541506Y5277300D01*
X1558493D01*
X1574187Y5283801D01*
X1574600Y5284214D01*
X1580760Y5282901D01*
X1588048Y5279701D01*
X1593801Y5265813D01*
X1605813Y5253801D01*
X1621507Y5247300D01*
X1638494D01*
X1654187Y5253801D01*
X1666199Y5265813D01*
X1672700Y5281507D01*
Y5298494D01*
X1666199Y5314187D01*
X1654187Y5326199D01*
X1638494Y5332700D01*
X1621507D01*
X1605813Y5326199D01*
X1605400Y5325786D01*
X1599240Y5327100D01*
X1591952Y5330299D01*
X1586199Y5344187D01*
X1574187Y5356199D01*
X1558493Y5362700D01*
X1541506D01*
X1525813Y5356199D01*
X1523142Y5353528D01*
X1512375Y5360723D01*
X1512700Y5361506D01*
Y5378493D01*
X1506199Y5394187D01*
X1494188Y5406199D01*
X1478494Y5412700D01*
D02*
G37*
G36*
X2688493Y5302700D02*
X2671506D01*
X2655813Y5296199D01*
X2643801Y5284187D01*
X2637300Y5268493D01*
Y5251506D01*
X2643801Y5235812D01*
X2655813Y5223801D01*
X2671506Y5217300D01*
X2688493D01*
X2704187Y5223801D01*
X2716199Y5235812D01*
X2722700Y5251506D01*
Y5268493D01*
X2716199Y5284187D01*
X2704187Y5296199D01*
X2688493Y5302700D01*
D02*
G37*
G36*
X1978494Y5242700D02*
X1961507D01*
X1945813Y5236199D01*
X1933801Y5224187D01*
X1927300Y5208494D01*
Y5191507D01*
X1933801Y5175813D01*
X1945813Y5163801D01*
X1961507Y5157300D01*
X1978494D01*
X1994188Y5163801D01*
X2006199Y5175813D01*
X2012700Y5191507D01*
Y5208494D01*
X2006199Y5224187D01*
X1994188Y5236199D01*
X1978494Y5242700D01*
D02*
G37*
G36*
X1398494Y5172700D02*
X1381507D01*
X1365813Y5166199D01*
X1358146Y5158532D01*
X1350000Y5155570D01*
X1341854Y5158532D01*
X1334187Y5166199D01*
X1318493Y5172700D01*
X1301506D01*
X1285813Y5166199D01*
X1273801Y5154187D01*
X1267300Y5138493D01*
Y5121506D01*
X1273801Y5105812D01*
X1285813Y5093801D01*
X1301506Y5087300D01*
X1318493D01*
X1334187Y5093801D01*
X1341854Y5101468D01*
X1350000Y5104430D01*
X1358146Y5101468D01*
X1365813Y5093801D01*
X1381507Y5087300D01*
X1398494D01*
X1414187Y5093801D01*
X1426199Y5105812D01*
X1432700Y5121506D01*
Y5138493D01*
X1426199Y5154187D01*
X1414187Y5166199D01*
X1398494Y5172700D01*
D02*
G37*
G36*
X3770192Y5214200D02*
X3767000D01*
Y5124000D01*
X3857200D01*
Y5127192D01*
X3850372Y5152676D01*
X3837180Y5175525D01*
X3818524Y5194180D01*
X3795676Y5207372D01*
X3770192Y5214200D01*
D02*
G37*
G36*
X3747000D02*
X3743809D01*
X3718325Y5207372D01*
X3695476Y5194180D01*
X3676820Y5175525D01*
X3663629Y5152676D01*
X3656800Y5127192D01*
Y5124000D01*
X3747000D01*
Y5214200D01*
D02*
G37*
G36*
X2038494Y5152700D02*
X2021506D01*
X2005813Y5146199D01*
X1993801Y5134187D01*
X1987300Y5118493D01*
Y5101506D01*
X1993801Y5085813D01*
X2005813Y5073801D01*
X2021506Y5067300D01*
X2038494D01*
X2054187Y5073801D01*
X2066199Y5085813D01*
X2072700Y5101506D01*
Y5118493D01*
X2066199Y5134187D01*
X2054187Y5146199D01*
X2038494Y5152700D01*
D02*
G37*
G36*
X3857200Y5104000D02*
X3767000D01*
Y5013800D01*
X3770192D01*
X3795676Y5020629D01*
X3818524Y5033821D01*
X3837180Y5052476D01*
X3850372Y5075325D01*
X3857200Y5100809D01*
Y5104000D01*
D02*
G37*
G36*
X3747000D02*
X3656800D01*
Y5100809D01*
X3663629Y5075325D01*
X3676820Y5052476D01*
X3695476Y5033821D01*
X3718325Y5020629D01*
X3743809Y5013800D01*
X3747000D01*
Y5104000D01*
D02*
G37*
G36*
X3516192Y5214200D02*
X3489809D01*
X3464325Y5207372D01*
X3441476Y5194180D01*
X3422820Y5175525D01*
X3409629Y5152676D01*
X3402800Y5127192D01*
Y5100809D01*
X3409629Y5075325D01*
X3422820Y5052476D01*
X3441476Y5033821D01*
X3464325Y5020629D01*
X3489809Y5013800D01*
X3516192D01*
X3541676Y5020629D01*
X3564524Y5033821D01*
X3583180Y5052476D01*
X3596372Y5075325D01*
X3603200Y5100809D01*
Y5127192D01*
X3596372Y5152676D01*
X3583180Y5175525D01*
X3564524Y5194180D01*
X3541676Y5207372D01*
X3516192Y5214200D01*
D02*
G37*
G36*
X1118494Y5092700D02*
X1101507D01*
X1085813Y5086199D01*
X1073801Y5074187D01*
X1067300Y5058494D01*
Y5041507D01*
X1073801Y5025813D01*
X1085813Y5013801D01*
X1101507Y5007300D01*
X1118494D01*
X1134187Y5013801D01*
X1146199Y5025813D01*
X1152700Y5041507D01*
Y5058494D01*
X1146199Y5074187D01*
X1134187Y5086199D01*
X1118494Y5092700D01*
D02*
G37*
G36*
X2158494Y4992700D02*
X2141507D01*
X2125813Y4986199D01*
X2113801Y4974187D01*
X2107300Y4958494D01*
Y4941506D01*
X2113801Y4925813D01*
X2125813Y4913801D01*
X2141507Y4907300D01*
X2158494D01*
X2174187Y4913801D01*
X2186199Y4925813D01*
X2192700Y4941506D01*
Y4958494D01*
X2186199Y4974187D01*
X2174187Y4986199D01*
X2158494Y4992700D01*
D02*
G37*
G36*
X1428493Y4902700D02*
X1411506D01*
X1395813Y4896199D01*
X1383801Y4884187D01*
X1377300Y4868493D01*
Y4851506D01*
X1383801Y4835813D01*
X1395813Y4823801D01*
X1411506Y4817300D01*
X1428493D01*
X1444187Y4823801D01*
X1456199Y4835813D01*
X1462700Y4851506D01*
Y4868493D01*
X1456199Y4884187D01*
X1444187Y4896199D01*
X1428493Y4902700D01*
D02*
G37*
G36*
X1918493Y4892700D02*
X1901506D01*
X1885813Y4886199D01*
X1873801Y4874187D01*
X1867300Y4858493D01*
Y4841506D01*
X1873801Y4825813D01*
X1885813Y4813801D01*
X1901506Y4807300D01*
X1918493D01*
X1934187Y4813801D01*
X1946199Y4825813D01*
X1952700Y4841506D01*
Y4858493D01*
X1946199Y4874187D01*
X1934187Y4886199D01*
X1918493Y4892700D01*
D02*
G37*
G36*
X3770192Y4960200D02*
X3743809D01*
X3718325Y4953372D01*
X3695476Y4940180D01*
X3676820Y4921525D01*
X3663629Y4898676D01*
X3656800Y4873192D01*
Y4846809D01*
X3663629Y4821325D01*
X3676820Y4798476D01*
X3695476Y4779821D01*
X3718325Y4766629D01*
X3743809Y4759800D01*
X3770192D01*
X3795676Y4766629D01*
X3818524Y4779821D01*
X3837180Y4798476D01*
X3850372Y4821325D01*
X3857200Y4846809D01*
Y4873192D01*
X3850372Y4898676D01*
X3837180Y4921525D01*
X3818524Y4940180D01*
X3795676Y4953372D01*
X3770192Y4960200D01*
D02*
G37*
G36*
X3516192D02*
X3489809D01*
X3464325Y4953372D01*
X3441476Y4940180D01*
X3422820Y4921525D01*
X3409629Y4898676D01*
X3402800Y4873192D01*
Y4846809D01*
X3409629Y4821325D01*
X3422820Y4798476D01*
X3441476Y4779821D01*
X3464325Y4766629D01*
X3489809Y4759800D01*
X3516192D01*
X3541676Y4766629D01*
X3564524Y4779821D01*
X3583180Y4798476D01*
X3596372Y4821325D01*
X3603200Y4846809D01*
Y4873192D01*
X3596372Y4898676D01*
X3583180Y4921525D01*
X3564524Y4940180D01*
X3541676Y4953372D01*
X3516192Y4960200D01*
D02*
G37*
G36*
X2518494Y4832700D02*
X2501507D01*
X2485813Y4826199D01*
X2473801Y4814187D01*
X2467300Y4798494D01*
Y4781507D01*
X2473801Y4765813D01*
X2485813Y4753801D01*
X2501507Y4747300D01*
X2518494D01*
X2534187Y4753801D01*
X2546199Y4765813D01*
X2552700Y4781507D01*
Y4798494D01*
X2546199Y4814187D01*
X2534187Y4826199D01*
X2518494Y4832700D01*
D02*
G37*
G36*
X1848493Y4812700D02*
X1831506D01*
X1815812Y4806199D01*
X1803801Y4794188D01*
X1797300Y4778494D01*
Y4761507D01*
X1803801Y4745813D01*
X1815812Y4733801D01*
X1831506Y4727300D01*
X1848493D01*
X1864187Y4733801D01*
X1876199Y4745813D01*
X1882700Y4761507D01*
Y4778494D01*
X1876199Y4794188D01*
X1864187Y4806199D01*
X1848493Y4812700D01*
D02*
G37*
G36*
X2268494Y4862700D02*
X2251507D01*
X2235813Y4856199D01*
X2223801Y4844187D01*
X2217300Y4828494D01*
Y4811507D01*
X2223801Y4795813D01*
X2235813Y4783801D01*
X2245466Y4779802D01*
X2245812Y4766199D01*
X2233801Y4754187D01*
X2227300Y4738493D01*
Y4721506D01*
X2233801Y4705813D01*
X2245813Y4693801D01*
X2261507Y4687300D01*
X2278494D01*
X2294187Y4693801D01*
X2306199Y4705813D01*
X2312700Y4721506D01*
Y4738493D01*
X2306199Y4754187D01*
X2294187Y4766199D01*
X2284534Y4770198D01*
X2284188Y4783801D01*
X2296199Y4795813D01*
X2302700Y4811507D01*
Y4828494D01*
X2296199Y4844187D01*
X2284187Y4856199D01*
X2268494Y4862700D01*
D02*
G37*
G36*
X1625443Y4837714D02*
X1608456D01*
X1592762Y4831213D01*
X1580750Y4819201D01*
X1574249Y4803507D01*
Y4786520D01*
X1580750Y4770826D01*
X1592762Y4758815D01*
X1598211Y4756558D01*
X1603801Y4744187D01*
X1597300Y4728493D01*
Y4711506D01*
X1603801Y4695813D01*
X1615813Y4683801D01*
X1631507Y4677300D01*
X1648494D01*
X1664187Y4683801D01*
X1664600Y4684214D01*
X1670760Y4682900D01*
X1678048Y4679701D01*
X1683801Y4665813D01*
X1695813Y4653801D01*
X1711507Y4647300D01*
X1728494D01*
X1744188Y4653801D01*
X1756199Y4665813D01*
X1762700Y4681507D01*
Y4698494D01*
X1756199Y4714187D01*
X1744188Y4726199D01*
X1728494Y4732700D01*
X1711507D01*
X1695813Y4726199D01*
X1695400Y4725786D01*
X1689240Y4727100D01*
X1681952Y4730299D01*
X1676199Y4744187D01*
X1664187Y4756199D01*
X1658739Y4758456D01*
X1653148Y4770827D01*
X1659649Y4786520D01*
Y4803507D01*
X1653148Y4819201D01*
X1641137Y4831213D01*
X1625443Y4837714D01*
D02*
G37*
G36*
X1288493Y4622700D02*
X1271506D01*
X1255813Y4616199D01*
X1243801Y4604187D01*
X1237300Y4588493D01*
Y4571506D01*
X1243801Y4555813D01*
X1255813Y4543801D01*
X1271506Y4537300D01*
X1288493D01*
X1304187Y4543801D01*
X1316199Y4555813D01*
X1322700Y4571506D01*
Y4588493D01*
X1316199Y4604187D01*
X1304187Y4616199D01*
X1288493Y4622700D01*
D02*
G37*
G36*
X3770192Y4706200D02*
X3743809D01*
X3718325Y4699372D01*
X3695476Y4686180D01*
X3676820Y4667525D01*
X3663629Y4644676D01*
X3656800Y4619192D01*
Y4592809D01*
X3663629Y4567325D01*
X3676820Y4544476D01*
X3695476Y4525821D01*
X3718325Y4512629D01*
X3743809Y4505800D01*
X3770192D01*
X3795676Y4512629D01*
X3818524Y4525821D01*
X3837180Y4544476D01*
X3850372Y4567325D01*
X3857200Y4592809D01*
Y4619192D01*
X3850372Y4644676D01*
X3837180Y4667525D01*
X3818524Y4686180D01*
X3795676Y4699372D01*
X3770192Y4706200D01*
D02*
G37*
G36*
X3516192D02*
X3489809D01*
X3464325Y4699372D01*
X3441476Y4686180D01*
X3422820Y4667525D01*
X3409629Y4644676D01*
X3402800Y4619192D01*
Y4592809D01*
X3409629Y4567325D01*
X3422820Y4544476D01*
X3441476Y4525821D01*
X3464325Y4512629D01*
X3489809Y4505800D01*
X3516192D01*
X3541676Y4512629D01*
X3564524Y4525821D01*
X3583180Y4544476D01*
X3596372Y4567325D01*
X3603200Y4592809D01*
Y4619192D01*
X3596372Y4644676D01*
X3583180Y4667525D01*
X3564524Y4686180D01*
X3541676Y4699372D01*
X3516192Y4706200D01*
D02*
G37*
G36*
X1178493Y4502700D02*
X1161506D01*
X1145813Y4496199D01*
X1133801Y4484187D01*
X1127300Y4468493D01*
Y4451506D01*
X1133801Y4435813D01*
X1145813Y4423801D01*
X1161506Y4417300D01*
X1178493D01*
X1194187Y4423801D01*
X1206199Y4435813D01*
X1212700Y4451506D01*
Y4468493D01*
X1206199Y4484187D01*
X1194187Y4496199D01*
X1178493Y4502700D01*
D02*
G37*
G36*
X2618494Y4412700D02*
X2601507D01*
X2585813Y4406199D01*
X2573801Y4394187D01*
X2567300Y4378493D01*
Y4361506D01*
X2573801Y4345812D01*
X2585813Y4333801D01*
X2601507Y4327300D01*
X2618494D01*
X2634188Y4333801D01*
X2646199Y4345812D01*
X2652700Y4361506D01*
Y4378493D01*
X2646199Y4394187D01*
X2634188Y4406199D01*
X2618494Y4412700D01*
D02*
G37*
G36*
X1933038Y4159951D02*
X1916051D01*
X1900357Y4153450D01*
X1888345Y4141438D01*
X1881844Y4125744D01*
Y4108757D01*
X1888345Y4093063D01*
X1900357Y4081052D01*
X1916051Y4074551D01*
X1933038D01*
X1948732Y4081052D01*
X1960743Y4093063D01*
X1967244Y4108757D01*
Y4125744D01*
X1960743Y4141438D01*
X1948732Y4153450D01*
X1933038Y4159951D01*
D02*
G37*
G36*
X3638494Y4152700D02*
X3621507D01*
X3605813Y4146199D01*
X3593801Y4134187D01*
X3587300Y4118493D01*
Y4101506D01*
X3593801Y4085813D01*
X3605813Y4073801D01*
X3621507Y4067300D01*
X3638494D01*
X3654188Y4073801D01*
X3666199Y4085813D01*
X3672700Y4101506D01*
Y4118493D01*
X3666199Y4134187D01*
X3654188Y4146199D01*
X3638494Y4152700D01*
D02*
G37*
G36*
X2518494Y4112700D02*
X2501507D01*
X2485813Y4106199D01*
X2473801Y4094187D01*
X2467300Y4078493D01*
Y4061506D01*
X2473801Y4045813D01*
X2485813Y4033801D01*
X2501507Y4027300D01*
X2518494D01*
X2534187Y4033801D01*
X2546199Y4045813D01*
X2552700Y4061506D01*
Y4078493D01*
X2546199Y4094187D01*
X2534187Y4106199D01*
X2518494Y4112700D01*
D02*
G37*
G36*
X3728493Y4082700D02*
X3711506D01*
X3695813Y4076199D01*
X3683801Y4064187D01*
X3677300Y4048494D01*
Y4031507D01*
X3683801Y4015813D01*
X3695813Y4003801D01*
X3711506Y3997300D01*
X3728493D01*
X3744187Y4003801D01*
X3756199Y4015813D01*
X3762700Y4031507D01*
Y4048494D01*
X3756199Y4064187D01*
X3744187Y4076199D01*
X3728493Y4082700D01*
D02*
G37*
G36*
X3638494Y4012700D02*
X3621507D01*
X3605813Y4006199D01*
X3593801Y3994187D01*
X3587300Y3978493D01*
Y3961506D01*
X3593801Y3945813D01*
X3605813Y3933801D01*
X3621507Y3927300D01*
X3638494D01*
X3654188Y3933801D01*
X3666199Y3945813D01*
X3672700Y3961506D01*
Y3978493D01*
X3666199Y3994187D01*
X3654188Y4006199D01*
X3638494Y4012700D01*
D02*
G37*
G36*
X1918493Y4002700D02*
X1901506D01*
X1885813Y3996199D01*
X1873801Y3984187D01*
X1867300Y3968493D01*
Y3951506D01*
X1873801Y3935813D01*
X1885813Y3923801D01*
X1901506Y3917300D01*
X1918493D01*
X1934187Y3923801D01*
X1946199Y3935813D01*
X1952700Y3951506D01*
Y3968493D01*
X1946199Y3984187D01*
X1934187Y3996199D01*
X1918493Y4002700D01*
D02*
G37*
G36*
X3378494Y3912700D02*
X3361507D01*
X3345813Y3906199D01*
X3333801Y3894187D01*
X3327300Y3878493D01*
Y3861506D01*
X3333801Y3845812D01*
X3345813Y3833801D01*
X3361507Y3827300D01*
X3378494D01*
X3394188Y3833801D01*
X3406199Y3845812D01*
X3412700Y3861506D01*
Y3878493D01*
X3406199Y3894187D01*
X3394188Y3906199D01*
X3378494Y3912700D01*
D02*
G37*
G36*
X2038494Y3662700D02*
X2021506D01*
X2005813Y3656199D01*
X1993801Y3644188D01*
X1987300Y3628494D01*
Y3611507D01*
X1993801Y3595813D01*
X2005813Y3583801D01*
X2021506Y3577300D01*
X2038494D01*
X2054187Y3583801D01*
X2066199Y3595813D01*
X2072700Y3611507D01*
Y3628494D01*
X2066199Y3644188D01*
X2054187Y3656199D01*
X2038494Y3662700D01*
D02*
G37*
G36*
X2168494Y3622700D02*
X2151506D01*
X2135813Y3616199D01*
X2123801Y3604187D01*
X2117300Y3588493D01*
Y3571506D01*
X2123801Y3555813D01*
X2135813Y3543801D01*
X2151506Y3537300D01*
X2168494D01*
X2184187Y3543801D01*
X2196199Y3555813D01*
X2202700Y3571506D01*
Y3588493D01*
X2196199Y3604187D01*
X2184187Y3616199D01*
X2168494Y3622700D01*
D02*
G37*
G36*
X2104461Y3508668D02*
X2087474D01*
X2071780Y3502167D01*
X2059769Y3490155D01*
X2053268Y3474461D01*
Y3457474D01*
X2059769Y3441780D01*
X2071780Y3429769D01*
X2087474Y3423268D01*
X2104461D01*
X2120155Y3429769D01*
X2132167Y3441780D01*
X2138668Y3457474D01*
Y3474461D01*
X2132167Y3490155D01*
X2120155Y3502167D01*
X2104461Y3508668D01*
D02*
G37*
G36*
X3698493Y2712700D02*
X3681506D01*
X3665813Y2706199D01*
X3653801Y2694187D01*
X3647300Y2678493D01*
Y2661506D01*
X3653801Y2645813D01*
X3665813Y2633801D01*
X3681506Y2627300D01*
X3698493D01*
X3714187Y2633801D01*
X3726199Y2645813D01*
X3732700Y2661506D01*
Y2678493D01*
X3726199Y2694187D01*
X3714187Y2706199D01*
X3698493Y2712700D01*
D02*
G37*
G36*
X3568493D02*
X3551506D01*
X3535813Y2706199D01*
X3523801Y2694187D01*
X3517300Y2678493D01*
Y2661506D01*
X3523801Y2645813D01*
X3535813Y2633801D01*
X3551506Y2627300D01*
X3568493D01*
X3584187Y2633801D01*
X3596199Y2645813D01*
X3602700Y2661506D01*
Y2678493D01*
X3596199Y2694187D01*
X3584187Y2706199D01*
X3568493Y2712700D01*
D02*
G37*
G36*
X3348493D02*
X3331506D01*
X3315813Y2706199D01*
X3303801Y2694187D01*
X3297300Y2678493D01*
Y2661506D01*
X3303801Y2645813D01*
X3315813Y2633801D01*
X3331506Y2627300D01*
X3348493D01*
X3364187Y2633801D01*
X3376199Y2645813D01*
X3382700Y2661506D01*
Y2678493D01*
X3376199Y2694187D01*
X3364187Y2706199D01*
X3348493Y2712700D01*
D02*
G37*
G36*
X3218493D02*
X3201506D01*
X3185813Y2706199D01*
X3173801Y2694187D01*
X3167300Y2678493D01*
Y2661506D01*
X3173801Y2645813D01*
X3185813Y2633801D01*
X3201506Y2627300D01*
X3218493D01*
X3234187Y2633801D01*
X3246199Y2645813D01*
X3252700Y2661506D01*
Y2678493D01*
X3246199Y2694187D01*
X3234187Y2706199D01*
X3218493Y2712700D01*
D02*
G37*
G36*
X2448493Y2502700D02*
X2431506D01*
X2415813Y2496199D01*
X2403801Y2484187D01*
X2397300Y2468493D01*
Y2451506D01*
X2403801Y2435813D01*
X2415813Y2423801D01*
X2431506Y2417300D01*
X2448493D01*
X2464187Y2423801D01*
X2476199Y2435813D01*
X2482700Y2451506D01*
Y2468493D01*
X2476199Y2484187D01*
X2464187Y2496199D01*
X2448493Y2502700D01*
D02*
G37*
%LPD*%
D11*
X3503000Y5114000D02*
D03*
Y4860000D02*
D03*
Y4606000D02*
D03*
X3757000D02*
D03*
Y4860000D02*
D03*
Y5114000D02*
D03*
X426999Y5491998D02*
D03*
Y5745998D02*
D03*
X2473000Y172999D02*
D03*
X2219000D02*
D03*
X1965000D02*
D03*
X1711000D02*
D03*
X1457000D02*
D03*
Y426999D02*
D03*
X1711000D02*
D03*
X1965000D02*
D03*
X2219000D02*
D03*
X2473000D02*
D03*
X426999Y6507998D02*
D03*
Y6253998D02*
D03*
Y5999998D02*
D03*
X172999Y5491998D02*
D03*
Y5745998D02*
D03*
Y5999998D02*
D03*
Y6253998D02*
D03*
Y6507998D02*
D03*
X3757000D02*
D03*
Y6253998D02*
D03*
Y5999998D02*
D03*
Y5745998D02*
D03*
Y5491998D02*
D03*
X3503000D02*
D03*
Y5745998D02*
D03*
Y5999998D02*
D03*
Y6253998D02*
D03*
Y6507998D02*
D03*
D12*
X3673998Y1460002D02*
D03*
X3419998D02*
D03*
X3673998Y930001D02*
D03*
X3419998D02*
D03*
X256002Y1460002D02*
D03*
X510002D02*
D03*
X256002Y930001D02*
D03*
X510002D02*
D03*
D13*
X3165998Y1460002D02*
D03*
Y930001D02*
D03*
X764002Y1460002D02*
D03*
Y930001D02*
D03*
D14*
X3296001Y8859002D02*
D03*
X3550001D02*
D03*
X3296001Y9113002D02*
D03*
X3550001D02*
D03*
Y9367002D02*
D03*
X3296001Y9621002D02*
D03*
X3550001D02*
D03*
X3296001Y9875002D02*
D03*
X3550001D02*
D03*
X3296001Y9367002D02*
D03*
D15*
X2090000Y6780000D02*
D03*
Y6870000D02*
D03*
X2340000Y8400000D02*
D03*
X1520000Y9650000D02*
D03*
X1700000D02*
D03*
X1920000Y9810000D02*
D03*
X3720000Y4040000D02*
D03*
X3630000Y4110000D02*
D03*
Y3970000D02*
D03*
X3370000Y3870000D02*
D03*
X240000Y7840000D02*
D03*
X2810000Y10110000D02*
D03*
Y10390000D02*
D03*
X2650000Y10110000D02*
D03*
Y10390000D02*
D03*
X1260000Y10290000D02*
D03*
Y10410000D02*
D03*
X1540000D02*
D03*
Y10290000D02*
D03*
X1390000Y9610000D02*
D03*
X2420000Y9550000D02*
D03*
X2320000Y9120000D02*
D03*
X2800000Y8660000D02*
D03*
X2650000D02*
D03*
X2800000Y8390000D02*
D03*
X2650000D02*
D03*
X90000Y7980000D02*
D03*
X1400000Y8220000D02*
D03*
X1280000Y8150000D02*
D03*
X2300000Y6430000D02*
D03*
X1630000Y6800000D02*
D03*
X2120000Y6390000D02*
D03*
X1050000Y5500000D02*
D03*
Y5260000D02*
D03*
X670000D02*
D03*
X1300000Y5370000D02*
D03*
X1470000D02*
D03*
X2510000Y4790000D02*
D03*
X2680000Y5260000D02*
D03*
X2510000Y4070000D02*
D03*
X2610000Y4370000D02*
D03*
X1924544Y4117251D02*
D03*
X1840000Y4770000D02*
D03*
X1280000Y4580000D02*
D03*
X1170000Y4460000D02*
D03*
X1910000Y3960000D02*
D03*
X980001Y2011561D02*
D03*
X2870000Y1190000D02*
D03*
X1374544Y1537250D02*
D03*
X1370000Y840000D02*
D03*
X1264544Y1197251D02*
D03*
X970000Y920000D02*
D03*
X980000Y1470000D02*
D03*
X3010000D02*
D03*
X2950000Y920000D02*
D03*
X2780000Y1190000D02*
D03*
X1290000Y2290000D02*
D03*
X1860000Y2080000D02*
D03*
Y2150000D02*
D03*
X2050000Y2720000D02*
D03*
Y2550000D02*
D03*
X1410000D02*
D03*
X980000Y1900000D02*
D03*
X670000Y2150000D02*
D03*
Y2300000D02*
D03*
X490000Y2510000D02*
D03*
X1140000Y8020000D02*
D03*
Y7940000D02*
D03*
X2860000Y2470000D02*
D03*
X2440000Y2040000D02*
D03*
X2040000Y1570000D02*
D03*
X2095968Y3465968D02*
D03*
X2090000Y5860000D02*
D03*
X2160000Y3580000D02*
D03*
X2190000Y5860000D02*
D03*
X2150000Y4950000D02*
D03*
X2040000Y2900000D02*
D03*
X2030000Y5110000D02*
D03*
Y3620000D02*
D03*
X1820000Y6400000D02*
D03*
X1910000Y4850000D02*
D03*
X2300000Y6780000D02*
D03*
X1340000Y6730000D02*
D03*
X2820200Y1970000D02*
D03*
X1630000Y5290000D02*
D03*
X1550000Y5320000D02*
D03*
X2440000Y2460000D02*
D03*
X1390000Y5130000D02*
D03*
X1310000D02*
D03*
X1110000Y5050000D02*
D03*
X1284546Y2541961D02*
D03*
X3120000Y1970000D02*
D03*
X2330000Y9790000D02*
D03*
X1400002Y8950000D02*
D03*
X2440000Y1900000D02*
D03*
X2990000Y1870000D02*
D03*
X3350000D02*
D03*
X3690000D02*
D03*
X1970000Y5200000D02*
D03*
X1420000Y4860000D02*
D03*
X1616949Y4795014D02*
D03*
X1640000Y4720000D02*
D03*
X1720000Y4690000D02*
D03*
X1477729Y5192271D02*
D03*
X2370000Y5240000D02*
D03*
X2260000Y4820000D02*
D03*
X2270000Y4730000D02*
D03*
X2450000Y5240000D02*
D03*
X3121913Y4978087D02*
D03*
X2622270Y5022271D02*
D03*
X3220000Y3260000D02*
D03*
X1060000Y4330000D02*
D03*
X2530000Y4170000D02*
D03*
X3258087Y4308087D02*
D03*
X1570529Y2310000D02*
D03*
X1570000Y2410000D02*
D03*
X1240000Y5800000D02*
D03*
Y6160000D02*
D03*
Y6510000D02*
D03*
X1340000Y6380000D02*
D03*
Y6030000D02*
D03*
X720000Y6210000D02*
D03*
X2440000Y2180000D02*
D03*
Y2320000D02*
D03*
X3560000Y2470000D02*
D03*
X3690000Y2670000D02*
D03*
X3560000D02*
D03*
X3210000D02*
D03*
X1510000Y6540000D02*
D03*
X720000Y6560000D02*
D03*
X810000Y6830000D02*
D03*
X3570000Y3260000D02*
D03*
X3460000Y1970000D02*
D03*
X3340000Y2670000D02*
D03*
X3210000Y2470000D02*
D03*
X290000Y8150000D02*
D03*
X2040000Y1320000D02*
D03*
X1574500Y1645500D02*
D03*
X2040000Y1060000D02*
D03*
X2344066Y1191572D02*
D03*
X1580929Y1188429D02*
D03*
X490000Y7830000D02*
D03*
X175001Y9074998D02*
D03*
X275001D02*
D03*
X375001D02*
D03*
X475000D02*
D03*
Y9174998D02*
D03*
X375001D02*
D03*
X275001D02*
D03*
X175001D02*
D03*
Y9475003D02*
D03*
X475000D02*
D03*
X375001D02*
D03*
X175001Y9675002D02*
D03*
X475000D02*
D03*
X275001Y9575002D02*
D03*
X175001D02*
D03*
X275001Y9475003D02*
D03*
X475000Y9575002D02*
D03*
X375001Y9675002D02*
D03*
X275001D02*
D03*
X375001Y9575002D02*
D03*
X475000Y9374998D02*
D03*
X275001Y9274998D02*
D03*
Y9374998D02*
D03*
X175001D02*
D03*
Y9274998D02*
D03*
X375001D02*
D03*
Y9374998D02*
D03*
X475000Y9274998D02*
D03*
D16*
X3751002Y5114000D02*
X3757000D01*
%TF.MD5,84ae7f185ea78a6241dadea0fe3dc2df*%
M02*
