%TF.GenerationSoftware,Altium Limited,Altium Designer,24.6.1 (21)*%
G04 Layer_Physical_Order=1*
G04 Layer_Color=255*
%FSLAX45Y45*%
%MOMM*%
%TF.SameCoordinates,FEC14C44-D625-4E92-8207-BAE4E8E866B2*%
%TF.FilePolarity,Positive*%
%TF.FileFunction,Copper,L1,Top,Signal*%
%TF.Part,Single*%
G01*
G75*
%TA.AperFunction,Conductor*%
%ADD10C,0.25000*%
%TA.AperFunction,ComponentPad*%
%ADD11C,1.75000*%
%ADD12C,1.21000*%
%ADD13R,1.21000X1.21000*%
%ADD14C,1.83500*%
%TA.AperFunction,ViaPad*%
%ADD15C,0.60000*%
G36*
X3909609Y20391D02*
X2563905D01*
X2560160Y27858D01*
X2559427Y33091D01*
X2728168Y201832D01*
X2733738Y210167D01*
X2735694Y220000D01*
Y1259357D01*
X3240642Y1764306D01*
X3610000D01*
X3619832Y1766262D01*
X3628168Y1771832D01*
X3683636Y1827300D01*
X3698493D01*
X3714187Y1833801D01*
X3726199Y1845813D01*
X3732700Y1861507D01*
Y1878494D01*
X3726199Y1894187D01*
X3714187Y1906199D01*
X3698493Y1912700D01*
X3681506D01*
X3665813Y1906199D01*
X3653801Y1894187D01*
X3647300Y1878494D01*
Y1863636D01*
X3599357Y1815694D01*
X3363660D01*
X3361133Y1828394D01*
X3374187Y1833801D01*
X3386199Y1845813D01*
X3392700Y1861507D01*
Y1878494D01*
X3386199Y1894187D01*
X3374187Y1906199D01*
X3358493Y1912700D01*
X3341506D01*
X3325812Y1906199D01*
X3315307Y1895694D01*
X3210000D01*
X3200168Y1893738D01*
X3193740Y1889443D01*
X3185644Y1899308D01*
X3358168Y2071832D01*
X3363738Y2080167D01*
X3365694Y2090000D01*
Y2635307D01*
X3376199Y2645813D01*
X3382700Y2661506D01*
Y2678493D01*
X3376199Y2694187D01*
X3368780Y2701606D01*
X3374040Y2714306D01*
X3525959D01*
X3531220Y2701606D01*
X3523801Y2694187D01*
X3517300Y2678493D01*
Y2661506D01*
X3523801Y2645813D01*
X3535813Y2633801D01*
X3551506Y2627300D01*
X3568493D01*
X3584187Y2633801D01*
X3596199Y2645813D01*
X3602700Y2661506D01*
Y2678493D01*
X3596199Y2694187D01*
X3588780Y2701606D01*
X3594041Y2714306D01*
X3609357D01*
X3647300Y2676364D01*
Y2661506D01*
X3653801Y2645813D01*
X3665813Y2633801D01*
X3681506Y2627300D01*
X3698493D01*
X3714187Y2633801D01*
X3726199Y2645813D01*
X3732700Y2661506D01*
Y2678493D01*
X3726199Y2694187D01*
X3714187Y2706199D01*
X3698493Y2712700D01*
X3683636D01*
X3638168Y2758168D01*
X3629832Y2763738D01*
X3620000Y2765694D01*
X3310000D01*
X3300168Y2763738D01*
X3291832Y2758168D01*
X3251832Y2718168D01*
X3247164Y2711183D01*
X3242293Y2708638D01*
X3237932Y2707326D01*
X3232712Y2706810D01*
X3218493Y2712700D01*
X3201506D01*
X3185813Y2706199D01*
X3173801Y2694187D01*
X3167300Y2678493D01*
Y2661506D01*
X3173801Y2645813D01*
X3185813Y2633801D01*
X3201506Y2627300D01*
X3218493D01*
X3231606Y2632732D01*
X3244306Y2627326D01*
Y2512673D01*
X3231606Y2507268D01*
X3218493Y2512700D01*
X3201506D01*
X3185813Y2506199D01*
X3173801Y2494187D01*
X3167300Y2478493D01*
Y2461506D01*
X3173801Y2445812D01*
X3185813Y2433801D01*
X3201506Y2427300D01*
X3218493D01*
X3231606Y2432732D01*
X3244306Y2427326D01*
Y2260643D01*
X2491832Y1508168D01*
X2486262Y1499833D01*
X2484306Y1490000D01*
Y728642D01*
X2269315Y513651D01*
X2257676Y520371D01*
X2232191Y527199D01*
X2205808D01*
X2180324Y520371D01*
X2157476Y507179D01*
X2138820Y488524D01*
X2125628Y465675D01*
X2118800Y440191D01*
Y413808D01*
X2125628Y388324D01*
X2138820Y365475D01*
X2157476Y346819D01*
X2180324Y333628D01*
X2205808Y326799D01*
X2232191D01*
X2257676Y333628D01*
X2280524Y346819D01*
X2299180Y365475D01*
X2305641Y376666D01*
X2322610Y380684D01*
X2324307Y379576D01*
Y314642D01*
X2269315Y259651D01*
X2257676Y266371D01*
X2232191Y273199D01*
X2205808D01*
X2180324Y266371D01*
X2157476Y253179D01*
X2138820Y234524D01*
X2128394Y216465D01*
X2115694Y219867D01*
Y301999D01*
X2113738Y311832D01*
X2108168Y320168D01*
X2051651Y376684D01*
X2058371Y388324D01*
X2065200Y413808D01*
Y440191D01*
X2058371Y465675D01*
X2045180Y488524D01*
X2026524Y507179D01*
X2003676Y520371D01*
X1978191Y527199D01*
X1951808D01*
X1926324Y520371D01*
X1903476Y507179D01*
X1884820Y488524D01*
X1878393Y477393D01*
X1865694Y480796D01*
Y519357D01*
X2128168Y781832D01*
X2133738Y790168D01*
X2135694Y800000D01*
Y1500000D01*
X2133738Y1509832D01*
X2128168Y1518168D01*
X2082700Y1563636D01*
Y1578493D01*
X2076199Y1594187D01*
X2064187Y1606199D01*
X2048493Y1612700D01*
X2031506D01*
X2015813Y1606199D01*
X2003801Y1594187D01*
X1997300Y1578493D01*
Y1561506D01*
X2000489Y1553808D01*
X1989722Y1546614D01*
X1596223Y1940114D01*
Y2275307D01*
X1606728Y2285813D01*
X1613229Y2301506D01*
Y2318493D01*
X1606728Y2334187D01*
X1594716Y2346199D01*
X1579866Y2352350D01*
X1578835Y2353110D01*
X1573223Y2365400D01*
X1574465Y2367300D01*
X1578493D01*
X1594187Y2373801D01*
X1606199Y2385813D01*
X1612700Y2401506D01*
Y2418494D01*
X1606199Y2434187D01*
X1594187Y2446199D01*
X1578493Y2452700D01*
X1561506D01*
X1545813Y2446199D01*
X1533801Y2434187D01*
X1527300Y2418494D01*
Y2403636D01*
X1491832Y2368168D01*
X1486262Y2359833D01*
X1484306Y2350000D01*
Y1910000D01*
X1486262Y1900167D01*
X1491832Y1891832D01*
X1944307Y1439357D01*
Y1130000D01*
X1946262Y1120167D01*
X1951832Y1111832D01*
X1997300Y1066364D01*
Y1051506D01*
X2003801Y1035813D01*
X2015813Y1023801D01*
X2031506Y1017300D01*
X2048493D01*
X2064187Y1023801D01*
X2071606Y1031220D01*
X2084306Y1025959D01*
Y810643D01*
X1821832Y548168D01*
X1816262Y539833D01*
X1814306Y530000D01*
Y473867D01*
X1801606Y470465D01*
X1791180Y488524D01*
X1772524Y507179D01*
X1749676Y520371D01*
X1724191Y527199D01*
X1697808D01*
X1672324Y520371D01*
X1649476Y507179D01*
X1630820Y488524D01*
X1617628Y465675D01*
X1610800Y440191D01*
Y413808D01*
X1617628Y388324D01*
X1630820Y365475D01*
X1649476Y346819D01*
X1672324Y333628D01*
X1697808Y326799D01*
X1724191D01*
X1749676Y333628D01*
X1772524Y346819D01*
X1791180Y365475D01*
X1801606Y383534D01*
X1814306Y380131D01*
Y312642D01*
X1761315Y259651D01*
X1749676Y266371D01*
X1724191Y273199D01*
X1697808D01*
X1672324Y266371D01*
X1649476Y253179D01*
X1630820Y234524D01*
X1617628Y211675D01*
X1610800Y186191D01*
Y159808D01*
X1617628Y134324D01*
X1630820Y111475D01*
X1649476Y92819D01*
X1672324Y79628D01*
X1697808Y72799D01*
X1724191D01*
X1749676Y79628D01*
X1772524Y92819D01*
X1791180Y111475D01*
X1804371Y134324D01*
X1811200Y159808D01*
Y186191D01*
X1804371Y211675D01*
X1797651Y223315D01*
X1858168Y283831D01*
X1863738Y292167D01*
X1865694Y301999D01*
Y373203D01*
X1878393Y376606D01*
X1884820Y365475D01*
X1903476Y346819D01*
X1926324Y333628D01*
X1951808Y326799D01*
X1978191D01*
X2003676Y333628D01*
X2015315Y340348D01*
X2064306Y291357D01*
Y226796D01*
X2051606Y223393D01*
X2045180Y234524D01*
X2026524Y253179D01*
X2003676Y266371D01*
X1978191Y273199D01*
X1975000D01*
Y172999D01*
Y72799D01*
X1978191D01*
X2003676Y79628D01*
X2026524Y92819D01*
X2045180Y111475D01*
X2051408Y122262D01*
X2063122Y120185D01*
X2064424Y119407D01*
X2066262Y110168D01*
X2071832Y101832D01*
X2140574Y33091D01*
X2139840Y27858D01*
X2136096Y20391D01*
X20391D01*
Y10629609D01*
X3909609D01*
Y20391D01*
D02*
G37*
G36*
X3314306Y2630539D02*
Y2100642D01*
X3175400Y1961736D01*
X3162700Y1966997D01*
Y1978494D01*
X3156199Y1994188D01*
X3144188Y2006199D01*
X3128494Y2012700D01*
X3111507D01*
X3095813Y2006199D01*
X3083801Y1994188D01*
X3077300Y1978494D01*
Y1961507D01*
X3083801Y1945813D01*
X3095813Y1933801D01*
X3111507Y1927300D01*
X3123003D01*
X3128264Y1914600D01*
X2598394Y1384730D01*
X2585694Y1389990D01*
Y1429357D01*
X2983636Y1827300D01*
X2998494D01*
X3014188Y1833801D01*
X3026199Y1845813D01*
X3032700Y1861507D01*
Y1878494D01*
X3026199Y1894187D01*
X3014188Y1906199D01*
X2998494Y1912700D01*
X2986997D01*
X2981736Y1925400D01*
X3288168Y2231832D01*
X3293738Y2240167D01*
X3295694Y2250000D01*
Y2628770D01*
X3308394Y2635052D01*
X3314306Y2630539D01*
D02*
G37*
G36*
X3325812Y1833801D02*
X3338867Y1828394D01*
X3336340Y1815694D01*
X3230000D01*
X3220167Y1813738D01*
X3211832Y1808168D01*
X2701854Y1298190D01*
X2689135Y1303037D01*
X2688060Y1311724D01*
X3220643Y1844306D01*
X3315307D01*
X3325812Y1833801D01*
D02*
G37*
G36*
X2634306Y534009D02*
Y370642D01*
X2523315Y259651D01*
X2511676Y266371D01*
X2486191Y273199D01*
X2459808D01*
X2434324Y266371D01*
X2411476Y253179D01*
X2392820Y234524D01*
X2379628Y211675D01*
X2372800Y186191D01*
Y159808D01*
X2379628Y134324D01*
X2392820Y111475D01*
X2411476Y92819D01*
X2419141Y88394D01*
X2415739Y75694D01*
X2276261D01*
X2272858Y88394D01*
X2280524Y92819D01*
X2299180Y111475D01*
X2312371Y134324D01*
X2319200Y159808D01*
Y186191D01*
X2312371Y211675D01*
X2305651Y223315D01*
X2368168Y285832D01*
X2373738Y294167D01*
X2375694Y304000D01*
Y369739D01*
X2388394Y373141D01*
X2392820Y365475D01*
X2411476Y346819D01*
X2434324Y333628D01*
X2459808Y326799D01*
X2486191D01*
X2511676Y333628D01*
X2534524Y346819D01*
X2553180Y365475D01*
X2566371Y388324D01*
X2573200Y413808D01*
Y440191D01*
X2566371Y465675D01*
X2559651Y477315D01*
X2621606Y539270D01*
X2634306Y534009D01*
D02*
G37*
%LPC*%
G36*
X3563752Y9979452D02*
X3536249D01*
X3509684Y9972334D01*
X3485867Y9958583D01*
X3466420Y9939136D01*
X3452669Y9915318D01*
X3445551Y9888753D01*
Y9861251D01*
X3452669Y9834686D01*
X3466420Y9810868D01*
X3485867Y9791421D01*
X3509684Y9777670D01*
X3536249Y9770552D01*
X3563752D01*
X3590317Y9777670D01*
X3614134Y9791421D01*
X3633581Y9810868D01*
X3647332Y9834686D01*
X3654450Y9861251D01*
Y9888753D01*
X3647332Y9915318D01*
X3633581Y9939136D01*
X3614134Y9958583D01*
X3590317Y9972334D01*
X3563752Y9979452D01*
D02*
G37*
G36*
X3309752D02*
X3282249D01*
X3255684Y9972334D01*
X3231867Y9958583D01*
X3212420Y9939136D01*
X3198669Y9915318D01*
X3191551Y9888753D01*
Y9861251D01*
X3198669Y9834686D01*
X3212420Y9810868D01*
X3231867Y9791421D01*
X3255684Y9777670D01*
X3282249Y9770552D01*
X3309752D01*
X3336317Y9777670D01*
X3360134Y9791421D01*
X3379581Y9810868D01*
X3393332Y9834686D01*
X3400450Y9861251D01*
Y9888753D01*
X3393332Y9915318D01*
X3379581Y9939136D01*
X3360134Y9958583D01*
X3336317Y9972334D01*
X3309752Y9979452D01*
D02*
G37*
G36*
X2338493Y9832700D02*
X2321506D01*
X2305813Y9826199D01*
X2293801Y9814187D01*
X2287300Y9798493D01*
Y9781506D01*
X2293801Y9765813D01*
X2305813Y9753801D01*
X2321506Y9747300D01*
X2338493D01*
X2354187Y9753801D01*
X2366199Y9765813D01*
X2372700Y9781506D01*
Y9798493D01*
X2366199Y9814187D01*
X2354187Y9826199D01*
X2338493Y9832700D01*
D02*
G37*
G36*
X3309752Y9725452D02*
X3306000D01*
Y9631002D01*
X3400450D01*
Y9634753D01*
X3393332Y9661318D01*
X3379581Y9685136D01*
X3360134Y9704583D01*
X3336317Y9718334D01*
X3309752Y9725452D01*
D02*
G37*
G36*
X3563752D02*
X3560000D01*
Y9631002D01*
X3654450D01*
Y9634753D01*
X3647332Y9661318D01*
X3633581Y9685136D01*
X3614134Y9704583D01*
X3590317Y9718334D01*
X3563752Y9725452D01*
D02*
G37*
G36*
X3286001D02*
X3282249D01*
X3255684Y9718334D01*
X3231867Y9704583D01*
X3212420Y9685136D01*
X3198669Y9661318D01*
X3191551Y9634753D01*
Y9631002D01*
X3286001D01*
Y9725452D01*
D02*
G37*
G36*
X3540001D02*
X3536249D01*
X3509684Y9718334D01*
X3485867Y9704583D01*
X3466420Y9685136D01*
X3452669Y9661318D01*
X3445551Y9634753D01*
Y9631002D01*
X3540001D01*
Y9725452D01*
D02*
G37*
G36*
X3654450Y9611002D02*
X3560000D01*
Y9516552D01*
X3563752D01*
X3590317Y9523670D01*
X3614134Y9537421D01*
X3633581Y9556868D01*
X3647332Y9580686D01*
X3654450Y9607251D01*
Y9611002D01*
D02*
G37*
G36*
X3540001D02*
X3445551D01*
Y9607251D01*
X3452669Y9580686D01*
X3466420Y9556868D01*
X3485867Y9537421D01*
X3509684Y9523670D01*
X3536249Y9516552D01*
X3540001D01*
Y9611002D01*
D02*
G37*
G36*
X3400450D02*
X3306000D01*
Y9516552D01*
X3309752D01*
X3336317Y9523670D01*
X3360134Y9537421D01*
X3379581Y9556868D01*
X3393332Y9580686D01*
X3400450Y9607251D01*
Y9611002D01*
D02*
G37*
G36*
X3286001D02*
X3191551D01*
Y9607251D01*
X3198669Y9580686D01*
X3212420Y9556868D01*
X3231867Y9537421D01*
X3255684Y9523670D01*
X3282249Y9516552D01*
X3286001D01*
Y9611002D01*
D02*
G37*
G36*
X3309752Y9471452D02*
X3306000D01*
Y9377002D01*
X3400450D01*
Y9380753D01*
X3393332Y9407318D01*
X3379581Y9431136D01*
X3360134Y9450583D01*
X3336317Y9464334D01*
X3309752Y9471452D01*
D02*
G37*
G36*
X3563752D02*
X3560000D01*
Y9377002D01*
X3654450D01*
Y9380753D01*
X3647332Y9407318D01*
X3633581Y9431136D01*
X3614134Y9450583D01*
X3590317Y9464334D01*
X3563752Y9471452D01*
D02*
G37*
G36*
X3286001D02*
X3282249D01*
X3255684Y9464334D01*
X3231867Y9450583D01*
X3212420Y9431136D01*
X3198669Y9407318D01*
X3191551Y9380753D01*
Y9377002D01*
X3286001D01*
Y9471452D01*
D02*
G37*
G36*
X3540001D02*
X3536249D01*
X3509684Y9464334D01*
X3485867Y9450583D01*
X3466420Y9431136D01*
X3452669Y9407318D01*
X3445551Y9380753D01*
Y9377002D01*
X3540001D01*
Y9471452D01*
D02*
G37*
G36*
X3654450Y9357002D02*
X3560000D01*
Y9262552D01*
X3563752D01*
X3590317Y9269670D01*
X3614134Y9283421D01*
X3633581Y9302868D01*
X3647332Y9326686D01*
X3654450Y9353251D01*
Y9357002D01*
D02*
G37*
G36*
X3540001D02*
X3445551D01*
Y9353251D01*
X3452669Y9326686D01*
X3466420Y9302868D01*
X3485867Y9283421D01*
X3509684Y9269670D01*
X3536249Y9262552D01*
X3540001D01*
Y9357002D01*
D02*
G37*
G36*
X3400450D02*
X3306000D01*
Y9262552D01*
X3309752D01*
X3336317Y9269670D01*
X3360134Y9283421D01*
X3379581Y9302868D01*
X3393332Y9326686D01*
X3400450Y9353251D01*
Y9357002D01*
D02*
G37*
G36*
X3286001D02*
X3191551D01*
Y9353251D01*
X3198669Y9326686D01*
X3212420Y9302868D01*
X3231867Y9283421D01*
X3255684Y9269670D01*
X3282249Y9262552D01*
X3286001D01*
Y9357002D01*
D02*
G37*
G36*
X3309752Y9217452D02*
X3306000D01*
Y9123002D01*
X3400450D01*
Y9126753D01*
X3393332Y9153318D01*
X3379581Y9177136D01*
X3360134Y9196583D01*
X3336317Y9210334D01*
X3309752Y9217452D01*
D02*
G37*
G36*
X3563752D02*
X3560000D01*
Y9123002D01*
X3654450D01*
Y9126753D01*
X3647332Y9153318D01*
X3633581Y9177136D01*
X3614134Y9196583D01*
X3590317Y9210334D01*
X3563752Y9217452D01*
D02*
G37*
G36*
X3286001D02*
X3282249D01*
X3255684Y9210334D01*
X3231867Y9196583D01*
X3212420Y9177136D01*
X3198669Y9153318D01*
X3191551Y9126753D01*
Y9123002D01*
X3286001D01*
Y9217452D01*
D02*
G37*
G36*
X3540001D02*
X3536249D01*
X3509684Y9210334D01*
X3485867Y9196583D01*
X3466420Y9177136D01*
X3452669Y9153318D01*
X3445551Y9126753D01*
Y9123002D01*
X3540001D01*
Y9217452D01*
D02*
G37*
G36*
X3654450Y9103002D02*
X3560000D01*
Y9008552D01*
X3563752D01*
X3590317Y9015670D01*
X3614134Y9029421D01*
X3633581Y9048868D01*
X3647332Y9072686D01*
X3654450Y9099251D01*
Y9103002D01*
D02*
G37*
G36*
X3540001D02*
X3445551D01*
Y9099251D01*
X3452669Y9072686D01*
X3466420Y9048868D01*
X3485867Y9029421D01*
X3509684Y9015670D01*
X3536249Y9008552D01*
X3540001D01*
Y9103002D01*
D02*
G37*
G36*
X3400450D02*
X3306000D01*
Y9008552D01*
X3309752D01*
X3336317Y9015670D01*
X3360134Y9029421D01*
X3379581Y9048868D01*
X3393332Y9072686D01*
X3400450Y9099251D01*
Y9103002D01*
D02*
G37*
G36*
X3286001D02*
X3191551D01*
Y9099251D01*
X3198669Y9072686D01*
X3212420Y9048868D01*
X3231867Y9029421D01*
X3255684Y9015670D01*
X3282249Y9008552D01*
X3286001D01*
Y9103002D01*
D02*
G37*
G36*
X1408496Y8992700D02*
X1391509D01*
X1375815Y8986199D01*
X1363803Y8974187D01*
X1357302Y8958493D01*
Y8941506D01*
X1363803Y8925812D01*
X1375815Y8913801D01*
X1391509Y8907300D01*
X1408496D01*
X1424190Y8913801D01*
X1436201Y8925812D01*
X1442702Y8941506D01*
Y8958493D01*
X1436201Y8974187D01*
X1424190Y8986199D01*
X1408496Y8992700D01*
D02*
G37*
G36*
X3563752Y8963452D02*
X3536249D01*
X3509684Y8956334D01*
X3485867Y8942583D01*
X3466420Y8923136D01*
X3452669Y8899318D01*
X3445551Y8872753D01*
Y8845251D01*
X3452669Y8818686D01*
X3466420Y8794868D01*
X3485867Y8775421D01*
X3509684Y8761670D01*
X3536249Y8754552D01*
X3563752D01*
X3590317Y8761670D01*
X3614134Y8775421D01*
X3633581Y8794868D01*
X3647332Y8818686D01*
X3654450Y8845251D01*
Y8872753D01*
X3647332Y8899318D01*
X3633581Y8923136D01*
X3614134Y8942583D01*
X3590317Y8956334D01*
X3563752Y8963452D01*
D02*
G37*
G36*
X3309752D02*
X3282249D01*
X3255684Y8956334D01*
X3231867Y8942583D01*
X3212420Y8923136D01*
X3198669Y8899318D01*
X3191551Y8872753D01*
Y8845251D01*
X3198669Y8818686D01*
X3212420Y8794868D01*
X3231867Y8775421D01*
X3255684Y8761670D01*
X3282249Y8754552D01*
X3309752D01*
X3336317Y8761670D01*
X3360134Y8775421D01*
X3379581Y8794868D01*
X3393332Y8818686D01*
X3400450Y8845251D01*
Y8872753D01*
X3393332Y8899318D01*
X3379581Y8923136D01*
X3360134Y8942583D01*
X3336317Y8956334D01*
X3309752Y8963452D01*
D02*
G37*
G36*
X2348493Y8442700D02*
X2331506D01*
X2315812Y8436199D01*
X2303801Y8424187D01*
X2297300Y8408493D01*
Y8391506D01*
X2303801Y8375813D01*
X2315812Y8363801D01*
X2331506Y8357300D01*
X2348493D01*
X2364187Y8363801D01*
X2376199Y8375813D01*
X2382700Y8391506D01*
Y8408493D01*
X2376199Y8424187D01*
X2364187Y8436199D01*
X2348493Y8442700D01*
D02*
G37*
G36*
X1080000Y10533747D02*
X130000D01*
X120280Y10529720D01*
X116254Y10520000D01*
Y8230000D01*
X120280Y8220280D01*
X130000Y8216254D01*
X1080000D01*
X1089720Y8220280D01*
X1093747Y8230000D01*
Y10520000D01*
X1089720Y10529720D01*
X1080000Y10533747D01*
D02*
G37*
G36*
X298493Y8192700D02*
X281506D01*
X265813Y8186199D01*
X253801Y8174187D01*
X247300Y8158493D01*
Y8141506D01*
X253801Y8125813D01*
X265813Y8113801D01*
X281506Y8107300D01*
X298493D01*
X314187Y8113801D01*
X326199Y8125813D01*
X332700Y8141506D01*
Y8158493D01*
X326199Y8174187D01*
X314187Y8186199D01*
X298493Y8192700D01*
D02*
G37*
G36*
X2980272Y8020392D02*
X2914728D01*
X2913409Y8020130D01*
X2912067Y8020217D01*
X2847084Y8011662D01*
X2845810Y8011230D01*
X2844468Y8011142D01*
X2781158Y7994178D01*
X2779952Y7993583D01*
X2778632Y7993321D01*
X2718077Y7968238D01*
X2716959Y7967491D01*
X2715685Y7967058D01*
X2658923Y7934287D01*
X2657912Y7933400D01*
X2656705Y7932805D01*
X2604706Y7892904D01*
X2603819Y7891893D01*
X2602700Y7891146D01*
X2556354Y7844799D01*
X2555607Y7843681D01*
X2554595Y7842794D01*
X2514695Y7790795D01*
X2514100Y7789588D01*
X2513213Y7788577D01*
X2480442Y7731815D01*
X2480009Y7730541D01*
X2479262Y7729422D01*
X2454179Y7668868D01*
X2453917Y7667549D01*
X2453322Y7666342D01*
X2436358Y7603032D01*
X2436270Y7601690D01*
X2435838Y7600416D01*
X2427283Y7535433D01*
X2427371Y7534091D01*
X2427108Y7532772D01*
Y7467228D01*
X2427371Y7465909D01*
X2427283Y7464567D01*
X2435838Y7399584D01*
X2436270Y7398310D01*
X2436358Y7396967D01*
X2453322Y7333657D01*
X2453917Y7332451D01*
X2454179Y7331132D01*
X2479262Y7270577D01*
X2480009Y7269459D01*
X2480442Y7268185D01*
X2513213Y7211423D01*
X2514100Y7210412D01*
X2514695Y7209205D01*
X2554595Y7157206D01*
X2555607Y7156319D01*
X2556354Y7155200D01*
X2602700Y7108854D01*
X2603819Y7108106D01*
X2604706Y7107095D01*
X2656705Y7067195D01*
X2657912Y7066600D01*
X2658923Y7065713D01*
X2715685Y7032941D01*
X2716958Y7032509D01*
X2718077Y7031762D01*
X2778632Y7006679D01*
X2779951Y7006417D01*
X2781158Y7005822D01*
X2844468Y6988858D01*
X2845810Y6988770D01*
X2847084Y6988338D01*
X2912067Y6979783D01*
X2913409Y6979870D01*
X2914728Y6979608D01*
X2980272D01*
X2981591Y6979870D01*
X2982933Y6979783D01*
X3047916Y6988338D01*
X3049190Y6988770D01*
X3050532Y6988858D01*
X3113842Y7005822D01*
X3115048Y7006417D01*
X3116368Y7006679D01*
X3176923Y7031762D01*
X3178041Y7032509D01*
X3179315Y7032941D01*
X3236077Y7065713D01*
X3237088Y7066600D01*
X3238295Y7067195D01*
X3290294Y7107095D01*
X3291181Y7108106D01*
X3292299Y7108854D01*
X3338646Y7155200D01*
X3339393Y7156319D01*
X3340405Y7157206D01*
X3380305Y7209205D01*
X3380900Y7210412D01*
X3381787Y7211423D01*
X3414558Y7268185D01*
X3414991Y7269458D01*
X3415738Y7270577D01*
X3440821Y7331132D01*
X3441083Y7332451D01*
X3441678Y7333657D01*
X3458642Y7396967D01*
X3458730Y7398310D01*
X3459162Y7399584D01*
X3467717Y7464566D01*
X3467630Y7465909D01*
X3467892Y7467228D01*
Y7532772D01*
X3467630Y7534091D01*
X3467717Y7535433D01*
X3459162Y7600416D01*
X3458730Y7601690D01*
X3458642Y7603032D01*
X3441678Y7666342D01*
X3441083Y7667548D01*
X3440821Y7668868D01*
X3415738Y7729422D01*
X3414991Y7730541D01*
X3414558Y7731815D01*
X3381787Y7788577D01*
X3380900Y7789588D01*
X3380305Y7790795D01*
X3340405Y7842794D01*
X3339393Y7843681D01*
X3338646Y7844799D01*
X3292299Y7891146D01*
X3291181Y7891893D01*
X3290294Y7892904D01*
X3238295Y7932805D01*
X3237088Y7933400D01*
X3236077Y7934287D01*
X3179315Y7967058D01*
X3178041Y7967491D01*
X3176923Y7968238D01*
X3116368Y7993321D01*
X3115049Y7993583D01*
X3113842Y7994178D01*
X3050532Y8011142D01*
X3049190Y8011230D01*
X3047916Y8011662D01*
X2982933Y8020217D01*
X2981591Y8020130D01*
X2980272Y8020392D01*
D02*
G37*
G36*
X1148494Y8062700D02*
X1131506D01*
X1115813Y8056199D01*
X1103801Y8044187D01*
X1097300Y8028493D01*
Y8011506D01*
X1103801Y7995813D01*
X1111468Y7988146D01*
X1114430Y7980000D01*
X1111468Y7971854D01*
X1103801Y7964188D01*
X1097300Y7948494D01*
Y7931507D01*
X1103801Y7915813D01*
X1115813Y7903801D01*
X1131506Y7897300D01*
X1148494D01*
X1164187Y7903801D01*
X1176199Y7915813D01*
X1182700Y7931507D01*
Y7948494D01*
X1176199Y7964188D01*
X1168532Y7971854D01*
X1165570Y7980000D01*
X1168532Y7988146D01*
X1176199Y7995813D01*
X1182700Y8011506D01*
Y8028493D01*
X1176199Y8044187D01*
X1164187Y8056199D01*
X1148494Y8062700D01*
D02*
G37*
G36*
X818493Y6872700D02*
X801506D01*
X785813Y6866199D01*
X773801Y6854187D01*
X767300Y6838494D01*
Y6821507D01*
X773801Y6805813D01*
X785813Y6793801D01*
X801506Y6787300D01*
X818493D01*
X834187Y6793801D01*
X846199Y6805813D01*
X852700Y6821507D01*
Y6838494D01*
X846199Y6854187D01*
X834187Y6866199D01*
X818493Y6872700D01*
D02*
G37*
G36*
X2308493Y6822700D02*
X2291506D01*
X2275813Y6816199D01*
X2263801Y6804187D01*
X2257300Y6788493D01*
Y6771506D01*
X2263801Y6755812D01*
X2275813Y6743801D01*
X2291506Y6737300D01*
X2308493D01*
X2324187Y6743801D01*
X2336199Y6755812D01*
X2342700Y6771506D01*
Y6788493D01*
X2336199Y6804187D01*
X2324187Y6816199D01*
X2308493Y6822700D01*
D02*
G37*
G36*
X2098493Y6912700D02*
X2081506D01*
X2065812Y6906199D01*
X2053801Y6894187D01*
X2047300Y6878493D01*
Y6861506D01*
X2053801Y6845813D01*
X2065812Y6833801D01*
X2070466Y6831873D01*
Y6818127D01*
X2065812Y6816199D01*
X2053801Y6804187D01*
X2047300Y6788493D01*
Y6771506D01*
X2053801Y6755812D01*
X2065812Y6743801D01*
X2081506Y6737300D01*
X2098493D01*
X2114187Y6743801D01*
X2126199Y6755812D01*
X2132700Y6771506D01*
Y6788493D01*
X2126199Y6804187D01*
X2114187Y6816199D01*
X2109534Y6818127D01*
Y6831873D01*
X2114187Y6833801D01*
X2126199Y6845813D01*
X2132700Y6861506D01*
Y6878493D01*
X2126199Y6894187D01*
X2114187Y6906199D01*
X2098493Y6912700D01*
D02*
G37*
G36*
X1348494Y6772700D02*
X1331507D01*
X1315813Y6766199D01*
X1303801Y6754187D01*
X1297300Y6738494D01*
Y6721506D01*
X1303801Y6705813D01*
X1315813Y6693801D01*
X1331507Y6687300D01*
X1348494D01*
X1364188Y6693801D01*
X1376199Y6705813D01*
X1382700Y6721506D01*
Y6738494D01*
X1376199Y6754187D01*
X1364188Y6766199D01*
X1348494Y6772700D01*
D02*
G37*
G36*
X728494Y6602700D02*
X711507D01*
X695813Y6596199D01*
X683801Y6584187D01*
X677300Y6568494D01*
Y6551507D01*
X683801Y6535813D01*
X695813Y6523801D01*
X711507Y6517300D01*
X728494D01*
X744187Y6523801D01*
X756199Y6535813D01*
X762700Y6551507D01*
Y6568494D01*
X756199Y6584187D01*
X744187Y6596199D01*
X728494Y6602700D01*
D02*
G37*
G36*
X1518494Y6582700D02*
X1501507D01*
X1485813Y6576199D01*
X1473801Y6564187D01*
X1467300Y6548493D01*
Y6531506D01*
X1473801Y6515812D01*
X1485813Y6503801D01*
X1501507Y6497300D01*
X1518494D01*
X1534187Y6503801D01*
X1546199Y6515812D01*
X1552700Y6531506D01*
Y6548493D01*
X1546199Y6564187D01*
X1534187Y6576199D01*
X1518494Y6582700D01*
D02*
G37*
G36*
X3770192Y6608198D02*
X3743809D01*
X3718325Y6601370D01*
X3695476Y6588178D01*
X3676820Y6569522D01*
X3663629Y6546674D01*
X3656800Y6521190D01*
Y6494807D01*
X3663629Y6469322D01*
X3676820Y6446474D01*
X3695476Y6427818D01*
X3718325Y6414627D01*
X3743809Y6407798D01*
X3770192D01*
X3795676Y6414627D01*
X3818524Y6427818D01*
X3837180Y6446474D01*
X3850372Y6469322D01*
X3857200Y6494807D01*
Y6521190D01*
X3850372Y6546674D01*
X3837180Y6569522D01*
X3818524Y6588178D01*
X3795676Y6601370D01*
X3770192Y6608198D01*
D02*
G37*
G36*
X498494Y7872700D02*
X481507D01*
X465813Y7866199D01*
X453801Y7854187D01*
X447300Y7838494D01*
Y7821507D01*
X453801Y7805813D01*
X465813Y7793801D01*
X481507Y7787300D01*
X491364D01*
X1823264Y6455400D01*
X1818003Y6442700D01*
X1811506D01*
X1795813Y6436199D01*
X1783801Y6424187D01*
X1777300Y6408493D01*
Y6391506D01*
X1783801Y6375812D01*
X1795813Y6363801D01*
X1811506Y6357300D01*
X1828493D01*
X1844187Y6363801D01*
X1856199Y6375812D01*
X1862700Y6391506D01*
Y6398003D01*
X1875400Y6403264D01*
X2344306Y5934357D01*
Y5274693D01*
X2333801Y5264187D01*
X2327300Y5248493D01*
Y5231506D01*
X2333801Y5215813D01*
X2345813Y5203801D01*
X2361507Y5197300D01*
X2378494D01*
X2394187Y5203801D01*
X2401854Y5211468D01*
X2410000Y5214430D01*
X2418146Y5211468D01*
X2425813Y5203801D01*
X2441506Y5197300D01*
X2458493D01*
X2474187Y5203801D01*
X2486199Y5215813D01*
X2492700Y5231506D01*
Y5248493D01*
X2486199Y5264187D01*
X2475694Y5274693D01*
Y5444355D01*
X3452685Y6421347D01*
X3464325Y6414627D01*
X3489809Y6407798D01*
X3516192D01*
X3541676Y6414627D01*
X3564524Y6427818D01*
X3583180Y6446474D01*
X3596372Y6469322D01*
X3603200Y6494807D01*
Y6521190D01*
X3596372Y6546674D01*
X3583180Y6569522D01*
X3564524Y6588178D01*
X3541676Y6601370D01*
X3516192Y6608198D01*
X3489809D01*
X3464325Y6601370D01*
X3441476Y6588178D01*
X3422820Y6569522D01*
X3409629Y6546674D01*
X3402800Y6521190D01*
Y6494807D01*
X3409629Y6469322D01*
X3416349Y6457683D01*
X2431832Y5473166D01*
X2426262Y5464830D01*
X2424306Y5454998D01*
Y5274693D01*
X2418146Y5268532D01*
X2410000Y5265570D01*
X2401854Y5268532D01*
X2395694Y5274693D01*
Y5945000D01*
X2393738Y5954833D01*
X2388168Y5963168D01*
X531859Y7819477D01*
X532700Y7821507D01*
Y7838494D01*
X526199Y7854187D01*
X514187Y7866199D01*
X498494Y7872700D01*
D02*
G37*
G36*
X440191Y6608198D02*
X413808D01*
X388324Y6601370D01*
X365475Y6588178D01*
X346819Y6569522D01*
X333628Y6546674D01*
X326799Y6521190D01*
Y6494807D01*
X333628Y6469322D01*
X346819Y6446474D01*
X365475Y6427818D01*
X388324Y6414627D01*
X413808Y6407798D01*
X440191D01*
X465675Y6414627D01*
X488524Y6427818D01*
X507179Y6446474D01*
X520371Y6469322D01*
X527199Y6494807D01*
Y6521190D01*
X520371Y6546674D01*
X507179Y6569522D01*
X488524Y6588178D01*
X465675Y6601370D01*
X440191Y6608198D01*
D02*
G37*
G36*
X186191D02*
X159808D01*
X134324Y6601370D01*
X111475Y6588178D01*
X92819Y6569522D01*
X79628Y6546674D01*
X72799Y6521190D01*
Y6494807D01*
X79628Y6469322D01*
X92819Y6446474D01*
X111475Y6427818D01*
X134324Y6414627D01*
X159808Y6407798D01*
X186191D01*
X211675Y6414627D01*
X234524Y6427818D01*
X253179Y6446474D01*
X266371Y6469322D01*
X273199Y6494807D01*
Y6521190D01*
X266371Y6546674D01*
X253179Y6569522D01*
X234524Y6588178D01*
X211675Y6601370D01*
X186191Y6608198D01*
D02*
G37*
G36*
X1348494Y6422700D02*
X1331507D01*
X1315813Y6416199D01*
X1303801Y6404187D01*
X1297300Y6388493D01*
Y6371506D01*
X1303801Y6355813D01*
X1315813Y6343801D01*
X1331507Y6337300D01*
X1348494D01*
X1364188Y6343801D01*
X1376199Y6355813D01*
X1382700Y6371506D01*
Y6388493D01*
X1376199Y6404187D01*
X1364188Y6416199D01*
X1348494Y6422700D01*
D02*
G37*
G36*
X3770192Y6354198D02*
X3767000D01*
Y6263998D01*
X3857200D01*
Y6267190D01*
X3850372Y6292674D01*
X3837180Y6315522D01*
X3818524Y6334178D01*
X3795676Y6347370D01*
X3770192Y6354198D01*
D02*
G37*
G36*
X3747000D02*
X3743809D01*
X3718325Y6347370D01*
X3695476Y6334178D01*
X3676820Y6315522D01*
X3663629Y6292674D01*
X3656800Y6267190D01*
Y6263998D01*
X3747000D01*
Y6354198D01*
D02*
G37*
G36*
X728494Y6252700D02*
X711507D01*
X695813Y6246199D01*
X683801Y6234187D01*
X677300Y6218494D01*
Y6201507D01*
X683801Y6185813D01*
X695813Y6173801D01*
X711507Y6167300D01*
X728494D01*
X744187Y6173801D01*
X756199Y6185813D01*
X762700Y6201507D01*
Y6218494D01*
X756199Y6234187D01*
X744187Y6246199D01*
X728494Y6252700D01*
D02*
G37*
G36*
X3857200Y6243998D02*
X3767000D01*
Y6153798D01*
X3770192D01*
X3795676Y6160627D01*
X3818524Y6173818D01*
X3837180Y6192474D01*
X3850372Y6215322D01*
X3857200Y6240807D01*
Y6243998D01*
D02*
G37*
G36*
X3747000D02*
X3656800D01*
Y6240807D01*
X3663629Y6215322D01*
X3676820Y6192474D01*
X3695476Y6173818D01*
X3718325Y6160627D01*
X3743809Y6153798D01*
X3747000D01*
Y6243998D01*
D02*
G37*
G36*
X3516192Y6354198D02*
X3489809D01*
X3464325Y6347370D01*
X3441476Y6334178D01*
X3422820Y6315522D01*
X3409629Y6292674D01*
X3402800Y6267190D01*
Y6240807D01*
X3409629Y6215322D01*
X3422820Y6192474D01*
X3441476Y6173818D01*
X3464325Y6160627D01*
X3489809Y6153798D01*
X3516192D01*
X3541676Y6160627D01*
X3564524Y6173818D01*
X3583180Y6192474D01*
X3596372Y6215322D01*
X3603200Y6240807D01*
Y6267190D01*
X3596372Y6292674D01*
X3583180Y6315522D01*
X3564524Y6334178D01*
X3541676Y6347370D01*
X3516192Y6354198D01*
D02*
G37*
G36*
X440191D02*
X413808D01*
X388324Y6347370D01*
X365475Y6334178D01*
X346819Y6315522D01*
X333628Y6292674D01*
X326799Y6267190D01*
Y6240807D01*
X333628Y6215322D01*
X346819Y6192474D01*
X365475Y6173818D01*
X388324Y6160627D01*
X413808Y6153798D01*
X440191D01*
X465675Y6160627D01*
X488524Y6173818D01*
X507179Y6192474D01*
X520371Y6215322D01*
X527199Y6240807D01*
Y6267190D01*
X520371Y6292674D01*
X507179Y6315522D01*
X488524Y6334178D01*
X465675Y6347370D01*
X440191Y6354198D01*
D02*
G37*
G36*
X186191D02*
X159808D01*
X134324Y6347370D01*
X111475Y6334178D01*
X92819Y6315522D01*
X79628Y6292674D01*
X72799Y6267190D01*
Y6240807D01*
X79628Y6215322D01*
X92819Y6192474D01*
X111475Y6173818D01*
X134324Y6160627D01*
X159808Y6153798D01*
X186191D01*
X211675Y6160627D01*
X234524Y6173818D01*
X253179Y6192474D01*
X266371Y6215322D01*
X273199Y6240807D01*
Y6267190D01*
X266371Y6292674D01*
X253179Y6315522D01*
X234524Y6334178D01*
X211675Y6347370D01*
X186191Y6354198D01*
D02*
G37*
G36*
X3770192Y6100198D02*
X3767000D01*
Y6009998D01*
X3857200D01*
Y6013190D01*
X3850372Y6038674D01*
X3837180Y6061522D01*
X3818524Y6080178D01*
X3795676Y6093370D01*
X3770192Y6100198D01*
D02*
G37*
G36*
X3747000D02*
X3743809D01*
X3718325Y6093370D01*
X3695476Y6080178D01*
X3676820Y6061522D01*
X3663629Y6038674D01*
X3656800Y6013190D01*
Y6009998D01*
X3747000D01*
Y6100198D01*
D02*
G37*
G36*
X3516192D02*
X3513000D01*
Y6009998D01*
X3603200D01*
Y6013190D01*
X3596372Y6038674D01*
X3583180Y6061522D01*
X3564524Y6080178D01*
X3541676Y6093370D01*
X3516192Y6100198D01*
D02*
G37*
G36*
X3493000D02*
X3489809D01*
X3464325Y6093370D01*
X3441476Y6080178D01*
X3422820Y6061522D01*
X3409629Y6038674D01*
X3402800Y6013190D01*
Y6009998D01*
X3493000D01*
Y6100198D01*
D02*
G37*
G36*
X186191D02*
X182999D01*
Y6009998D01*
X273199D01*
Y6013190D01*
X266371Y6038674D01*
X253179Y6061522D01*
X234524Y6080178D01*
X211675Y6093370D01*
X186191Y6100198D01*
D02*
G37*
G36*
X162999D02*
X159808D01*
X134324Y6093370D01*
X111475Y6080178D01*
X92819Y6061522D01*
X79628Y6038674D01*
X72799Y6013190D01*
Y6009998D01*
X162999D01*
Y6100198D01*
D02*
G37*
G36*
X1348494Y6072700D02*
X1331507D01*
X1315813Y6066199D01*
X1303801Y6054187D01*
X1297300Y6038493D01*
Y6021506D01*
X1303801Y6005812D01*
X1315813Y5993801D01*
X1331507Y5987300D01*
X1348494D01*
X1364188Y5993801D01*
X1376199Y6005812D01*
X1382700Y6021506D01*
Y6038493D01*
X1376199Y6054187D01*
X1364188Y6066199D01*
X1348494Y6072700D01*
D02*
G37*
G36*
X3857200Y5989998D02*
X3767000D01*
Y5899798D01*
X3770192D01*
X3795676Y5906627D01*
X3818524Y5919818D01*
X3837180Y5938474D01*
X3850372Y5961322D01*
X3857200Y5986807D01*
Y5989998D01*
D02*
G37*
G36*
X3747000D02*
X3656800D01*
Y5986807D01*
X3663629Y5961322D01*
X3676820Y5938474D01*
X3695476Y5919818D01*
X3718325Y5906627D01*
X3743809Y5899798D01*
X3747000D01*
Y5989998D01*
D02*
G37*
G36*
X3603200D02*
X3513000D01*
Y5899798D01*
X3516192D01*
X3541676Y5906627D01*
X3564524Y5919818D01*
X3583180Y5938474D01*
X3596372Y5961322D01*
X3603200Y5986807D01*
Y5989998D01*
D02*
G37*
G36*
X3493000D02*
X3402800D01*
Y5986807D01*
X3409629Y5961322D01*
X3422820Y5938474D01*
X3441476Y5919818D01*
X3464325Y5906627D01*
X3489809Y5899798D01*
X3493000D01*
Y5989998D01*
D02*
G37*
G36*
X440191Y6100198D02*
X413808D01*
X388324Y6093370D01*
X365475Y6080178D01*
X346819Y6061522D01*
X333628Y6038674D01*
X326799Y6013190D01*
Y5986807D01*
X333628Y5961322D01*
X346819Y5938474D01*
X365475Y5919818D01*
X388324Y5906627D01*
X413808Y5899798D01*
X440191D01*
X465675Y5906627D01*
X488524Y5919818D01*
X507179Y5938474D01*
X520371Y5961322D01*
X527199Y5986807D01*
Y6013190D01*
X520371Y6038674D01*
X507179Y6061522D01*
X488524Y6080178D01*
X465675Y6093370D01*
X440191Y6100198D01*
D02*
G37*
G36*
X273199Y5989998D02*
X182999D01*
Y5899798D01*
X186191D01*
X211675Y5906627D01*
X234524Y5919818D01*
X253179Y5938474D01*
X266371Y5961322D01*
X273199Y5986807D01*
Y5989998D01*
D02*
G37*
G36*
X162999D02*
X72799D01*
Y5986807D01*
X79628Y5961322D01*
X92819Y5938474D01*
X111475Y5919818D01*
X134324Y5906627D01*
X159808Y5899798D01*
X162999D01*
Y5989998D01*
D02*
G37*
G36*
X2198493Y5902700D02*
X2181506D01*
X2165813Y5896199D01*
X2153801Y5884187D01*
X2147300Y5868493D01*
Y5857786D01*
X2145400Y5856577D01*
X2132700Y5863550D01*
Y5868493D01*
X2126199Y5884187D01*
X2114187Y5896199D01*
X2098493Y5902700D01*
X2081506D01*
X2065812Y5896199D01*
X2053801Y5884187D01*
X2047300Y5868493D01*
Y5853636D01*
X1556364Y5362700D01*
X1541506D01*
X1525813Y5356199D01*
X1513801Y5344187D01*
X1507300Y5328494D01*
Y5311507D01*
X1513801Y5295813D01*
X1525813Y5283801D01*
X1541506Y5277300D01*
X1558493D01*
X1574187Y5283801D01*
X1574600Y5284214D01*
X1580760Y5282901D01*
X1588048Y5279701D01*
X1593801Y5265813D01*
X1605813Y5253801D01*
X1621507Y5247300D01*
X1638494D01*
X1654187Y5253801D01*
X1666199Y5265813D01*
X1672700Y5281507D01*
Y5298494D01*
X1671859Y5300523D01*
X2188636Y5817300D01*
X2198493D01*
X2214187Y5823801D01*
X2226199Y5835813D01*
X2232700Y5851506D01*
Y5868493D01*
X2226199Y5884187D01*
X2214187Y5896199D01*
X2198493Y5902700D01*
D02*
G37*
G36*
X3770192Y5846198D02*
X3767000D01*
Y5755998D01*
X3857200D01*
Y5759190D01*
X3850372Y5784674D01*
X3837180Y5807522D01*
X3818524Y5826178D01*
X3795676Y5839370D01*
X3770192Y5846198D01*
D02*
G37*
G36*
X3747000D02*
X3743809D01*
X3718325Y5839370D01*
X3695476Y5826178D01*
X3676820Y5807522D01*
X3663629Y5784674D01*
X3656800Y5759190D01*
Y5755998D01*
X3747000D01*
Y5846198D01*
D02*
G37*
G36*
X3516192D02*
X3513000D01*
Y5755998D01*
X3603200D01*
Y5759190D01*
X3596372Y5784674D01*
X3583180Y5807522D01*
X3564524Y5826178D01*
X3541676Y5839370D01*
X3516192Y5846198D01*
D02*
G37*
G36*
X3493000D02*
X3489809D01*
X3464325Y5839370D01*
X3441476Y5826178D01*
X3422820Y5807522D01*
X3409629Y5784674D01*
X3402800Y5759190D01*
Y5755998D01*
X3493000D01*
Y5846198D01*
D02*
G37*
G36*
X186191D02*
X182999D01*
Y5755998D01*
X273199D01*
Y5759190D01*
X266371Y5784674D01*
X253179Y5807522D01*
X234524Y5826178D01*
X211675Y5839370D01*
X186191Y5846198D01*
D02*
G37*
G36*
X162999D02*
X159808D01*
X134324Y5839370D01*
X111475Y5826178D01*
X92819Y5807522D01*
X79628Y5784674D01*
X72799Y5759190D01*
Y5755998D01*
X162999D01*
Y5846198D01*
D02*
G37*
G36*
X3857200Y5735998D02*
X3767000D01*
Y5645798D01*
X3770192D01*
X3795676Y5652627D01*
X3818524Y5665818D01*
X3837180Y5684474D01*
X3850372Y5707322D01*
X3857200Y5732807D01*
Y5735998D01*
D02*
G37*
G36*
X3747000D02*
X3656800D01*
Y5732807D01*
X3663629Y5707322D01*
X3676820Y5684474D01*
X3695476Y5665818D01*
X3718325Y5652627D01*
X3743809Y5645798D01*
X3747000D01*
Y5735998D01*
D02*
G37*
G36*
X3603200D02*
X3513000D01*
Y5645798D01*
X3516192D01*
X3541676Y5652627D01*
X3564524Y5665818D01*
X3583180Y5684474D01*
X3596372Y5707322D01*
X3603200Y5732807D01*
Y5735998D01*
D02*
G37*
G36*
X3493000D02*
X3402800D01*
Y5732807D01*
X3409629Y5707322D01*
X3422820Y5684474D01*
X3441476Y5665818D01*
X3464325Y5652627D01*
X3489809Y5645798D01*
X3493000D01*
Y5735998D01*
D02*
G37*
G36*
X440191Y5846198D02*
X413808D01*
X388324Y5839370D01*
X365475Y5826178D01*
X346819Y5807522D01*
X333628Y5784674D01*
X326799Y5759190D01*
Y5732807D01*
X333628Y5707322D01*
X346819Y5684474D01*
X365475Y5665818D01*
X388324Y5652627D01*
X413808Y5645798D01*
X440191D01*
X465675Y5652627D01*
X488524Y5665818D01*
X507179Y5684474D01*
X520371Y5707322D01*
X527199Y5732807D01*
Y5759190D01*
X520371Y5784674D01*
X507179Y5807522D01*
X488524Y5826178D01*
X465675Y5839370D01*
X440191Y5846198D01*
D02*
G37*
G36*
X273199Y5735998D02*
X182999D01*
Y5645798D01*
X186191D01*
X211675Y5652627D01*
X234524Y5665818D01*
X253179Y5684474D01*
X266371Y5707322D01*
X273199Y5732807D01*
Y5735998D01*
D02*
G37*
G36*
X162999D02*
X72799D01*
Y5732807D01*
X79628Y5707322D01*
X92819Y5684474D01*
X111475Y5665818D01*
X134324Y5652627D01*
X159808Y5645798D01*
X162999D01*
Y5735998D01*
D02*
G37*
G36*
X3516192Y5592198D02*
X3513000D01*
Y5501998D01*
X3603200D01*
Y5505190D01*
X3596372Y5530674D01*
X3583180Y5553522D01*
X3564524Y5572178D01*
X3541676Y5585370D01*
X3516192Y5592198D01*
D02*
G37*
G36*
X3493000D02*
X3489809D01*
X3464325Y5585370D01*
X3441476Y5572178D01*
X3422820Y5553522D01*
X3409629Y5530674D01*
X3402800Y5505190D01*
Y5501998D01*
X3493000D01*
Y5592198D01*
D02*
G37*
G36*
X186191D02*
X182999D01*
Y5501998D01*
X273199D01*
Y5505190D01*
X266371Y5530674D01*
X253179Y5553522D01*
X234524Y5572178D01*
X211675Y5585370D01*
X186191Y5592198D01*
D02*
G37*
G36*
X162999D02*
X159808D01*
X134324Y5585370D01*
X111475Y5572178D01*
X92819Y5553522D01*
X79628Y5530674D01*
X72799Y5505190D01*
Y5501998D01*
X162999D01*
Y5592198D01*
D02*
G37*
G36*
X3770192D02*
X3743809D01*
X3718325Y5585370D01*
X3695476Y5572178D01*
X3676820Y5553522D01*
X3663629Y5530674D01*
X3656800Y5505190D01*
Y5478807D01*
X3663629Y5453322D01*
X3676820Y5430474D01*
X3695476Y5411818D01*
X3718325Y5398627D01*
X3743809Y5391798D01*
X3770192D01*
X3795676Y5398627D01*
X3818524Y5411818D01*
X3837180Y5430474D01*
X3850372Y5453322D01*
X3857200Y5478807D01*
Y5505190D01*
X3850372Y5530674D01*
X3837180Y5553522D01*
X3818524Y5572178D01*
X3795676Y5585370D01*
X3770192Y5592198D01*
D02*
G37*
G36*
X3603200Y5481998D02*
X3513000D01*
Y5391798D01*
X3516192D01*
X3541676Y5398627D01*
X3564524Y5411818D01*
X3583180Y5430474D01*
X3596372Y5453322D01*
X3603200Y5478807D01*
Y5481998D01*
D02*
G37*
G36*
X3493000D02*
X3402800D01*
Y5478807D01*
X3409629Y5453322D01*
X3422820Y5430474D01*
X3441476Y5411818D01*
X3464325Y5398627D01*
X3489809Y5391798D01*
X3493000D01*
Y5481998D01*
D02*
G37*
G36*
X440191Y5592198D02*
X413808D01*
X388324Y5585370D01*
X365475Y5572178D01*
X346819Y5553522D01*
X333628Y5530674D01*
X326799Y5505190D01*
Y5478807D01*
X333628Y5453322D01*
X346819Y5430474D01*
X365475Y5411818D01*
X388324Y5398627D01*
X413808Y5391798D01*
X440191D01*
X465675Y5398627D01*
X488524Y5411818D01*
X507179Y5430474D01*
X520371Y5453322D01*
X527199Y5478807D01*
Y5505190D01*
X520371Y5530674D01*
X507179Y5553522D01*
X488524Y5572178D01*
X465675Y5585370D01*
X440191Y5592198D01*
D02*
G37*
G36*
X273199Y5481998D02*
X182999D01*
Y5391798D01*
X186191D01*
X211675Y5398627D01*
X234524Y5411818D01*
X253179Y5430474D01*
X266371Y5453322D01*
X273199Y5478807D01*
Y5481998D01*
D02*
G37*
G36*
X162999D02*
X72799D01*
Y5478807D01*
X79628Y5453322D01*
X92819Y5430474D01*
X111475Y5411818D01*
X134324Y5398627D01*
X159808Y5391798D01*
X162999D01*
Y5481998D01*
D02*
G37*
G36*
X1486222Y5234970D02*
X1469235D01*
X1453541Y5228470D01*
X1441530Y5216458D01*
X1435029Y5200764D01*
Y5183777D01*
X1441530Y5168083D01*
X1453541Y5156071D01*
X1469235Y5149571D01*
X1486222D01*
X1501916Y5156071D01*
X1513928Y5168083D01*
X1520429Y5183777D01*
Y5200764D01*
X1513928Y5216458D01*
X1501916Y5228470D01*
X1486222Y5234970D01*
D02*
G37*
G36*
X1248494Y6552700D02*
X1231507D01*
X1215813Y6546199D01*
X1203801Y6534187D01*
X1197300Y6518493D01*
Y6503636D01*
X1091832Y6398168D01*
X1086262Y6389833D01*
X1084306Y6380000D01*
Y5084693D01*
X1073801Y5074187D01*
X1067300Y5058494D01*
Y5041507D01*
X1073801Y5025813D01*
X1085813Y5013801D01*
X1101507Y5007300D01*
X1118494D01*
X1134187Y5013801D01*
X1146199Y5025813D01*
X1152700Y5041507D01*
Y5058494D01*
X1146199Y5074187D01*
X1135694Y5084693D01*
Y5253156D01*
X1148394Y5256977D01*
X1151832Y5251832D01*
X1267300Y5136364D01*
Y5121506D01*
X1273801Y5105812D01*
X1285813Y5093801D01*
X1301506Y5087300D01*
X1318493D01*
X1334187Y5093801D01*
X1341854Y5101468D01*
X1350000Y5104430D01*
X1358146Y5101468D01*
X1365813Y5093801D01*
X1381507Y5087300D01*
X1398494D01*
X1414187Y5093801D01*
X1426199Y5105812D01*
X1432700Y5121506D01*
Y5138493D01*
X1426199Y5154187D01*
X1414187Y5166199D01*
X1398494Y5172700D01*
X1383636D01*
X1265694Y5290642D01*
Y5765307D01*
X1276199Y5775813D01*
X1282700Y5791507D01*
Y5808494D01*
X1276199Y5824187D01*
X1264187Y5836199D01*
X1248494Y5842700D01*
X1231507D01*
X1215813Y5836199D01*
X1208394Y5828780D01*
X1195694Y5834041D01*
Y6079357D01*
X1233636Y6117300D01*
X1248494D01*
X1264187Y6123801D01*
X1276199Y6135813D01*
X1282700Y6151507D01*
Y6168494D01*
X1276199Y6184188D01*
X1264187Y6196199D01*
X1248494Y6202700D01*
X1231507D01*
X1215813Y6196199D01*
X1203801Y6184188D01*
X1197300Y6168494D01*
Y6153636D01*
X1151832Y6108168D01*
X1148394Y6103023D01*
X1135694Y6106844D01*
Y6369357D01*
X1233636Y6467300D01*
X1248494D01*
X1264187Y6473801D01*
X1276199Y6485813D01*
X1282700Y6501506D01*
Y6518493D01*
X1276199Y6534187D01*
X1264187Y6546199D01*
X1248494Y6552700D01*
D02*
G37*
G36*
X3770192Y5214200D02*
X3743809D01*
X3718325Y5207372D01*
X3695476Y5194180D01*
X3676820Y5175525D01*
X3663629Y5152676D01*
X3656800Y5127192D01*
Y5100809D01*
X3663629Y5075325D01*
X3676820Y5052476D01*
X3695476Y5033821D01*
X3718325Y5020629D01*
X3743809Y5013800D01*
X3770192D01*
X3795676Y5020629D01*
X3818524Y5033821D01*
X3837180Y5052476D01*
X3850372Y5075325D01*
X3857200Y5100809D01*
Y5127192D01*
X3850372Y5152676D01*
X3837180Y5175525D01*
X3818524Y5194180D01*
X3795676Y5207372D01*
X3770192Y5214200D01*
D02*
G37*
G36*
X3516192D02*
X3489809D01*
X3464325Y5207372D01*
X3441476Y5194180D01*
X3422820Y5175525D01*
X3409629Y5152676D01*
X3402800Y5127192D01*
Y5100809D01*
X3409629Y5075325D01*
X3416349Y5063685D01*
X3298357Y4945694D01*
X3166500D01*
X3159974Y4958394D01*
X3164613Y4969593D01*
Y4986580D01*
X3158112Y5002274D01*
X3146101Y5014286D01*
X3130407Y5020787D01*
X3113420D01*
X3097726Y5014286D01*
X3085714Y5002274D01*
X3079213Y4986580D01*
Y4969593D01*
X3083852Y4958394D01*
X3077326Y4945694D01*
X2360000D01*
X2350168Y4943738D01*
X2341832Y4938168D01*
X2266364Y4862700D01*
X2251507D01*
X2235813Y4856199D01*
X2223801Y4844187D01*
X2217300Y4828494D01*
Y4811507D01*
X2223801Y4795813D01*
X2235813Y4783801D01*
X2245466Y4779802D01*
X2245812Y4766199D01*
X2233801Y4754187D01*
X2227300Y4738493D01*
Y4721506D01*
X2233801Y4705813D01*
X2245813Y4693801D01*
X2261507Y4687300D01*
X2278494D01*
X2294187Y4693801D01*
X2306199Y4705813D01*
X2312700Y4721506D01*
Y4736364D01*
X2410643Y4834307D01*
X3406150D01*
X3409629Y4821325D01*
X3422820Y4798476D01*
X3441476Y4779821D01*
X3464325Y4766629D01*
X3489809Y4759800D01*
X3516192D01*
X3541676Y4766629D01*
X3564524Y4779821D01*
X3583180Y4798476D01*
X3596372Y4821325D01*
X3603200Y4846809D01*
Y4873192D01*
X3596372Y4898676D01*
X3583180Y4921525D01*
X3564524Y4940180D01*
X3541676Y4953372D01*
X3516192Y4960200D01*
X3489809D01*
X3464325Y4953372D01*
X3441476Y4940180D01*
X3422820Y4921525D01*
X3409629Y4898676D01*
X3406150Y4885694D01*
X3325846D01*
X3322023Y4898394D01*
X3327168Y4901832D01*
X3452685Y5027349D01*
X3464325Y5020629D01*
X3489809Y5013800D01*
X3516192D01*
X3541676Y5020629D01*
X3564524Y5033821D01*
X3583180Y5052476D01*
X3596372Y5075325D01*
X3603200Y5100809D01*
Y5127192D01*
X3596372Y5152676D01*
X3583180Y5175525D01*
X3564524Y5194180D01*
X3541676Y5207372D01*
X3516192Y5214200D01*
D02*
G37*
G36*
X2630764Y5064971D02*
X2613777D01*
X2598083Y5058470D01*
X2586071Y5046458D01*
X2579570Y5030764D01*
Y5013777D01*
X2586071Y4998083D01*
X2598083Y4986072D01*
X2613777Y4979571D01*
X2630764D01*
X2646458Y4986072D01*
X2658469Y4998083D01*
X2664970Y5013777D01*
Y5030764D01*
X2658469Y5046458D01*
X2646458Y5058470D01*
X2630764Y5064971D01*
D02*
G37*
G36*
X1978494Y5242700D02*
X1961507D01*
X1945813Y5236199D01*
X1933801Y5224187D01*
X1927300Y5208494D01*
Y5191507D01*
X1933801Y5175813D01*
X1944307Y5165307D01*
Y4892673D01*
X1931606Y4887268D01*
X1918493Y4892700D01*
X1901506D01*
X1885813Y4886199D01*
X1873801Y4874187D01*
X1867300Y4858493D01*
Y4841506D01*
X1873801Y4825813D01*
X1884306Y4815307D01*
Y4670000D01*
X1884309Y4669989D01*
X1872604Y4663732D01*
X1723155Y4813182D01*
X1714819Y4818752D01*
X1704987Y4820707D01*
X1651642D01*
X1641137Y4831213D01*
X1625443Y4837714D01*
X1608456D01*
X1592762Y4831213D01*
X1580750Y4819201D01*
X1574249Y4803507D01*
Y4786520D01*
X1580750Y4770826D01*
X1592762Y4758815D01*
X1598211Y4756558D01*
X1603801Y4744187D01*
X1597300Y4728493D01*
Y4711506D01*
X1603801Y4695813D01*
X1614306Y4685307D01*
Y4670000D01*
X1616262Y4660167D01*
X1621832Y4651832D01*
X2004306Y4269357D01*
Y3654693D01*
X1993801Y3644188D01*
X1987300Y3628494D01*
Y3611507D01*
X1993801Y3595813D01*
X2005813Y3583801D01*
X2021506Y3577300D01*
X2038494D01*
X2054187Y3583801D01*
X2061606Y3591220D01*
X2074306Y3585960D01*
Y3503213D01*
X2071780Y3502167D01*
X2059769Y3490155D01*
X2053268Y3474461D01*
Y3457474D01*
X2059769Y3441780D01*
X2071780Y3429769D01*
X2087474Y3423268D01*
X2104461D01*
X2120155Y3429769D01*
X2132167Y3441780D01*
X2138668Y3457474D01*
Y3474461D01*
X2132167Y3490155D01*
X2125694Y3496628D01*
Y3537326D01*
X2138394Y3542732D01*
X2151506Y3537300D01*
X2168494D01*
X2184187Y3543801D01*
X2191606Y3551220D01*
X2204306Y3545959D01*
Y2250000D01*
X2206262Y2240167D01*
X2211832Y2231832D01*
X2397300Y2046364D01*
Y2031506D01*
X2403801Y2015813D01*
X2415813Y2003801D01*
X2431506Y1997300D01*
X2448493D01*
X2464187Y2003801D01*
X2476199Y2015813D01*
X2482700Y2031506D01*
Y2048493D01*
X2476199Y2064187D01*
X2464187Y2076199D01*
X2448493Y2082700D01*
X2433636D01*
X2255694Y2260642D01*
Y4344611D01*
X2267995Y4350963D01*
X2274306Y4346193D01*
Y2310000D01*
X2276262Y2300167D01*
X2281832Y2291832D01*
X2397300Y2176364D01*
Y2171506D01*
X2403801Y2155813D01*
X2415813Y2143801D01*
X2431506Y2137300D01*
X2448493D01*
X2464187Y2143801D01*
X2476199Y2155813D01*
X2482700Y2171506D01*
Y2188493D01*
X2476199Y2204187D01*
X2464187Y2216199D01*
X2448493Y2222700D01*
X2431506D01*
X2425942Y2220395D01*
X2325694Y2320643D01*
Y4360000D01*
X2323738Y4369833D01*
X2318168Y4378168D01*
X1995694Y4700642D01*
Y4713156D01*
X2008394Y4716977D01*
X2011832Y4711832D01*
X2344306Y4379357D01*
Y2390000D01*
X2346262Y2380167D01*
X2351832Y2371832D01*
X2397300Y2326364D01*
Y2311506D01*
X2403801Y2295813D01*
X2415813Y2283801D01*
X2431506Y2277300D01*
X2448493D01*
X2464187Y2283801D01*
X2476199Y2295813D01*
X2482700Y2311506D01*
Y2328493D01*
X2476199Y2344187D01*
X2464187Y2356199D01*
X2448493Y2362700D01*
X2433636D01*
X2395694Y2400642D01*
Y2425959D01*
X2408394Y2431220D01*
X2415813Y2423801D01*
X2431506Y2417300D01*
X2448493D01*
X2464187Y2423801D01*
X2476199Y2435813D01*
X2482700Y2451506D01*
Y2468493D01*
X2476199Y2484187D01*
X2465694Y2494693D01*
Y4400000D01*
X2463738Y4409832D01*
X2458168Y4418168D01*
X2175694Y4700642D01*
Y4915307D01*
X2186199Y4925813D01*
X2192700Y4941506D01*
Y4958494D01*
X2186199Y4974187D01*
X2174187Y4986199D01*
X2158494Y4992700D01*
X2141507D01*
X2125813Y4986199D01*
X2113801Y4974187D01*
X2107300Y4958494D01*
Y4941506D01*
X2113801Y4925813D01*
X2124306Y4915307D01*
Y4690000D01*
X2124309Y4689988D01*
X2112604Y4683732D01*
X2055694Y4740643D01*
Y5075307D01*
X2066199Y5085813D01*
X2072700Y5101506D01*
Y5118493D01*
X2066199Y5134187D01*
X2054187Y5146199D01*
X2038494Y5152700D01*
X2021506D01*
X2008394Y5147268D01*
X1995694Y5152674D01*
Y5165307D01*
X2006199Y5175813D01*
X2012700Y5191507D01*
Y5208494D01*
X2006199Y5224187D01*
X1994188Y5236199D01*
X1978494Y5242700D01*
D02*
G37*
G36*
X3770192Y4960200D02*
X3743809D01*
X3718325Y4953372D01*
X3695476Y4940180D01*
X3676820Y4921525D01*
X3663629Y4898676D01*
X3656800Y4873192D01*
Y4846809D01*
X3663629Y4821325D01*
X3676820Y4798476D01*
X3695476Y4779821D01*
X3718325Y4766629D01*
X3743809Y4759800D01*
X3770192D01*
X3795676Y4766629D01*
X3818524Y4779821D01*
X3837180Y4798476D01*
X3850372Y4821325D01*
X3857200Y4846809D01*
Y4873192D01*
X3850372Y4898676D01*
X3837180Y4921525D01*
X3818524Y4940180D01*
X3795676Y4953372D01*
X3770192Y4960200D01*
D02*
G37*
G36*
Y4706200D02*
X3767000D01*
Y4616000D01*
X3857200D01*
Y4619192D01*
X3850372Y4644676D01*
X3837180Y4667525D01*
X3818524Y4686180D01*
X3795676Y4699372D01*
X3770192Y4706200D01*
D02*
G37*
G36*
X3747000D02*
X3743809D01*
X3718325Y4699372D01*
X3695476Y4686180D01*
X3676820Y4667525D01*
X3663629Y4644676D01*
X3656800Y4619192D01*
Y4616000D01*
X3747000D01*
Y4706200D01*
D02*
G37*
G36*
X3857200Y4596000D02*
X3767000D01*
Y4505800D01*
X3770192D01*
X3795676Y4512629D01*
X3818524Y4525821D01*
X3837180Y4544476D01*
X3850372Y4567325D01*
X3857200Y4592809D01*
Y4596000D01*
D02*
G37*
G36*
X3747000D02*
X3656800D01*
Y4592809D01*
X3663629Y4567325D01*
X3676820Y4544476D01*
X3695476Y4525821D01*
X3718325Y4512629D01*
X3743809Y4505800D01*
X3747000D01*
Y4596000D01*
D02*
G37*
G36*
X3516192Y4706200D02*
X3489809D01*
X3464325Y4699372D01*
X3441476Y4686180D01*
X3422820Y4667525D01*
X3409629Y4644676D01*
X3402800Y4619192D01*
Y4592809D01*
X3409629Y4567325D01*
X3422820Y4544476D01*
X3441476Y4525821D01*
X3464325Y4512629D01*
X3489809Y4505800D01*
X3516192D01*
X3541676Y4512629D01*
X3564524Y4525821D01*
X3583180Y4544476D01*
X3596372Y4567325D01*
X3603200Y4592809D01*
Y4619192D01*
X3596372Y4644676D01*
X3583180Y4667525D01*
X3564524Y4686180D01*
X3541676Y4699372D01*
X3516192Y4706200D01*
D02*
G37*
G36*
X1068493Y4372700D02*
X1051506D01*
X1035813Y4366199D01*
X1023801Y4354187D01*
X1017300Y4338493D01*
Y4321506D01*
X1023801Y4305813D01*
X1035813Y4293801D01*
X1051506Y4287300D01*
X1068493D01*
X1084187Y4293801D01*
X1096199Y4305813D01*
X1102700Y4321506D01*
Y4338493D01*
X1096199Y4354187D01*
X1084187Y4366199D01*
X1068493Y4372700D01*
D02*
G37*
G36*
X3266580Y4350787D02*
X3249593D01*
X3233900Y4344286D01*
X3221888Y4332274D01*
X3215387Y4316580D01*
Y4299593D01*
X3221888Y4283899D01*
X3233900Y4271888D01*
X3249593Y4265387D01*
X3266580D01*
X3282274Y4271888D01*
X3294286Y4283899D01*
X3300787Y4299593D01*
Y4316580D01*
X3294286Y4332274D01*
X3282274Y4344286D01*
X3266580Y4350787D01*
D02*
G37*
G36*
X2538494Y4212700D02*
X2521507D01*
X2505813Y4206199D01*
X2493801Y4194187D01*
X2487300Y4178494D01*
Y4161507D01*
X2493801Y4145813D01*
X2505813Y4133801D01*
X2521507Y4127300D01*
X2538494D01*
X2554187Y4133801D01*
X2566199Y4145813D01*
X2572700Y4161507D01*
Y4178494D01*
X2566199Y4194187D01*
X2554187Y4206199D01*
X2538494Y4212700D01*
D02*
G37*
G36*
X3578493Y3302700D02*
X3561506D01*
X3545813Y3296199D01*
X3533801Y3284187D01*
X3527300Y3268494D01*
Y3251507D01*
X3533801Y3235813D01*
X3545813Y3223801D01*
X3561506Y3217300D01*
X3578493D01*
X3594187Y3223801D01*
X3606199Y3235813D01*
X3612700Y3251507D01*
Y3268494D01*
X3606199Y3284187D01*
X3594187Y3296199D01*
X3578493Y3302700D01*
D02*
G37*
G36*
X3228493D02*
X3211506D01*
X3195813Y3296199D01*
X3183801Y3284187D01*
X3177300Y3268494D01*
Y3251507D01*
X3183801Y3235813D01*
X3195813Y3223801D01*
X3211506Y3217300D01*
X3228493D01*
X3244187Y3223801D01*
X3256199Y3235813D01*
X3262700Y3251507D01*
Y3268494D01*
X3256199Y3284187D01*
X3244187Y3296199D01*
X3228493Y3302700D01*
D02*
G37*
G36*
X2048493Y2942700D02*
X2031506D01*
X2015813Y2936199D01*
X2003801Y2924187D01*
X1997300Y2908494D01*
Y2891507D01*
X2003801Y2875813D01*
X2015813Y2863801D01*
X2031506Y2857300D01*
X2048493D01*
X2064187Y2863801D01*
X2076199Y2875813D01*
X2082700Y2891507D01*
Y2908494D01*
X2076199Y2924187D01*
X2064187Y2936199D01*
X2048493Y2942700D01*
D02*
G37*
G36*
X1293039Y2584661D02*
X1276052D01*
X1260358Y2578160D01*
X1248347Y2566149D01*
X1241846Y2550455D01*
Y2533468D01*
X1248347Y2517774D01*
X1260358Y2505762D01*
X1276052Y2499261D01*
X1293039D01*
X1308733Y2505762D01*
X1320745Y2517774D01*
X1327246Y2533468D01*
Y2550455D01*
X1320745Y2566149D01*
X1308733Y2578160D01*
X1293039Y2584661D01*
D02*
G37*
G36*
X3568493Y2512700D02*
X3551506D01*
X3535813Y2506199D01*
X3523801Y2494187D01*
X3517300Y2478493D01*
Y2461506D01*
X3523801Y2445812D01*
X3535813Y2433801D01*
X3551506Y2427300D01*
X3568493D01*
X3584187Y2433801D01*
X3596199Y2445812D01*
X3602700Y2461506D01*
Y2478493D01*
X3596199Y2494187D01*
X3584187Y2506199D01*
X3568493Y2512700D01*
D02*
G37*
G36*
X2868494D02*
X2851507D01*
X2835813Y2506199D01*
X2823801Y2494187D01*
X2817300Y2478493D01*
Y2461506D01*
X2823801Y2445812D01*
X2835813Y2433801D01*
X2851507Y2427300D01*
X2868494D01*
X2884188Y2433801D01*
X2896199Y2445812D01*
X2902700Y2461506D01*
Y2478493D01*
X2896199Y2494187D01*
X2884188Y2506199D01*
X2868494Y2512700D01*
D02*
G37*
G36*
X3468493Y2012700D02*
X3451506D01*
X3435813Y2006199D01*
X3423801Y1994188D01*
X3417300Y1978494D01*
Y1961507D01*
X3423801Y1945813D01*
X3435813Y1933801D01*
X3451506Y1927300D01*
X3468493D01*
X3484187Y1933801D01*
X3496199Y1945813D01*
X3502700Y1961507D01*
Y1978494D01*
X3496199Y1994188D01*
X3484187Y2006199D01*
X3468493Y2012700D01*
D02*
G37*
G36*
X2828694D02*
X2811707D01*
X2796013Y2006199D01*
X2784001Y1994188D01*
X2777500Y1978494D01*
Y1961507D01*
X2784001Y1945813D01*
X2796013Y1933801D01*
X2811707Y1927300D01*
X2828694D01*
X2844388Y1933801D01*
X2856399Y1945813D01*
X2862900Y1961507D01*
Y1978494D01*
X2856399Y1994188D01*
X2844388Y2006199D01*
X2828694Y2012700D01*
D02*
G37*
G36*
X1428493Y4902700D02*
X1411506D01*
X1395813Y4896199D01*
X1383801Y4884187D01*
X1377300Y4868493D01*
Y4851506D01*
X1383801Y4835813D01*
X1394306Y4825307D01*
Y3900000D01*
X1396262Y3890168D01*
X1401832Y3881832D01*
X2134306Y3149358D01*
Y2180000D01*
X2136262Y2170167D01*
X2141832Y2161832D01*
X2397300Y1906364D01*
Y1891507D01*
X2403801Y1875813D01*
X2415813Y1863801D01*
X2431506Y1857300D01*
X2448493D01*
X2464187Y1863801D01*
X2476199Y1875813D01*
X2482700Y1891507D01*
Y1908494D01*
X2476199Y1924187D01*
X2464187Y1936199D01*
X2448493Y1942700D01*
X2433636D01*
X2185694Y2190643D01*
Y3160000D01*
X2183738Y3169833D01*
X2178168Y3178168D01*
X1445694Y3910643D01*
Y4825307D01*
X1456199Y4835813D01*
X1462700Y4851506D01*
Y4868493D01*
X1456199Y4884187D01*
X1444187Y4896199D01*
X1428493Y4902700D01*
D02*
G37*
G36*
X3683635Y1533202D02*
X3664361D01*
X3645744Y1528214D01*
X3629052Y1518577D01*
X3615424Y1504948D01*
X3605787Y1488256D01*
X3600798Y1469639D01*
Y1450365D01*
X3605787Y1431748D01*
X3615424Y1415056D01*
X3629052Y1401427D01*
X3645744Y1391790D01*
X3664361Y1386802D01*
X3683635D01*
X3702252Y1391790D01*
X3718944Y1401427D01*
X3732573Y1415056D01*
X3742210Y1431748D01*
X3747198Y1450365D01*
Y1469639D01*
X3742210Y1488256D01*
X3732573Y1504948D01*
X3718944Y1518577D01*
X3702252Y1528214D01*
X3683635Y1533202D01*
D02*
G37*
G36*
X3429635D02*
X3410361D01*
X3391744Y1528214D01*
X3375052Y1518577D01*
X3361424Y1504948D01*
X3351787Y1488256D01*
X3346798Y1469639D01*
Y1450365D01*
X3351787Y1431748D01*
X3361424Y1415056D01*
X3375052Y1401427D01*
X3391744Y1391790D01*
X3410361Y1386802D01*
X3429635D01*
X3448252Y1391790D01*
X3464944Y1401427D01*
X3478573Y1415056D01*
X3488210Y1431748D01*
X3493198Y1450365D01*
Y1469639D01*
X3488210Y1488256D01*
X3478573Y1504948D01*
X3464944Y1518577D01*
X3448252Y1528214D01*
X3429635Y1533202D01*
D02*
G37*
G36*
X3239198D02*
X3092798D01*
Y1386802D01*
X3239198D01*
Y1533202D01*
D02*
G37*
G36*
X837202D02*
X690802D01*
Y1386802D01*
X837202D01*
Y1533202D01*
D02*
G37*
G36*
X519639D02*
X500365D01*
X481747Y1528214D01*
X465056Y1518577D01*
X451427Y1504948D01*
X441790Y1488256D01*
X436802Y1469639D01*
Y1450365D01*
X441790Y1431748D01*
X451427Y1415056D01*
X465056Y1401427D01*
X481747Y1391790D01*
X500365Y1386802D01*
X519639D01*
X538256Y1391790D01*
X554947Y1401427D01*
X568576Y1415056D01*
X578213Y1431748D01*
X583202Y1450365D01*
Y1469639D01*
X578213Y1488256D01*
X568576Y1504948D01*
X554947Y1518577D01*
X538256Y1528214D01*
X519639Y1533202D01*
D02*
G37*
G36*
X265639D02*
X246365D01*
X227747Y1528214D01*
X211056Y1518577D01*
X197427Y1504948D01*
X187790Y1488256D01*
X182802Y1469639D01*
Y1450365D01*
X187790Y1431748D01*
X197427Y1415056D01*
X211056Y1401427D01*
X227747Y1391790D01*
X246365Y1386802D01*
X265639D01*
X284256Y1391790D01*
X300947Y1401427D01*
X314576Y1415056D01*
X324213Y1431748D01*
X329202Y1450365D01*
Y1469639D01*
X324213Y1488256D01*
X314576Y1504948D01*
X300947Y1518577D01*
X284256Y1528214D01*
X265639Y1533202D01*
D02*
G37*
G36*
X2352560Y1234272D02*
X2335573D01*
X2319879Y1227771D01*
X2307867Y1215759D01*
X2301366Y1200065D01*
Y1183078D01*
X2307867Y1167384D01*
X2319879Y1155373D01*
X2335573Y1148872D01*
X2352560D01*
X2368254Y1155373D01*
X2380265Y1167384D01*
X2386766Y1183078D01*
Y1200065D01*
X2380265Y1215759D01*
X2368254Y1227771D01*
X2352560Y1234272D01*
D02*
G37*
G36*
X1589422Y1231129D02*
X1572435D01*
X1556741Y1224628D01*
X1544729Y1212616D01*
X1538229Y1196922D01*
Y1179935D01*
X1544729Y1164241D01*
X1556741Y1152230D01*
X1572435Y1145729D01*
X1589422D01*
X1605116Y1152230D01*
X1617128Y1164241D01*
X1623628Y1179935D01*
Y1196922D01*
X1617128Y1212616D01*
X1605116Y1224628D01*
X1589422Y1231129D01*
D02*
G37*
G36*
X3683635Y1003201D02*
X3664361D01*
X3645744Y998212D01*
X3629052Y988575D01*
X3615424Y974946D01*
X3605787Y958255D01*
X3600798Y939638D01*
Y920364D01*
X3605787Y901746D01*
X3615424Y885055D01*
X3629052Y871426D01*
X3645744Y861789D01*
X3664361Y856801D01*
X3683635D01*
X3702252Y861789D01*
X3718944Y871426D01*
X3732573Y885055D01*
X3742210Y901746D01*
X3747198Y920364D01*
Y939638D01*
X3742210Y958255D01*
X3732573Y974946D01*
X3718944Y988575D01*
X3702252Y998212D01*
X3683635Y1003201D01*
D02*
G37*
G36*
X3429635D02*
X3410361D01*
X3391744Y998212D01*
X3375052Y988575D01*
X3361424Y974946D01*
X3351787Y958255D01*
X3346798Y939638D01*
Y920364D01*
X3351787Y901746D01*
X3361424Y885055D01*
X3375052Y871426D01*
X3391744Y861789D01*
X3410361Y856801D01*
X3429635D01*
X3448252Y861789D01*
X3464944Y871426D01*
X3478573Y885055D01*
X3488210Y901746D01*
X3493198Y920364D01*
Y939638D01*
X3488210Y958255D01*
X3478573Y974946D01*
X3464944Y988575D01*
X3448252Y998212D01*
X3429635Y1003201D01*
D02*
G37*
G36*
X3239198D02*
X3092798D01*
Y856801D01*
X3239198D01*
Y1003201D01*
D02*
G37*
G36*
X837202D02*
X690802D01*
Y856801D01*
X837202D01*
Y1003201D01*
D02*
G37*
G36*
X519639D02*
X500365D01*
X481747Y998212D01*
X465056Y988575D01*
X451427Y974946D01*
X441790Y958255D01*
X436802Y939638D01*
Y920364D01*
X441790Y901746D01*
X451427Y885055D01*
X465056Y871426D01*
X481747Y861789D01*
X500365Y856801D01*
X519639D01*
X538256Y861789D01*
X554947Y871426D01*
X568576Y885055D01*
X578213Y901746D01*
X583202Y920364D01*
Y939638D01*
X578213Y958255D01*
X568576Y974946D01*
X554947Y988575D01*
X538256Y998212D01*
X519639Y1003201D01*
D02*
G37*
G36*
X265639D02*
X246365D01*
X227747Y998212D01*
X211056Y988575D01*
X197427Y974946D01*
X187790Y958255D01*
X182802Y939638D01*
Y920364D01*
X187790Y901746D01*
X197427Y885055D01*
X211056Y871426D01*
X227747Y861789D01*
X246365Y856801D01*
X265639D01*
X284256Y861789D01*
X300947Y871426D01*
X314576Y885055D01*
X324213Y901746D01*
X329202Y920364D01*
Y939638D01*
X324213Y958255D01*
X314576Y974946D01*
X300947Y988575D01*
X284256Y998212D01*
X265639Y1003201D01*
D02*
G37*
G36*
X1582994Y1688200D02*
X1566007D01*
X1550313Y1681699D01*
X1538301Y1669688D01*
X1531800Y1653994D01*
Y1639136D01*
X1438832Y1546168D01*
X1433262Y1537833D01*
X1431306Y1528000D01*
Y523849D01*
X1418324Y520371D01*
X1395476Y507179D01*
X1376820Y488524D01*
X1363628Y465675D01*
X1356800Y440191D01*
Y413808D01*
X1363628Y388324D01*
X1376820Y365475D01*
X1395476Y346819D01*
X1418324Y333628D01*
X1443808Y326799D01*
X1470191D01*
X1495676Y333628D01*
X1518524Y346819D01*
X1537180Y365475D01*
X1550371Y388324D01*
X1557200Y413808D01*
Y440191D01*
X1550371Y465675D01*
X1537180Y488524D01*
X1518524Y507179D01*
X1495676Y520371D01*
X1482694Y523849D01*
Y1517357D01*
X1568136Y1602800D01*
X1582994D01*
X1598687Y1609301D01*
X1610699Y1621313D01*
X1617200Y1637007D01*
Y1653994D01*
X1610699Y1669688D01*
X1598687Y1681699D01*
X1582994Y1688200D01*
D02*
G37*
G36*
X1955000Y273199D02*
X1951808D01*
X1926324Y266371D01*
X1903476Y253179D01*
X1884820Y234524D01*
X1871628Y211675D01*
X1864800Y186191D01*
Y182999D01*
X1955000D01*
Y273199D01*
D02*
G37*
G36*
Y162999D02*
X1864800D01*
Y159808D01*
X1871628Y134324D01*
X1884820Y111475D01*
X1903476Y92819D01*
X1926324Y79628D01*
X1951808Y72799D01*
X1955000D01*
Y162999D01*
D02*
G37*
G36*
X1470191Y273199D02*
X1443808D01*
X1418324Y266371D01*
X1395476Y253179D01*
X1376820Y234524D01*
X1363628Y211675D01*
X1356800Y186191D01*
Y159808D01*
X1363628Y134324D01*
X1376820Y111475D01*
X1395476Y92819D01*
X1418324Y79628D01*
X1443808Y72799D01*
X1470191D01*
X1495676Y79628D01*
X1518524Y92819D01*
X1537180Y111475D01*
X1550371Y134324D01*
X1557200Y159808D01*
Y186191D01*
X1550371Y211675D01*
X1537180Y234524D01*
X1518524Y253179D01*
X1495676Y266371D01*
X1470191Y273199D01*
D02*
G37*
%LPD*%
G36*
X1080000Y8230000D02*
X130000D01*
Y10520000D01*
X1080000D01*
Y8230000D01*
D02*
G37*
G36*
X2074306Y4299357D02*
Y3661230D01*
X2061606Y3654947D01*
X2055694Y3659461D01*
Y4280000D01*
X2053738Y4289833D01*
X2048168Y4298168D01*
X1715196Y4631141D01*
X1720043Y4643859D01*
X1728730Y4644934D01*
X2074306Y4299357D01*
D02*
G37*
G36*
X2414306Y4386193D02*
Y2499461D01*
X2408394Y2494948D01*
X2395694Y2501230D01*
Y4384611D01*
X2407994Y4390964D01*
X2414306Y4386193D01*
D02*
G37*
D10*
X1420000Y3900000D02*
Y4860000D01*
Y3900000D02*
X2160000Y3160000D01*
X2710000Y1270000D02*
X3230000Y1790000D01*
X2710000Y220000D02*
Y1270000D01*
X2540000Y50000D02*
X2710000Y220000D01*
X2610000Y1360000D02*
X3340000Y2090000D01*
X2560000Y1440000D02*
X2990000Y1870000D01*
X2660000Y360000D02*
Y1320000D01*
X2350000Y490000D02*
X2560000Y700000D01*
X2610000Y564000D02*
Y1360000D01*
X2560000Y700000D02*
Y1440000D01*
X2473000Y426999D02*
X2610000Y564000D01*
X2660000Y1320000D02*
X3210000Y1870000D01*
X2473000Y172999D02*
X2660000Y360000D01*
X2040000Y1570000D02*
X2110000Y1500000D01*
X2230000Y2250000D02*
X2440000Y2040000D01*
X2095968Y3465968D02*
X2100000Y3470000D01*
X2190000Y5855000D02*
Y5860000D01*
X2150000Y4690000D02*
Y4950000D01*
X1630000Y5295000D02*
X2190000Y5855000D01*
X1550000Y5320000D02*
X2090000Y5860000D01*
X2100000Y3470000D02*
Y4310000D01*
X2230000Y2250000D02*
Y4350000D01*
X1910000Y4670000D02*
X2230000Y4350000D01*
X2160000Y3580000D02*
Y4340000D01*
X1704987Y4795014D02*
X2160000Y4340000D01*
X2030000Y4730000D02*
X2370000Y4390000D01*
X1970000Y4690000D02*
Y5200000D01*
Y4690000D02*
X2300000Y4360000D01*
X2030000Y3620000D02*
Y4280000D01*
Y4730000D02*
Y5110000D01*
X2300000Y2310000D02*
Y4360000D01*
Y2310000D02*
X2430000Y2180000D01*
X1630000Y5290000D02*
Y5295000D01*
X1910000Y4670000D02*
Y4850000D01*
X490000Y7825000D02*
Y7830000D01*
Y7825000D02*
X2370000Y5945000D01*
Y5240000D02*
Y5945000D01*
X2440000Y2460000D02*
Y4400000D01*
X1240000Y5280000D02*
X1390000Y5130000D01*
X1240000Y5280000D02*
Y5800000D01*
X1170000Y5270000D02*
X1310000Y5130000D01*
X1170000Y5270000D02*
Y6090000D01*
X1110000Y5050000D02*
Y6380000D01*
X3210000Y1870000D02*
X3350000D01*
X3340000Y2090000D02*
Y2670000D01*
X3230000Y1790000D02*
X3610000D01*
X3620000Y2740000D02*
X3690000Y2670000D01*
X3310000Y2740000D02*
X3620000D01*
X3270000Y2700000D02*
X3310000Y2740000D01*
X2400001Y4860000D02*
X3503000D01*
X2450000Y5454998D02*
X3503000Y6507998D01*
X3309000Y4920000D02*
X3503000Y5114000D01*
X2360000Y4920000D02*
X3309000D01*
X1640000Y4670000D02*
Y4720000D01*
X1616949Y4795014D02*
X1704987D01*
X1640000Y4670000D02*
X2030000Y4280000D01*
X2260000Y4820000D02*
X2360000Y4920000D01*
X2450000Y5240000D02*
Y5454998D01*
X2270000Y4730000D02*
X2400001Y4860000D01*
X3270000Y2250000D02*
Y2700000D01*
X1110000Y6380000D02*
X1240000Y6510000D01*
X1170000Y6090000D02*
X1240000Y6160000D01*
X1510000Y1910000D02*
Y2350000D01*
X1570000Y2410000D01*
X1570529Y1929471D02*
Y2310000D01*
X1720000Y4690000D02*
X2100000Y4310000D01*
X2150000Y4690000D02*
X2440000Y4400000D01*
X2160000Y2180000D02*
X2440000Y1900000D01*
X2370000Y2390000D02*
Y4390000D01*
Y2390000D02*
X2440000Y2320000D01*
X2160000Y2180000D02*
Y3160000D01*
X2510000Y1490000D02*
X3270000Y2250000D01*
X2510000Y718000D02*
Y1490000D01*
X2219000Y426999D02*
X2510000Y718000D01*
X2350000Y304000D02*
Y490000D01*
X2219000Y172999D02*
X2350000Y304000D01*
X3610000Y1790000D02*
X3690000Y1870000D01*
X2160001Y50000D02*
X2540000D01*
X1965000Y426999D02*
X2090000Y301999D01*
Y120001D02*
X2160001Y50000D01*
X2090000Y120001D02*
Y301999D01*
X1457000Y1528000D02*
X1574500Y1645500D01*
X1457000Y426999D02*
Y1528000D01*
X1510000Y1910000D02*
X1970000Y1450000D01*
Y1130000D02*
Y1450000D01*
Y1130000D02*
X2040000Y1060000D01*
Y1320000D02*
Y1460000D01*
X1570529Y1929471D02*
X2040000Y1460000D01*
X1840000Y530000D02*
X2110000Y800000D01*
Y1500000D01*
X1840000Y301999D02*
Y530000D01*
X1711000Y172999D02*
X1840000Y301999D01*
D11*
X3503000Y5114000D02*
D03*
Y4860000D02*
D03*
Y4606000D02*
D03*
X3757000D02*
D03*
Y4860000D02*
D03*
Y5114000D02*
D03*
X426999Y5491998D02*
D03*
Y5745998D02*
D03*
X2473000Y172999D02*
D03*
X2219000D02*
D03*
X1965000D02*
D03*
X1711000D02*
D03*
X1457000D02*
D03*
Y426999D02*
D03*
X1711000D02*
D03*
X1965000D02*
D03*
X2219000D02*
D03*
X2473000D02*
D03*
X426999Y6507998D02*
D03*
Y6253998D02*
D03*
Y5999998D02*
D03*
X172999Y5491998D02*
D03*
Y5745998D02*
D03*
Y5999998D02*
D03*
Y6253998D02*
D03*
Y6507998D02*
D03*
X3757000D02*
D03*
Y6253998D02*
D03*
Y5999998D02*
D03*
Y5745998D02*
D03*
Y5491998D02*
D03*
X3503000D02*
D03*
Y5745998D02*
D03*
Y5999998D02*
D03*
Y6253998D02*
D03*
Y6507998D02*
D03*
D12*
X3673998Y1460002D02*
D03*
X3419998D02*
D03*
X3673998Y930001D02*
D03*
X3419998D02*
D03*
X256002Y1460002D02*
D03*
X510002D02*
D03*
X256002Y930001D02*
D03*
X510002D02*
D03*
D13*
X3165998Y1460002D02*
D03*
Y930001D02*
D03*
X764002Y1460002D02*
D03*
Y930001D02*
D03*
D14*
X3296001Y8859002D02*
D03*
X3550001D02*
D03*
X3296001Y9113002D02*
D03*
X3550001D02*
D03*
Y9367002D02*
D03*
X3296001Y9621002D02*
D03*
X3550001D02*
D03*
X3296001Y9875002D02*
D03*
X3550001D02*
D03*
X3296001Y9367002D02*
D03*
D15*
X2090000Y6780000D02*
D03*
Y6870000D02*
D03*
X2340000Y8400000D02*
D03*
X1520000Y9650000D02*
D03*
X1700000D02*
D03*
X1920000Y9810000D02*
D03*
X3720000Y4040000D02*
D03*
X3630000Y4110000D02*
D03*
Y3970000D02*
D03*
X3370000Y3870000D02*
D03*
X240000Y7840000D02*
D03*
X2810000Y10110000D02*
D03*
Y10390000D02*
D03*
X2650000Y10110000D02*
D03*
Y10390000D02*
D03*
X1260000Y10290000D02*
D03*
Y10410000D02*
D03*
X1540000D02*
D03*
Y10290000D02*
D03*
X1390000Y9610000D02*
D03*
X2420000Y9550000D02*
D03*
X2320000Y9120000D02*
D03*
X2800000Y8660000D02*
D03*
X2650000D02*
D03*
X2800000Y8390000D02*
D03*
X2650000D02*
D03*
X90000Y7980000D02*
D03*
X1400000Y8220000D02*
D03*
X1280000Y8150000D02*
D03*
X2300000Y6430000D02*
D03*
X1630000Y6800000D02*
D03*
X2120000Y6390000D02*
D03*
X1050000Y5500000D02*
D03*
Y5260000D02*
D03*
X670000D02*
D03*
X1300000Y5370000D02*
D03*
X1470000D02*
D03*
X2510000Y4790000D02*
D03*
X2680000Y5260000D02*
D03*
X2510000Y4070000D02*
D03*
X2610000Y4370000D02*
D03*
X1924544Y4117251D02*
D03*
X1840000Y4770000D02*
D03*
X1280000Y4580000D02*
D03*
X1170000Y4460000D02*
D03*
X1910000Y3960000D02*
D03*
X980001Y2011561D02*
D03*
X2870000Y1190000D02*
D03*
X1374544Y1537250D02*
D03*
X1370000Y840000D02*
D03*
X1264544Y1197251D02*
D03*
X970000Y920000D02*
D03*
X980000Y1470000D02*
D03*
X3010000D02*
D03*
X2950000Y920000D02*
D03*
X2780000Y1190000D02*
D03*
X1290000Y2290000D02*
D03*
X1860000Y2080000D02*
D03*
Y2150000D02*
D03*
X2050000Y2720000D02*
D03*
Y2550000D02*
D03*
X1410000D02*
D03*
X980000Y1900000D02*
D03*
X670000Y2150000D02*
D03*
Y2300000D02*
D03*
X490000Y2510000D02*
D03*
X1140000Y8020000D02*
D03*
Y7940000D02*
D03*
X2860000Y2470000D02*
D03*
X2440000Y2040000D02*
D03*
X2040000Y1570000D02*
D03*
X2095968Y3465968D02*
D03*
X2090000Y5860000D02*
D03*
X2160000Y3580000D02*
D03*
X2190000Y5860000D02*
D03*
X2150000Y4950000D02*
D03*
X2040000Y2900000D02*
D03*
X2030000Y5110000D02*
D03*
Y3620000D02*
D03*
X1820000Y6400000D02*
D03*
X1910000Y4850000D02*
D03*
X2300000Y6780000D02*
D03*
X1340000Y6730000D02*
D03*
X2820200Y1970000D02*
D03*
X1630000Y5290000D02*
D03*
X1550000Y5320000D02*
D03*
X2440000Y2460000D02*
D03*
X1390000Y5130000D02*
D03*
X1310000D02*
D03*
X1110000Y5050000D02*
D03*
X1284546Y2541961D02*
D03*
X3120000Y1970000D02*
D03*
X2330000Y9790000D02*
D03*
X1400002Y8950000D02*
D03*
X2440000Y1900000D02*
D03*
X2990000Y1870000D02*
D03*
X3350000D02*
D03*
X3690000D02*
D03*
X1970000Y5200000D02*
D03*
X1420000Y4860000D02*
D03*
X1616949Y4795014D02*
D03*
X1640000Y4720000D02*
D03*
X1720000Y4690000D02*
D03*
X1477729Y5192271D02*
D03*
X2370000Y5240000D02*
D03*
X2260000Y4820000D02*
D03*
X2270000Y4730000D02*
D03*
X2450000Y5240000D02*
D03*
X3121913Y4978087D02*
D03*
X2622270Y5022271D02*
D03*
X3220000Y3260000D02*
D03*
X1060000Y4330000D02*
D03*
X2530000Y4170000D02*
D03*
X3258087Y4308087D02*
D03*
X1570529Y2310000D02*
D03*
X1570000Y2410000D02*
D03*
X1240000Y5800000D02*
D03*
Y6160000D02*
D03*
Y6510000D02*
D03*
X1340000Y6380000D02*
D03*
Y6030000D02*
D03*
X720000Y6210000D02*
D03*
X2440000Y2180000D02*
D03*
Y2320000D02*
D03*
X3560000Y2470000D02*
D03*
X3690000Y2670000D02*
D03*
X3560000D02*
D03*
X3210000D02*
D03*
X1510000Y6540000D02*
D03*
X720000Y6560000D02*
D03*
X810000Y6830000D02*
D03*
X3570000Y3260000D02*
D03*
X3460000Y1970000D02*
D03*
X3340000Y2670000D02*
D03*
X3210000Y2470000D02*
D03*
X290000Y8150000D02*
D03*
X2040000Y1320000D02*
D03*
X1574500Y1645500D02*
D03*
X2040000Y1060000D02*
D03*
X2344066Y1191572D02*
D03*
X1580929Y1188429D02*
D03*
X490000Y7830000D02*
D03*
X175001Y9074998D02*
D03*
X275001D02*
D03*
X375001D02*
D03*
X475000D02*
D03*
Y9174998D02*
D03*
X375001D02*
D03*
X275001D02*
D03*
X175001D02*
D03*
Y9475003D02*
D03*
X475000D02*
D03*
X375001D02*
D03*
X175001Y9675002D02*
D03*
X475000D02*
D03*
X275001Y9575002D02*
D03*
X175001D02*
D03*
X275001Y9475003D02*
D03*
X475000Y9575002D02*
D03*
X375001Y9675002D02*
D03*
X275001D02*
D03*
X375001Y9575002D02*
D03*
X475000Y9374998D02*
D03*
X275001Y9274998D02*
D03*
Y9374998D02*
D03*
X175001D02*
D03*
Y9274998D02*
D03*
X375001D02*
D03*
Y9374998D02*
D03*
X475000Y9274998D02*
D03*
%TF.MD5,1f9319c48d346427be0f2e07f533c872*%
M02*
