%TF.GenerationSoftware,Altium Limited,Altium Designer,24.6.1 (21)*%
G04 Layer_Color=255*
%FSLAX45Y45*%
%MOMM*%
%TF.SameCoordinates,FEC14C44-D625-4E92-8207-BAE4E8E866B2*%
%TF.FilePolarity,Positive*%
%TF.FileFunction,Pads,Top*%
%TF.Part,Single*%
G01*
G75*
%TA.AperFunction,ComponentPad*%
%ADD11C,1.75000*%
%ADD12C,1.21000*%
%ADD13R,1.21000X1.21000*%
%ADD14C,1.83500*%
D11*
X3503000Y5114000D02*
D03*
Y4860000D02*
D03*
Y4606000D02*
D03*
X3757000D02*
D03*
Y4860000D02*
D03*
Y5114000D02*
D03*
X426999Y5491998D02*
D03*
Y5745998D02*
D03*
X2473000Y172999D02*
D03*
X2219000D02*
D03*
X1965000D02*
D03*
X1711000D02*
D03*
X1457000D02*
D03*
Y426999D02*
D03*
X1711000D02*
D03*
X1965000D02*
D03*
X2219000D02*
D03*
X2473000D02*
D03*
X426999Y6507998D02*
D03*
Y6253998D02*
D03*
Y5999998D02*
D03*
X172999Y5491998D02*
D03*
Y5745998D02*
D03*
Y5999998D02*
D03*
Y6253998D02*
D03*
Y6507998D02*
D03*
X3757000D02*
D03*
Y6253998D02*
D03*
Y5999998D02*
D03*
Y5745998D02*
D03*
Y5491998D02*
D03*
X3503000D02*
D03*
Y5745998D02*
D03*
Y5999998D02*
D03*
Y6253998D02*
D03*
Y6507998D02*
D03*
D12*
X3673998Y1460002D02*
D03*
X3419998D02*
D03*
X3673998Y930001D02*
D03*
X3419998D02*
D03*
X256002Y1460002D02*
D03*
X510002D02*
D03*
X256002Y930001D02*
D03*
X510002D02*
D03*
D13*
X3165998Y1460002D02*
D03*
Y930001D02*
D03*
X764002Y1460002D02*
D03*
Y930001D02*
D03*
D14*
X3296001Y8859002D02*
D03*
X3550001D02*
D03*
X3296001Y9113002D02*
D03*
X3550001D02*
D03*
Y9367002D02*
D03*
X3296001Y9621002D02*
D03*
X3550001D02*
D03*
X3296001Y9875002D02*
D03*
X3550001D02*
D03*
X3296001Y9367002D02*
D03*
%TF.MD5,5cd81c4b5dfe9922db21e31162887435*%
M02*
