%TF.GenerationSoftware,Altium Limited,Altium Designer,24.6.1 (21)*%
G04 Layer_Color=32896*
%FSLAX45Y45*%
%MOMM*%
%TF.SameCoordinates,FEC14C44-D625-4E92-8207-BAE4E8E866B2*%
%TF.FilePolarity,Positive*%
%TF.FileFunction,Legend,Bot*%
%TF.Part,Single*%
G01*
G75*
%TA.AperFunction,NonConductor*%
%ADD56C,0.20000*%
%ADD58C,0.25000*%
%ADD59C,0.60000*%
%ADD60C,0.10000*%
%ADD61C,0.25400*%
%ADD62C,0.12700*%
%ADD63C,0.15000*%
G36*
X1259200Y7281900D02*
X1310000Y7358100D01*
X1360800Y7281900D01*
X1259200D01*
D02*
G37*
G36*
X2875800Y9163100D02*
X2825000Y9086900D01*
X2774200Y9163100D01*
X2875800D01*
D02*
G37*
G36*
Y9688100D02*
X2825000Y9611900D01*
X2774200Y9688100D01*
X2875800D01*
D02*
G37*
D56*
X1470451Y3996413D02*
X1516410Y3950450D01*
X1583588Y4109550D02*
X1629547Y4063586D01*
X1526596Y4800001D02*
X1965000Y4361591D01*
Y5238404D02*
X2403404Y4800001D01*
X1965000Y4361591D02*
X2403404Y4800001D01*
X1526596D02*
X1965000Y5238404D01*
X3319998Y2289998D02*
X3370001D01*
X3199999Y2149998D02*
Y2229998D01*
Y2149998D02*
X3272500D01*
X3490001D02*
Y2229998D01*
X3417499Y2149998D02*
X3490001D01*
X2970002Y2289998D02*
X3019999D01*
X2850002Y2149998D02*
Y2229998D01*
Y2149998D02*
X2922499D01*
X3139999D02*
Y2229998D01*
X3067502Y2149998D02*
X3139999D01*
X3319998Y3079999D02*
X3370001D01*
X3199999Y2939999D02*
Y3019999D01*
Y2939999D02*
X3272500D01*
X3490001D02*
Y3019999D01*
X3417499Y2939999D02*
X3490001D01*
X3670000Y3079999D02*
X3719998D01*
X3550001Y2939999D02*
Y3019999D01*
Y2939999D02*
X3622497D01*
X3839997D02*
Y3019999D01*
X3767501Y2939999D02*
X3839997D01*
X3670000Y2289998D02*
X3719998D01*
X3550001Y2149998D02*
Y2229998D01*
Y2149998D02*
X3622502D01*
X3839997D02*
Y2229998D01*
X3767501Y2149998D02*
X3839997D01*
X1050000Y5965002D02*
Y6014999D01*
X910001Y6134999D02*
X990001D01*
X910001Y6062497D02*
Y6134999D01*
Y5845002D02*
X990001D01*
X910001D02*
Y5917499D01*
X1050000Y6314999D02*
Y6365001D01*
X910001Y6485001D02*
X990001D01*
X910001Y6412499D02*
Y6485001D01*
Y6194999D02*
X990001D01*
X910001D02*
Y6267501D01*
X1050000Y6665001D02*
Y6714998D01*
X910001Y6834998D02*
X990001D01*
X910001Y6762501D02*
Y6834998D01*
Y6545001D02*
X990001D01*
X910001D02*
Y6617498D01*
X3760003Y3945001D02*
Y4134998D01*
X3499998Y3945001D02*
Y4134998D01*
X1056864Y4230609D02*
X1180607Y4106865D01*
X1159393Y4333138D02*
X1283137Y4209395D01*
X3880002Y4460001D02*
Y5260000D01*
X3379998Y4460001D02*
X3880002D01*
X3379998D02*
Y5260000D01*
X3880002D01*
X774998Y5690001D02*
X845000D01*
X774998Y5550001D02*
X805000D01*
X660002Y5575000D02*
Y5665002D01*
X960001Y5575000D02*
Y5665002D01*
X1882094Y757499D02*
X2037903D01*
Y1622501D01*
X1882094D02*
X2037903D01*
X1882094Y757499D02*
Y1622501D01*
X1812499Y2820002D02*
X1987500D01*
X1812499Y2980001D02*
X1987500D01*
X1052500Y2460000D02*
X1227501D01*
X1052500Y2300000D02*
X1227501D01*
X1102502Y9047500D02*
Y9702500D01*
X747502Y9047500D02*
X1102502D01*
X747502D02*
Y9702500D01*
X1102502D01*
X1052502Y2619999D02*
X1227502D01*
X1052502Y2459999D02*
X1227502D01*
X1510000Y10404998D02*
X1620002D01*
Y10035002D02*
Y10404998D01*
X1545001Y9960000D02*
X1620002Y10035002D01*
X1510000Y9960000D02*
X1545001D01*
X1178839Y10403032D02*
X1288837D01*
X1178839Y10033036D02*
Y10403032D01*
Y10033036D02*
X1253835Y9958034D01*
X1288837D01*
X1179998Y8345002D02*
X1290000D01*
X1179998D02*
Y8714999D01*
X1254999Y8790000D01*
X1290000D01*
X1511163Y8346968D02*
X1621160D01*
Y8716965D01*
X1546164Y8791966D02*
X1621160Y8716965D01*
X1511163Y8791966D02*
X1546164D01*
X2145000Y8195000D02*
Y8415000D01*
Y8195000D02*
X2695001D01*
X2804998Y8305002D01*
Y8415000D01*
X2145000Y8634999D02*
Y8854999D01*
X2695001D01*
X2804998Y8745002D01*
Y8634999D02*
Y8745002D01*
Y10360000D02*
Y10579999D01*
X2255002D02*
X2804998D01*
X2145000Y10470002D02*
X2255002Y10579999D01*
X2145000Y10360000D02*
Y10470002D01*
X2804998Y9920000D02*
Y10140000D01*
X2255002Y9920000D02*
X2804998D01*
X2145000Y10030003D02*
X2255002Y9920000D01*
X2145000Y10030003D02*
Y10140000D01*
X2384999Y7952501D02*
Y8002499D01*
X1785000D02*
X2384999D01*
X1785000Y7952501D02*
Y8002499D01*
Y7002501D02*
Y7052498D01*
Y7002501D02*
X2384999D01*
Y7052498D01*
D58*
X1919164Y4250224D02*
G03*
X1919164Y4250224I-12500J0D01*
G01*
X1567499Y809000D02*
G03*
X1567499Y809000I-12500J0D01*
G01*
X1392500Y9605000D02*
G03*
X1392500Y9605000I-12500J0D01*
G01*
D59*
X1995000Y4503015D02*
G03*
X1995000Y4503015I-30000J0D01*
G01*
D60*
X970000Y5520000D02*
G03*
X970000Y5520000I-5000J0D01*
G01*
D61*
X1127000Y7563500D02*
G03*
X1127000Y7436500I0J-63500D01*
G01*
X110998Y7183252D02*
X1126998D01*
X110998D02*
Y7816748D01*
X1126998D01*
Y7563500D02*
Y7816748D01*
Y7183252D02*
Y7436500D01*
X2943499Y1210000D02*
Y1709999D01*
X3896502D01*
Y1210000D02*
Y1709999D01*
X2943499Y1210000D02*
X3896502D01*
X2943499Y679999D02*
Y1180003D01*
X3896502D01*
Y679999D02*
Y1180003D01*
X2943499Y679999D02*
X3896502D01*
X986500Y1210000D02*
Y1709999D01*
X33503Y1210000D02*
X986500D01*
X33503D02*
Y1709999D01*
X986500D01*
Y679999D02*
Y1180003D01*
X33498Y679999D02*
X986500D01*
X33498D02*
Y1180003D01*
X986500D01*
X2975498Y10383002D02*
X3870498D01*
Y8351002D02*
Y10383002D01*
X2975498Y8351002D02*
Y10383002D01*
Y8351002D02*
X3870498D01*
X3102498Y9147002D02*
Y9587001D01*
X2975498D02*
X3102498D01*
X2975498Y9147002D02*
X3102498D01*
D62*
X1757063Y1932500D02*
G03*
X1656938Y1932500I-50062J0D01*
G01*
X1530502Y2432502D02*
X1883501D01*
X1530502Y1932498D02*
X1883501D01*
X1259200Y7281901D02*
X1310000D01*
X1360800D01*
X1310000Y7358101D02*
X1360800Y7281901D01*
X1259200D02*
X1310000Y7358101D01*
X2824998Y9163101D02*
X2875798D01*
X2774198D02*
X2824998D01*
X2774198D02*
X2824998Y9086901D01*
X2875798Y9163101D01*
X2824998Y9688098D02*
X2875798D01*
X2774198D02*
X2824998D01*
X2774198D02*
X2824998Y9611898D01*
X2875798Y9688098D01*
D63*
X290000Y4708125D02*
Y4751875D01*
Y4708125D02*
X311875Y4730000D01*
X290000Y4751875D02*
X311875Y4730000D01*
X3184997Y2040001D02*
X3385002D01*
X3184997Y1900001D02*
X3385002D01*
X3275000Y2540000D02*
X3474999D01*
X3275000Y2400000D02*
X3474999D01*
X2824998Y2040001D02*
X3024998D01*
X2824998Y1900001D02*
X3024998D01*
X2924998Y2540000D02*
X3124998D01*
X2924998Y2400000D02*
X3124998D01*
X3175000Y2830002D02*
X3375000D01*
X3175000Y2690002D02*
X3375000D01*
X3275000Y3330001D02*
X3474999D01*
X3275000Y3190001D02*
X3474999D01*
X200000Y4970003D02*
X399999D01*
X200000Y4829998D02*
X399999D01*
X3090001Y4109999D02*
X3290001D01*
X3090001Y3970000D02*
X3290001D01*
X3090001Y4769998D02*
X3290001D01*
X3090001Y4629998D02*
X3290001D01*
X3525002Y2830002D02*
X3725001D01*
X3525002Y2690002D02*
X3725001D01*
X3625002Y3330001D02*
X3825001D01*
X3625002Y3190001D02*
X3825001D01*
X3090001Y4129999D02*
X3290001D01*
X3090001Y4269999D02*
X3290001D01*
X3090001Y4929998D02*
X3290001D01*
X3090001Y4789998D02*
X3290001D01*
X3525002Y2040001D02*
X3725001D01*
X3525002Y1900001D02*
X3725001D01*
X3625002Y2540000D02*
X3825001D01*
X3625002Y2400000D02*
X3825001D01*
X920001Y5450001D02*
X1120000D01*
X920001Y5310002D02*
X1120000D01*
X790001Y5959998D02*
Y6159998D01*
X650001Y5959998D02*
Y6159998D01*
X1310000Y5859998D02*
Y6059998D01*
X1170000Y5859998D02*
Y6059998D01*
X790001Y6310000D02*
Y6510000D01*
X650001Y6310000D02*
Y6510000D01*
X1310000Y6210000D02*
Y6410000D01*
X1170000Y6210000D02*
Y6410000D01*
X790001Y6660002D02*
Y6860002D01*
X650001Y6660002D02*
Y6860002D01*
X1310000Y6560002D02*
Y6760002D01*
X1170000Y6560002D02*
Y6760002D01*
X147599Y4780798D02*
Y4800001D01*
X439999D01*
X439699Y4755398D02*
Y4800001D01*
Y4660001D02*
Y4704598D01*
X147599Y4660001D02*
X450002D01*
X147599D02*
Y4679198D01*
X439699Y4800001D02*
X452399D01*
Y4755398D02*
Y4800001D01*
X439699Y4755398D02*
X452399D01*
X439699Y4660001D02*
X452399D01*
Y4704598D01*
X439699D02*
X452399D01*
X3090001Y3945001D02*
X3290001D01*
X3090001Y3794999D02*
X3290001D01*
X1476258Y4287677D02*
X1617680Y4146255D01*
X1582323Y4393743D02*
X1723746Y4252321D01*
X1772321Y4203745D02*
X1913742Y4062324D01*
X1666255Y4097675D02*
X1807677Y3956258D01*
X639999Y5304998D02*
X839998D01*
X639999Y5455000D02*
X839998D01*
X2342322Y4343745D02*
X2483744Y4202323D01*
X2236257Y4237680D02*
X2377679Y4096258D01*
X1306258Y5257676D02*
X1447676Y5116258D01*
X1412324Y5363746D02*
X1553746Y5222324D01*
X2546259Y5052324D02*
X2687676Y5193746D01*
X2652324Y4946259D02*
X2793746Y5087676D01*
X1286256Y4477680D02*
X1427678Y4336258D01*
X1392321Y4583745D02*
X1533743Y4442323D01*
X1166256Y4357680D02*
X1307679Y4216258D01*
X1272322Y4463745D02*
X1413744Y4322323D01*
X2462322Y4463745D02*
X2603744Y4322323D01*
X2356256Y4357680D02*
X2497679Y4216258D01*
X1039998Y2125000D02*
X1240003D01*
X1039998Y1975002D02*
X1240003D01*
X1039998D02*
X1240003D01*
X1039998Y1825000D02*
X1240003D01*
X1800002Y2644997D02*
X2000002D01*
X1800002Y2794999D02*
X2000002D01*
X1039998Y2275002D02*
X1240003D01*
X1039998Y2125000D02*
X1240003D01*
X1800002Y2475000D02*
X2000002D01*
X1800002Y2625002D02*
X2000002D01*
X1339997Y1334999D02*
X1540002D01*
X1339997Y1185001D02*
X1540002D01*
X1340002Y1485001D02*
X1540002D01*
X1340002Y1334999D02*
X1540002D01*
X1039998Y675000D02*
X1240003D01*
X1039998Y825002D02*
X1240003D01*
X1039998Y1565001D02*
X1240003D01*
X1039998Y1714998D02*
X1240003D01*
X1039998Y990001D02*
X1240003D01*
X1039998Y850001D02*
X1240003D01*
X1039998Y1540002D02*
X1240003D01*
X1039998Y1400002D02*
X1240003D01*
X1039998Y1260003D02*
X1240003D01*
X1039998Y1400002D02*
X1240003D01*
X1340002Y1185001D02*
X1540002D01*
X1340002Y1034999D02*
X1540002D01*
X1340002D02*
X1540002D01*
X1340002Y885002D02*
X1540002D01*
X1039998Y990001D02*
X1240003D01*
X1039998Y1130000D02*
X1240003D01*
X1469998Y2625001D02*
X1669997D01*
X1469998Y2474999D02*
X1669997D01*
X2690002Y825002D02*
X2890002D01*
X2690002Y675000D02*
X2890002D01*
X2380000Y1334999D02*
X2580000D01*
X2380000Y1485001D02*
X2580000D01*
X2690002Y850001D02*
X2890002D01*
X2690002Y990001D02*
X2890002D01*
X2380000Y1185001D02*
X2580000D01*
X2380000Y1034999D02*
X2580000D01*
X2380000Y1334999D02*
X2580000D01*
X2380000Y1185001D02*
X2580000D01*
X2380000Y885002D02*
X2580000D01*
X2380000Y1034999D02*
X2580000D01*
X2690002Y1400003D02*
X2890002D01*
X2690002Y1540002D02*
X2890002D01*
X2690002Y1400002D02*
X2890002D01*
X2690002Y1260002D02*
X2890002D01*
X2690002Y1130000D02*
X2890002D01*
X2690002Y990001D02*
X2890002D01*
X2690002Y1714998D02*
X2890002D01*
X2690002Y1565001D02*
X2890002D01*
X2169998Y1969999D02*
X2370003D01*
X2169998Y2109998D02*
X2370003D01*
X2169998Y1829999D02*
X2369998D01*
X2169998Y1969999D02*
X2369998D01*
X2169998Y2249998D02*
X2369998D01*
X2169998Y2389998D02*
X2369998D01*
X2169998Y2109998D02*
X2369998D01*
X2169998Y2249998D02*
X2369998D01*
X2169998Y2389998D02*
X2369998D01*
X2169998Y2530003D02*
X2369998D01*
X350002Y8079999D02*
X550001D01*
X350002Y8219999D02*
X550001D01*
X2224999Y6510000D02*
Y6709999D01*
X2375002Y6510000D02*
Y6709999D01*
X1705000Y6510000D02*
Y6709999D01*
X1554998Y6510000D02*
Y6709999D01*
X1010001Y8075000D02*
X1210000D01*
X1010001Y8225003D02*
X1210000D01*
X730001Y8219999D02*
X930001D01*
X730001Y8079999D02*
X930001D01*
X1380002Y7540000D02*
Y7740000D01*
X1239998Y7540000D02*
Y7740000D01*
X1398900Y7172401D02*
Y7472401D01*
X1221100Y7172401D02*
Y7472401D01*
X2529997Y8950000D02*
Y9149999D01*
X2670002Y8950000D02*
Y9149999D01*
Y9625000D02*
Y9824999D01*
X2529997Y9625000D02*
Y9824999D01*
X2723398Y8974999D02*
Y9274998D01*
X2926598Y8974999D02*
Y9274998D01*
X2723398Y9500001D02*
Y9800001D01*
X2926598Y9500001D02*
Y9800001D01*
X729999Y2225002D02*
X929999D01*
X729999Y2374999D02*
X929999D01*
X729999Y2074998D02*
X929999D01*
X729999Y2225000D02*
X929999D01*
X749998Y2397500D02*
Y2622498D01*
X512498Y2397500D02*
Y2422498D01*
Y2397500D02*
X987499D01*
Y2422498D01*
Y2597499D02*
Y2622498D01*
X512498D02*
X987499D01*
X512498Y2597499D02*
Y2622498D01*
X1444998Y9349998D02*
Y9549998D01*
X1595000Y9349998D02*
Y9549998D01*
X1625002Y9349998D02*
Y9549998D01*
X1774999Y9349998D02*
Y9549998D01*
X1807500Y9539998D02*
X2032498D01*
X1807500Y9777498D02*
X1832498D01*
X1807500Y9302498D02*
Y9777498D01*
Y9302498D02*
X1832498D01*
X2007499D02*
X2032498D01*
Y9777498D01*
X2007499D02*
X2032498D01*
X2500000Y8950000D02*
Y9149999D01*
X2349998Y8950000D02*
Y9149999D01*
X2500000Y9625000D02*
Y9824999D01*
X2349998Y9625000D02*
Y9824999D01*
%TF.MD5,7d8c0b3e990eeda357ff95fb77024501*%
M02*
