%TF.GenerationSoftware,Altium Limited,Altium Designer,24.6.1 (21)*%
G04 Layer_Color=2752767*
%FSLAX45Y45*%
%MOMM*%
%TF.SameCoordinates,FEC14C44-D625-4E92-8207-BAE4E8E866B2*%
%TF.FilePolarity,Positive*%
%TF.FileFunction,Drawing*%
%TF.Part,Single*%
G01*
G75*
%TA.AperFunction,NonConductor*%
%ADD62C,0.12700*%
%ADD101C,0.16933*%
D62*
X3503000Y5063200D02*
X3528400Y5088600D01*
X3553800D01*
X3528400Y5114000D01*
X3553800Y5139400D01*
X3528400D01*
X3503000Y5164800D01*
X3477600Y5139400D01*
X3452200D01*
X3477600Y5114000D01*
X3452200Y5088600D01*
X3477600D01*
X3503000Y5063200D01*
Y4809200D02*
X3528400Y4834600D01*
X3553800D01*
X3528400Y4860000D01*
X3553800Y4885400D01*
X3528400D01*
X3503000Y4910800D01*
X3477600Y4885400D01*
X3452200D01*
X3477600Y4860000D01*
X3452200Y4834600D01*
X3477600D01*
X3503000Y4809200D01*
Y4555200D02*
X3528400Y4580600D01*
X3553800D01*
X3528400Y4606000D01*
X3553800Y4631400D01*
X3528400D01*
X3503000Y4656800D01*
X3477600Y4631400D01*
X3452200D01*
X3477600Y4606000D01*
X3452200Y4580600D01*
X3477600D01*
X3503000Y4555200D01*
X3757000D02*
X3782400Y4580600D01*
X3807800D01*
X3782400Y4606000D01*
X3807800Y4631400D01*
X3782400D01*
X3757000Y4656800D01*
X3731600Y4631400D01*
X3706200D01*
X3731600Y4606000D01*
X3706200Y4580600D01*
X3731600D01*
X3757000Y4555200D01*
Y4809200D02*
X3782400Y4834600D01*
X3807800D01*
X3782400Y4860000D01*
X3807800Y4885400D01*
X3782400D01*
X3757000Y4910800D01*
X3731600Y4885400D01*
X3706200D01*
X3731600Y4860000D01*
X3706200Y4834600D01*
X3731600D01*
X3757000Y4809200D01*
Y5063200D02*
X3782400Y5088600D01*
X3807800D01*
X3782400Y5114000D01*
X3807800Y5139400D01*
X3782400D01*
X3757000Y5164800D01*
X3731600Y5139400D01*
X3706200D01*
X3731600Y5114000D01*
X3706200Y5088600D01*
X3731600D01*
X3757000Y5063200D01*
X426999Y5441198D02*
X452399Y5466598D01*
X477799D01*
X452399Y5491998D01*
X477799Y5517398D01*
X452399D01*
X426999Y5542798D01*
X401599Y5517398D01*
X376199D01*
X401599Y5491998D01*
X376199Y5466598D01*
X401599D01*
X426999Y5441198D01*
Y5695198D02*
X452399Y5720598D01*
X477799D01*
X452399Y5745998D01*
X477799Y5771398D01*
X452399D01*
X426999Y5796798D01*
X401599Y5771398D01*
X376199D01*
X401599Y5745998D01*
X376199Y5720598D01*
X401599D01*
X426999Y5695198D01*
X3245201Y8808202D02*
Y8909802D01*
X3346801D01*
Y8808202D01*
X3245201D01*
X3499201D02*
Y8909802D01*
X3600801D01*
Y8808202D01*
X3499201D01*
X3245201Y9062202D02*
Y9163802D01*
X3346801D01*
Y9062202D01*
X3245201D01*
X3499201D02*
Y9163802D01*
X3600801D01*
Y9062202D01*
X3499201D01*
Y9316202D02*
Y9417802D01*
X3600801D01*
Y9316202D01*
X3499201D01*
X3245201Y9570202D02*
Y9671802D01*
X3346801D01*
Y9570202D01*
X3245201D01*
X3499201D02*
Y9671802D01*
X3600801D01*
Y9570202D01*
X3499201D01*
X3245201Y9824202D02*
Y9925802D01*
X3346801D01*
Y9824202D01*
X3245201D01*
X3499201D02*
Y9925802D01*
X3600801D01*
Y9824202D01*
X3499201D01*
X3245201Y9316202D02*
Y9417802D01*
X3346801D01*
Y9316202D01*
X3245201D01*
X2473000Y122199D02*
X2498400Y147599D01*
X2523800D01*
X2498400Y172999D01*
X2523800Y198399D01*
X2498400D01*
X2473000Y223799D01*
X2447600Y198399D01*
X2422200D01*
X2447600Y172999D01*
X2422200Y147599D01*
X2447600D01*
X2473000Y122199D01*
X2219000D02*
X2244400Y147599D01*
X2269800D01*
X2244400Y172999D01*
X2269800Y198399D01*
X2244400D01*
X2219000Y223799D01*
X2193600Y198399D01*
X2168200D01*
X2193600Y172999D01*
X2168200Y147599D01*
X2193600D01*
X2219000Y122199D01*
X1965000D02*
X1990400Y147599D01*
X2015800D01*
X1990400Y172999D01*
X2015800Y198399D01*
X1990400D01*
X1965000Y223799D01*
X1939600Y198399D01*
X1914200D01*
X1939600Y172999D01*
X1914200Y147599D01*
X1939600D01*
X1965000Y122199D01*
X1711000D02*
X1736400Y147599D01*
X1761800D01*
X1736400Y172999D01*
X1761800Y198399D01*
X1736400D01*
X1711000Y223799D01*
X1685600Y198399D01*
X1660200D01*
X1685600Y172999D01*
X1660200Y147599D01*
X1685600D01*
X1711000Y122199D01*
X1457000D02*
X1482400Y147599D01*
X1507800D01*
X1482400Y172999D01*
X1507800Y198399D01*
X1482400D01*
X1457000Y223799D01*
X1431600Y198399D01*
X1406200D01*
X1431600Y172999D01*
X1406200Y147599D01*
X1431600D01*
X1457000Y122199D01*
Y376199D02*
X1482400Y401599D01*
X1507800D01*
X1482400Y426999D01*
X1507800Y452399D01*
X1482400D01*
X1457000Y477799D01*
X1431600Y452399D01*
X1406200D01*
X1431600Y426999D01*
X1406200Y401599D01*
X1431600D01*
X1457000Y376199D01*
X1711000D02*
X1736400Y401599D01*
X1761800D01*
X1736400Y426999D01*
X1761800Y452399D01*
X1736400D01*
X1711000Y477799D01*
X1685600Y452399D01*
X1660200D01*
X1685600Y426999D01*
X1660200Y401599D01*
X1685600D01*
X1711000Y376199D01*
X1965000D02*
X1990400Y401599D01*
X2015800D01*
X1990400Y426999D01*
X2015800Y452399D01*
X1990400D01*
X1965000Y477799D01*
X1939600Y452399D01*
X1914200D01*
X1939600Y426999D01*
X1914200Y401599D01*
X1939600D01*
X1965000Y376199D01*
X2219000D02*
X2244400Y401599D01*
X2269800D01*
X2244400Y426999D01*
X2269800Y452399D01*
X2244400D01*
X2219000Y477799D01*
X2193600Y452399D01*
X2168200D01*
X2193600Y426999D01*
X2168200Y401599D01*
X2193600D01*
X2219000Y376199D01*
X2473000D02*
X2498400Y401599D01*
X2523800D01*
X2498400Y426999D01*
X2523800Y452399D01*
X2498400D01*
X2473000Y477799D01*
X2447600Y452399D01*
X2422200D01*
X2447600Y426999D01*
X2422200Y401599D01*
X2447600D01*
X2473000Y376199D01*
X426999Y6457198D02*
X452399Y6482598D01*
X477799D01*
X452399Y6507998D01*
X477799Y6533398D01*
X452399D01*
X426999Y6558798D01*
X401599Y6533398D01*
X376199D01*
X401599Y6507998D01*
X376199Y6482598D01*
X401599D01*
X426999Y6457198D01*
Y6203198D02*
X452399Y6228598D01*
X477799D01*
X452399Y6253998D01*
X477799Y6279398D01*
X452399D01*
X426999Y6304798D01*
X401599Y6279398D01*
X376199D01*
X401599Y6253998D01*
X376199Y6228598D01*
X401599D01*
X426999Y6203198D01*
Y5949198D02*
X452399Y5974598D01*
X477799D01*
X452399Y5999998D01*
X477799Y6025398D01*
X452399D01*
X426999Y6050798D01*
X401599Y6025398D01*
X376199D01*
X401599Y5999998D01*
X376199Y5974598D01*
X401599D01*
X426999Y5949198D01*
X172999Y5441198D02*
X198399Y5466598D01*
X223799D01*
X198399Y5491998D01*
X223799Y5517398D01*
X198399D01*
X172999Y5542798D01*
X147599Y5517398D01*
X122199D01*
X147599Y5491998D01*
X122199Y5466598D01*
X147599D01*
X172999Y5441198D01*
Y5695198D02*
X198399Y5720598D01*
X223799D01*
X198399Y5745998D01*
X223799Y5771398D01*
X198399D01*
X172999Y5796798D01*
X147599Y5771398D01*
X122199D01*
X147599Y5745998D01*
X122199Y5720598D01*
X147599D01*
X172999Y5695198D01*
Y5949198D02*
X198399Y5974598D01*
X223799D01*
X198399Y5999998D01*
X223799Y6025398D01*
X198399D01*
X172999Y6050798D01*
X147599Y6025398D01*
X122199D01*
X147599Y5999998D01*
X122199Y5974598D01*
X147599D01*
X172999Y5949198D01*
Y6203198D02*
X198399Y6228598D01*
X223799D01*
X198399Y6253998D01*
X223799Y6279398D01*
X198399D01*
X172999Y6304798D01*
X147599Y6279398D01*
X122199D01*
X147599Y6253998D01*
X122199Y6228598D01*
X147599D01*
X172999Y6203198D01*
Y6457198D02*
X198399Y6482598D01*
X223799D01*
X198399Y6507998D01*
X223799Y6533398D01*
X198399D01*
X172999Y6558798D01*
X147599Y6533398D01*
X122199D01*
X147599Y6507998D01*
X122199Y6482598D01*
X147599D01*
X172999Y6457198D01*
X3757000D02*
X3782400Y6482598D01*
X3807800D01*
X3782400Y6507998D01*
X3807800Y6533398D01*
X3782400D01*
X3757000Y6558798D01*
X3731600Y6533398D01*
X3706200D01*
X3731600Y6507998D01*
X3706200Y6482598D01*
X3731600D01*
X3757000Y6457198D01*
Y6203198D02*
X3782400Y6228598D01*
X3807800D01*
X3782400Y6253998D01*
X3807800Y6279398D01*
X3782400D01*
X3757000Y6304798D01*
X3731600Y6279398D01*
X3706200D01*
X3731600Y6253998D01*
X3706200Y6228598D01*
X3731600D01*
X3757000Y6203198D01*
Y5949198D02*
X3782400Y5974598D01*
X3807800D01*
X3782400Y5999998D01*
X3807800Y6025398D01*
X3782400D01*
X3757000Y6050798D01*
X3731600Y6025398D01*
X3706200D01*
X3731600Y5999998D01*
X3706200Y5974598D01*
X3731600D01*
X3757000Y5949198D01*
Y5695198D02*
X3782400Y5720598D01*
X3807800D01*
X3782400Y5745998D01*
X3807800Y5771398D01*
X3782400D01*
X3757000Y5796798D01*
X3731600Y5771398D01*
X3706200D01*
X3731600Y5745998D01*
X3706200Y5720598D01*
X3731600D01*
X3757000Y5695198D01*
Y5441198D02*
X3782400Y5466598D01*
X3807800D01*
X3782400Y5491998D01*
X3807800Y5517398D01*
X3782400D01*
X3757000Y5542798D01*
X3731600Y5517398D01*
X3706200D01*
X3731600Y5491998D01*
X3706200Y5466598D01*
X3731600D01*
X3757000Y5441198D01*
X3503000D02*
X3528400Y5466598D01*
X3553800D01*
X3528400Y5491998D01*
X3553800Y5517398D01*
X3528400D01*
X3503000Y5542798D01*
X3477600Y5517398D01*
X3452200D01*
X3477600Y5491998D01*
X3452200Y5466598D01*
X3477600D01*
X3503000Y5441198D01*
Y5695198D02*
X3528400Y5720598D01*
X3553800D01*
X3528400Y5745998D01*
X3553800Y5771398D01*
X3528400D01*
X3503000Y5796798D01*
X3477600Y5771398D01*
X3452200D01*
X3477600Y5745998D01*
X3452200Y5720598D01*
X3477600D01*
X3503000Y5695198D01*
Y5949198D02*
X3528400Y5974598D01*
X3553800D01*
X3528400Y5999998D01*
X3553800Y6025398D01*
X3528400D01*
X3503000Y6050798D01*
X3477600Y6025398D01*
X3452200D01*
X3477600Y5999998D01*
X3452200Y5974598D01*
X3477600D01*
X3503000Y5949198D01*
Y6203198D02*
X3528400Y6228598D01*
X3553800D01*
X3528400Y6253998D01*
X3553800Y6279398D01*
X3528400D01*
X3503000Y6304798D01*
X3477600Y6279398D01*
X3452200D01*
X3477600Y6253998D01*
X3452200Y6228598D01*
X3477600D01*
X3503000Y6203198D01*
Y6457198D02*
X3528400Y6482598D01*
X3553800D01*
X3528400Y6507998D01*
X3553800Y6533398D01*
X3528400D01*
X3503000Y6558798D01*
X3477600Y6533398D01*
X3452200D01*
X3477600Y6507998D01*
X3452200Y6482598D01*
X3477600D01*
X3503000Y6457198D01*
X2090000Y6729200D02*
X2039200Y6830800D01*
X2140800D01*
X2090000Y6729200D01*
Y6819200D02*
X2039200Y6920800D01*
X2140800D01*
X2090000Y6819200D01*
X2340000Y8349200D02*
X2289200Y8450800D01*
X2390800D01*
X2340000Y8349200D01*
X1520000Y9599200D02*
X1469200Y9700800D01*
X1570800D01*
X1520000Y9599200D01*
X1700000D02*
X1649200Y9700800D01*
X1750800D01*
X1700000Y9599200D01*
X1920000Y9759200D02*
X1869200Y9860800D01*
X1970800D01*
X1920000Y9759200D01*
X3720000Y3989200D02*
X3669200Y4090800D01*
X3770800D01*
X3720000Y3989200D01*
X3630000Y4059200D02*
X3579200Y4160800D01*
X3680800D01*
X3630000Y4059200D01*
Y3919200D02*
X3579200Y4020800D01*
X3680800D01*
X3630000Y3919200D01*
X3370000Y3819200D02*
X3319200Y3920800D01*
X3420800D01*
X3370000Y3819200D01*
X240000Y7789200D02*
X189200Y7890800D01*
X290800D01*
X240000Y7789200D01*
X2810000Y10059200D02*
X2759200Y10160800D01*
X2860800D01*
X2810000Y10059200D01*
Y10339200D02*
X2759200Y10440800D01*
X2860800D01*
X2810000Y10339200D01*
X2650000Y10059200D02*
X2599200Y10160800D01*
X2700800D01*
X2650000Y10059200D01*
Y10339200D02*
X2599200Y10440800D01*
X2700800D01*
X2650000Y10339200D01*
X1260000Y10239200D02*
X1209200Y10340800D01*
X1310800D01*
X1260000Y10239200D01*
Y10359200D02*
X1209200Y10460800D01*
X1310800D01*
X1260000Y10359200D01*
X1540000D02*
X1489200Y10460800D01*
X1590800D01*
X1540000Y10359200D01*
Y10239200D02*
X1489200Y10340800D01*
X1590800D01*
X1540000Y10239200D01*
X1390000Y9559200D02*
X1339200Y9660800D01*
X1440800D01*
X1390000Y9559200D01*
X2420000Y9499200D02*
X2369200Y9600800D01*
X2470800D01*
X2420000Y9499200D01*
X2320000Y9069200D02*
X2269200Y9170800D01*
X2370800D01*
X2320000Y9069200D01*
X2800000Y8609200D02*
X2749200Y8710800D01*
X2850800D01*
X2800000Y8609200D01*
X2650000D02*
X2599200Y8710800D01*
X2700800D01*
X2650000Y8609200D01*
X2800000Y8339200D02*
X2749200Y8440800D01*
X2850800D01*
X2800000Y8339200D01*
X2650000D02*
X2599200Y8440800D01*
X2700800D01*
X2650000Y8339200D01*
X90000Y7929200D02*
X39200Y8030800D01*
X140800D01*
X90000Y7929200D01*
X1400000Y8169200D02*
X1349200Y8270800D01*
X1450800D01*
X1400000Y8169200D01*
X1280000Y8099200D02*
X1229200Y8200800D01*
X1330800D01*
X1280000Y8099200D01*
X2300000Y6379200D02*
X2249200Y6480800D01*
X2350800D01*
X2300000Y6379200D01*
X1630000Y6749200D02*
X1579200Y6850800D01*
X1680800D01*
X1630000Y6749200D01*
X2120000Y6339200D02*
X2069200Y6440800D01*
X2170800D01*
X2120000Y6339200D01*
X1050000Y5449200D02*
X999200Y5550800D01*
X1100800D01*
X1050000Y5449200D01*
Y5209200D02*
X999200Y5310800D01*
X1100800D01*
X1050000Y5209200D01*
X670000D02*
X619200Y5310800D01*
X720800D01*
X670000Y5209200D01*
X1300000Y5319200D02*
X1249200Y5420800D01*
X1350800D01*
X1300000Y5319200D01*
X1470000D02*
X1419200Y5420800D01*
X1520800D01*
X1470000Y5319200D01*
X2510000Y4739200D02*
X2459200Y4840800D01*
X2560800D01*
X2510000Y4739200D01*
X2680000Y5209200D02*
X2629200Y5310800D01*
X2730800D01*
X2680000Y5209200D01*
X2510000Y4019200D02*
X2459200Y4120800D01*
X2560800D01*
X2510000Y4019200D01*
X2610000Y4319200D02*
X2559200Y4420800D01*
X2660800D01*
X2610000Y4319200D01*
X1924544Y4066451D02*
X1873744Y4168051D01*
X1975344D01*
X1924544Y4066451D01*
X1840000Y4719200D02*
X1789200Y4820800D01*
X1890800D01*
X1840000Y4719200D01*
X1280000Y4529200D02*
X1229200Y4630800D01*
X1330800D01*
X1280000Y4529200D01*
X1170000Y4409200D02*
X1119200Y4510800D01*
X1220800D01*
X1170000Y4409200D01*
X1910000Y3909200D02*
X1859200Y4010800D01*
X1960800D01*
X1910000Y3909200D01*
X980001Y1960761D02*
X929201Y2062361D01*
X1030801D01*
X980001Y1960761D01*
X2870000Y1139200D02*
X2819200Y1240800D01*
X2920800D01*
X2870000Y1139200D01*
X1374544Y1486450D02*
X1323744Y1588050D01*
X1425344D01*
X1374544Y1486450D01*
X1370000Y789200D02*
X1319200Y890800D01*
X1420800D01*
X1370000Y789200D01*
X1264544Y1146451D02*
X1213744Y1248051D01*
X1315344D01*
X1264544Y1146451D01*
X970000Y869200D02*
X919200Y970800D01*
X1020800D01*
X970000Y869200D01*
X980000Y1419200D02*
X929200Y1520800D01*
X1030800D01*
X980000Y1419200D01*
X3010000D02*
X2959200Y1520800D01*
X3060800D01*
X3010000Y1419200D01*
X2950000Y869200D02*
X2899200Y970800D01*
X3000800D01*
X2950000Y869200D01*
X2780000Y1139200D02*
X2729200Y1240800D01*
X2830800D01*
X2780000Y1139200D01*
X1290000Y2239200D02*
X1239200Y2340800D01*
X1340800D01*
X1290000Y2239200D01*
X1860000Y2029200D02*
X1809200Y2130800D01*
X1910800D01*
X1860000Y2029200D01*
Y2099200D02*
X1809200Y2200800D01*
X1910800D01*
X1860000Y2099200D01*
X2050000Y2669200D02*
X1999200Y2770800D01*
X2100800D01*
X2050000Y2669200D01*
Y2499200D02*
X1999200Y2600800D01*
X2100800D01*
X2050000Y2499200D01*
X1410000D02*
X1359200Y2600800D01*
X1460800D01*
X1410000Y2499200D01*
X980000Y1849200D02*
X929200Y1950800D01*
X1030800D01*
X980000Y1849200D01*
X670000Y2099200D02*
X619200Y2200800D01*
X720800D01*
X670000Y2099200D01*
Y2249200D02*
X619200Y2350800D01*
X720800D01*
X670000Y2249200D01*
X490000Y2459200D02*
X439200Y2560800D01*
X540800D01*
X490000Y2459200D01*
X1140000Y7969200D02*
X1089200Y8070800D01*
X1190800D01*
X1140000Y7969200D01*
Y7889200D02*
X1089200Y7990800D01*
X1190800D01*
X1140000Y7889200D01*
X2860000Y2419200D02*
X2809200Y2520800D01*
X2910800D01*
X2860000Y2419200D01*
X2440000Y1989200D02*
X2389200Y2090800D01*
X2490800D01*
X2440000Y1989200D01*
X2040000Y1519200D02*
X1989200Y1620800D01*
X2090800D01*
X2040000Y1519200D01*
X2095968Y3415168D02*
X2045168Y3516768D01*
X2146768D01*
X2095968Y3415168D01*
X2090000Y5809200D02*
X2039200Y5910800D01*
X2140800D01*
X2090000Y5809200D01*
X2160000Y3529200D02*
X2109200Y3630800D01*
X2210800D01*
X2160000Y3529200D01*
X2190000Y5809200D02*
X2139200Y5910800D01*
X2240800D01*
X2190000Y5809200D01*
X2150000Y4899200D02*
X2099200Y5000800D01*
X2200800D01*
X2150000Y4899200D01*
X2040000Y2849200D02*
X1989200Y2950800D01*
X2090800D01*
X2040000Y2849200D01*
X2030000Y5059200D02*
X1979200Y5160800D01*
X2080800D01*
X2030000Y5059200D01*
Y3569200D02*
X1979200Y3670800D01*
X2080800D01*
X2030000Y3569200D01*
X1820000Y6349200D02*
X1769200Y6450800D01*
X1870800D01*
X1820000Y6349200D01*
X1910000Y4799200D02*
X1859200Y4900800D01*
X1960800D01*
X1910000Y4799200D01*
X2300000Y6729200D02*
X2249200Y6830800D01*
X2350800D01*
X2300000Y6729200D01*
X1340000Y6679200D02*
X1289200Y6780800D01*
X1390800D01*
X1340000Y6679200D01*
X2820200Y1919200D02*
X2769400Y2020800D01*
X2871000D01*
X2820200Y1919200D01*
X1630000Y5239200D02*
X1579200Y5340800D01*
X1680800D01*
X1630000Y5239200D01*
X1550000Y5269200D02*
X1499200Y5370800D01*
X1600800D01*
X1550000Y5269200D01*
X2440000Y2409200D02*
X2389200Y2510800D01*
X2490800D01*
X2440000Y2409200D01*
X1390000Y5079200D02*
X1339200Y5180800D01*
X1440800D01*
X1390000Y5079200D01*
X1310000D02*
X1259200Y5180800D01*
X1360800D01*
X1310000Y5079200D01*
X1110000Y4999200D02*
X1059200Y5100800D01*
X1160800D01*
X1110000Y4999200D01*
X1284546Y2491161D02*
X1233746Y2592761D01*
X1335346D01*
X1284546Y2491161D01*
X3120000Y1919200D02*
X3069200Y2020800D01*
X3170800D01*
X3120000Y1919200D01*
X2330000Y9739200D02*
X2279200Y9840800D01*
X2380800D01*
X2330000Y9739200D01*
X1400002Y8899200D02*
X1349202Y9000800D01*
X1450802D01*
X1400002Y8899200D01*
X2440000Y1849200D02*
X2389200Y1950800D01*
X2490800D01*
X2440000Y1849200D01*
X2990000Y1819200D02*
X2939200Y1920800D01*
X3040800D01*
X2990000Y1819200D01*
X3350000D02*
X3299200Y1920800D01*
X3400800D01*
X3350000Y1819200D01*
X3690000D02*
X3639200Y1920800D01*
X3740800D01*
X3690000Y1819200D01*
X1970000Y5149200D02*
X1919200Y5250800D01*
X2020800D01*
X1970000Y5149200D01*
X1420000Y4809200D02*
X1369200Y4910800D01*
X1470800D01*
X1420000Y4809200D01*
X1616949Y4744214D02*
X1566149Y4845814D01*
X1667749D01*
X1616949Y4744214D01*
X1640000Y4669200D02*
X1589200Y4770800D01*
X1690800D01*
X1640000Y4669200D01*
X1720000Y4639200D02*
X1669200Y4740800D01*
X1770800D01*
X1720000Y4639200D01*
X1477729Y5141471D02*
X1426929Y5243071D01*
X1528529D01*
X1477729Y5141471D01*
X2370000Y5189200D02*
X2319200Y5290800D01*
X2420800D01*
X2370000Y5189200D01*
X2260000Y4769200D02*
X2209200Y4870800D01*
X2310800D01*
X2260000Y4769200D01*
X2270000Y4679200D02*
X2219200Y4780800D01*
X2320800D01*
X2270000Y4679200D01*
X2450000Y5189200D02*
X2399200Y5290800D01*
X2500800D01*
X2450000Y5189200D01*
X3121913Y4927287D02*
X3071113Y5028887D01*
X3172713D01*
X3121913Y4927287D01*
X2622270Y4971471D02*
X2571470Y5073071D01*
X2673070D01*
X2622270Y4971471D01*
X3220000Y3209200D02*
X3169200Y3310800D01*
X3270800D01*
X3220000Y3209200D01*
X1060000Y4279200D02*
X1009200Y4380800D01*
X1110800D01*
X1060000Y4279200D01*
X2530000Y4119200D02*
X2479200Y4220800D01*
X2580800D01*
X2530000Y4119200D01*
X3258087Y4257287D02*
X3207287Y4358887D01*
X3308887D01*
X3258087Y4257287D01*
X1570529Y2259200D02*
X1519729Y2360800D01*
X1621329D01*
X1570529Y2259200D01*
X1570000Y2359200D02*
X1519200Y2460800D01*
X1620800D01*
X1570000Y2359200D01*
X1240000Y5749200D02*
X1189200Y5850800D01*
X1290800D01*
X1240000Y5749200D01*
Y6109200D02*
X1189200Y6210800D01*
X1290800D01*
X1240000Y6109200D01*
Y6459200D02*
X1189200Y6560800D01*
X1290800D01*
X1240000Y6459200D01*
X1340000Y6329200D02*
X1289200Y6430800D01*
X1390800D01*
X1340000Y6329200D01*
Y5979200D02*
X1289200Y6080800D01*
X1390800D01*
X1340000Y5979200D01*
X720000Y6159200D02*
X669200Y6260800D01*
X770800D01*
X720000Y6159200D01*
X2440000Y2129200D02*
X2389200Y2230800D01*
X2490800D01*
X2440000Y2129200D01*
Y2269200D02*
X2389200Y2370800D01*
X2490800D01*
X2440000Y2269200D01*
X3560000Y2419200D02*
X3509200Y2520800D01*
X3610800D01*
X3560000Y2419200D01*
X3690000Y2619200D02*
X3639200Y2720800D01*
X3740800D01*
X3690000Y2619200D01*
X3560000D02*
X3509200Y2720800D01*
X3610800D01*
X3560000Y2619200D01*
X3210000D02*
X3159200Y2720800D01*
X3260800D01*
X3210000Y2619200D01*
X1510000Y6489200D02*
X1459200Y6590800D01*
X1560800D01*
X1510000Y6489200D01*
X720000Y6509200D02*
X669200Y6610800D01*
X770800D01*
X720000Y6509200D01*
X810000Y6779200D02*
X759200Y6880800D01*
X860800D01*
X810000Y6779200D01*
X3570000Y3209200D02*
X3519200Y3310800D01*
X3620800D01*
X3570000Y3209200D01*
X3460000Y1919200D02*
X3409200Y2020800D01*
X3510800D01*
X3460000Y1919200D01*
X3340000Y2619200D02*
X3289200Y2720800D01*
X3390800D01*
X3340000Y2619200D01*
X3210000Y2419200D02*
X3159200Y2520800D01*
X3260800D01*
X3210000Y2419200D01*
X290000Y8099200D02*
X239200Y8200800D01*
X340800D01*
X290000Y8099200D01*
X2040000Y1269200D02*
X1989200Y1370800D01*
X2090800D01*
X2040000Y1269200D01*
X1574500Y1594700D02*
X1523700Y1696300D01*
X1625300D01*
X1574500Y1594700D01*
X2040000Y1009200D02*
X1989200Y1110800D01*
X2090800D01*
X2040000Y1009200D01*
X2344066Y1140772D02*
X2293266Y1242372D01*
X2394866D01*
X2344066Y1140772D01*
X1580929Y1137629D02*
X1530129Y1239229D01*
X1631729D01*
X1580929Y1137629D01*
X490000Y7779200D02*
X439200Y7880800D01*
X540800D01*
X490000Y7779200D01*
X175001Y9024198D02*
X124201Y9125798D01*
X225801D01*
X175001Y9024198D01*
X275001D02*
X224201Y9125798D01*
X325801D01*
X275001Y9024198D01*
X375001D02*
X324201Y9125798D01*
X425801D01*
X375001Y9024198D01*
X475000D02*
X424200Y9125798D01*
X525800D01*
X475000Y9024198D01*
Y9124198D02*
X424200Y9225798D01*
X525800D01*
X475000Y9124198D01*
X375001D02*
X324201Y9225798D01*
X425801D01*
X375001Y9124198D01*
X275001D02*
X224201Y9225798D01*
X325801D01*
X275001Y9124198D01*
X175001D02*
X124201Y9225798D01*
X225801D01*
X175001Y9124198D01*
Y9424203D02*
X124201Y9525803D01*
X225801D01*
X175001Y9424203D01*
X475000D02*
X424200Y9525803D01*
X525800D01*
X475000Y9424203D01*
X375001D02*
X324201Y9525803D01*
X425801D01*
X375001Y9424203D01*
X175001Y9624202D02*
X124201Y9725802D01*
X225801D01*
X175001Y9624202D01*
X475000D02*
X424200Y9725802D01*
X525800D01*
X475000Y9624202D01*
X275001Y9524202D02*
X224201Y9625802D01*
X325801D01*
X275001Y9524202D01*
X175001D02*
X124201Y9625802D01*
X225801D01*
X175001Y9524202D01*
X275001Y9424203D02*
X224201Y9525803D01*
X325801D01*
X275001Y9424203D01*
X475000Y9524202D02*
X424200Y9625802D01*
X525800D01*
X475000Y9524202D01*
X375001Y9624202D02*
X324201Y9725802D01*
X425801D01*
X375001Y9624202D01*
X275001D02*
X224201Y9725802D01*
X325801D01*
X275001Y9624202D01*
X375001Y9524202D02*
X324201Y9625802D01*
X425801D01*
X375001Y9524202D01*
X475000Y9324198D02*
X424200Y9425798D01*
X525800D01*
X475000Y9324198D01*
X275001Y9224198D02*
X224201Y9325798D01*
X325801D01*
X275001Y9224198D01*
Y9324198D02*
X224201Y9425798D01*
X325801D01*
X275001Y9324198D01*
X175001D02*
X124201Y9425798D01*
X225801D01*
X175001Y9324198D01*
Y9224198D02*
X124201Y9325798D01*
X225801D01*
X175001Y9224198D01*
X375001D02*
X324201Y9325798D01*
X425801D01*
X375001Y9224198D01*
Y9324198D02*
X324201Y9425798D01*
X425801D01*
X375001Y9324198D01*
X475000Y9224198D02*
X424200Y9325798D01*
X525800D01*
X475000Y9224198D01*
D101*
X3724798Y1460002D02*
G03*
X3724798Y1460002I-50800J0D01*
G01*
X3470798D02*
G03*
X3470798Y1460002I-50800J0D01*
G01*
X3216798D02*
G03*
X3216798Y1460002I-50800J0D01*
G01*
X3724798Y930001D02*
G03*
X3724798Y930001I-50800J0D01*
G01*
X3470798D02*
G03*
X3470798Y930001I-50800J0D01*
G01*
X3216798D02*
G03*
X3216798Y930001I-50800J0D01*
G01*
X306802Y1460002D02*
G03*
X306802Y1460002I-50800J0D01*
G01*
X560802D02*
G03*
X560802Y1460002I-50800J0D01*
G01*
X814802D02*
G03*
X814802Y1460002I-50800J0D01*
G01*
X306802Y930001D02*
G03*
X306802Y930001I-50800J0D01*
G01*
X560802D02*
G03*
X560802Y930001I-50800J0D01*
G01*
X814802D02*
G03*
X814802Y930001I-50800J0D01*
G01*
%TF.MD5,001ccc789fa56e25ee0648612d888482*%
M02*
